<svg width="302" height="130" viewBox="0 0 302 130" fill="none" xmlns="http://www.w3.org/2000/svg">
<path d="M122.809 22.4255C122.757 22.5091 135.269 30.0758 135.217 30.1591C134.812 30.8092 125.202 26.1706 124.797 26.8204C124.683 27.0017 134.429 32.5728 134.317 32.7541C133.86 33.4861 123.888 26.2425 123.432 26.9749C123.319 27.1562 133.664 33.1005 133.551 33.2819C133.103 34.0015 122.386 29.1233 121.938 29.8426C121.825 30.0243 131.906 35.8035 131.792 35.9852C131.363 36.6742 122.251 29.3611 121.822 30.0504C121.708 30.2314 130.77 35.3759 130.658 35.5576C130.272 36.1757 120.978 32.2976 120.592 32.916C120.479 33.097 128.186 37.397 128.073 37.5783C127.696 38.183 118.765 33.853 118.388 34.4573C118.275 34.639 131.267 42.2329 131.154 42.4142C130.795 42.9906 122.118 39.4124 121.759 39.9889C121.646 40.1702 126.814 42.888 126.702 43.0693C126.496 43.3995 121.459 43.8451 121.254 44.1753C121.14 44.3566 126.92 47.4551 126.807 47.6364C126.474 48.1694 118.782 43.8366 118.45 44.3697C118.337 44.551 124.171 47.6833 124.058 47.8646C123.77 48.3261 116.759 45.73 116.471 46.1914C116.358 46.3727 124.854 51.1642 124.741 51.3455C124.518 51.7032 118.987 51.7293 118.764 52.087C118.65 52.2684 128.755 58.0627 128.642 58.2441C128.097 59.1175 115.725 51.4527 115.18 52.3262C115.067 52.5075 122.842 56.8499 122.729 57.0309C122.534 57.3434 117.802 55.5121 117.608 55.8247C117.495 56.0057 123.087 58.9881 122.974 59.1694C122.559 59.8351 112.76 54.9449 112.345 55.6109C112.232 55.7922 120.913 60.6997 120.8 60.8811C120.44 61.4596 112.074 56.7987 111.714 57.3773C111.601 57.5586 123.529 64.4896 123.416 64.671C123.114 65.1557 115.823 62.149 115.521 62.6333C115.408 62.8146 121.27 65.9649 121.157 66.1463C120.814 66.697 113.587 60.7699 113.244 61.3206C113.131 61.502 125.372 68.6277 125.258 68.809C124.837 69.486 114.829 64.6579 114.407 65.3349C114.294 65.5162 123.773 70.9208 123.661 71.1021C123.237 71.7823 113.304 66.5664 112.88 67.2466C112.767 67.4276 121.328 72.2599 121.214 72.4412C120.938 72.8847 114.364 69.7654 114.088 70.2092C113.975 70.3902 122.469 75.1809 122.356 75.3622C121.849 76.1747 110.583 68.5169 110.077 69.3297C109.964 69.5111 119.996 75.2603 119.883 75.4416C119.65 75.8152 113.827 75.1403 113.594 75.5139C113.48 75.6949 120.805 79.7568 120.692 79.9381C120.341 80.5015 112.106 76.1927 111.755 76.7561C111.641 76.9374 117.21 79.905 117.097 80.0859C116.754 80.6363 108.344 77.7841 108.001 78.3344C107.888 78.5157 121.183 86.2983 121.07 86.4796C120.636 87.1749 110.45 81.9296 110.017 82.6249C109.965 82.7074 117.925 87.4391 117.874 87.5217" stroke="#CEB341" stroke-width="1.6517" stroke-linecap="round" stroke-linejoin="round"/>
<path d="M126.441 27.9368C126.537 27.9837 127.946 24.7367 127.987 24.7568C128.148 24.8352 126.64 27.4768 126.701 27.5064C126.745 27.5276 129.689 21.2597 129.729 21.2792C130.742 21.772 126.726 32.7063 127.951 33.3022C128.249 33.4472 133.214 21.8499 133.462 21.9702C133.855 22.1611 133.582 30.4411 134.05 30.6683C134.133 30.7089 137.384 22.897 137.744 23.072C138.543 23.4607 133.855 30.7107 134.496 31.0229C134.558 31.0529 139.26 20.7168 139.461 20.8142C139.787 20.9726 138.687 26.8365 138.912 26.9455C139.254 27.112 141.889 20.3732 142.066 20.4596C142.698 20.7666 137.182 32.4336 138.388 33.0199C138.648 33.1469 145.173 18.4703 145.408 18.5846C145.587 18.6718 143.797 24.657 144.465 24.9819C144.765 25.128 145.947 21.6986 146.04 21.7438C147.481 22.4447 140.128 33.4133 140.643 33.6638C140.869 33.7735 148.408 16.9354 148.708 17.0811C149.628 17.5288 144.793 31.8844 145.638 32.295C145.808 32.3779 153.491 15.5388 153.73 15.6552C154.134 15.8517 145.038 34.0663 145.655 34.3661C145.95 34.5094 151.847 20.7814 152.182 20.9444C153.143 21.4118 148.929 32.8919 150.017 33.4207C150.299 33.5583 155.715 21.107 155.95 21.2209C156.791 21.6298 154.773 31.1442 155.432 31.4646C155.538 31.5161 159.404 22.6709 159.65 22.7908C160.336 23.1245 157.594 28.5961 158.254 28.9171C158.345 28.9619 164.503 15.73 164.635 15.7945C164.817 15.8831 162.174 26.9434 163.035 27.3621C163.147 27.4164 169.499 13.1335 169.867 13.3127C171.434 14.0751 163.672 26.4914 164.299 26.7966C164.636 26.9599 167.365 19.7266 167.666 19.873C167.892 19.9827 164.491 27.5216 165.376 27.9523C165.471 27.9985 172.18 13.3932 172.403 13.5022C172.655 13.6242 167.068 23.7264 168.213 24.2834C168.358 24.354 169.649 20.5482 169.957 20.6974C170.842 21.1278 168.048 28.8917 168.426 29.0759C168.715 29.2163 174.659 15.3052 175.034 15.4876C175.2 15.568 173.904 24.3907 174.027 24.4506C174.308 24.5871 176.206 19.7354 176.298 19.7802C176.824 20.036 177.779 24.3511 178.032 24.4739C178.184 24.548 183.325 12.8626 183.611 13.0012C184.243 13.3088 178.899 27.8066 179.906 28.2959C180.025 28.3538 185.557 15.9822 185.829 16.1148C186.046 16.2203 179.906 28.3502 180.352 28.5668C180.565 28.6706 186.301 15.4319 186.656 15.6044C186.828 15.688 183.021 27.1176 183.497 27.3487C183.661 27.4288 189.456 14.7468 189.593 14.8131C191.032 15.5134 181.263 30.6849 182.56 31.3157C182.649 31.3591 188.72 18.3589 188.834 18.4142C189.203 18.5938 184.174 25.8783 185.126 26.3412C185.173 26.3637 189.602 17.0289 189.644 17.049" stroke="#CEB341" stroke-width="1.6517" stroke-linecap="round" stroke-linejoin="round"/>
<path d="M184.173 26.5494C184.358 26.688 193.548 13.6959 193.732 13.8345C194.591 14.4798 186.011 26.9152 186.869 27.5608C187.059 27.7033 193.011 18.9967 193.2 19.1393C193.865 19.6384 186.55 28.8907 187.214 29.3899C187.403 29.5325 192.313 22.213 192.503 22.3552C192.938 22.6829 188.065 28.7105 188.501 29.0382C188.69 29.1804 195.964 18.7159 196.153 18.8581C196.969 19.4716 187.667 30.6426 188.483 31.2554C188.672 31.3979 192.344 25.726 192.533 25.8681C193.148 26.3303 189.149 36.0373 189.764 36.4995C189.954 36.6416 195.116 28.9864 195.305 29.1289C195.841 29.5314 189.645 36.8117 190.181 37.2142C190.37 37.3567 195.2 30.1435 195.389 30.2856C195.884 30.6575 192.603 38.4447 193.098 38.8162C193.287 38.9587 199.045 30.5114 199.234 30.6536C200.109 31.3115 189.033 42.5507 189.908 43.2086C190.097 43.3508 197.089 33.2613 197.279 33.4035C197.893 33.8649 193.643 43.4883 194.257 43.9498C194.446 44.0919 199.885 36.0687 200.074 36.2112C200.891 36.8251 192.582 48.5761 193.398 49.1899C193.588 49.3321 199.664 40.4612 199.853 40.6033C200.592 41.1593 193.55 52.0358 194.29 52.5914C194.479 52.7339 199.922 44.7047 200.112 44.8472C200.525 45.158 197.357 51.5437 197.771 51.8541C197.96 51.9966 203.317 44.0828 203.506 44.2253C204.437 44.9252 196.049 58.8381 196.98 59.5383C197.17 59.6808 204.111 49.6588 204.3 49.8013C205.06 50.3724 196.979 61.1241 197.739 61.6952C197.929 61.8377 203.648 53.4406 203.838 53.5827C204.594 54.1514 198.187 65.6132 198.943 66.1815C199.133 66.324 207.428 54.5007 207.617 54.6432C208.28 55.1416 200.504 64.0867 201.167 64.5852C201.357 64.7277 206.903 56.5602 207.093 56.7027C207.907 57.3148 198.459 68.3687 199.274 68.9811C199.463 69.1236 208.47 56.3538 208.659 56.496C209.613 57.2132 200.462 71.217 201.416 71.9342C201.606 72.0767 207.562 63.3638 207.752 63.5064C208.292 63.9124 202.068 71.2696 202.609 71.6756C202.798 71.8182 212.197 58.5262 212.387 58.6684C213.362 59.4018 202.657 73.0141 203.633 73.7475C203.822 73.8897 209.274 65.8485 209.463 65.991C209.919 66.3332 204.263 72.2584 204.718 72.6006C204.908 72.7431 211.447 63.2552 211.637 63.3977C212.24 63.8517 204.858 71.7949 205.462 72.2489C205.651 72.3914 209.081 67.0401 209.27 67.1823C209.937 67.6836 201.854 76.5013 202.521 77.0026C202.71 77.1451 209.409 67.4458 209.598 67.5884C209.94 67.8452 206.668 72.8634 207.009 73.1203C207.199 73.2628 211.411 66.8697 211.601 67.0123C212.401 67.6138 204.418 79.2124 205.219 79.8139C205.408 79.9564 210.915 71.8425 211.104 71.985C211.517 72.2955 207.461 78.3093 207.874 78.6197C208.064 78.7619 212.215 72.4514 212.404 72.5939C213.109 73.1234 205.644 83.1066 206.349 83.6365C206.493 83.7448 213.665 73.6029 213.81 73.7115C214.283 74.0671 208.696 80.4224 209.169 80.7784C209.245 80.8352 213.573 74.7628 213.648 74.8199C213.995 75.0806 209.724 79.6216 210.07 79.8823C210.123 79.9218 216.474 71.2541 216.527 71.2936" stroke="#CEB341" stroke-width="1.6517" stroke-linecap="round" stroke-linejoin="round"/>
<path d="M186.167 21.8784C186.214 21.9137 189.982 16.7063 190.029 16.7412C190.738 17.2739 182.043 26.5707 182.751 27.1034C182.844 27.1732 191.229 15.6314 191.322 15.7012" stroke="#CEB341" stroke-width="1.6517" stroke-linecap="round" stroke-linejoin="round"/>
<path d="M167.113 121.215C167.191 121.175 163.148 113.699 163.246 113.648C163.867 113.331 171.225 120.677 171.951 120.306C172.137 120.211 166.908 110.883 167.089 110.791C167.479 110.592 172.635 114.366 173.01 114.175C173.191 114.082 169.95 108.618 170.125 108.528C170.648 108.261 174.315 116.978 174.869 116.696C175.034 116.611 168.366 104.381 168.532 104.295C169.229 103.939 175.44 112.54 176.118 112.194C176.283 112.11 170.478 101.62 170.666 101.524C171.501 101.097 179.812 111.778 180.651 111.349C180.86 111.242 174.502 99.7678 174.685 99.6736C175.298 99.3607 181.345 106.835 182.041 106.479C182.205 106.395 176.683 96.5152 176.895 96.4069C177.78 95.9542 186.147 108.242 187.171 107.719C187.339 107.633 182.12 98.3006 182.309 98.2039C182.998 97.8518 187.616 107.118 188.252 106.792C188.439 106.697 182.311 95.587 182.482 95.4995C183.035 95.2169 187.247 104.342 187.818 104.05C188.01 103.952 182.479 94.0009 182.641 93.9184C183.246 93.609 190.075 100.958 190.788 100.594C190.959 100.507 186.107 91.935 186.311 91.8313C186.944 91.5075 193.135 98.5302 193.805 98.1884C193.968 98.1048 187.993 87.2244 188.159 87.1397C188.939 86.7411 195.778 97.5735 196.606 97.1505C196.768 97.068 191.738 88.1466 191.95 88.0386C192.494 87.7606 197.432 94.2934 197.898 94.0549C198.08 93.9621 192.497 83.9721 192.695 83.8709C193.647 83.3848 200.215 95.9772 201.13 95.5097C201.307 95.4187 194.519 82.9875 194.687 82.9015C195.563 82.4539 201.485 94.6574 202.302 94.2404C202.497 94.1406 195.399 81.1924 195.585 81.0971C196.393 80.6847 201.762 91.0206 202.557 90.6142C202.748 90.5172 197.625 81.4023 197.804 81.3109C198.489 80.9606 205.108 89.304 205.779 88.9615C205.946 88.8765 199.69 77.4508 199.854 77.3668C200.849 76.8585 207.707 89.3859 208.67 88.8934C208.836 88.8087 202.436 77.2091 202.645 77.1022C203.219 76.8087 207.048 86.0514 207.618 85.7604C207.811 85.6616 202.041 75.3013 202.225 75.2071C203.314 74.6508 210.657 88.1325 211.629 87.6361C211.83 87.5331 204.443 74.0447 204.634 73.9474C205.221 73.6471 212.082 80.5778 212.706 80.2589C212.795 80.2134 208.207 71.6409 208.283 71.6024" stroke="#CEB341" stroke-width="1.2365" stroke-linecap="round" stroke-linejoin="round"/>
<path d="M111.708 86.9176C111.867 87.046 119.572 76.8578 119.731 76.9866C120.418 77.5415 112.438 87.1821 113.126 87.7374C113.285 87.8658 116.707 82.9788 116.866 83.1072C117.105 83.3002 114.96 86.9676 115.199 87.1603C115.358 87.289 116.952 84.6644 117.111 84.7928C117.358 84.9917 117.702 89.0342 117.947 89.2328C118.106 89.3612 119.763 86.6597 119.922 86.7884C120.254 87.0565 120.062 92.5945 120.394 92.8626C120.553 92.9913 126.234 85.3075 126.393 85.4359C127.081 85.9915 119.099 95.6456 119.787 96.2009C119.946 96.3297 128.678 84.8693 128.838 84.9981C129.576 85.5946 123.164 97.0303 123.902 97.6268C124.061 97.7552 133.48 85.4451 133.639 85.5735C134.726 86.4508 123.848 102.639 124.934 103.516C125.093 103.645 136.492 88.8843 136.651 89.0127C137.553 89.7419 129.345 103.573 130.248 104.302C130.407 104.431 140.317 91.5128 140.476 91.6412C141.205 92.2307 133.47 102.886 134.2 103.475C134.359 103.604 138.563 97.7478 138.722 97.8762C139.159 98.229 133.639 104.052 134.076 104.404C134.235 104.533 142.269 93.9368 142.428 94.0652C143.249 94.7288 133.408 106.061 134.229 106.725C134.388 106.854 139.759 99.5548 139.918 99.6835C140.4 100.073 136.197 107.545 136.68 107.935C136.839 108.063 142.23 100.739 142.39 100.867C142.948 101.318 136.458 109.15 137.016 109.601C137.176 109.73 144.158 100.436 144.317 100.565C144.802 100.956 142.596 108.984 143.08 109.375C143.239 109.504 150.969 99.2845 151.128 99.4129C151.758 99.9216 147.276 110.011 147.906 110.519C148.065 110.648 151.102 106.237 151.261 106.366C151.753 106.763 149.591 114.919 150.082 115.316C150.241 115.445 158.888 104.091 159.047 104.22C159.735 104.776 153.114 115.166 153.802 115.722C153.961 115.851 162.069 105.164 162.228 105.293C163.177 106.06 151.76 119.128 152.709 119.895C152.868 120.024 162.949 106.894 163.108 107.023C163.872 107.639 155.591 118.691 156.354 119.307C156.513 119.436 163.201 110.507 163.36 110.635C163.888 111.062 160.218 119.547 160.745 119.974C160.905 120.102 165.953 113.202 166.112 113.33C166.529 113.667 161.651 119.485 162.067 119.821C162.226 119.949 165.829 114.838 165.988 114.967" stroke="#CEB341" stroke-width="1.6517" stroke-linecap="round" stroke-linejoin="round"/>
<path d="M90.3799 -5.74512C90.2909 -5.60184 111.735 7.36643 111.646 7.50919C110.952 8.62337 94.481 0.673461 93.7869 1.78713C93.5927 2.09785 110.296 11.6459 110.103 11.9567C109.321 13.2112 92.23 0.79669 91.4476 2.05192C91.2541 2.36264 108.985 12.5503 108.792 12.8612C108.023 14.0945 89.6556 5.73397 88.8871 6.96675C88.6936 7.27815 105.971 17.1829 105.777 17.4943C105.04 18.6752 89.4239 6.14153 88.6881 7.32289C88.4941 7.6331 104.025 16.45 103.832 16.7615C103.171 17.8208 87.242 11.1743 86.5811 12.2341C86.3876 12.5443 99.596 19.9139 99.4018 20.2247C98.7562 21.261 83.4492 13.84 82.8034 14.8757C82.6094 15.1871 104.877 28.202 104.683 28.5127C104.067 29.5006 89.1966 23.3681 88.5812 24.3561C88.3877 24.6668 97.2453 29.3247 97.0518 29.6355C96.6987 30.2014 88.0672 30.9651 87.7147 31.531C87.5206 31.8417 97.4254 37.1521 97.2319 37.4628C96.6624 38.3763 83.4794 30.9505 82.9105 31.8642C82.7164 32.1749 92.7148 37.5432 92.5208 37.8539C92.0281 38.6449 80.0114 34.1955 79.5186 34.9863C79.3245 35.297 93.8847 43.509 93.6912 43.8197C93.3092 44.4327 83.8295 44.4775 83.4473 45.0905C83.2533 45.4014 100.571 55.332 100.378 55.6429C99.4441 57.1398 78.2392 44.0034 77.3057 45.5005C77.1122 45.8112 90.4366 53.2535 90.2433 53.5637C89.9094 54.0992 81.7998 50.9607 81.4661 51.4964C81.2726 51.8066 90.8575 56.918 90.6633 57.2288C89.9518 58.3697 73.1575 49.9886 72.4459 51.13C72.2524 51.4407 87.1313 59.8515 86.9378 60.1624C86.3199 61.1538 71.9828 53.1657 71.3648 54.1574C71.1708 54.4681 91.6145 66.3468 91.4211 66.6577C90.9035 67.4884 78.4067 62.3354 77.8891 63.1654C77.6958 63.4761 87.7431 68.8753 87.5491 69.1862C86.9614 70.13 74.5747 59.9718 73.987 60.9156C73.793 61.2265 94.7723 73.439 94.5783 73.7497C93.8558 74.91 76.7036 66.6353 75.9804 67.7956C75.7869 68.1063 92.0334 77.369 91.8399 77.6797C91.1132 78.8455 74.0903 69.9062 73.3637 71.0719C73.1702 71.3821 87.8417 79.664 87.6476 79.9748C87.1743 80.7348 75.9072 75.3888 75.4333 76.1494C75.2398 76.4596 89.797 84.6702 89.6035 84.9809C88.7353 86.3735 69.4271 73.2491 68.5594 74.6421C68.3654 74.953 85.5586 84.8063 85.3651 85.117C84.9661 85.7573 74.9858 84.6006 74.5868 85.2409C74.3927 85.5511 86.9463 92.5127 86.7522 92.8234C86.1501 93.789 72.0366 86.4043 71.4349 87.3699C71.2409 87.6806 80.7847 92.7666 80.5912 93.0767C80.003 94.02 65.5889 89.1317 65.0012 90.0749C64.8077 90.3856 87.5931 103.724 87.3997 104.035C86.6567 105.226 69.1997 96.2365 68.4567 97.4282C68.3684 97.5696 82.0103 105.679 81.922 105.821" stroke="#5E9E44" stroke-width="1.6517" stroke-linecap="round" stroke-linejoin="round"/>
<path d="M96.6048 3.70045C96.77 3.78083 99.1842 -1.78407 99.2549 -1.74962C99.5312 -1.61526 96.9459 2.91207 97.0504 2.9628C97.1255 2.99914 102.172 -7.74317 102.24 -7.70975C103.977 -6.86516 97.0934 11.8747 99.1937 12.896C99.7034 13.1445 108.214 -6.73164 108.638 -6.52546C109.311 -6.19829 108.845 7.99246 109.646 8.38185C109.789 8.45143 115.361 -4.93707 115.977 -4.63714C117.347 -3.97096 109.311 8.45451 110.411 8.98958C110.516 9.041 118.576 -8.67363 118.919 -8.5067C119.478 -8.23522 117.594 1.81468 117.979 2.00149C118.564 2.28684 123.08 -9.26251 123.384 -9.11443C124.467 -8.58827 115.014 11.4073 117.08 12.4122C117.527 12.6298 128.708 -12.5238 129.111 -12.3279C129.418 -12.1785 126.351 -1.92067 127.496 -1.36384C128.01 -1.11344 130.036 -6.99096 130.195 -6.91349C132.665 -5.71225 120.063 13.0864 120.946 13.5157C121.332 13.7037 134.254 -15.1544 134.767 -14.9047C136.344 -14.1374 128.058 10.4661 129.505 11.1698C129.797 11.3119 142.965 -17.548 143.374 -17.3485C144.066 -17.0117 128.478 14.2055 129.536 14.7194C130.041 14.965 140.148 -8.5629 140.722 -8.28354C142.369 -7.48248 135.147 12.1928 137.011 13.0991C137.495 13.3349 146.777 -8.00488 147.179 -7.80967C148.62 -7.10887 145.162 9.19747 146.291 9.74659C146.473 9.83485 153.099 -5.32457 153.521 -5.11908C154.697 -4.54716 149.996 4.83039 151.127 5.38053C151.285 5.45731 161.838 -17.2203 162.065 -17.1097C162.377 -16.9579 157.847 1.99789 159.322 2.71548C159.515 2.80855 170.4 -21.6703 171.032 -21.3632C173.717 -20.0566 160.414 1.22323 161.489 1.7463C162.065 2.02617 166.743 -10.3707 167.259 -10.1198C167.646 -9.93177 161.817 2.98885 163.335 3.72701C163.497 3.80619 174.995 -21.2252 175.378 -21.0384C175.809 -20.8293 166.234 -3.5156 168.196 -2.56098C168.445 -2.43998 170.658 -8.96258 171.185 -8.70687C172.702 -7.96922 167.913 5.337 168.562 5.65269C169.057 5.89332 179.245 -17.9483 179.888 -17.6357C180.172 -17.4979 177.95 -2.37707 178.161 -2.27441C178.643 -2.04047 181.895 -10.3556 182.053 -10.2788C182.954 -9.84041 184.592 -2.44494 185.024 -2.23447C185.286 -2.10748 194.097 -22.1346 194.586 -21.8971C195.67 -21.3699 186.512 3.47729 188.236 4.31588C188.44 4.41511 197.921 -16.7881 198.388 -16.5608C198.76 -16.38 188.237 4.40896 189.001 4.78018C189.366 4.95808 199.197 -17.7312 199.805 -17.4356C200.1 -17.2923 193.576 2.29645 194.39 2.69252C194.671 2.8298 204.603 -18.9054 204.839 -18.7917C207.305 -17.5915 190.563 8.4103 192.785 9.4914C192.938 9.56578 203.343 -12.7147 203.537 -12.62C204.171 -12.3121 195.552 0.172461 197.182 0.965807C197.263 1.00437 204.855 -14.9942 204.927 -14.9597" stroke="#5E9E44" stroke-width="1.6517" stroke-linecap="round" stroke-linejoin="round"/>
<path d="M195.551 1.32249C195.866 1.56003 211.617 -20.7066 211.932 -20.4691C213.404 -19.3631 198.699 1.94941 200.171 3.05588C200.496 3.30011 210.697 -11.6218 211.021 -11.3774C212.16 -10.522 199.623 5.33515 200.762 6.1907C201.086 6.4351 209.501 -6.1095 209.825 -5.86579C210.572 -5.30416 202.219 5.02631 202.967 5.58794C203.291 5.83165 215.758 -12.103 216.082 -11.8593C217.48 -10.8079 201.539 8.33765 202.936 9.38791C203.261 9.63213 209.553 -0.0887154 209.877 0.154824C210.931 0.94697 204.079 17.5834 205.132 18.3756C205.457 18.6191 214.304 5.49915 214.628 5.74338C215.547 6.43321 204.929 18.9106 205.846 19.6004C206.17 19.8447 214.448 7.48226 214.773 7.7258C215.62 8.36318 209.998 21.7094 210.845 22.3461C211.17 22.5903 221.038 8.1128 221.362 8.35651C222.862 9.48406 203.879 28.7465 205.378 29.874C205.703 30.1177 217.687 12.8257 218.011 13.0694C219.063 13.8602 211.78 30.3534 212.832 31.1443C213.157 31.3879 222.477 17.6372 222.802 17.8814C224.202 18.9336 209.961 39.0731 211.361 40.1251C211.685 40.3688 222.098 25.1654 222.423 25.4089C223.69 26.3618 211.621 45.0026 212.888 45.9548C213.213 46.199 222.542 32.4381 222.866 32.6823C223.575 33.215 218.146 44.1592 218.854 44.6912C219.179 44.9354 228.359 31.3723 228.683 31.6165C230.279 32.816 215.903 56.6608 217.5 57.8608C217.824 58.105 229.721 40.9287 230.045 41.173C231.348 42.1517 217.497 60.5786 218.8 61.5574C219.125 61.8017 228.928 47.4102 229.252 47.6537C230.548 48.6284 219.568 68.2723 220.864 69.2463C221.189 69.4906 235.405 49.2271 235.73 49.4713C236.866 50.3255 223.539 65.6561 224.675 66.5105C225 66.7547 234.506 52.7568 234.831 53.001C236.227 54.05 220.034 72.9949 221.43 74.0444C221.755 74.2887 237.191 52.403 237.516 52.6467C239.151 53.8759 223.467 77.8765 225.101 79.1056C225.427 79.3499 235.636 64.4172 235.96 64.6616C236.886 65.3574 226.22 77.9666 227.146 78.6624C227.47 78.9068 243.58 56.1262 243.904 56.3699C245.576 57.6269 227.229 80.9564 228.901 82.2134C229.225 82.4571 238.57 68.6756 238.894 68.9198C239.674 69.5063 229.981 79.6613 230.762 80.2477C231.087 80.492 242.294 64.231 242.619 64.4753C243.653 65.2534 231.001 78.8669 232.036 79.645C232.36 79.8892 238.238 70.7179 238.563 70.9616C239.706 71.8207 225.853 86.933 226.996 87.7922C227.32 88.0364 238.8 71.4132 239.125 71.6575C239.711 72.0977 234.102 80.6981 234.688 81.1384C235.013 81.3827 242.232 70.4258 242.557 70.6702C243.929 71.7011 230.247 91.5795 231.619 92.6103C231.944 92.8546 241.381 78.9485 241.706 79.1927C242.413 79.7249 235.463 90.0317 236.171 90.5637C236.495 90.8074 243.609 79.992 243.934 80.2363C245.141 81.1438 232.348 98.2536 233.556 99.1617C233.803 99.3474 246.095 81.9656 246.343 82.1517C247.153 82.7611 237.579 93.6532 238.39 94.2634C238.52 94.3607 245.936 83.9535 246.066 84.0513C246.661 84.4981 239.34 92.2808 239.934 92.7276C240.025 92.7953 250.91 77.9401 251 78.0077" stroke="#5E9E44" stroke-width="1.6517" stroke-linecap="round" stroke-linejoin="round"/>
<path d="M198.968 -6.68276C199.048 -6.62226 205.506 -15.547 205.586 -15.4872C206.8 -14.5742 191.899 1.35918 193.113 2.27216C193.272 2.39179 207.643 -17.3892 207.803 -17.2696" stroke="#5E9E44" stroke-width="1.6517" stroke-linecap="round" stroke-linejoin="round"/>
<path d="M166.311 163.565C166.444 163.497 159.516 150.684 159.685 150.598C160.749 150.054 173.359 162.644 174.603 162.008C174.922 161.845 165.96 145.859 166.271 145.701C166.939 145.36 175.776 151.828 176.419 151.5C176.728 151.342 171.173 141.976 171.474 141.822C172.37 141.364 178.655 156.305 179.603 155.82C179.888 155.675 168.458 134.714 168.744 134.568C169.938 133.957 180.583 148.699 181.745 148.105C182.028 147.961 172.079 129.983 172.401 129.818C173.832 129.087 188.076 147.392 189.514 146.657C189.873 146.474 178.975 126.809 179.29 126.647C180.34 126.111 190.702 138.921 191.896 138.311C192.176 138.167 182.712 121.234 183.076 121.049C184.593 120.273 198.933 141.333 200.688 140.436C200.976 140.288 192.032 124.294 192.355 124.128C193.537 123.525 201.451 139.405 202.541 138.848C202.861 138.684 192.358 119.643 192.651 119.493C193.6 119.009 200.819 134.647 201.796 134.148C202.126 133.979 192.647 116.925 192.924 116.784C193.962 116.253 205.666 128.849 206.887 128.225C207.18 128.075 198.865 113.384 199.213 113.207C200.299 112.652 210.91 124.688 212.057 124.102C212.336 123.958 202.096 105.311 202.381 105.166C203.718 104.483 215.439 123.048 216.858 122.323C217.135 122.182 208.516 106.892 208.878 106.706C209.81 106.23 218.273 117.426 219.073 117.018C219.384 116.858 209.816 99.737 210.155 99.5636C211.786 98.7305 223.043 120.312 224.611 119.511C224.916 119.355 213.281 98.0496 213.57 97.9022C215.071 97.1351 225.22 118.05 226.62 117.335C226.954 117.164 214.79 94.973 215.109 94.8097C216.493 94.1029 225.695 111.817 227.058 111.121C227.384 110.954 218.604 95.3328 218.911 95.1761C220.086 94.5757 231.43 108.875 232.579 108.288C232.865 108.142 222.144 88.5604 222.426 88.4165C224.13 87.5453 235.884 109.016 237.535 108.171C237.819 108.026 226.85 88.1462 227.209 87.963C228.192 87.46 234.754 103.301 235.731 102.802C236.061 102.633 226.174 84.8765 226.489 84.7151C228.355 83.7616 240.94 106.867 242.605 106.017C242.95 105.84 230.29 82.7229 230.617 82.5561C231.623 82.0414 243.383 93.9197 244.451 93.3731C244.604 93.2952 236.742 78.6031 236.87 78.5371" stroke="#5E9E44" stroke-width="1.2365" stroke-linecap="round" stroke-linejoin="round"/>
<path d="M71.3552 104.785C71.6279 105.005 84.8332 87.5441 85.1059 87.7649C86.2831 88.7159 72.6069 105.239 73.7846 106.19C74.0573 106.41 79.922 98.0347 80.1953 98.2547C80.6041 98.5855 76.9292 104.871 77.338 105.201C77.6106 105.422 80.3429 100.924 80.6155 101.144C81.0375 101.484 81.6271 108.413 82.0483 108.753C82.321 108.973 85.1604 104.343 85.433 104.564C86.002 105.023 85.6718 114.515 86.2408 114.974C86.5135 115.195 96.2507 102.026 96.5234 102.246C97.7024 103.198 84.0225 119.744 85.2008 120.695C85.4742 120.916 100.439 101.275 100.713 101.495C101.978 102.518 90.9888 122.117 92.2537 123.139C92.5269 123.359 108.669 102.262 108.942 102.482C110.804 103.985 92.1611 131.729 94.0222 133.233C94.2949 133.453 113.83 108.156 114.103 108.376C115.65 109.626 101.583 133.33 103.129 134.58C103.402 134.801 120.387 112.661 120.66 112.881C121.909 113.891 108.653 132.153 109.902 133.163C110.175 133.383 117.381 123.347 117.654 123.567C118.402 124.171 108.942 134.15 109.69 134.754C109.963 134.975 123.732 116.815 124.005 117.035C125.412 118.173 108.545 137.595 109.952 138.732C110.226 138.953 119.43 126.444 119.702 126.664C120.529 127.332 113.326 140.137 114.153 140.805C114.426 141.026 123.666 128.473 123.939 128.693C124.896 129.466 113.773 142.889 114.73 143.662C115.003 143.883 126.969 127.954 127.242 128.175C128.073 128.845 124.292 142.604 125.123 143.274C125.395 143.495 138.643 125.98 138.916 126.2C139.995 127.072 132.313 144.364 133.393 145.235C133.665 145.456 138.87 137.897 139.144 138.117C139.986 138.798 136.28 152.776 137.123 153.456C137.396 153.677 152.214 134.219 152.487 134.439C153.666 135.392 142.318 153.199 143.498 154.152C143.771 154.373 157.666 136.057 157.939 136.278C159.566 137.592 139.999 159.99 141.625 161.304C141.898 161.524 159.175 139.022 159.448 139.243C160.756 140.299 146.565 159.24 147.873 160.297C148.145 160.518 159.607 145.214 159.879 145.434C160.785 146.165 154.494 160.708 155.398 161.439C155.671 161.659 164.324 149.832 164.597 150.053C165.311 150.629 156.949 160.6 157.663 161.177C157.936 161.397 164.111 152.638 164.384 152.858" stroke="#5E9E44" stroke-width="1.6517" stroke-linecap="round" stroke-linejoin="round"/>
<path d="M41.9353 -50.9452C41.7918 -50.7141 76.3794 -29.7975 76.2351 -29.5673C75.1156 -27.7702 48.55 -40.5926 47.4304 -38.7964C47.1172 -38.2952 74.0585 -22.8951 73.7464 -22.3939C72.4848 -20.3705 44.9193 -40.3939 43.6574 -38.3693C43.3454 -37.8682 71.9436 -21.4364 71.6315 -20.9349C70.392 -18.9458 40.7671 -32.4305 39.5276 -30.4422C39.2155 -29.9399 67.0823 -13.9645 66.7691 -13.4622C65.5813 -11.5576 40.3934 -31.7732 39.2067 -29.8678C38.8937 -29.3674 63.944 -15.1465 63.6319 -14.6443C62.5663 -12.9357 36.8742 -23.6558 35.8082 -21.9464C35.4962 -21.4461 56.8 -9.55963 56.4868 -9.05847C55.4455 -7.3869 30.7568 -19.3563 29.7152 -17.6858C29.4023 -17.1835 65.317 3.80819 65.0041 4.30935C64.0115 5.90269 40.0268 -3.98847 39.0342 -2.39486C38.7221 -1.89369 53.0085 5.61909 52.6964 6.12026C52.1269 7.03303 38.2052 8.26478 37.6365 9.17755C37.3236 9.67872 53.299 18.2439 52.9869 18.745C52.0683 20.2184 30.8054 8.2413 29.888 9.71494C29.5748 10.2161 45.7014 18.8747 45.3884 19.3758C44.5937 20.6516 25.2119 13.4752 24.4172 14.7506C24.104 15.2518 47.5883 28.4969 47.2762 28.998C46.66 29.9868 31.3702 30.059 30.7538 31.0478C30.4408 31.5492 58.3729 47.5663 58.0608 48.0678C56.5551 50.4821 22.3536 29.2944 20.8479 31.709C20.5358 32.2102 42.0268 44.2138 41.715 44.7141C41.1765 45.578 28.0964 40.5158 27.5582 41.3799C27.2461 41.8802 42.7057 50.1244 42.3925 50.6256C41.2448 52.4658 14.1572 38.9478 13.0095 40.7888C12.6974 41.29 36.6956 54.8558 36.3835 55.3572C35.387 56.9564 12.2626 44.0723 11.2658 45.6717C10.9529 46.1729 43.9267 65.3322 43.6146 65.8336C42.7798 67.1734 22.6237 58.862 21.7889 60.2008C21.4771 60.702 37.6824 69.4103 37.3695 69.9117C36.4216 71.434 16.443 55.0498 15.4951 56.5721C15.1822 57.0736 49.0199 76.7711 48.707 77.2722C47.5415 79.1436 19.8768 65.7974 18.7103 67.6688C18.3982 68.17 44.6023 83.1098 44.2902 83.611C43.1181 85.4913 15.6618 71.073 14.4898 72.9533C14.1777 73.4536 37.8414 86.8115 37.5285 87.3127C36.765 88.5386 18.5923 79.916 17.8279 81.1428C17.5158 81.6431 40.9952 94.886 40.6831 95.3872C39.2827 97.6332 8.14048 76.4648 6.74092 78.7116C6.428 79.213 34.1591 95.1055 33.847 95.6066C33.2035 96.6394 17.1062 94.7738 16.4626 95.8065C16.1495 96.3068 36.3973 107.535 36.0841 108.036C35.113 109.594 12.3494 97.6829 11.3788 99.2403C11.0659 99.7414 26.4591 107.945 26.1471 108.445C25.1983 109.966 1.94985 102.082 1.00198 103.603C0.689888 104.104 37.4406 125.618 37.1285 126.119C35.9302 128.041 7.77366 113.541 6.57534 115.463C6.43298 115.691 28.4359 128.771 28.2935 129" stroke="#0D83C6" stroke-width="1.6517" stroke-linecap="round" stroke-linejoin="round"/>
<path d="M211.565 -39.5458C212.074 -39.1626 237.479 -75.0766 237.988 -74.6934C240.361 -72.9096 216.644 -38.5346 219.018 -36.75C219.541 -36.3561 235.995 -60.4236 236.518 -60.0294C238.354 -58.6498 218.134 -33.0737 219.971 -31.6938C220.493 -31.2996 234.066 -51.5329 234.589 -51.1398C235.794 -50.2339 222.322 -33.5719 223.527 -32.666C224.05 -32.2729 244.158 -61.1998 244.681 -60.8068C246.936 -59.1109 221.224 -28.231 223.478 -26.537C224.002 -26.1431 234.151 -41.8219 234.673 -41.4291C236.373 -40.1514 225.32 -13.3185 227.02 -12.0408C227.544 -11.648 241.813 -32.8092 242.336 -32.4153C243.818 -31.3027 226.691 -11.1778 228.172 -10.0652C228.694 -9.67128 242.046 -29.6107 242.569 -29.2179C243.936 -28.1898 234.868 -6.66373 236.234 -5.6368C236.758 -5.24289 252.674 -28.5937 253.197 -28.2006C255.616 -26.382 224.999 4.68644 227.417 6.50507C227.941 6.89815 247.269 -20.9922 247.792 -20.5991C249.489 -19.3236 237.742 7.27824 239.439 8.55396C239.963 8.94677 254.996 -13.2317 255.52 -12.8378C257.777 -11.1408 234.808 21.3424 237.065 23.0391C237.589 23.4322 254.385 -1.08955 254.908 -0.69674C256.952 0.840204 237.486 30.906 239.53 32.4418C240.053 32.8357 255.099 10.6407 255.623 11.0346C256.766 11.8938 248.01 29.5457 249.152 30.4037C249.675 30.7976 264.483 8.92161 265.005 9.31552C267.58 11.2502 244.393 49.7095 246.967 51.6451C247.491 52.039 266.679 24.3353 267.201 24.7292C269.303 26.3079 246.963 56.0287 249.065 57.6074C249.589 58.0013 265.4 34.7892 265.923 35.1821C268.014 36.7541 250.303 68.4379 252.393 70.0088C252.917 70.4027 275.847 37.7197 276.371 38.1136C278.203 39.4913 256.707 64.2181 258.541 65.5961C259.064 65.9901 274.397 43.4127 274.921 43.8066C277.173 45.4987 251.055 76.0549 253.307 77.7477C253.831 78.1416 278.728 42.8422 279.252 43.2353C281.888 45.2178 256.591 83.9284 259.228 85.9109C259.753 86.3048 276.219 62.2198 276.742 62.614C278.235 63.7363 261.032 84.0738 262.525 85.1961C263.048 85.5902 289.032 48.8473 289.555 49.2404C292.252 51.2677 262.66 88.8961 265.356 90.9234C265.88 91.3165 280.951 69.0883 281.474 69.4822C282.733 70.4281 267.099 86.8071 268.358 87.753C268.882 88.1469 286.958 61.9196 287.482 62.3136C289.151 63.5685 268.743 85.5258 270.412 86.7808C270.936 87.1747 280.417 72.3822 280.941 72.7753C282.784 74.161 260.44 98.5357 262.284 99.9214C262.807 100.315 281.323 73.5037 281.847 73.8979C282.791 74.6077 273.746 88.4795 274.69 89.1896C275.214 89.5835 286.859 71.9112 287.383 72.3054C289.595 73.9681 267.528 106.03 269.741 107.693C270.264 108.087 285.486 85.6574 286.01 86.0513C287.15 86.9097 275.94 103.534 277.082 104.392C277.605 104.785 289.079 87.3406 289.603 87.7345C291.551 89.1982 270.916 116.795 272.864 118.259C273.263 118.559 293.089 90.5237 293.488 90.8239C294.796 91.8069 279.353 109.375 280.661 110.359C280.87 110.516 292.833 93.73 293.043 93.8878C294.001 94.6085 282.194 107.161 283.152 107.882C283.298 107.991 300.855 84.0309 301 84.1401" stroke="#0D83C6" stroke-width="1.6517" stroke-linecap="round" stroke-linejoin="round"/>
<path d="M164.404 222.136C164.62 222.026 153.445 201.36 153.717 201.221C155.433 200.344 175.773 220.65 177.779 219.624C178.294 219.362 163.839 193.578 164.34 193.323C165.418 192.773 179.671 203.205 180.708 202.676C181.206 202.421 172.246 187.315 172.732 187.067C174.178 186.328 184.315 210.425 185.844 209.644C186.303 209.41 167.868 175.603 168.329 175.367C170.255 174.382 187.425 198.158 189.298 197.201C189.755 196.968 173.708 167.971 174.227 167.706C176.536 166.526 199.509 196.05 201.829 194.865C202.408 194.569 184.83 162.851 185.338 162.591C187.032 161.726 203.745 182.387 205.671 181.403C206.123 181.172 190.859 153.86 191.445 153.561C193.892 152.309 217.021 186.277 219.852 184.831C220.317 184.592 205.89 158.796 206.412 158.528C208.317 157.555 221.082 183.168 222.841 182.269C223.357 182.006 206.417 151.294 206.89 151.053C208.42 150.271 220.063 175.494 221.639 174.689C222.171 174.417 206.883 146.91 207.329 146.682C209.003 145.827 227.88 166.142 229.85 165.135C230.323 164.893 216.911 141.199 217.473 140.913C219.225 140.017 236.339 159.43 238.189 158.485C238.639 158.254 222.123 128.178 222.582 127.944C224.738 126.842 243.643 156.786 245.933 155.616C246.379 155.388 232.477 130.727 233.061 130.428C234.565 129.66 248.215 147.718 249.505 147.059C250.007 146.803 234.574 119.187 235.121 118.908C237.752 117.564 255.909 152.373 258.437 151.081C258.929 150.829 240.164 116.466 240.629 116.228C243.05 114.991 259.419 148.725 261.677 147.572C262.216 147.296 242.597 111.504 243.111 111.24C245.344 110.1 260.186 138.672 262.384 137.548C262.91 137.28 248.749 112.084 249.243 111.831C251.138 110.863 269.435 133.926 271.289 132.98C271.75 132.745 254.458 101.161 254.912 100.928C257.662 99.5234 276.619 134.153 279.282 132.791C279.74 132.557 262.048 100.493 262.627 100.197C264.213 99.3857 274.797 124.935 276.372 124.131C276.905 123.858 260.957 95.2189 261.466 94.9585C264.476 93.4207 284.774 130.688 287.46 129.316C288.016 129.031 267.597 91.7452 268.124 91.4763C269.748 90.6462 288.714 109.805 290.437 108.923C290.684 108.797 278.003 85.1004 278.21 84.994" stroke="#0D83C6" stroke-width="1.2365" stroke-linecap="round" stroke-linejoin="round"/>
<path d="M11.2504 127.33C11.6902 127.685 32.989 99.5215 33.4288 99.8775C35.3276 101.411 13.2691 128.061 15.1687 129.596C15.6085 129.951 25.0677 116.442 25.5086 116.797C26.1679 117.33 20.2407 127.468 20.8999 128.001C21.3397 128.356 25.7466 121.101 26.1864 121.456C26.8669 122.006 27.8179 133.181 28.4973 133.73C28.9371 134.084 33.5167 126.617 33.9565 126.972C34.8743 127.714 34.3416 143.022 35.2593 143.763C35.6991 144.119 51.4044 122.879 51.8442 123.234C53.7458 124.77 31.6815 151.456 33.5819 152.991C34.0228 153.347 58.1604 121.668 58.6013 122.024C60.6413 123.673 42.9175 155.284 44.9575 156.933C45.3982 157.288 71.4345 123.259 71.8745 123.614C74.8771 126.039 44.8083 170.787 47.81 173.213C48.2498 173.569 79.7588 132.766 80.1986 133.121C82.694 135.137 60.0044 173.37 62.4989 175.385C62.9387 175.741 90.3336 140.032 90.7734 140.387C92.7892 142.017 71.4074 171.471 73.4231 173.1C73.8629 173.455 85.4859 157.267 85.9257 157.622C87.132 158.598 71.8745 174.693 73.0806 175.667C73.5204 176.023 95.7292 146.733 96.169 147.088C98.4394 148.922 71.2338 180.249 73.5038 182.083C73.9447 182.439 88.7898 162.263 89.2296 162.618C90.5636 163.696 78.9445 184.349 80.2794 185.427C80.7192 185.783 95.6228 165.535 96.0629 165.89C97.6065 167.137 79.666 188.787 81.2098 190.035C81.6496 190.391 100.95 164.698 101.391 165.054C102.73 166.136 96.6323 188.327 97.9722 189.408C98.412 189.764 119.779 161.515 120.219 161.87C121.96 163.276 109.57 191.166 111.311 192.572C111.751 192.928 120.146 180.735 120.587 181.091C121.945 182.188 115.968 204.734 117.327 205.832C117.767 206.187 141.668 174.803 142.108 175.158C144.01 176.696 125.707 205.417 127.61 206.954C128.05 207.31 150.461 177.769 150.901 178.124C153.525 180.244 121.965 216.369 124.589 218.488C125.028 218.844 152.895 182.55 153.335 182.906C155.445 184.611 132.556 215.16 134.665 216.865C135.105 217.221 153.592 192.538 154.031 192.893C155.491 194.072 145.344 217.528 146.803 218.707C147.244 219.062 161.2 199.986 161.64 200.342C162.791 201.272 149.306 217.354 150.457 218.284C150.897 218.639 160.857 204.511 161.297 204.866" stroke="#0D83C6" stroke-width="1.6517" stroke-linecap="round" stroke-linejoin="round"/>
</svg>
