<svg width="59" height="72" viewBox="0 0 59 72" fill="none" xmlns="http://www.w3.org/2000/svg">
<path d="M58 45.9294C58.1882 49.6235 56.847 57.7882 50.4706 62.2117C44.6117 66.2823 40 66.8235 34.9882 67.0823C34.3529 67.1294 33.8588 67.2235 33.4823 67.3411C33.4588 67.3411 33.4588 67.3411 33.4353 67.3411C33.2941 67.3882 33.1529 67.4353 33.0117 67.4823C33.0117 67.5059 33.0117 67.5059 32.9882 67.5059C32.7764 67.6 32.6117 67.6941 32.4941 67.7882C32.4941 67.7882 32.4941 67.8117 32.4706 67.8117C30.8235 68.9411 29.4117 71.5764 29.4117 71.5764C27.9764 68.9411 26.6353 67.9529 26.1411 67.6706C26.047 67.6 26 67.5764 25.9529 67.5764C25.9529 67.5529 25.9529 67.5529 25.9529 67.5529C25.5058 67.3411 24.847 67.1529 23.8353 67.0823C18.8235 66.8235 14.2117 66.2823 8.35291 62.2117C1.97644 57.7882 0.63526 49.6235 0.823495 45.9294C0.917613 44.2823 1.34114 42.1647 1.83526 39.6941C2.49408 36.2588 3.34114 31.9529 3.43526 27.9764C3.55291 21.8823 1.19997 17.6706 1.17644 17.6235L0.258789 16L1.45879 14.5882L13.5764 0.258789L15.5294 1.50585C22 5.6235 27.647 1.76467 27.8823 1.57644L29.4588 0.447024L30.9647 1.59997C31.2 1.76467 36.847 5.6235 43.2941 1.50585L45.247 0.258789L58.5647 16.0235L57.647 17.6235C57.6235 17.6706 55.2941 21.8823 55.4117 27.9764C55.4823 31.9529 56.3294 36.2588 57.0117 39.6941C57.4823 42.1647 57.9058 44.2823 58 45.9294Z" fill="#FEFEFE"/>
<path d="M26.0235 67.3647L26.0471 67.3882C26.0941 67.3882 26.1412 67.4353 26.2588 67.4824C26.7529 67.7882 28.0235 68.7294 29.4118 71.1529C29.8353 70.4235 31.0118 68.5882 32.3529 67.6471L32.3765 67.6235C32.5176 67.5059 32.7059 67.4118 32.9176 67.3176L33.0118 67.5059L32.9176 67.3176C33.0824 67.2471 33.2235 67.2 33.3882 67.1529C33.3882 67.1294 33.4118 67.1294 33.4353 67.1294C33.8588 67.0118 34.4 66.9176 34.9882 66.8941C39.9529 66.6118 44.5412 66.0706 50.3529 62.0471C56.6588 57.6706 57.9765 49.6 57.7882 45.9529C57.7176 44.3294 57.2941 42.2353 56.8235 39.8118L56.8 39.7412C56.1176 36.2824 55.2706 31.9765 55.2 27.9765C55.0824 21.9765 57.3647 17.7176 57.4588 17.5294L58.3294 16.0471L45.2 0.541176L43.4118 1.67059C36.8235 5.88235 31.0824 1.92941 30.8471 1.76471L29.4588 0.705882L28 1.74118C27.7647 1.92941 21.9765 5.85882 15.4118 1.67059L13.6235 0.541176L1.62353 14.7294L0.494118 16.0235L1.36471 17.5059C1.38824 17.5529 3.74118 21.7882 3.62353 27.9765C3.55294 31.9765 2.70588 36.2824 2.02353 39.7412C1.52941 42.1882 1.12941 44.3059 1.03529 45.9529C0.847059 49.6 2.16471 57.6706 8.47059 62.0471C14.2824 66.0706 18.8706 66.6118 23.8588 66.8941C24.7529 66.9412 25.4824 67.1059 26.0235 67.3647ZM29.4118 72L29.2235 71.6706C27.8118 69.0824 26.5412 68.1412 26.0471 67.8353C25.9529 67.7882 25.9059 67.7647 25.8824 67.7412H25.8588C25.3647 67.4824 24.6824 67.3412 23.8353 67.2941C18.8 67.0353 14.1412 66.4706 8.23529 62.3765C1.78824 57.9059 0.447059 49.6471 0.635294 45.9294C0.705882 44.2588 1.12941 42.1412 1.62353 39.6706C2.30588 36.2118 3.15294 31.9529 3.22353 27.9765C3.34118 21.9765 1.03529 17.7647 1.01176 17.7176L0 15.9765L1.29412 14.4706L13.5529 0L15.6471 1.34118C21.9765 5.36471 27.5294 1.57647 27.7647 1.41176L29.4588 0.188235L31.0824 1.43529C31.3176 1.6 36.8235 5.38824 43.2 1.34118L45.2941 0L58.8235 16L57.8118 17.7412C57.7176 17.9059 55.5059 22.0706 55.6 27.9765C55.6941 31.9294 56.5176 36.2118 57.2 39.6471L57.2235 39.7412C57.6941 42.1882 58.1176 44.2824 58.2118 45.9294C58.4 49.6706 57.0353 57.9059 50.5882 62.3765C44.6824 66.4706 40.0471 67.0353 35.0118 67.2941C34.4471 67.3176 33.9529 67.4118 33.5294 67.5294H33.5059C33.3647 67.5765 33.2235 67.6235 33.1059 67.6706C33.0824 67.6941 33.0824 67.6941 33.0588 67.6941C32.8941 67.7647 32.7529 67.8588 32.6118 67.9529L32.5882 67.9765C30.9882 69.0824 29.6 71.6471 29.6 71.6706L29.4118 72Z" fill="#363785"/>
<path d="M54.353 39.9294C53.6707 36.4941 52.8236 32.1883 52.753 28.1177C52.6354 21.5059 55.2001 16.9412 55.2236 16.9177L55.4118 16.5883L44.4942 3.69414L44.1177 3.92943C36.5412 8.75296 29.9765 4.1412 29.7177 3.95296L29.4118 3.7412L29.106 3.95296C29.0589 4.00002 22.306 8.77649 14.706 3.92943L14.353 3.69414L3.64713 16.3294L3.43536 16.5883L3.60007 16.9177C3.6236 16.9412 6.18831 21.5059 6.07066 28.1177C6.00007 32.1883 5.15301 36.4941 4.47066 39.9294C4.00007 42.2588 3.60007 44.2824 3.52948 45.7412C3.34125 49.4824 4.91772 56.3294 10.0001 59.8588C15.2707 63.5059 19.506 64 24.0707 64.2588C28.4942 64.4941 28.8942 67.1059 28.9177 67.2235L29.4118 68.1412L29.9295 67.2235C29.9295 67.2 30.2824 64.4941 34.753 64.2588C39.3413 64 43.553 63.5059 48.8236 59.8588C53.906 56.3294 55.4824 49.4824 55.2942 45.7412C55.2236 44.2824 54.8236 42.2588 54.353 39.9294Z" fill="#363785"/>
<path d="M52.2352 28.1177C52.3058 31.2471 52.7999 34.4471 53.3411 37.3412H5.48229C6.02347 34.4471 6.51759 31.2471 6.58817 28.1177C6.70582 21.2706 4.047 16.6588 4.047 16.6588L14.447 4.35295C22.3999 9.4353 29.4117 4.35295 29.4117 4.35295C29.4117 4.35295 36.4235 9.4353 44.3764 4.35295L54.7764 16.6588C54.7764 16.6588 52.1176 21.2706 52.2352 28.1177Z" fill="#2176BB"/>
<path d="M7.12938 37.5765H51.7647C51.8353 37.5765 51.8588 37.5294 51.8353 37.4588C51.647 37.0118 50.6588 35.1294 47.4823 33.2706C47.4823 33.2706 47.6706 32.1176 46.4941 31.3882C45.3176 30.6824 44.9882 31.5765 44.0235 30.3294C43.0353 29.0824 42.0706 29.2 41.2941 29.2235C41.2941 29.2235 40 31.3412 38.7294 31.6706C38.7294 31.6706 36.3059 29.6235 35.9059 29.2706C35.5059 28.9176 35.2 28.2353 33.4117 28.5412C31.6235 28.8706 31.5764 29.6 31.2706 29.9294C30.9647 30.2824 29.0588 30.7529 28.5647 30.4C28.0941 30.0235 27.9294 28.3529 27.2235 27.9529C26.5176 27.5529 24.7294 27.9529 23.5294 29.0118C22.3294 30.0941 22.7529 30.8706 21.9529 31.2706C21.1764 31.6941 20.9411 31.3882 20.9411 31.3882C20.9411 31.3882 21.1059 30.7059 20.5176 29.9765C19.9294 29.2471 19.5294 28.6824 18.6588 28.8706C17.8117 29.0588 16.3294 29.3882 15.9059 29.9059C15.4588 30.4 14.7059 31.6706 13.5529 32.0941C12.3764 32.4941 11.3882 33.2235 11.0353 33.6C10.7059 33.9765 9.92938 35.2941 9.45879 35.7176C9.08232 36.0706 7.59997 37.1294 7.10585 37.4588C7.05879 37.5059 7.08232 37.5765 7.12938 37.5765Z" fill="#FEFEFE"/>
<path d="M7.60008 37.3647H51.5766C51.2471 36.7529 50.1883 35.0823 47.3883 33.4353L47.2707 33.3647L47.2942 33.247C47.2942 33.2 47.4118 32.2117 46.3766 31.5764C45.9295 31.2941 45.6236 31.2941 45.3177 31.2706C44.8942 31.247 44.4707 31.247 43.8589 30.447C42.9883 29.3647 42.1648 29.3882 41.4354 29.4117H41.4118C41.1295 29.8353 39.9766 31.5529 38.7766 31.8588L38.6824 31.8823L38.5883 31.8117C38.4942 31.7411 36.1648 29.7647 35.7648 29.4117C35.7177 29.3647 35.6471 29.3176 35.6001 29.247C35.2707 28.9176 34.8707 28.4941 33.4354 28.7529C32.0942 28.9882 31.8118 29.4588 31.6001 29.8117C31.5295 29.9059 31.4824 29.9764 31.4118 30.0706C31.0354 30.4941 29.0118 30.9647 28.4471 30.5647C28.1883 30.3529 28.0471 29.9294 27.8589 29.4353C27.6707 28.9176 27.4589 28.3059 27.1295 28.1176C26.5648 27.8117 24.8471 28.1176 23.6707 29.1764C23.0589 29.6941 22.8942 30.1411 22.753 30.5176C22.6354 30.8941 22.4942 31.2235 22.0707 31.4588C21.1295 31.9529 20.8236 31.5529 20.7765 31.5059L20.7295 31.4353L20.753 31.3411C20.753 31.3176 20.8707 30.7294 20.3765 30.0941L20.306 30.0235C19.7177 29.2941 19.3883 28.9176 18.706 29.0588C18.0471 29.2235 16.4471 29.5764 16.0471 30.0235C15.9765 30.1176 15.8589 30.2588 15.7648 30.4C15.2942 31.0117 14.5883 31.9294 13.6001 32.2823C12.4942 32.6588 11.5295 33.3647 11.2001 33.7411C11.0589 33.8823 10.8471 34.2117 10.6118 34.5411C10.2589 35.0353 9.88243 35.6 9.60008 35.8588C9.29419 36.1647 8.2589 36.8941 7.60008 37.3647ZM51.7648 37.7647H7.12949C7.01184 37.7647 6.91772 37.6941 6.89419 37.6C6.84713 37.4823 6.89419 37.3647 6.98831 37.2941C7.43537 36.9882 8.94125 35.9294 9.31772 35.5764C9.57655 35.3411 9.95302 34.8 10.2589 34.3059C10.5177 33.9529 10.7295 33.6235 10.8942 33.4588C11.2236 33.0823 12.2354 32.3294 13.4824 31.8823C14.353 31.5764 14.9883 30.7294 15.4354 30.1647C15.553 30 15.6471 29.8588 15.7413 29.7647C16.1648 29.2706 17.3883 28.9411 18.6354 28.6588C19.5765 28.447 20.0471 29.0588 20.6118 29.7647L20.6824 29.8353C21.1765 30.447 21.1765 31.0353 21.153 31.2941C21.2707 31.3176 21.4824 31.2941 21.8589 31.1059C22.1648 30.9411 22.2589 30.7294 22.3765 30.3764C22.5413 29.9764 22.7295 29.4588 23.3883 28.8706C24.6589 27.7176 26.5648 27.3411 27.3177 27.7647C27.7883 28.0235 28.0236 28.7059 28.2354 29.2941C28.3765 29.6941 28.5413 30.1176 28.706 30.2353C29.0824 30.4941 30.8707 30.0706 31.106 29.7882C31.153 29.7411 31.2001 29.6706 31.2471 29.5764C31.4824 29.2 31.8589 28.6117 33.3648 28.3529C35.0118 28.047 35.5295 28.5882 35.8824 28.9647C35.9295 29.0117 36.0001 29.0823 36.0471 29.1294C36.3766 29.4353 38.353 31.0823 38.7766 31.4353C39.9295 31.0588 41.106 29.1294 41.1295 29.1059L41.1766 29.0117H41.4354C42.2118 28.9882 43.1766 28.9647 44.1648 30.2117C44.6824 30.847 44.9648 30.847 45.3413 30.8706C45.6707 30.8706 46.0471 30.8941 46.5883 31.2235C47.6236 31.8588 47.7177 32.8 47.6942 33.1529C50.8001 35.0117 51.7883 36.847 52.0236 37.3882C52.0707 37.4823 52.0471 37.5764 52.0001 37.647C51.953 37.7176 51.8589 37.7647 51.7648 37.7647Z" fill="#363785"/>
<path d="M33.4354 67.3412C33.2942 67.3882 33.153 67.4353 33.0118 67.5059C33.153 67.4353 33.2942 67.3647 33.4354 67.3412Z" fill="#39AAE1"/>
<path d="M8.82355 28.7765C8.82355 28.7765 8.87061 21.1765 10.0706 18.1176L12.9177 17.3412C12.9177 17.3412 17.153 21.6471 18.6118 26.4235L15.8824 27.1765L15.1765 25.5529L12.353 26.3059L12.4 23.9529L14.1177 23.5294C14.1177 23.5294 13.1059 21.6941 12.2824 20.9176C12.2824 20.9176 11.6706 23.7412 11.8118 27.9765L8.82355 28.7765Z" fill="#E31E24"/>
<path d="M10.1413 18.2118C9.08243 21.0118 8.94126 27.6235 8.94126 28.6353L11.6942 27.9059C11.5766 23.7412 12.1883 20.9177 12.1883 20.8941L12.2354 20.7294L12.353 20.8471C13.1766 21.6235 14.1648 23.4118 14.2118 23.4824L14.2824 23.6L12.4942 24.0235L12.4707 26.1647L15.2236 25.4353L15.953 27.0588L18.4942 26.353C17.106 21.953 13.3177 17.9059 12.8942 17.4588L10.1413 18.2118ZM8.72949 28.8941V28.7765C8.72949 28.6824 8.80008 21.1294 9.97655 18.0941L10.0001 18.0471L12.9413 17.2235L12.9883 17.2706C13.0354 17.3177 17.2707 21.6471 18.706 26.4L18.753 26.4941L15.8354 27.2941L15.106 25.6706L12.2589 26.4235L12.2824 23.8824L13.9766 23.4588C13.7413 23.0824 13.0118 21.8118 12.353 21.1294C12.2118 21.8118 11.7883 24.4 11.906 27.9765V28.0706L8.72949 28.8941Z" fill="#FEFEFE"/>
<path d="M19.153 26.1177H22.1412C22.1412 26.1177 21.5765 22.9177 21.6236 20.8706C21.6706 18.8 23.8354 18 24.7295 18.0471L25.3177 26L28.2118 25.8118L27.6001 15.6706C27.6001 15.6706 24.3765 15.7177 22.5412 15.9765C20.6824 16.2118 19.4353 17.5529 18.8706 19.0588C18.3059 20.5882 18.6824 24.2118 19.153 26.1177Z" fill="#E31E24"/>
<path d="M19.247 26.0235H22.0235C21.9058 25.4118 21.4823 22.6823 21.5294 20.847C21.5294 20.0941 21.8353 19.4353 22.4 18.9176C23.1764 18.1647 24.2117 17.9294 24.7294 17.9294H24.8235L25.4117 25.8823L28.0941 25.7176L27.5058 15.7647C26.9647 15.7882 24.1882 15.8353 22.5411 16.0706C20.9176 16.2823 19.5764 17.4353 18.9647 19.1059C18.4235 20.5647 18.7529 24.0706 19.247 26.0235ZM22.2588 26.2353H19.0823L19.0588 26.1412C18.5647 24.2353 18.1882 20.6118 18.7764 19.0353C19.4117 17.2941 20.8235 16.0941 22.5176 15.8588C24.3529 15.6235 27.5764 15.5765 27.6 15.5765H27.6941L28.3294 25.9059L25.2235 26.0941L24.6353 18.1412C24.1411 18.1647 23.2235 18.4 22.5411 19.0588C22.0235 19.5529 21.7411 20.1647 21.7176 20.8706C21.6706 22.8941 22.2353 26.0706 22.2353 26.1176L22.2588 26.2353Z" fill="#FEFEFE"/>
<path d="M28.8 25.6235C28.8 25.6235 30.8941 18.6353 33.1294 15.8588H35.9765C35.9765 15.8588 38.6823 20.7294 38.8 26.3294L35.9294 26.1882L35.9059 24.3764L32.847 24.2353L33.5529 22.1882L35.4118 22.2117C35.4118 22.2117 34.8 19.7882 34.4 19.3176C34.4 19.3176 32.5412 21.8588 31.7412 25.8117L28.8 25.6235Z" fill="#E31E24"/>
<path d="M36.0235 26.0941L38.6823 26.2118C38.5647 21.0588 36.1882 16.4941 35.9059 15.9529H33.1765C31.1529 18.4941 29.2235 24.5882 28.9412 25.5294L31.6706 25.7177C32.4706 21.8118 34.3059 19.2706 34.3294 19.2471L34.4 19.1294L34.4941 19.2471C34.8706 19.7177 35.4823 22.0941 35.5059 22.1882L35.5529 22.3294L33.6235 22.2824L32.9882 24.1412L36 24.2824L36.0235 26.0941ZM38.8941 26.4471L35.8353 26.2824L35.8118 24.4706L32.7059 24.3294L33.4823 22.0706L35.2706 22.1177C35.0823 21.3177 34.6823 19.9765 34.4 19.4824C34.0235 20.0471 32.5176 22.4235 31.8588 25.8353L31.8353 25.9294L28.6588 25.7177L28.7059 25.5765C28.7294 25.5059 30.8235 18.5412 33.0588 15.7882L33.0823 15.7412H36.0235L36.0706 15.7882C36.0941 15.8588 38.8 20.7765 38.8941 26.3294V26.4471Z" fill="#FEFEFE"/>
<path d="M39.4589 26.4235L42.2118 27.0353C42.2118 27.0353 43.0353 23.2706 43.1295 23.247C43.2 23.2235 45.4824 21.2 47.1765 20.8235L45.5765 27.8117L48.3765 28.447L50.8236 18.5647L47.8589 17.9764C47.8589 17.9764 45.1059 18.7529 43.6706 20.1176L44.4706 17.3176L41.6 16.5882L39.4589 26.4235Z" fill="#E31E24"/>
<path d="M45.7176 27.7176L48.3058 28.3294L50.7058 18.6588L47.8588 18.0941C47.5764 18.1647 45.0823 18.9176 43.7411 20.1882L43.4823 20.4471L44.3529 17.3882L41.6705 16.7059L39.5764 26.3529L42.1411 26.9176C42.9647 23.2 43.0117 23.1765 43.0823 23.1529C43.0823 23.1529 43.1764 23.0823 43.247 23.0118C43.8588 22.5412 45.7176 21.0353 47.1529 20.7294L47.2941 20.7059L45.7176 27.7176ZM48.4705 28.5647L45.4588 27.8823L47.0352 20.9647C45.6705 21.3412 43.9529 22.7059 43.3882 23.1765C43.2705 23.2706 43.2235 23.2941 43.1999 23.3176C43.1058 23.5765 42.6117 25.7176 42.3058 27.0588L42.2823 27.1529L39.3411 26.5176L39.3647 26.4L41.5058 16.4706L44.5882 17.2471L43.8823 19.8118C45.3411 18.5882 47.7176 17.9059 47.8352 17.8823H47.8588H47.8823L50.9411 18.4941L48.4705 28.5647Z" fill="#FEFEFE"/>
<path d="M44.7059 15.7647L48.3765 16.6824C48.3765 16.6824 47.4823 17.7647 46.1412 17.3412C44.8 16.9177 44.7059 15.7647 44.7059 15.7647Z" fill="#E31E24"/>
<path d="M44.8236 15.8824C44.8942 16.1883 45.153 16.9177 46.1648 17.2471C47.1765 17.5765 47.9295 16.9883 48.2118 16.7294L44.8236 15.8824ZM46.753 17.5294C46.5648 17.5294 46.3295 17.5059 46.1177 17.4353C44.7295 16.9883 44.6353 15.7647 44.6118 15.7647V15.6236L48.5412 16.6353L48.4471 16.7294C48.4471 16.753 47.7883 17.5294 46.753 17.5294Z" fill="#FEFEFE"/>
<path d="M10.6353 14.5177C10.7765 14.4706 10.8942 14.4236 10.9883 14.353C11.0824 14.2588 11.1294 14.1647 11.153 14.0706C11.1765 13.9765 11.1765 13.8588 11.1294 13.6941C11.0118 13.2941 10.7294 13.153 10.2824 13.2706L10.6353 14.5177ZM10.0706 14.6824L9.71768 13.4118C9.48239 13.4824 9.34121 13.5765 9.24709 13.7177C9.1765 13.8588 9.1765 14.0236 9.22356 14.2353C9.34121 14.6588 9.62356 14.8 10.0706 14.6824ZM10.753 14.9883L10.8471 15.3177L10.2824 15.4824L10.1883 15.153C9.74121 15.2471 9.38827 15.2236 9.15297 15.0824C8.91768 14.9177 8.75297 14.6824 8.68239 14.3765C8.58827 14.0471 8.6118 13.7647 8.75297 13.5059C8.89415 13.2706 9.1765 13.0824 9.60003 12.9412L9.52944 12.6588L10.0706 12.5177L10.1647 12.8C10.6118 12.6824 10.9412 12.7059 11.2 12.8706C11.4353 13.0118 11.6 13.2471 11.6706 13.553C11.7647 13.8588 11.7412 14.1412 11.6236 14.4C11.4824 14.6588 11.2 14.8471 10.753 14.9883Z" fill="#FEFEFE"/>
<path d="M11.4352 12.1647L12.0705 12.0235L13.0588 13.3412L13.2941 11.7412L13.9058 11.6L13.4117 13.9764C13.3647 14.2353 13.2941 14.447 13.2235 14.5882C13.1294 14.7294 13.0117 14.8235 12.847 14.8706C12.6588 14.8941 12.5411 14.9176 12.4235 14.9176L12.3294 14.4941C12.4235 14.4941 12.4941 14.4706 12.5647 14.447C12.7058 14.4235 12.7764 14.3764 12.8235 14.3059C12.8705 14.2588 12.9176 14.1412 12.9411 13.9764L11.4352 12.1647Z" fill="#FEFEFE"/>
<path d="M15.4588 14.2823L15.0117 11.9059L14.1647 12.0706L14.0706 11.5765L16.3529 11.1529L16.447 11.647L15.6 11.8117L16.0235 14.1882L15.4588 14.2823Z" fill="#FEFEFE"/>
<path d="M17.7413 13.4117L18.306 13.3176C18.4942 13.2941 18.6118 13.2706 18.6824 13.247C18.753 13.2 18.8236 13.1529 18.8707 13.0823C18.9177 13.0117 18.9177 12.9411 18.9177 12.847C18.8942 12.7059 18.8236 12.6117 18.7295 12.5647C18.6118 12.5176 18.4471 12.5176 18.2118 12.5411L17.6236 12.6353L17.7413 13.4117ZM16.8236 11.0823L18.9648 10.7764L19.0354 11.247L17.4589 11.4823L17.553 12.1647L18.3295 12.047C18.5648 12 18.7295 12 18.8942 12.047C19.0354 12.0706 19.1765 12.1647 19.2942 12.2823C19.4118 12.4 19.4824 12.5647 19.506 12.7529C19.553 12.9411 19.506 13.1294 19.4354 13.2706C19.3648 13.4353 19.2471 13.5529 19.1295 13.6235C19.0118 13.6941 18.8236 13.7411 18.5883 13.7647L17.2236 13.9764L16.8236 11.0823Z" fill="#FEFEFE"/>
<path d="M20.4236 12.0706C20.4706 12.4 20.5647 12.6353 20.7295 12.7765C20.8942 12.9412 21.1059 13.0118 21.3412 12.9647C21.5765 12.9412 21.7412 12.8471 21.8824 12.6588C22.0236 12.4706 22.0706 12.2118 22.0236 11.8824C22 11.553 21.8824 11.3177 21.7412 11.153C21.5765 11.0118 21.3647 10.9647 21.1295 10.9883C20.8942 11.0118 20.7059 11.1059 20.5647 11.2941C20.4471 11.4588 20.4 11.7177 20.4236 12.0706ZM19.8353 12.1412C19.7883 11.8588 19.8118 11.6 19.8824 11.3883C19.9295 11.2235 20 11.0824 20.0942 10.9647C20.2118 10.8235 20.3295 10.7294 20.4471 10.6588C20.6353 10.5647 20.8236 10.4941 21.0589 10.4706C21.4824 10.4471 21.8589 10.5412 22.1412 10.7765C22.4236 11.0118 22.5883 11.3647 22.6353 11.8353C22.6824 12.3059 22.5883 12.6824 22.3765 12.9647C22.1412 13.2706 21.8118 13.4353 21.3883 13.4824C20.9647 13.5294 20.6118 13.4353 20.3295 13.2C20.0471 12.9647 19.8824 12.6118 19.8353 12.1412Z" fill="#FEFEFE"/>
<path d="M23.1295 10.3294L25.153 10.1882L25.3648 13.1058L24.7765 13.1529L24.6118 10.7294L23.7412 10.7764L23.8118 12.0235C23.8353 12.3764 23.8589 12.6353 23.8353 12.7764C23.8118 12.9176 23.7648 13.0353 23.6942 13.1058C23.6 13.2 23.4589 13.247 23.2706 13.2706C23.2 13.2706 23.0589 13.2706 22.8942 13.2706L22.8471 12.8235L22.9883 12.8C23.1059 12.8 23.1765 12.7764 23.2236 12.7529C23.2706 12.7058 23.2942 12.6117 23.2706 12.4941L23.2471 12L23.1295 10.3294Z" fill="#FEFEFE"/>
<path d="M26.5176 12.5647L27.1059 12.5412C27.2706 12.5412 27.4118 12.5412 27.4824 12.5176C27.5529 12.4941 27.6235 12.4471 27.6706 12.3765C27.7176 12.3294 27.7412 12.2353 27.7412 12.1412C27.7412 12.0235 27.6941 11.9059 27.6 11.8588C27.4824 11.7882 27.3412 11.7647 27.1059 11.7882H26.4941L26.5176 12.5647ZM25.8588 10.1647L26.4471 10.1412L26.4941 11.3176L27.2706 11.2941C27.6471 11.2706 27.9059 11.3412 28.0941 11.5294C28.2588 11.6941 28.3529 11.8824 28.3529 12.1412C28.3529 12.3294 28.3059 12.4941 28.2118 12.6353C28.1176 12.8 28 12.8941 27.8824 12.9412C27.7647 12.9882 27.5765 13.0353 27.3176 13.0353L25.9529 13.0824L25.8588 10.1647Z" fill="#FEFEFE"/>
<path d="M28.8471 12.9882L28.8706 10.0941H29.4589L29.4353 11.2235L30.5883 11.2471L30.6118 10.0941H31.2L31.1765 13.0118H30.5883V11.7412L29.4353 11.7177V13.0118L28.8471 12.9882Z" fill="#FEFEFE"/>
<path d="M34.6824 10.2588L35.2706 10.2823L35.1059 13.2L34.5177 13.1529L34.6824 10.2588ZM32.3765 12.5647L32.9412 12.5882C33.1294 12.5882 33.2471 12.5882 33.3412 12.5882C33.4118 12.5647 33.4588 12.5411 33.5294 12.4706C33.6 12.4 33.6235 12.3294 33.6235 12.2353C33.6235 12.1176 33.6 12.0235 33.5059 11.9529C33.4118 11.8823 33.2471 11.8353 33.0118 11.8117L32.4235 11.7882L32.3765 12.5647ZM31.9059 10.1176L32.4941 10.1411L32.4471 11.2941L33.2235 11.3411C33.4353 11.3647 33.6 11.3882 33.7647 11.4588C33.9059 11.5294 34.0235 11.6235 34.1177 11.7882C34.2118 11.9294 34.2353 12.0941 34.2353 12.2823C34.2118 12.4706 34.1647 12.6588 34.0471 12.7764C33.9294 12.9176 33.8118 13.0117 33.6941 13.0588C33.5529 13.0823 33.3882 13.1058 33.1294 13.0823L31.7647 13.0117L31.9059 10.1176Z" fill="#FEFEFE"/>
<path d="M37.5529 9.76467L37.8353 9.81172C37.7882 9.97643 37.7176 10.1176 37.6 10.2117C37.4823 10.3058 37.3412 10.3294 37.1529 10.3294C36.9882 10.3058 36.847 10.2353 36.7529 10.1176C36.6353 9.99996 36.5882 9.85878 36.5882 9.67055L36.8706 9.71761C36.8706 9.81172 36.8941 9.88231 36.9412 9.92937C36.9882 9.97643 37.0823 10.0235 37.1764 10.0235C37.2941 10.047 37.3882 10.0235 37.4353 9.97643C37.5059 9.92937 37.5294 9.85878 37.5529 9.76467ZM35.9764 10.3529L36.5412 10.4L36.3529 12.3294L37.7176 10.5176L38.2823 10.5882L38 13.4823L37.4588 13.4117L37.647 11.5294L36.2823 13.3176L35.6941 13.247L35.9764 10.3529Z" fill="#FEFEFE"/>
<path d="M40.1412 10.8L40.7059 10.8941L40.5412 12.1176C40.6588 12.1412 40.7529 12.1176 40.8 12.0706C40.8706 12.0235 40.9647 11.8823 41.0823 11.647C41.247 11.3647 41.4117 11.1765 41.5294 11.1294C41.6706 11.0588 41.8823 11.0588 42.1412 11.1059C42.1412 11.1059 42.1882 11.1059 42.2353 11.1059L42.1647 11.5294H42.0706C41.9529 11.5059 41.8588 11.5059 41.8117 11.5294C41.7412 11.5529 41.6941 11.5765 41.647 11.647C41.6235 11.6941 41.5529 11.8118 41.4588 12C41.3882 12.0941 41.3412 12.1647 41.2941 12.2118C41.247 12.2823 41.1529 12.3294 41.0588 12.3765C41.1764 12.4235 41.2706 12.5176 41.3412 12.6588C41.4117 12.7765 41.4823 12.9412 41.5529 13.1529L41.8117 14L41.1294 13.9059L40.8941 13.1059C40.8941 13.1059 40.8941 13.0823 40.8706 13.0353C40.8706 13.0353 40.847 12.9882 40.8235 12.8941C40.7764 12.7529 40.7294 12.6588 40.6823 12.6118C40.6353 12.5647 40.5647 12.5412 40.4706 12.5176L40.2823 13.7882L39.6941 13.6941L40.1412 10.8Z" fill="#FEFEFE"/>
<path d="M42.8706 11.2471L44.8706 11.6235L44.3294 14.4706L43.7411 14.3765L44.1882 12L43.3411 11.8353L43.1059 13.0588C43.0353 13.4118 42.9882 13.6471 42.9411 13.7882C42.8941 13.9059 42.8 14 42.7059 14.0706C42.5882 14.1412 42.447 14.1412 42.2588 14.1176C42.1882 14.0941 42.0706 14.0706 41.8823 14.0235L41.9764 13.5765L42.0941 13.6C42.2353 13.6235 42.3059 13.6235 42.3529 13.6C42.4 13.5765 42.447 13.5059 42.4706 13.3647L42.5647 12.8706L42.8706 11.2471Z" fill="#FEFEFE"/>
<path d="M45.247 11.6941L45.9059 11.8353L46.2353 13.4588L47.1294 12.1177L47.7176 12.2588L46.2823 14.1882C46.1176 14.4 45.9765 14.5647 45.8353 14.6588C45.6941 14.7529 45.5529 14.7765 45.3647 14.7529C45.2 14.7059 45.0823 14.6588 44.9882 14.6118L45.0823 14.1882C45.1529 14.2118 45.2235 14.2353 45.2941 14.2588C45.4353 14.2824 45.5294 14.2824 45.6 14.2353C45.6706 14.2118 45.7412 14.1177 45.8353 13.9765L45.247 11.6941Z" fill="#FEFEFE"/>
<path d="M48.0471 14.8471L48.5882 14.9882C48.7765 15.0353 48.8941 15.0588 48.9647 15.0588C49.0588 15.0588 49.1294 15.0353 49.2 14.9882C49.2706 14.9412 49.3177 14.8706 49.3412 14.8C49.3647 14.6588 49.3412 14.5647 49.2706 14.4706C49.2 14.3765 49.0353 14.3059 48.8235 14.2588L48.2353 14.0941L48.0471 14.8471ZM48.0941 12.3529L50.2118 12.9176L50.0706 13.3882L48.5412 12.9647L48.3765 13.6235L49.1294 13.8353C49.3412 13.8823 49.5059 13.9529 49.6235 14.0471C49.7647 14.1412 49.8588 14.2588 49.9059 14.4235C49.9765 14.5882 49.9765 14.7529 49.9294 14.9412C49.8824 15.1294 49.7882 15.2941 49.6471 15.3882C49.5059 15.5059 49.3647 15.5765 49.2471 15.5765C49.1059 15.6 48.9177 15.5765 48.6824 15.5294L47.3412 15.1765L48.0941 12.3529Z" fill="#FEFEFE"/>
<path d="M48.5411 59.4353C43.5529 62.8706 39.6705 63.4823 34.7293 63.7412C29.7882 64.0235 29.4117 67.1529 29.4117 67.1529C29.4117 67.1529 29.0352 64.0235 24.094 63.7412C19.1529 63.4823 15.2705 62.8706 10.3058 59.4353C5.31758 55.9765 3.85875 49.3412 4.04699 45.7647C4.14111 43.8118 4.84699 40.8 5.48228 37.3412H53.3411C53.9764 40.8 54.6823 43.8118 54.7764 45.7647C54.9646 49.3412 53.5058 55.9765 48.5411 59.4353Z" fill="#14693C"/>
<path d="M16.8 40.5647L4.04709 45.6941C4.04709 45.7176 4.04709 45.7412 4.04709 45.7647C4.00003 46.4 4.02356 47.1294 4.11768 47.9059L16.5177 42.3059C16.5647 41.6941 16.6824 41.1294 16.8 40.5647Z" fill="#1B7B41"/>
<path d="M16.4941 44.5412L5.12939 52.3529C5.38822 53.0588 5.67057 53.7647 6.04704 54.4471L16.7529 46.3294C16.6353 45.7412 16.5412 45.1529 16.4941 44.5412Z" fill="#1B7B41"/>
<path d="M42.2824 42.1412L54.7295 47.7647C54.8001 47.0353 54.8236 46.353 54.7766 45.7647C54.7766 45.6706 54.7766 45.6 54.7766 45.5059L41.9766 40.4C42.1177 40.9647 42.2354 41.553 42.2824 42.1412Z" fill="#1B7B41"/>
<path d="M17.5059 48.6824C15.6941 50.7059 10.8941 56 8.87061 58.2588C9.31766 58.6824 9.78825 59.0824 10.3059 59.4353C10.4235 59.5294 10.5647 59.6235 10.7059 59.7177L18.4 50.3765C18.0706 49.8353 17.7647 49.2706 17.5059 48.6824Z" fill="#1B7B41"/>
<path d="M41.4353 38.7294L54.0942 41.2C53.953 40.4941 53.8118 39.7647 53.6471 38.9882L42.0942 37.3412H40.8C41.0353 37.7882 41.2471 38.2588 41.4353 38.7294Z" fill="#1B7B41"/>
<path d="M42.1411 46.0236L52.8235 54.3765C53.1999 53.6471 53.5058 52.9177 53.7646 52.1647L42.3293 44.353C42.3058 44.9177 42.2352 45.4824 42.1411 46.0236Z" fill="#1B7B41"/>
<path d="M40.6118 50.0706L48.2824 59.6C48.353 59.553 48.4471 59.4824 48.5412 59.4353C49.1059 59.0353 49.6471 58.5647 50.1412 58.0941L41.3648 48.5412C41.153 49.0588 40.8942 49.5765 40.6118 50.0706Z" fill="#1B7B41"/>
<path d="M33.4118 55.8824L35.0353 63.7177C35.8589 63.6706 36.6824 63.6236 37.4589 63.5294L35.153 55.1765C34.5883 55.4353 34 55.6706 33.4118 55.8824Z" fill="#1B7B41"/>
<path d="M37.647 53.553L41.9529 62.6824C42.6823 62.4706 43.4353 62.2118 44.1647 61.8824L38.9882 52.2824C38.5647 52.7294 38.1176 53.153 37.647 53.553Z" fill="#1B7B41"/>
<path d="M23.8118 55.2235L21.7647 63.5765C22.4706 63.6471 23.2 63.6941 23.9529 63.7412L25.6471 55.953C25.0118 55.7647 24.4 55.5059 23.8118 55.2235Z" fill="#1B7B41"/>
<path d="M20.0706 52.5177L14.847 61.953C15.6 62.2824 16.3529 62.5412 17.1059 62.753L21.4353 53.7412C20.9412 53.3647 20.4941 52.9647 20.0706 52.5177Z" fill="#1B7B41"/>
<path d="M17.3176 38.8941C17.5294 38.3529 17.7647 37.8353 18.0235 37.3412H16.8706L5.1294 39.1294C4.98822 39.9059 4.84705 40.6588 4.70587 41.3647L17.3176 38.8941Z" fill="#1B7B41"/>
<path d="M29.4117 56.4941C29.1529 56.4941 28.8941 56.4941 28.6353 56.4706L28.3529 65.2941C29.2941 66.1882 29.4117 67.1529 29.4117 67.1529C29.4117 67.1529 29.5529 66.047 30.6823 65.1059L30.447 56.447C30.1176 56.4941 29.7647 56.4941 29.4117 56.4941Z" fill="#1B7B41"/>
<path d="M41.5059 43.6706C41.5059 50.2824 36.1647 55.6236 29.5765 55.6236C22.9647 55.6236 17.6235 50.2824 17.6235 43.6706C17.6235 37.0824 22.9647 31.7177 29.5765 31.7177C36.1647 31.7177 41.5059 37.0824 41.5059 43.6706Z" fill="#FEFEFE"/>
<path d="M40.4235 43.6706C40.4235 49.6706 35.5765 54.5412 29.5765 54.5412C23.553 54.5412 18.6824 49.6706 18.6824 43.6706C18.6824 37.6706 23.553 32.8 29.5765 32.8C35.5765 32.8 40.4235 37.6706 40.4235 43.6706Z" fill="#302D2B"/>
<path d="M29.8117 35.2706V38.4941L34.3294 41.8588L37.5058 41.1058V37.0823C37.5058 37.0823 35.7882 35.0353 33.1529 34.1647L29.8117 35.2706Z" fill="#FEFEFE"/>
<path d="M29.2706 35.2706V38.4941L24.7764 41.8588L21.6 41.1058V37.0823C21.6 37.0823 23.3176 35.0353 25.9529 34.1647L29.2706 35.2706Z" fill="#FEFEFE"/>
<path d="M34.1176 42.5176L37.6706 41.7411L39.7882 45.1529C39.7882 45.1529 39.5294 47.1059 38.5412 48.8L35.2235 49.9764L32.6118 47.5764L34.1176 42.5176Z" fill="#FEFEFE"/>
<path d="M24.9647 42.447L21.4118 41.6706L19.2941 45.0823C19.2941 45.0823 19.553 47.0353 20.5412 48.7294L23.8588 49.9059L26.4706 47.5059L24.9647 42.447Z" fill="#FEFEFE"/>
<path d="M27.0588 47.8588H31.9529L34.7059 50.4706L32.6118 53.2941C32.6118 53.2941 29.2235 54.4 26.4941 53.2941L24.5647 50.4471L27.0588 47.8588Z" fill="#FEFEFE"/>
<path d="M26.7529 59.0353C26.4235 59.0353 26.1411 58.6353 26.1411 58.1412C26.1411 57.6471 26.4235 57.2471 26.7529 57.2471C27.1058 57.2471 27.3882 57.6471 27.3882 58.1412C27.3882 58.6353 27.1058 59.0353 26.7529 59.0353ZM26.7529 56.1882C25.6941 56.1882 24.8235 57.0588 24.8235 58.1412C24.8235 59.2235 25.6941 60.0941 26.7529 60.0941C27.8353 60.0941 28.7058 59.2235 28.7058 58.1412C28.7058 57.0588 27.8353 56.1882 26.7529 56.1882Z" fill="#E31E24"/>
<path d="M26.753 57.3412C26.4706 57.3412 26.2353 57.6941 26.2353 58.1412C26.2353 58.5882 26.4706 58.9412 26.753 58.9412C27.0588 58.9412 27.2941 58.5882 27.2941 58.1412C27.2941 57.6941 27.0588 57.3412 26.753 57.3412ZM26.753 59.1294C26.3765 59.1294 26.0471 58.6824 26.0471 58.1412C26.0471 57.6 26.3765 57.153 26.753 57.153C27.153 57.153 27.4588 57.6 27.4588 58.1412C27.4588 58.6824 27.153 59.1294 26.753 59.1294ZM26.753 56.2824C25.7412 56.2824 24.8941 57.1294 24.8941 58.1412C24.8941 59.1765 25.7412 60 26.753 60C27.7883 60 28.6118 59.1765 28.6118 58.1412C28.6118 57.1294 27.7883 56.2824 26.753 56.2824ZM26.753 60.1647C25.6471 60.1647 24.7294 59.2706 24.7294 58.1412C24.7294 57.0118 25.6471 56.1177 26.753 56.1177C27.8824 56.1177 28.8 57.0118 28.8 58.1412C28.8 59.2706 27.8824 60.1647 26.753 60.1647Z" fill="#FEFEFE"/>
<path d="M34 57.8824V57.1294H32.5647V57.8824H32.8V58.9412H32.0471V57.8824H32.2824V57.1294H30.8471V57.8824H31.0588V58.9412H30.3294V57.8824H30.5412V57.1294H29.1059V57.8824H29.3412V58.9412H29.1059V60.0471H34V58.9412H33.7882V57.8824H34Z" fill="#E31E24"/>
<path d="M29.2 59.9765H33.9294V59.0353H33.6941V57.7882H33.9294V57.2235H32.6588V57.7882H32.8941V59.0353H31.953V57.7882H32.1883V57.2235H30.9177V57.7882H31.153V59.0353H30.2353V57.7882H30.4706V57.2235H29.2V57.7882H29.4353V59.0353H29.2V59.9765ZM34.0941 60.1412H29.0118V58.8706H29.2471V57.9529H29.0118V57.0588H30.6353V57.9529H30.4235V58.8706H30.9883V57.9529H30.753V57.0588H32.3765V57.9529H32.1412V58.8706H32.7059V57.9529H32.4706V57.0588H34.0941V57.9529H33.8588V58.8706H34.0941V60.1412Z" fill="#FEFEFE"/>
<path d="M25.7412 63.2235H25.3177V61.5765C25.153 61.7412 24.9647 61.8353 24.7294 61.9059V61.5294C24.8471 61.4823 24.9883 61.4118 25.1059 61.3176C25.2471 61.2 25.3412 61.0823 25.3883 60.9412H25.7412V63.2235Z" fill="#FEFEFE"/>
<path d="M28.2824 61.7412C28.2824 61.6 28.2588 61.5059 28.1882 61.4118C28.1177 61.3412 28.0471 61.2941 27.953 61.2941C27.8824 61.2941 27.8118 61.3412 27.7647 61.4118C27.6941 61.4588 27.6706 61.5765 27.6706 61.7176C27.6706 61.8588 27.7177 61.9765 27.7647 62.047C27.8353 62.1176 27.9059 62.1412 27.9765 62.1412C28.0706 62.1412 28.1412 62.1176 28.1882 62.047C28.2588 61.9765 28.2824 61.8823 28.2824 61.7412ZM27.2941 62.7059L27.7177 62.6588C27.7177 62.7529 27.7647 62.8 27.7882 62.847C27.8353 62.8941 27.9059 62.9176 27.9765 62.9176C28.0706 62.9176 28.1412 62.8706 28.1882 62.8C28.2588 62.7059 28.3059 62.5412 28.3294 62.2823C28.2118 62.4 28.0706 62.4706 27.9059 62.4706C27.7412 62.4706 27.5765 62.4 27.4353 62.2588C27.3177 62.1176 27.2471 61.9294 27.2471 61.7176C27.2471 61.4823 27.3177 61.2941 27.4588 61.1529C27.6 61.0118 27.7647 60.9412 27.9765 60.9412C28.2118 60.9412 28.4 61.0353 28.5412 61.2C28.7059 61.3882 28.7765 61.6941 28.7765 62.0941C28.7765 62.5176 28.7059 62.8235 28.5412 62.9882C28.3765 63.1765 28.1882 63.2706 27.9294 63.2706C27.7647 63.2706 27.6235 63.2235 27.5059 63.1294C27.3882 63.0353 27.3177 62.8941 27.2941 62.7059Z" fill="#FEFEFE"/>
<path d="M30.4235 62.4706C30.4235 62.6118 30.4705 62.7059 30.5411 62.8C30.5882 62.8706 30.6823 62.9176 30.7529 62.9176C30.847 62.9176 30.8941 62.8706 30.9646 62.8235C31.0117 62.7529 31.0352 62.6588 31.0352 62.4941C31.0352 62.3529 31.0117 62.2353 30.9411 62.1882C30.8941 62.1176 30.8235 62.0706 30.7294 62.0706C30.6588 62.0706 30.5882 62.1176 30.5176 62.1647C30.4705 62.2353 30.4235 62.3294 30.4235 62.4706ZM31.4352 61.5059L31.0117 61.5529C30.9882 61.4588 30.9646 61.4118 30.9176 61.3647C30.8705 61.3176 30.8235 61.2941 30.7529 61.2941C30.6588 61.2941 30.5882 61.3412 30.5176 61.4353C30.447 61.5059 30.4235 61.6941 30.3999 61.9529C30.4941 61.8118 30.6352 61.7412 30.7999 61.7412C30.9882 61.7412 31.1294 61.8118 31.2705 61.9529C31.4117 62.0941 31.4588 62.2823 31.4588 62.4941C31.4588 62.7294 31.3882 62.9176 31.2705 63.0588C31.1294 63.2 30.9411 63.2706 30.7294 63.2706C30.4941 63.2706 30.3058 63.1765 30.1646 63.0118C30.0235 62.8235 29.9529 62.5412 29.9529 62.1176C29.9529 61.6941 30.0235 61.4118 30.1646 61.2235C30.3294 61.0353 30.5176 60.9412 30.7764 60.9412C30.9411 60.9412 31.0823 60.9882 31.1999 61.0823C31.3176 61.1765 31.3882 61.3176 31.4352 61.5059Z" fill="#FEFEFE"/>
<path d="M32.6118 61.3882V60.9882H34.0941V61.2941C33.9765 61.4117 33.8588 61.6 33.7176 61.8352C33.6 62.047 33.5059 62.2823 33.4353 62.5411C33.3647 62.8 33.3176 63.0352 33.3412 63.2235H32.9176C32.9176 62.9176 32.9882 62.5882 33.1059 62.2588C33.2235 61.9294 33.3882 61.647 33.6 61.3882H32.6118Z" fill="#FEFEFE"/>
<path d="M44.4236 57.2941C43.6 57.2235 43.3647 57.8823 43.3647 57.8823C42.8471 57.5059 42.4236 57.8823 42.4236 57.8823C42.4236 57.8823 42.9883 58.0235 43.153 58.6823C43.3177 59.4353 42.6589 60 42.0236 60.0706C41.3883 60.1412 40.9647 59.2 41.2236 58.8941C41.4589 58.5647 41.953 58.5176 42.0471 58.8235C42.1647 59.1765 41.6706 59.3176 41.6706 59.3176C41.7647 59.6706 42.353 59.6235 42.5647 59.2706C42.8 58.9176 42.6589 58.2588 42.1177 58.0941C41.5765 57.9294 40.9412 58.4471 40.9412 58.4471C40.753 57.8588 40.1412 57.6 40.1412 57.6C40.1412 57.6 39.9059 58.2118 40.2118 58.7765C40.2118 58.7765 39.4118 58.8941 39.153 59.3882C38.9177 59.9059 39.2941 60.4471 39.6941 60.5176C40.1177 60.5882 40.5412 60.2118 40.353 59.9059C40.353 59.9059 39.9059 60.1647 39.7177 59.8588C39.5765 59.5529 39.9294 59.2471 40.353 59.2706C40.7294 59.2941 41.153 60.2588 40.6589 60.6588C40.1883 61.0823 39.3177 61.1765 38.8706 60.5412C38.4941 60 38.7765 59.4588 38.7765 59.4588C38.7765 59.4588 38.2353 59.5529 38.1647 60.1647C38.1647 60.1647 37.5059 59.9059 36.9883 60.5412C36.5647 61.1059 36.9647 61.8118 37.3647 61.9059C37.7647 62 38.2118 61.7412 38.1647 61.3412C38.1647 61.3412 37.6941 61.5765 37.5294 61.2235C37.3647 60.9176 37.6706 60.5647 38.0471 60.7059C38.4471 60.8471 39.2706 61.9294 40.4471 61.4588C41.4118 61.0823 41.3647 60.4235 41.3647 60.4235C41.3647 60.4235 41.8353 60.8941 42.753 60.4471C43.8824 59.9059 43.6471 58.5412 43.8118 58.1647C43.9765 57.8118 44.4471 57.8353 44.5647 58.1412C44.7059 58.5176 44.2118 58.6823 44.2118 58.6823C44.4941 58.9882 44.9647 58.8471 45.1765 58.4941C45.3647 58.1412 45.1294 57.3412 44.4236 57.2941Z" fill="#E31E24"/>
<path d="M37.8353 60.1647C37.6 60.1647 37.2941 60.2353 37.0353 60.5883C36.8 60.8941 36.847 61.2 36.9176 61.3647C36.9882 61.6 37.2 61.8118 37.3882 61.8589C37.6 61.9059 37.8117 61.8589 37.9529 61.7177C38.0235 61.6706 38.1176 61.5765 38.1176 61.4353C37.9294 61.5059 37.6235 61.5294 37.4823 61.2471C37.3882 61.1059 37.4353 60.9177 37.5529 60.7765C37.6705 60.6353 37.8823 60.5883 38.0705 60.6589C38.1882 60.6824 38.3058 60.7765 38.447 60.8941C38.8941 61.2471 39.5764 61.7412 40.4235 61.4118C41.3411 61.0589 41.3176 60.4706 41.3176 60.4471V60.3059L41.4117 60.4C41.4353 60.4236 41.8588 60.8236 42.7294 60.4C43.5529 60 43.647 59.1765 43.6941 58.6118C43.7176 58.4236 43.7176 58.2589 43.7647 58.1647C43.8353 57.9765 44.0235 57.8589 44.2117 57.8589C44.4 57.8589 44.5647 57.953 44.6117 58.1177C44.7294 58.4 44.4941 58.6118 44.3058 58.7059C44.4235 58.8 44.5411 58.8 44.6353 58.8C44.8235 58.7765 45.0117 58.6589 45.1294 58.4706C45.2235 58.2824 45.2 58 45.0823 57.7647C45.0117 57.6236 44.8 57.3647 44.4235 57.3412C43.647 57.2706 43.4117 57.8824 43.4117 57.9059L43.3882 57.9765L43.3176 57.9294C42.9882 57.6706 42.6823 57.7883 42.5411 57.8589C42.7058 57.9294 43.0823 58.1412 43.2 58.6589C43.2705 58.9883 43.2 59.2941 43.0117 59.553C42.8 59.8589 42.4235 60.0706 42.0235 60.1177C41.7176 60.1647 41.4353 59.9765 41.247 59.6236C41.0823 59.3412 41.0588 59.0118 41.1764 58.8471C41.3411 58.6589 41.6 58.5412 41.8117 58.5647C41.9529 58.5883 42.0705 58.6824 42.0941 58.8C42.1411 58.9177 42.1411 58.9883 42.0941 59.0824C42 59.2236 41.8353 59.3177 41.7411 59.3647C41.7882 59.4589 41.9058 59.4824 41.9764 59.5059C42.1411 59.5294 42.4 59.4353 42.5411 59.2471C42.6353 59.0824 42.6588 58.8236 42.5882 58.6118C42.4941 58.3765 42.3294 58.2118 42.0941 58.1412C41.6 58 40.9882 58.4941 40.9882 58.4941L40.9176 58.5412L40.8941 58.4706C40.7294 58 40.3058 57.7412 40.1647 57.6706C40.1176 57.8353 40.0235 58.3294 40.2588 58.753L40.2823 58.8236H40.2117C40.2117 58.8471 39.4353 58.9412 39.2 59.4118C39.1058 59.6236 39.1058 59.8589 39.2235 60.0706C39.3176 60.2824 39.5058 60.4471 39.7176 60.4706C39.9529 60.5177 40.1882 60.3765 40.2823 60.2353C40.3294 60.1883 40.3764 60.0706 40.3294 59.9765C40.2588 60 40.0705 60.0941 39.9058 60.0471C39.8117 60.0236 39.7411 59.953 39.6941 59.8824C39.6235 59.7647 39.6235 59.6236 39.6941 59.5059C39.8117 59.3177 40.0941 59.2 40.3529 59.2236C40.5411 59.2471 40.7764 59.4824 40.8705 59.7883C40.9882 60.1647 40.9411 60.4941 40.7058 60.7059C40.4 60.9647 40 61.0824 39.6 61.0353C39.2941 61.0118 39.0117 60.8471 38.847 60.5647C38.5411 60.1412 38.6353 59.7177 38.7058 59.553C38.5411 59.6 38.2588 59.7412 38.2117 60.1647V60.2353L38.1411 60.2118C38.1176 60.2118 38 60.1647 37.8353 60.1647ZM37.5529 61.9765C37.4823 61.9765 37.4117 61.9765 37.3647 61.953C37.1294 61.9059 36.9176 61.6706 36.8 61.3883C36.7529 61.2 36.6823 60.8706 36.9647 60.5177C37.3882 59.953 37.9294 60.0471 38.1176 60.0941C38.2117 59.5059 38.7764 59.4118 38.7764 59.4118H38.8705L38.8235 59.5059C38.8235 59.5059 38.5647 60 38.9176 60.5177C39.0823 60.753 39.3176 60.9177 39.6235 60.9412C39.9764 60.9883 40.3529 60.8706 40.6353 60.6353C40.8235 60.4471 40.8941 60.1412 40.7764 59.8118C40.6823 59.553 40.4941 59.3412 40.3294 59.3177C40.1176 59.3177 39.8823 59.4118 39.7882 59.553C39.7411 59.6236 39.7176 59.7177 39.7647 59.8118C39.8117 59.8824 39.8588 59.9294 39.9294 59.953C40.0941 60 40.3294 59.8589 40.3294 59.8589L40.3764 59.8353L40.4 59.8824C40.4705 60 40.4705 60.1647 40.3764 60.3059C40.2117 60.4941 39.9294 60.6118 39.6941 60.5647C39.4588 60.5412 39.247 60.353 39.1294 60.1177C38.9882 59.8824 38.9882 59.6236 39.1058 59.3647C39.3176 58.9412 39.9294 58.7765 40.1176 58.753C39.8588 58.1883 40.0705 57.6236 40.0941 57.6V57.5294L40.1647 57.553C40.1882 57.5765 40.7529 57.8118 40.9647 58.3765C41.1529 58.2589 41.647 57.9059 42.1411 58.0471C42.3764 58.1412 42.5882 58.3059 42.6823 58.5647C42.7529 58.8236 42.7529 59.1059 42.6117 59.2941C42.4705 59.5059 42.2117 59.6236 41.9529 59.6C41.7882 59.5765 41.6705 59.4824 41.6235 59.3412L41.6 59.2941L41.647 59.2706C41.647 59.2706 41.9058 59.2 42 59.0353C42.0235 58.9647 42.0235 58.9177 42 58.8471C41.9764 58.7294 41.8823 58.6824 41.8117 58.6824C41.6235 58.6353 41.3882 58.753 41.247 58.9177C41.1529 59.0589 41.1764 59.3177 41.3411 59.5765C41.5058 59.8824 41.7647 60.0471 42.0235 60.0236C42.3764 59.9765 42.7294 59.7883 42.9411 59.4824C43.1058 59.2471 43.1529 58.9647 43.1058 58.6824C42.9647 58.0706 42.4235 57.9294 42.4 57.9294L42.3058 57.9059L42.3764 57.8353C42.4 57.8353 42.8235 57.4824 43.3411 57.8118C43.4117 57.6471 43.7176 57.1765 44.4235 57.2471C44.8705 57.2706 45.0823 57.553 45.1764 57.7177C45.3176 58 45.3176 58.3059 45.2235 58.5177C45.0823 58.7294 44.8705 58.8706 44.6588 58.8941C44.4705 58.9177 44.3058 58.8706 44.1882 58.7294L44.1411 58.6589L44.2117 58.6353C44.2117 58.6353 44.6353 58.4706 44.5176 58.1647C44.4705 58.0236 44.3529 57.953 44.2117 57.953C44.0941 57.953 43.9294 58.0236 43.8588 58.1883C43.8353 58.2824 43.8117 58.4471 43.7882 58.6118C43.7411 59.2 43.647 60.0706 42.7764 60.4941C42.047 60.8471 41.6 60.6589 41.4117 60.5412C41.3882 60.7294 41.2235 61.2 40.4705 61.5059C39.5529 61.8589 38.8705 61.3412 38.4 60.9883C38.2588 60.8706 38.1176 60.7765 38.047 60.753C37.8588 60.6824 37.6941 60.753 37.6235 60.8471C37.5294 60.9412 37.5058 61.0824 37.5764 61.2C37.7176 61.5059 38.1176 61.3177 38.1411 61.2941L38.2117 61.2706V61.3412C38.2353 61.5294 38.1647 61.6941 38.0235 61.8118C37.9058 61.9059 37.7176 61.9765 37.5529 61.9765Z" fill="#FFED00"/>
<path d="M51.1529 49.6942C50.4 50.0471 50.4941 50.753 50.4941 50.753C49.8823 50.6589 49.6706 51.2 49.6706 51.2C49.6706 51.2 50.2588 51.0353 50.7059 51.5294C51.2235 52.1177 50.9176 52.9412 50.4 53.2942C49.8823 53.6706 49.0588 53.0353 49.1294 52.6589C49.2 52.2589 49.5765 51.9765 49.8353 52.1883C50.0941 52.4471 49.7176 52.8236 49.7176 52.8236C49.9765 53.0589 50.4706 52.753 50.4941 52.3294C50.5176 51.9059 50.0706 51.4118 49.5294 51.5294C48.9647 51.6471 48.6823 52.4236 48.6823 52.4236C48.2118 52 47.5529 52.0706 47.5529 52.0706C47.5529 52.0706 47.6471 52.7294 48.1882 53.0589C48.1882 53.0589 47.5294 53.553 47.5765 54.1177C47.6 54.6824 48.2118 54.9647 48.5882 54.8236C48.9882 54.6824 49.1765 54.1412 48.8706 53.953C48.8706 53.953 48.6118 54.4236 48.2823 54.2353C48 54.0471 48.1882 53.6 48.5412 53.4118C48.8941 53.2706 49.7176 53.8824 49.5059 54.4706C49.2941 55.0824 48.5882 55.6 47.9059 55.2471C47.2941 54.9412 47.2941 54.353 47.2941 54.353C47.2941 54.353 46.8235 54.6824 47.0823 55.2706C47.0823 55.2706 46.3765 55.3647 46.2353 56.1647C46.1412 56.8706 46.8471 57.2942 47.2471 57.1765C47.6471 57.0589 47.8823 56.6353 47.6706 56.3059C47.6706 56.3059 47.3647 56.7294 47.0353 56.4942C46.7529 56.3294 46.8471 55.8353 47.2471 55.7883C47.6471 55.7177 48.9176 56.2589 49.6941 55.2942C50.3529 54.4706 50.0235 53.9294 50.0235 53.9294C50.0235 53.9294 50.6353 54.1177 51.2235 53.2706C51.9529 52.2353 51.0823 51.1765 51.0353 50.7765C50.9882 50.3765 51.4353 50.1647 51.6706 50.3765C51.9765 50.6353 51.6471 51.0118 51.6471 51.0118C52.0235 51.153 52.3765 50.8 52.3765 50.3765C52.3765 49.9765 51.7882 49.4118 51.1529 49.6942Z" fill="#E31E24"/>
<path d="M46.7764 55.4353C46.5882 55.5294 46.3529 55.7412 46.3059 56.1882C46.2353 56.5647 46.447 56.8 46.5647 56.9176C46.7764 57.1059 47.0353 57.1764 47.2235 57.1294C47.4353 57.0588 47.6 56.9176 47.6706 56.7294C47.6941 56.6353 47.7176 56.5176 47.647 56.3764C47.5294 56.5412 47.2706 56.7294 47.0117 56.5412C46.8706 56.447 46.8 56.2823 46.847 56.0941C46.8941 55.9059 47.0353 55.7647 47.247 55.7412C47.3411 55.7176 47.5059 55.7412 47.6941 55.7647C48.2588 55.8353 49.0823 55.9529 49.6706 55.247C50.2823 54.4941 49.9764 53.9764 49.9764 53.9529L49.9059 53.8588L50.0235 53.8823C50.047 53.8823 50.6353 54.047 51.2 53.247C51.7176 52.4941 51.3647 51.7176 51.1529 51.2C51.0588 51.0353 51.0117 50.8941 50.9882 50.7764C50.9647 50.5647 51.0588 50.3764 51.2235 50.2823C51.3882 50.2117 51.5764 50.2117 51.7176 50.3294C51.9529 50.5412 51.8588 50.8235 51.7411 50.9882C51.8823 51.0117 52 50.9647 52.0706 50.9176C52.2353 50.8 52.3294 50.5882 52.3294 50.3764C52.3294 50.1882 52.1647 49.9529 51.9529 49.8117C51.8117 49.7176 51.5059 49.5764 51.1529 49.7412C50.447 50.0706 50.5411 50.7059 50.5411 50.7294L50.5647 50.8H50.4941C50.0706 50.7294 49.8588 50.9882 49.7647 51.1294C49.9529 51.1059 50.3764 51.1059 50.7294 51.5059C50.9647 51.7412 51.0588 52.0235 51.0117 52.3529C50.9647 52.7294 50.7529 53.1059 50.4235 53.3412C50.1882 53.5059 49.8353 53.5059 49.5059 53.2941C49.2235 53.1294 49.0353 52.847 49.0823 52.6588C49.1059 52.4 49.2941 52.1647 49.5059 52.0941C49.6235 52.047 49.7647 52.0706 49.8588 52.1647C49.9294 52.2353 49.9764 52.3059 49.9764 52.4C49.9764 52.5647 49.8588 52.7294 49.8117 52.8235C49.9059 52.8706 50.0235 52.847 50.0706 52.8235C50.2353 52.7529 50.4235 52.5647 50.447 52.3294C50.447 52.1176 50.3529 51.9059 50.1647 51.7412C50 51.6 49.7647 51.5294 49.5294 51.5764C49.0117 51.6941 48.7294 52.4235 48.7294 52.4235L48.7059 52.4941L48.6588 52.447C48.2823 52.1176 47.7882 52.1176 47.6235 52.1176C47.647 52.2823 47.7882 52.7529 48.2117 53.0117L48.2823 53.0588L48.2117 53.1059C48.2117 53.1059 47.6 53.5764 47.6235 54.1176C47.647 54.3529 47.7647 54.5412 47.9529 54.6823C48.1411 54.8 48.4 54.847 48.5882 54.7764C48.8 54.7059 48.9411 54.4706 48.9647 54.3059C48.9647 54.2353 48.9647 54.1176 48.8941 54.0235C48.8235 54.1176 48.7059 54.2588 48.5411 54.3059C48.447 54.3294 48.3529 54.3294 48.2588 54.2588C48.1411 54.1882 48.0941 54.0706 48.0941 53.9294C48.1176 53.7176 48.2823 53.4823 48.5176 53.3647C48.7059 53.2941 49.0117 53.3882 49.2706 53.6235C49.5529 53.8823 49.6706 54.2117 49.5529 54.4941C49.4353 54.8706 49.1294 55.1764 48.7764 55.3176C48.4706 55.4588 48.1647 55.4353 47.8823 55.2941C47.3882 55.0588 47.2706 54.6588 47.247 54.4706C47.1294 54.5882 46.9647 54.847 47.1294 55.247L47.1529 55.3176H47.0823C47.0823 55.3176 46.9411 55.3412 46.7764 55.4353ZM47.4353 57.1529C47.3647 57.1764 47.3176 57.2 47.247 57.2235C47.0353 57.2941 46.7294 57.2 46.4941 56.9882C46.3529 56.8706 46.1176 56.5882 46.1882 56.1647C46.3059 55.4588 46.8235 55.2706 47.0117 55.2235C46.8 54.6588 47.247 54.3294 47.247 54.3059L47.3411 54.2588V54.3529C47.3411 54.3764 47.3647 54.9176 47.9059 55.2C48.1882 55.3412 48.4706 55.3412 48.7294 55.2235C49.0588 55.1059 49.3411 54.8 49.4588 54.4706C49.5529 54.2117 49.4588 53.9294 49.2 53.6941C48.9882 53.5059 48.7059 53.4117 48.5647 53.4588C48.3529 53.5764 48.2117 53.7647 48.2117 53.9529C48.1882 54.0235 48.2117 54.1176 48.3294 54.1882C48.3764 54.2117 48.447 54.2353 48.5176 54.2117C48.6823 54.1647 48.8235 53.9294 48.8235 53.9294L48.847 53.8823L48.8941 53.9059C49.0117 54 49.0823 54.1412 49.0588 54.3059C49.0353 54.5647 48.847 54.8 48.6117 54.8706C48.4 54.9647 48.1176 54.9176 47.9059 54.7529C47.6706 54.6117 47.5294 54.3764 47.5294 54.1176C47.4823 53.6235 47.9529 53.2 48.0941 53.0588C47.6 52.7059 47.5059 52.0941 47.5059 52.0706V52.0235H47.5529C47.5764 52.0235 48.1882 51.9529 48.6588 52.3294C48.7529 52.1412 49.0353 51.6 49.5059 51.4823C49.7647 51.4353 50.0235 51.5059 50.2353 51.6706C50.447 51.8353 50.5647 52.0941 50.5411 52.3294C50.5176 52.5882 50.3529 52.8235 50.1176 52.9176C49.9529 52.9882 49.8117 52.9647 49.6941 52.8706L49.647 52.8235L49.6941 52.7764C49.6941 52.7764 49.8823 52.5882 49.8823 52.4C49.8823 52.3294 49.8353 52.2823 49.7882 52.2353C49.6941 52.1412 49.6 52.1647 49.5294 52.1882C49.3647 52.2588 49.2 52.447 49.1764 52.6588C49.1529 52.8235 49.3176 53.0588 49.5529 53.2C49.8588 53.3882 50.1647 53.4117 50.3764 53.247C50.6823 53.0588 50.8706 52.7059 50.9176 52.3529C50.9411 52.047 50.8706 51.7882 50.6588 51.5764C50.2353 51.1059 49.6941 51.247 49.6941 51.247L49.6 51.2706L49.6235 51.1764C49.6235 51.1764 49.8353 50.6353 50.447 50.6823C50.447 50.4941 50.4706 49.9529 51.1294 49.647C51.5294 49.4588 51.8353 49.6235 52 49.7176C52.2588 49.8823 52.4235 50.1412 52.4235 50.3764C52.4235 50.6353 52.3059 50.8706 52.1176 50.9882C51.9764 51.1059 51.8117 51.1294 51.6235 51.0588L51.5529 51.0353L51.6 50.9882C51.6235 50.9647 51.9059 50.6353 51.647 50.4C51.5529 50.3294 51.4117 50.3059 51.2706 50.3764C51.1764 50.447 51.0588 50.5647 51.0823 50.7529C51.1059 50.847 51.1764 51.0117 51.247 51.1764C51.4823 51.6941 51.8353 52.4941 51.2706 53.2941C50.8 53.9764 50.3059 54.0235 50.0941 54C50.1647 54.1882 50.2588 54.6823 49.7411 55.3176C49.1294 56.0706 48.2588 55.9529 47.6941 55.8588C47.5059 55.8353 47.3411 55.8117 47.2706 55.8353C47.0588 55.8588 46.9647 56 46.9411 56.1176C46.9176 56.2588 46.9647 56.4 47.0823 56.4706C47.3411 56.6588 47.6 56.2823 47.6235 56.2588L47.647 56.2117L47.6941 56.2588C47.8117 56.4235 47.8353 56.5882 47.7647 56.7529C47.7176 56.9176 47.5764 57.0588 47.4353 57.1529Z" fill="#FFED00"/>
<path d="M50.3764 39.4824C50.0705 40.2589 50.6352 40.6824 50.6352 40.6824C50.1176 41.0589 50.3294 41.5765 50.3294 41.5765C50.3294 41.5765 50.6352 41.0824 51.3176 41.1294C52.0941 41.2 52.4235 42 52.3058 42.6118C52.1647 43.2471 51.1529 43.3412 50.9176 43.0353C50.7058 42.6824 50.7999 42.2118 51.1294 42.2118C51.4823 42.2118 51.4823 42.7294 51.4823 42.7294C51.8352 42.7294 51.9529 42.1647 51.6941 41.8589C51.4352 41.5294 50.7764 41.4589 50.447 41.9294C50.1176 42.4 50.447 43.153 50.447 43.153C49.7882 43.1765 49.3882 43.6706 49.3882 43.6706C49.3882 43.6706 49.9058 44.0706 50.5176 43.953C50.5176 43.953 50.3764 44.753 50.7764 45.153C51.1999 45.5294 51.8352 45.3412 52.0235 44.9647C52.2117 44.6118 51.9764 44.0706 51.6235 44.1412C51.6235 44.1412 51.7411 44.6589 51.3882 44.7294C51.0588 44.8 50.8705 44.353 51.0352 43.9765C51.1764 43.6236 52.2117 43.5059 52.447 44.0941C52.7058 44.6824 52.5411 45.5294 51.7882 45.7647C51.1529 45.953 50.7529 45.5294 50.7529 45.5294C50.7529 45.5294 50.6352 46.0706 51.2235 46.3294C51.2235 46.3294 50.7529 46.8706 51.2235 47.553C51.6235 48.1412 52.4235 47.953 52.6352 47.6C52.847 47.2471 52.7529 46.7765 52.3529 46.6824C52.3529 46.6824 52.4235 47.2 52.047 47.2706C51.6941 47.3177 51.4352 46.9177 51.6941 46.5883C51.9294 46.2589 53.2235 45.7883 53.1529 44.5412C53.0823 43.5059 52.447 43.3412 52.447 43.3412C52.447 43.3412 53.0352 43.0589 52.8705 42.0236C52.7058 40.8 51.3411 40.6118 51.0352 40.3294C50.7294 40.0706 50.8941 39.6236 51.2235 39.6C51.6235 39.6 51.647 40.1177 51.647 40.1177C52.0235 39.9294 52.0235 39.4353 51.7411 39.153C51.4588 38.8471 50.6588 38.8236 50.3764 39.4824Z" fill="#E31E24"/>
<path d="M51.1059 46.6353C51.0353 46.847 51.0353 47.1764 51.2706 47.5294C51.4824 47.8588 51.8118 47.8823 51.9765 47.8823C52.2353 47.8823 52.4942 47.7647 52.5883 47.5764C52.7059 47.3882 52.7295 47.1764 52.6353 46.9882C52.6118 46.9176 52.5412 46.8 52.4 46.7529C52.4 46.9647 52.353 47.2706 52.0471 47.3176C51.8824 47.3411 51.6942 47.247 51.6 47.1059C51.5059 46.9176 51.5295 46.7294 51.6471 46.5647C51.7177 46.4706 51.8589 46.3764 52 46.2588C52.4706 45.9529 53.153 45.4588 53.1059 44.5411C53.0353 43.5764 52.4706 43.4117 52.4236 43.3882L52.3059 43.3647L52.4236 43.2941C52.4471 43.2941 52.9647 43.0117 52.8236 42.047C52.7059 41.1294 51.9295 40.8 51.4118 40.5882C51.2236 40.5176 51.0824 40.447 51.0118 40.3764C50.8471 40.2353 50.7765 40.047 50.8471 39.8588C50.9177 39.6941 51.0589 39.5764 51.2236 39.5529C51.5295 39.5529 51.6706 39.8353 51.6942 40.0235C51.8118 39.9529 51.8589 39.8353 51.8824 39.7411C51.9295 39.5529 51.8589 39.3411 51.7177 39.1764C51.5765 39.0353 51.2942 38.9647 51.0353 39.0117C50.8706 39.0353 50.5647 39.1529 50.4236 39.5059C50.1177 40.2353 50.6353 40.6353 50.6589 40.6588L50.7059 40.6823L50.6589 40.7294C50.3059 40.9882 50.3295 41.3176 50.353 41.4588C50.4706 41.3176 50.8 41.0353 51.3177 41.0823C51.6471 41.1059 51.9059 41.247 52.0942 41.5059C52.3295 41.8117 52.4236 42.2588 52.353 42.6353C52.2824 42.9411 52.0236 43.1529 51.6471 43.2235C51.3177 43.2941 51.0118 43.2235 50.8942 43.0588C50.7295 42.847 50.7059 42.5647 50.8 42.3529C50.8706 42.2353 50.9883 42.1647 51.1295 42.1647C51.2236 42.1647 51.3177 42.1882 51.3647 42.2588C51.5059 42.3764 51.5295 42.5882 51.5295 42.6823C51.6471 42.6588 51.7177 42.5647 51.7412 42.4941C51.8118 42.3294 51.8118 42.0706 51.6706 41.8823C51.5295 41.7411 51.2942 41.647 51.0589 41.647C50.8236 41.6706 50.6353 41.7647 50.4942 41.9529C50.1883 42.4 50.4706 43.1294 50.4942 43.1294L50.5177 43.2H50.4471C49.9295 43.2235 49.5765 43.5529 49.4589 43.6706C49.6 43.7647 50.0236 44 50.5177 43.9059H50.5883L50.5647 43.9764C50.5647 43.9764 50.4471 44.7529 50.8236 45.1059C50.9883 45.2706 51.2236 45.3411 51.4589 45.2941C51.6942 45.2706 51.8824 45.1294 51.9765 44.9411C52.0942 44.7294 52.0471 44.4706 51.9295 44.3294C51.8824 44.2823 51.8118 44.1882 51.6942 44.1882C51.6942 44.2823 51.7177 44.4941 51.6236 44.6353C51.5765 44.7294 51.5059 44.7764 51.3883 44.8C51.2706 44.8235 51.153 44.7764 51.0589 44.6588C50.9177 44.4941 50.8942 44.2117 50.9883 43.9529C51.0589 43.7647 51.3412 43.6235 51.6942 43.6235C52.0706 43.6235 52.3765 43.7882 52.4942 44.0706C52.6589 44.4235 52.6589 44.8706 52.4942 45.2235C52.353 45.5059 52.1177 45.7176 51.8118 45.8117C51.3177 45.9529 50.9412 45.7411 50.7765 45.6235C50.7765 45.7882 50.8471 46.1176 51.2471 46.2823L51.2942 46.3059L51.2471 46.3529C51.2471 46.3764 51.153 46.4706 51.1059 46.6353ZM52.753 47.4588C52.7295 47.5294 52.7059 47.5764 52.6824 47.647C52.5647 47.8353 52.2824 47.9764 51.9765 47.9764C51.7883 48 51.4353 47.9529 51.1765 47.5764C50.7765 47.0117 51.0353 46.5176 51.1295 46.3529C50.5883 46.0706 50.6824 45.5294 50.6824 45.5059L50.7059 45.4117L50.7765 45.4823C50.8 45.5059 51.1765 45.8823 51.7883 45.7176C52.0706 45.6235 52.2824 45.4353 52.4 45.1764C52.5412 44.847 52.5412 44.447 52.4 44.1176C52.3059 43.8823 52.0236 43.7411 51.6942 43.7411C51.3883 43.7411 51.1295 43.8588 51.0824 44C50.9883 44.2117 51.0118 44.447 51.1295 44.5882C51.1765 44.6588 51.2471 44.7059 51.3883 44.6823C51.4589 44.6823 51.5059 44.6353 51.5295 44.5882C51.6471 44.4235 51.5765 44.1647 51.5765 44.1647V44.1176L51.6236 44.0941C51.7647 44.0706 51.9059 44.1411 52 44.2588C52.1647 44.4706 52.1883 44.7764 52.0706 44.9882C51.953 45.2 51.7412 45.3647 51.4824 45.4117C51.2 45.4353 50.9412 45.3647 50.753 45.1764C50.4 44.847 50.4471 44.2353 50.4706 44.0235C49.8589 44.0941 49.3647 43.7176 49.3412 43.7176L49.3177 43.6706L49.3412 43.647C49.3647 43.6235 49.7412 43.1529 50.3765 43.1059C50.3059 42.9176 50.1177 42.3059 50.4 41.9059C50.5647 41.6941 50.8 41.5529 51.0589 41.5529C51.3412 41.5294 51.6 41.647 51.7412 41.8117C51.9059 42.0235 51.9295 42.3059 51.8353 42.5411C51.7647 42.7059 51.6236 42.7764 51.4824 42.7764H51.4353V42.7294C51.4353 42.7294 51.4353 42.4706 51.2942 42.3294C51.2471 42.2823 51.2 42.2588 51.1295 42.2588C51.0118 42.2588 50.9412 42.3294 50.8942 42.4C50.8236 42.5647 50.8471 42.8235 50.9647 43.0117C51.0589 43.1294 51.3412 43.2 51.6236 43.1294C51.953 43.0588 52.1883 42.8706 52.2589 42.6117C52.3295 42.2588 52.2353 41.8588 52.0236 41.5764C51.8353 41.3411 51.6 41.2 51.3177 41.1764C50.6824 41.1294 50.3765 41.6 50.3765 41.6L50.3295 41.6941L50.2824 41.6C50.2824 41.6 50.0706 41.0588 50.5412 40.6823C50.4 40.5411 50.0706 40.1176 50.3295 39.4588C50.4942 39.0588 50.8236 38.9411 51.0118 38.9176C51.3177 38.847 51.6236 38.9411 51.7883 39.1059C51.953 39.2941 52.0236 39.5294 51.9765 39.7647C51.953 39.9529 51.8353 40.0706 51.6706 40.1647L51.6 40.1882V40.1176C51.6 40.0941 51.5765 39.647 51.2236 39.6706C51.1059 39.6706 50.9883 39.7647 50.9412 39.8823V39.9059C50.8942 40 50.9177 40.1647 51.0589 40.3059C51.1295 40.3529 51.2942 40.4235 51.4589 40.4941C51.9765 40.7294 52.8 41.0588 52.9412 42.0235C53.0353 42.847 52.7295 43.2 52.5647 43.3411C52.753 43.4353 53.1295 43.7176 53.2 44.5411C53.2706 45.5059 52.5412 46.0235 52.0706 46.3529C51.9295 46.447 51.7883 46.5411 51.7412 46.6117C51.6236 46.7764 51.6236 46.9411 51.6942 47.0353C51.7647 47.1764 51.9059 47.2235 52.0236 47.2C52.353 47.1529 52.3059 46.7059 52.2824 46.6823V46.6117L52.353 46.6353C52.5177 46.6823 52.6589 46.7764 52.7295 46.9647C52.8 47.1059 52.8 47.2941 52.753 47.4588Z" fill="#FFED00"/>
<path d="M14.7059 57.2941C15.5295 57.2235 15.7647 57.8823 15.7647 57.8823C16.2824 57.5059 16.7059 57.8823 16.7059 57.8823C16.7059 57.8823 16.1412 58.0235 15.9765 58.6823C15.8118 59.4353 16.4706 60 17.1059 60.0706C17.7412 60.1412 18.1647 59.2 17.9059 58.8941C17.6706 58.5647 17.1765 58.5176 17.0824 58.8235C16.9647 59.1765 17.4589 59.3176 17.4589 59.3176C17.3647 59.6706 16.7765 59.6235 16.5647 59.2706C16.3295 58.9176 16.4706 58.2588 17.0118 58.0941C17.553 57.9294 18.1883 58.4471 18.1883 58.4471C18.3765 57.8588 18.9883 57.6 18.9883 57.6C18.9883 57.6 19.2236 58.2118 18.9177 58.7765C18.9177 58.7765 19.7177 58.8941 19.9765 59.3882C20.2118 59.9059 19.8353 60.4471 19.4353 60.5176C19.0118 60.5882 18.5883 60.2118 18.7765 59.9059C18.7765 59.9059 19.2236 60.1647 19.4118 59.8588C19.553 59.5529 19.2 59.2471 18.7765 59.2706C18.4 59.2941 17.9765 60.2588 18.4706 60.6588C18.9412 61.0823 19.8118 61.1765 20.2589 60.5412C20.6353 60 20.353 59.4588 20.353 59.4588C20.353 59.4588 20.9177 59.5529 20.9647 60.1647C20.9647 60.1647 21.6236 59.9059 22.1412 60.5412C22.5647 61.1059 22.1648 61.8118 21.7648 61.9059C21.3647 62 20.9177 61.7412 20.9647 61.3412C20.9647 61.3412 21.4353 61.5765 21.6 61.2235C21.7648 60.9176 21.4589 60.5647 21.0824 60.7059C20.6824 60.8471 19.8589 61.9294 18.6824 61.4588C17.7177 61.0823 17.7647 60.4235 17.7647 60.4235C17.7647 60.4235 17.2942 60.8941 16.3765 60.4471C15.2471 59.9059 15.4824 58.5412 15.3177 58.1647C15.153 57.8118 14.6824 57.8353 14.5647 58.1412C14.4236 58.5176 14.9177 58.6823 14.9177 58.6823C14.6353 58.9882 14.1647 58.8471 13.953 58.4941C13.7647 58.1412 14 57.3412 14.7059 57.2941Z" fill="#E31E24"/>
<path d="M21.2942 60.1647C21.5295 60.1647 21.8353 60.2353 22.0942 60.5883C22.3295 60.8941 22.2824 61.2 22.2353 61.3647C22.1412 61.6 21.9295 61.8118 21.7412 61.8589C21.5295 61.9059 21.3177 61.8589 21.1765 61.7177C21.1059 61.6706 21.0353 61.5765 21.0118 61.4353C21.2 61.5059 21.5059 61.5294 21.6471 61.2471C21.7412 61.1059 21.6942 60.9177 21.5765 60.7765C21.4589 60.6353 21.2471 60.5883 21.0589 60.6589C20.9412 60.6824 20.8236 60.7765 20.6824 60.8941C20.2353 61.2471 19.553 61.7412 18.7059 61.4118C17.7883 61.0589 17.8118 60.4706 17.8118 60.4471V60.3059L17.7177 60.4C17.6942 60.4236 17.2706 60.8236 16.4 60.4C15.5765 60 15.4824 59.1765 15.4353 58.6118C15.4118 58.4236 15.4118 58.2589 15.3647 58.1647C15.2942 57.9765 15.1059 57.8589 14.9177 57.8589C14.7295 57.8589 14.5647 57.953 14.5177 58.1177C14.4 58.4 14.6353 58.6118 14.8236 58.7059C14.7059 58.8 14.5883 58.8 14.4942 58.8C14.3059 58.7765 14.1177 58.6589 14 58.4706C13.9059 58.2824 13.9295 58 14.0471 57.7647C14.1177 57.6236 14.3295 57.3647 14.7059 57.3412C15.4824 57.2706 15.7177 57.8824 15.7177 57.9059L15.7412 57.9765L15.8118 57.9294C16.1412 57.6706 16.4471 57.7883 16.5883 57.8589C16.4236 57.9294 16.0471 58.1412 15.9295 58.6589C15.8589 58.9883 15.9295 59.2941 16.1177 59.553C16.3295 59.8589 16.7059 60.0706 17.1059 60.1177C17.4118 60.1647 17.6942 59.9765 17.8824 59.6236C18.0471 59.3412 18.0706 59.0118 17.953 58.8471C17.7883 58.6589 17.5295 58.5412 17.3177 58.5647C17.1765 58.5883 17.0589 58.6824 17.0353 58.8C16.9883 58.9177 16.9883 58.9883 17.0353 59.0824C17.1295 59.2236 17.2942 59.3177 17.3883 59.3647C17.3412 59.4589 17.2236 59.4824 17.153 59.5059C16.9883 59.5294 16.7295 59.4353 16.5883 59.2471C16.4942 59.0824 16.4706 58.8236 16.5647 58.6118C16.6353 58.3765 16.8 58.2118 17.0353 58.1412C17.5295 58 18.1412 58.4941 18.1412 58.4941L18.2118 58.5412L18.2353 58.4706C18.4 58 18.8236 57.7412 18.9648 57.6706C19.0118 57.8353 19.1059 58.3294 18.8706 58.753L18.8471 58.8236H18.9177C18.9177 58.8471 19.6942 58.9412 19.9295 59.4118C20.0236 59.6236 20.0236 59.8589 19.9059 60.0706C19.8118 60.2824 19.6236 60.4471 19.4118 60.4706C19.1765 60.5177 18.9648 60.3765 18.8471 60.2353C18.8 60.1883 18.753 60.0706 18.8 59.9765C18.8706 60 19.0589 60.0941 19.2236 60.0471C19.3177 60.0236 19.3883 59.953 19.4353 59.8824C19.5059 59.7647 19.5059 59.6236 19.4353 59.5059C19.3177 59.3177 19.0353 59.2 18.7765 59.2236C18.5883 59.2471 18.353 59.4824 18.2589 59.7883C18.1412 60.1647 18.1883 60.4941 18.4236 60.7059C18.7295 60.9647 19.153 61.0824 19.5295 61.0353C19.8353 61.0118 20.1177 60.8471 20.2824 60.5647C20.5883 60.1412 20.4942 59.7177 20.4236 59.553C20.5883 59.6 20.8706 59.7412 20.9177 60.1647V60.2353L20.9883 60.2118C21.0118 60.2118 21.1295 60.1647 21.2942 60.1647ZM21.5765 61.9765C21.6471 61.9765 21.7177 61.9765 21.7648 61.953C22 61.9059 22.2118 61.6706 22.3295 61.3883C22.3765 61.2 22.4471 60.8706 22.1883 60.5177C21.7412 59.953 21.2 60.0471 21.0118 60.0941C20.9177 59.5059 20.353 59.4118 20.353 59.4118H20.2589L20.3059 59.5059C20.3059 59.5059 20.5648 60 20.2118 60.5177C20.0471 60.753 19.8118 60.9177 19.5059 60.9412C19.153 60.9883 18.7765 60.8706 18.4942 60.6353C18.3059 60.4471 18.2353 60.1412 18.353 59.8118C18.4471 59.553 18.6353 59.3412 18.8 59.3177C19.0118 59.3177 19.2471 59.4118 19.3412 59.553C19.3883 59.6236 19.4118 59.7177 19.3648 59.8118C19.3177 59.8824 19.2706 59.9294 19.2 59.953C19.0353 60 18.8 59.8589 18.8 59.8589L18.753 59.8353L18.7295 59.8824C18.6589 60 18.6589 60.1647 18.7765 60.3059C18.9177 60.4941 19.2 60.6118 19.4353 60.5647C19.6706 60.5412 19.8824 60.353 20 60.1177C20.1412 59.8824 20.1412 59.6236 20.0236 59.3647C19.8118 58.9412 19.2 58.7765 19.0118 58.753C19.2706 58.1883 19.0589 57.6236 19.0353 57.6V57.5294L18.9648 57.553C18.9412 57.5765 18.3765 57.8118 18.1648 58.3765C17.9765 58.2589 17.4824 57.9059 17.0118 58.0471C16.753 58.1412 16.5412 58.3059 16.4471 58.5647C16.3765 58.8236 16.3765 59.1059 16.5177 59.2941C16.6589 59.5059 16.9177 59.6236 17.1765 59.6C17.3412 59.5765 17.4589 59.4824 17.5059 59.3412L17.5295 59.2941L17.4824 59.2706C17.4824 59.2706 17.2236 59.2 17.1295 59.0353C17.1059 58.9647 17.1059 58.9177 17.1295 58.8471C17.153 58.7294 17.2471 58.6824 17.3177 58.6824C17.5059 58.6353 17.7412 58.753 17.8824 58.9177C17.9765 59.0589 17.953 59.3177 17.8118 59.5765C17.6236 59.8824 17.3648 60.0471 17.1059 60.0236C16.753 59.9765 16.4 59.7883 16.1883 59.4824C16.0236 59.2471 15.9765 58.9647 16.0471 58.6824C16.1647 58.0706 16.7295 57.9294 16.7295 57.9294L16.8236 57.9059L16.753 57.8353C16.7295 57.8353 16.3059 57.4824 15.7883 57.8118C15.7177 57.6471 15.4118 57.1765 14.7059 57.2471C14.2589 57.2706 14.0471 57.553 13.953 57.7177C13.8118 58 13.8118 58.3059 13.9059 58.5177C14.0471 58.7294 14.2589 58.8706 14.4706 58.8941C14.6589 58.9177 14.8236 58.8706 14.9412 58.7294L14.9883 58.6589L14.9177 58.6353C14.9177 58.6353 14.4942 58.4706 14.6118 58.1647C14.6589 58.0236 14.7765 57.953 14.9177 57.953C15.0353 57.953 15.2 58.0236 15.2706 58.1883C15.2942 58.2824 15.3177 58.4471 15.3412 58.6118C15.3883 59.2 15.4824 60.0706 16.353 60.4941C17.0824 60.8471 17.5295 60.6589 17.7177 60.5412C17.7412 60.7294 17.9059 61.2 18.6589 61.5059C19.5765 61.8589 20.2589 61.3412 20.7295 60.9883C20.8706 60.8706 21.0118 60.7765 21.0824 60.753C21.2706 60.6824 21.4353 60.753 21.5059 60.8471C21.6 60.9412 21.6236 61.0824 21.553 61.2C21.4118 61.5059 21.0118 61.3177 20.9883 61.2941L20.9177 61.2706V61.3412C20.8942 61.5294 20.9648 61.6941 21.1059 61.8118C21.2236 61.9059 21.4118 61.9765 21.5765 61.9765Z" fill="#FFED00"/>
<path d="M7.97646 49.6942C8.7294 50.0471 8.63528 50.753 8.63528 50.753C9.24705 50.6589 9.45881 51.2 9.45881 51.2C9.45881 51.2 8.87058 51.0353 8.42352 51.5294C7.90587 52.1177 8.21175 52.9412 8.7294 53.2942C9.24705 53.6706 10.0706 53.0353 9.99999 52.6589C9.95293 52.2589 9.55293 51.9765 9.29411 52.1883C9.03528 52.4471 9.41175 52.8236 9.41175 52.8236C9.15293 53.0589 8.65881 52.753 8.63528 52.3294C8.61175 51.9059 9.05881 51.4118 9.59999 51.5294C10.1647 51.6471 10.447 52.4236 10.447 52.4236C10.9176 52 11.5765 52.0706 11.5765 52.0706C11.5765 52.0706 11.4823 52.7294 10.9412 53.0589C10.9412 53.0589 11.6 53.553 11.5529 54.1177C11.5294 54.6824 10.9176 54.9647 10.5412 54.8236C10.1412 54.6824 9.95293 54.1412 10.2588 53.953C10.2588 53.953 10.5176 54.4236 10.847 54.2353C11.1294 54.0471 10.9647 53.6 10.5882 53.4118C10.2353 53.2706 9.41175 53.8824 9.62352 54.4706C9.83528 55.0824 10.5412 55.6 11.2235 55.2471C11.8353 54.9412 11.8353 54.353 11.8353 54.353C11.8353 54.353 12.3059 54.6824 12.047 55.2706C12.047 55.2706 12.7529 55.3647 12.8941 56.1647C12.9882 56.8706 12.2823 57.2942 11.8823 57.1765C11.5059 57.0589 11.247 56.6353 11.4823 56.3059C11.4823 56.3059 11.7647 56.7294 12.0941 56.4942C12.3765 56.3294 12.2823 55.8353 11.8823 55.7883C11.4823 55.7177 10.2118 56.2589 9.43528 55.2942C8.77646 54.4706 9.10587 53.9294 9.10587 53.9294C9.10587 53.9294 8.49411 54.1177 7.90587 53.2706C7.17646 52.2353 8.04705 51.1765 8.09411 50.7765C8.14117 50.3765 7.69411 50.1647 7.45881 50.3765C7.15293 50.6353 7.48234 51.0118 7.48234 51.0118C7.10587 51.153 6.75293 50.8 6.75293 50.3765C6.75293 49.9765 7.34117 49.4118 7.97646 49.6942Z" fill="#E31E24"/>
<path d="M12.3529 55.4353C12.5411 55.5294 12.7764 55.7412 12.8235 56.1882C12.894 56.5647 12.6823 56.8 12.5646 56.9176C12.3529 57.1059 12.094 57.1764 11.9058 57.1294C11.694 57.0588 11.5293 56.9176 11.4588 56.7294C11.4352 56.6353 11.4117 56.5176 11.4823 56.3764C11.5999 56.5412 11.8588 56.7294 12.1176 56.5412C12.2588 56.447 12.3293 56.2823 12.2823 56.0941C12.2588 55.9059 12.094 55.7647 11.8823 55.7412C11.7882 55.7176 11.6235 55.7412 11.4352 55.7647C10.8705 55.8353 10.047 55.9529 9.45875 55.247C8.84699 54.4941 9.15287 53.9764 9.15287 53.9529L9.22346 53.8588L9.10581 53.8823C9.08228 53.8823 8.51758 54.047 7.95287 53.247C7.41169 52.4941 7.76463 51.7176 7.9764 51.2C8.07052 51.0353 8.11758 50.8941 8.1411 50.7764C8.16463 50.5647 8.07052 50.3764 7.90581 50.2823C7.7411 50.2117 7.55287 50.2117 7.41169 50.3294C7.1764 50.5412 7.27052 50.8235 7.38816 50.9882C7.24699 51.0117 7.12934 50.9647 7.05875 50.9176C6.89405 50.8 6.79993 50.5882 6.79993 50.3764C6.79993 50.1882 6.96463 49.9529 7.1764 49.8117C7.31758 49.7176 7.62346 49.5764 7.9764 49.7412C8.68228 50.0706 8.58816 50.7059 8.58816 50.7294L8.56463 50.8H8.63522C9.05875 50.7294 9.27052 50.9882 9.36463 51.1294C9.1764 51.1059 8.75287 51.1059 8.39993 51.5059C8.16463 51.7412 8.07052 52.0235 8.11758 52.3529C8.16463 52.7294 8.3764 53.1059 8.70581 53.3412C8.9411 53.5059 9.29405 53.5059 9.62346 53.2941C9.90581 53.1294 10.094 52.847 10.047 52.6588C10.0235 52.4 9.83522 52.1647 9.62346 52.0941C9.50581 52.047 9.36463 52.0706 9.27052 52.1647C9.19993 52.2353 9.15287 52.3059 9.15287 52.4C9.15287 52.5647 9.27052 52.7294 9.31758 52.8235C9.22346 52.8706 9.10581 52.847 9.05875 52.8235C8.89405 52.7529 8.70581 52.5647 8.68228 52.3294C8.68228 52.1176 8.7764 51.9059 8.96463 51.7412C9.12934 51.6 9.36463 51.5294 9.59993 51.5764C10.1176 51.6941 10.3999 52.4235 10.3999 52.4235L10.4235 52.4941L10.4705 52.447C10.847 52.1176 11.3411 52.1176 11.5058 52.1176C11.4823 52.2823 11.3411 52.7529 10.9176 53.0117L10.847 53.0588L10.9176 53.1059C10.9176 53.1059 11.5293 53.5764 11.5058 54.1176C11.4823 54.3529 11.3646 54.5412 11.1764 54.6823C10.9882 54.8 10.7293 54.847 10.5411 54.7764C10.3293 54.7059 10.1882 54.4706 10.1646 54.3059C10.1646 54.2353 10.1646 54.1176 10.2588 54.0235C10.3058 54.1176 10.4235 54.2588 10.5882 54.3059C10.6823 54.3294 10.7764 54.3294 10.8705 54.2588C10.9882 54.1882 11.0352 54.0706 11.0352 53.9294C11.0117 53.7176 10.847 53.4823 10.6117 53.3647C10.4235 53.2941 10.1176 53.3882 9.85875 53.6235C9.5764 53.8823 9.45875 54.2117 9.5764 54.4941C9.69405 54.8706 9.99993 55.1764 10.3529 55.3176C10.6588 55.4588 10.9646 55.4353 11.2705 55.2941C11.7411 55.0588 11.8588 54.6588 11.8823 54.4706C11.9999 54.5882 12.1646 54.847 11.9999 55.247L11.9764 55.3176H12.047C12.047 55.3176 12.1882 55.3412 12.3529 55.4353ZM11.694 57.1529C11.7646 57.1764 11.8117 57.2 11.8823 57.2235C12.094 57.2941 12.3999 57.2 12.6352 56.9882C12.7764 56.8706 13.0117 56.5882 12.9411 56.1647C12.8235 55.4588 12.3058 55.2706 12.1176 55.2235C12.3293 54.6588 11.8823 54.3294 11.8823 54.3059L11.7882 54.2588V54.3529C11.7882 54.3764 11.7882 54.9176 11.2235 55.2C10.9411 55.3412 10.6588 55.3412 10.3999 55.2235C10.0705 55.1059 9.78816 54.8 9.67052 54.4706C9.5764 54.2117 9.67052 53.9294 9.92934 53.6941C10.1411 53.5059 10.4235 53.4117 10.5646 53.4588C10.7764 53.5764 10.9176 53.7647 10.9176 53.9529C10.9411 54.0235 10.9176 54.1176 10.7999 54.1882C10.7529 54.2117 10.6823 54.2353 10.6117 54.2117C10.447 54.1647 10.3058 53.9294 10.3058 53.9294L10.2823 53.8823L10.2352 53.9059C10.1176 54 10.047 54.1412 10.0705 54.3059C10.094 54.5647 10.2823 54.8 10.5176 54.8706C10.7293 54.9647 11.0117 54.9176 11.2235 54.7529C11.4588 54.6117 11.5999 54.3764 11.5999 54.1176C11.647 53.6235 11.1764 53.2 11.0352 53.0588C11.5293 52.7059 11.6235 52.0941 11.6235 52.0706L11.647 52.0235H11.5764C11.5529 52.0235 10.9411 51.9529 10.4705 52.3294C10.3764 52.1412 10.094 51.6 9.62346 51.4823C9.36463 51.4353 9.10581 51.5059 8.89405 51.6706C8.68228 51.8353 8.56463 52.0941 8.58816 52.3294C8.61169 52.5882 8.7764 52.8235 9.01169 52.9176C9.1764 52.9882 9.31758 52.9647 9.43522 52.8706L9.48228 52.8235L9.43522 52.7764C9.43522 52.7764 9.24699 52.5882 9.24699 52.4C9.24699 52.3294 9.29405 52.2823 9.3411 52.2353C9.43522 52.1412 9.52934 52.1647 9.59993 52.1882C9.76463 52.2588 9.92934 52.447 9.95287 52.6588C9.9764 52.8235 9.81169 53.0588 9.5764 53.2C9.27052 53.3882 8.96463 53.4117 8.75287 53.247C8.47052 53.0588 8.25875 52.7059 8.21169 52.3529C8.18816 52.047 8.25875 51.7882 8.47052 51.5764C8.89405 51.1059 9.43522 51.247 9.43522 51.247L9.52934 51.2706L9.50581 51.1764C9.50581 51.1764 9.29405 50.6353 8.68228 50.6823C8.68228 50.4941 8.65875 49.9529 7.99993 49.647C7.59993 49.4588 7.29405 49.6235 7.12934 49.7176C6.87052 49.8823 6.70581 50.1412 6.70581 50.3764C6.70581 50.6353 6.82346 50.8706 7.01169 50.9882C7.15287 51.1059 7.31758 51.1294 7.50581 51.0588L7.5764 51.0353L7.52934 50.9882C7.50581 50.9647 7.22346 50.6353 7.48228 50.4C7.5764 50.3294 7.71758 50.3059 7.85875 50.3764C7.95287 50.447 8.07052 50.5647 8.04699 50.7529C8.02346 50.847 7.95287 51.0117 7.88228 51.1764C7.64699 51.6941 7.29405 52.4941 7.85875 53.2941C8.32934 53.9764 8.82346 54.0235 9.03522 54C8.96463 54.1882 8.87052 54.6823 9.38816 55.3176C9.99993 56.0706 10.8705 55.9529 11.4352 55.8588C11.6235 55.8353 11.7882 55.8117 11.8588 55.8353C12.0705 55.8588 12.1646 56 12.1882 56.1176C12.2117 56.2588 12.1646 56.4 12.047 56.4706C11.7882 56.6588 11.5293 56.2823 11.5058 56.2588L11.4823 56.2117L11.4352 56.2588C11.3176 56.4235 11.294 56.5882 11.3646 56.7529C11.4117 56.9176 11.5529 57.0588 11.694 57.1529Z" fill="#FFED00"/>
<path d="M8.75295 39.4824C9.05883 40.2589 8.49412 40.6824 8.49412 40.6824C9.01177 41.0589 8.80001 41.5765 8.80001 41.5765C8.80001 41.5765 8.49412 41.0824 7.81177 41.1294C7.0353 41.2 6.70589 42 6.82353 42.6118C6.96471 43.2471 7.97648 43.3412 8.21177 43.0353C8.42353 42.6824 8.32942 42.2118 8.00001 42.2118C7.64706 42.2118 7.64706 42.7294 7.64706 42.7294C7.29412 42.7294 7.17648 42.1647 7.4353 41.8589C7.69412 41.5294 8.35295 41.4589 8.68236 41.9294C9.01177 42.4 8.68236 43.153 8.68236 43.153C9.34118 43.1765 9.74118 43.6706 9.74118 43.6706C9.74118 43.6706 9.22353 44.0706 8.61177 43.953C8.61177 43.953 8.75295 44.753 8.35295 45.153C7.92942 45.5294 7.29412 45.3412 7.10589 44.9647C6.91765 44.6118 7.15295 44.0706 7.50589 44.1412C7.50589 44.1412 7.38824 44.6589 7.74118 44.7294C8.07059 44.8 8.25883 44.353 8.09412 43.9765C7.95295 43.6236 6.91765 43.5059 6.68236 44.0941C6.42353 44.6824 6.58824 45.5294 7.34118 45.7647C7.97648 45.953 8.37648 45.5294 8.37648 45.5294C8.37648 45.5294 8.49412 46.0706 7.90589 46.3294C7.90589 46.3294 8.37648 46.8706 7.90589 47.553C7.50589 48.1412 6.70589 47.953 6.49412 47.6C6.28236 47.2471 6.37648 46.7765 6.77648 46.6824C6.77648 46.6824 6.70589 47.2 7.08236 47.2706C7.4353 47.3177 7.69412 46.9177 7.4353 46.5883C7.20001 46.2589 5.90589 45.7883 5.97648 44.5412C6.04706 43.5059 6.68236 43.3412 6.68236 43.3412C6.68236 43.3412 6.11765 43.0589 6.25883 42.0236C6.42353 40.8 7.78824 40.6118 8.09412 40.3294C8.40001 40.0706 8.2353 39.6236 7.90589 39.6C7.50589 39.6 7.48236 40.1177 7.48236 40.1177C7.10589 39.9294 7.10589 39.4353 7.38824 39.153C7.67059 38.8471 8.49412 38.8236 8.75295 39.4824Z" fill="#E31E24"/>
<path d="M8.02344 46.6353C8.09403 46.847 8.11756 47.1764 7.85874 47.5294C7.64697 47.8588 7.31756 47.8823 7.15286 47.8823C6.89403 47.8823 6.63521 47.7647 6.54109 47.5764C6.42344 47.3882 6.39992 47.1764 6.49403 46.9882C6.51756 46.9176 6.58815 46.8 6.72933 46.7529C6.72933 46.9647 6.77639 47.2706 7.08227 47.3176C7.24697 47.3411 7.43521 47.247 7.52933 47.1059C7.62344 46.9176 7.59992 46.7294 7.48227 46.5647C7.41168 46.4706 7.29403 46.3764 7.12933 46.2588C6.65874 45.9529 5.97639 45.4588 6.02344 44.5411C6.09403 43.5764 6.68227 43.4117 6.7058 43.3882L6.82344 43.3647L6.7058 43.2941C6.68227 43.2941 6.16462 43.0117 6.3058 42.047C6.42344 41.1294 7.19992 40.8 7.71756 40.5882C7.9058 40.5176 8.04697 40.447 8.11756 40.3764C8.28227 40.2353 8.35286 40.047 8.28227 39.8588C8.23521 39.6941 8.0705 39.5764 7.9058 39.5529C7.59992 39.5529 7.45874 39.8353 7.43521 40.0235C7.31756 39.9529 7.2705 39.8353 7.24697 39.7411C7.19992 39.5529 7.2705 39.3411 7.41168 39.1764C7.55286 39.0353 7.83521 38.9647 8.09403 39.0117C8.25874 39.0353 8.56462 39.1529 8.7058 39.5059C9.01168 40.2353 8.49403 40.6353 8.4705 40.6588L8.42344 40.6823L8.4705 40.7294C8.82344 40.9882 8.79992 41.3176 8.77639 41.4588C8.65874 41.3176 8.32933 41.0353 7.81168 41.0823C7.48227 41.1059 7.22344 41.247 7.03521 41.5059C6.79992 41.8117 6.7058 42.2588 6.77639 42.6353C6.84697 42.9411 7.1058 43.1529 7.48227 43.2235C7.81168 43.2941 8.11756 43.2235 8.23521 43.0588C8.39992 42.847 8.42344 42.5647 8.32933 42.3529C8.25874 42.2353 8.14109 42.1647 7.99992 42.1647C7.9058 42.1647 7.81168 42.1882 7.76462 42.2588C7.62344 42.3764 7.59992 42.5882 7.59992 42.6823C7.48227 42.6588 7.41168 42.5647 7.38815 42.4941C7.31756 42.3294 7.31756 42.0706 7.45874 41.8823C7.59992 41.7411 7.83521 41.647 8.0705 41.647C8.3058 41.6706 8.51756 41.7647 8.63521 41.9529C8.94109 42.4 8.65874 43.1294 8.63521 43.1294L8.61168 43.2H8.68227C9.19992 43.2235 9.55286 43.5529 9.6705 43.6706C9.52933 43.7647 9.1058 44 8.61168 43.9059H8.54109L8.56462 43.9764C8.56462 43.9764 8.7058 44.7529 8.3058 45.1059C8.14109 45.2706 7.9058 45.3411 7.6705 45.2941C7.43521 45.2706 7.24697 45.1294 7.15286 44.9411C7.03521 44.7294 7.08227 44.4706 7.19992 44.3294C7.24697 44.2823 7.31756 44.1882 7.43521 44.1882C7.43521 44.2823 7.41168 44.4941 7.5058 44.6353C7.55286 44.7294 7.62344 44.7764 7.74109 44.8C7.85874 44.8235 7.99992 44.7764 8.0705 44.6588C8.21168 44.4941 8.23521 44.2117 8.14109 43.9529C8.0705 43.7647 7.78815 43.6235 7.43521 43.6235C7.05874 43.6235 6.75286 43.7882 6.63521 44.0706C6.4705 44.4235 6.4705 44.8706 6.63521 45.2235C6.77639 45.5059 7.01168 45.7176 7.31756 45.8117C7.81168 45.9529 8.18815 45.7411 8.35286 45.6235C8.35286 45.7882 8.28227 46.1176 7.88227 46.2823L7.83521 46.3059L7.88227 46.3529C7.88227 46.3764 7.97639 46.4706 8.02344 46.6353ZM6.37639 47.4588C6.39992 47.5294 6.42344 47.5764 6.44697 47.647C6.56462 47.8353 6.84697 47.9764 7.15286 47.9764C7.34109 48 7.69403 47.9529 7.95286 47.5764C8.35286 47.0117 8.09403 46.5176 7.99992 46.3529C8.54109 46.0706 8.44697 45.5294 8.44697 45.5059L8.42344 45.4117L8.35286 45.4823C8.32933 45.5059 7.95286 45.8823 7.34109 45.7176C7.05874 45.6235 6.84697 45.4353 6.72933 45.1764C6.58815 44.847 6.58815 44.447 6.72933 44.1176C6.82344 43.8823 7.1058 43.7411 7.43521 43.7411C7.74109 43.7411 7.99992 43.8588 8.04697 44C8.14109 44.2117 8.11756 44.447 7.99992 44.5882C7.95286 44.6588 7.88227 44.7059 7.74109 44.6823C7.6705 44.6823 7.62344 44.6353 7.59992 44.5882C7.48227 44.4235 7.55286 44.1647 7.55286 44.1647V44.1176L7.5058 44.0941C7.36462 44.0706 7.22344 44.1411 7.12933 44.2588C6.96462 44.4706 6.94109 44.7764 7.05874 44.9882C7.17639 45.2 7.38815 45.3647 7.6705 45.4117C7.92933 45.4353 8.18815 45.3647 8.37639 45.1764C8.72933 44.847 8.7058 44.2353 8.65874 44.0235C9.2705 44.0941 9.76462 43.7176 9.78815 43.7176L9.81168 43.6706L9.78815 43.647C9.76462 43.6235 9.38815 43.1529 8.77639 43.1059C8.82344 42.9176 9.01168 42.3059 8.72933 41.9059C8.56462 41.6941 8.32933 41.5529 8.0705 41.5529C7.78815 41.5294 7.52933 41.647 7.38815 41.8117C7.22344 42.0235 7.19992 42.3059 7.29403 42.5411C7.36462 42.7059 7.5058 42.7764 7.64697 42.7764H7.69403V42.7294C7.69403 42.7294 7.69403 42.4706 7.83521 42.3294C7.88227 42.2823 7.92933 42.2588 7.99992 42.2588C8.14109 42.2588 8.18815 42.3294 8.23521 42.4C8.3058 42.5647 8.28227 42.8235 8.16462 43.0117C8.0705 43.1294 7.78815 43.2 7.5058 43.1294C7.17639 43.0588 6.94109 42.8706 6.8705 42.6117C6.79992 42.2588 6.89403 41.8588 7.1058 41.5764C7.29403 41.3411 7.52933 41.2 7.81168 41.1764C8.44697 41.1294 8.75286 41.6 8.75286 41.6L8.79992 41.6941L8.84697 41.6C8.84697 41.6 9.05874 41.0588 8.58815 40.6823C8.72933 40.5411 9.05874 40.1176 8.79992 39.4588C8.63521 39.0588 8.3058 38.9411 8.11756 38.9176C7.81168 38.847 7.5058 38.9411 7.34109 39.1059C7.17639 39.2941 7.1058 39.5294 7.15286 39.7647C7.17639 39.9529 7.29403 40.0706 7.45874 40.1647L7.52933 40.1882V40.1176C7.52933 40.0941 7.55286 39.647 7.9058 39.6706C8.02344 39.6706 8.14109 39.7647 8.18815 39.8823C8.18815 39.8823 8.18815 39.8823 8.18815 39.9059C8.23521 40 8.21168 40.1647 8.0705 40.3059C7.99992 40.3529 7.83521 40.4235 7.6705 40.4941C7.15286 40.7294 6.32933 41.0588 6.18815 42.0235C6.09403 42.847 6.39992 43.2 6.56462 43.3411C6.39992 43.4353 5.99992 43.7176 5.92933 44.5411C5.85874 45.5059 6.58815 46.0235 7.05874 46.3529C7.19992 46.447 7.34109 46.5411 7.38815 46.6117C7.52933 46.7764 7.5058 46.9411 7.43521 47.0353C7.36462 47.1764 7.22344 47.2235 7.1058 47.2C6.77639 47.1529 6.82344 46.7059 6.84697 46.6823V46.6117L6.77639 46.6353C6.61168 46.6823 6.4705 46.7764 6.39992 46.9647C6.32933 47.1059 6.32933 47.2941 6.37639 47.4588Z" fill="#FFED00"/>
</svg>
