<svg width="74" height="94" viewBox="0 0 74 94" fill="none" xmlns="http://www.w3.org/2000/svg">
<path fill-rule="evenodd" clip-rule="evenodd" d="M36.9999 20.9936C56.8788 20.9936 73 37.1147 73 56.9933C73 76.8726 56.8788 92.9936 36.9999 92.9936C17.1211 92.9936 1 76.8726 1 56.9933C1 37.1147 17.1211 20.9936 36.9999 20.9936Z" fill="#0000FF" stroke="#FFED00" stroke-width="2" stroke-miterlimit="22.9256"/>
<path fill-rule="evenodd" clip-rule="evenodd" d="M36.9999 86.0846C53.0637 86.0846 66.0908 73.0569 66.0908 56.9936C66.0908 40.9302 53.0637 27.9026 36.9999 27.9026C20.9361 27.9026 7.909 40.9302 7.909 56.9936C7.909 73.0569 20.9361 86.0846 36.9999 86.0846Z" fill="#FFED00"/>
<path fill-rule="evenodd" clip-rule="evenodd" d="M36.9999 35.1755C49.0505 35.1755 58.8181 44.9438 58.8181 56.9936C58.8181 69.0435 49.0505 78.8117 36.9999 78.8117C24.9494 78.8117 15.1818 69.0435 15.1818 56.9936C15.1818 44.9438 24.9494 35.1755 36.9999 35.1755Z" fill="#0000FF" stroke="#2B2A29" stroke-width="0.0762" stroke-miterlimit="22.9256"/>
<path fill-rule="evenodd" clip-rule="evenodd" d="M1.84546 51.5919C1.80831 51.9862 1.86034 52.202 1.82319 52.5964C3.04911 55.2972 6.70613 55.6804 7.41845 58.6008C7.66085 59.5945 6.49695 61.9526 3.99663 60.7102C2.94889 59.9326 2.92297 58.3246 4.16377 58.1879C4.72114 58.1266 5.26354 58.9468 4.86601 59.6611C5.73538 59.7094 5.96703 58.3719 5.43442 57.708C4.85525 56.9858 3.60255 56.9425 3.00457 57.5181C0.234967 60.1838 4.4029 63.6852 7.48537 61.2793C6.83045 63.0354 6.32693 65.4941 3.87404 65.9221C2.75938 66.071 2.13519 63.2845 4.39781 64.0806C3.86645 63.0501 2.73221 63.1225 2.16869 63.5784C1.58809 64.0481 1.77087 65.3877 1.95692 65.7883C2.41014 66.7638 3.23871 67.1721 4.23068 66.9267C5.34524 66.696 6.10335 65.7622 6.60485 64.8619C5.92057 67.6567 4.9189 71.9859 9.11257 73.8909C10.0801 74.3305 12.2855 74.0546 13.3816 73.065C13.0361 72.1052 12.579 71.2123 12.0997 70.3418C11.2416 68.2696 10.4053 67.7674 9.64757 68.8797C9.3613 69.3001 9.38386 70.1149 9.79263 70.7102C10.2719 71.0748 10.829 71.216 11.3418 71.045C10.786 70.6199 10.5739 70.0541 11.275 69.7837C11.5945 70.4757 11.8805 71.1677 12.3004 71.8596C12.0366 72.5405 11.3531 72.8753 10.4836 72.9088C9.4092 72.9501 7.81225 72.7673 6.95026 70.4088C6.21097 67.8566 7.61161 64.434 8.61106 61.5136C8.64821 60.1 8.58505 58.6083 8.6222 57.1946C6.50818 55.2787 3.7141 54.6462 2.59215 52.7973C4.76185 54.4267 6.53036 53.4557 8.55529 53.5673C8.63708 53.1432 8.65196 52.8865 8.73375 52.4624C8.24319 52.667 7.87541 52.5702 7.52991 52.507C10.1529 49.9513 8.38834 47.3789 6.29276 47.0941C5.42117 46.9757 3.75519 47.641 3.76258 49.449C3.73282 50.3604 4.46905 51.2262 5.22255 51.3018C5.73125 51.3528 7.44437 50.7587 6.47103 49.3263C6.48581 50.2042 4.67353 51.3854 4.86601 48.958C4.93417 48.0977 6.88719 47.7452 7.48537 48.7236C8.09833 49.4899 8.05369 51.6849 6.1478 52.4401C4.35701 53.5748 3.02319 52.4549 1.84546 51.5919Z" fill="#FFED00" stroke="#FFCC00" stroke-width="0.0762" stroke-miterlimit="22.9256"/>
<path fill-rule="evenodd" clip-rule="evenodd" d="M72.4951 51.6811C72.5322 52.0754 72.4802 52.2912 72.5173 52.6854C71.2914 55.3864 67.6344 55.7694 66.9221 58.69C66.6797 59.6837 67.8436 62.0418 70.3439 60.7993C71.3916 60.0218 71.4175 58.4137 70.1767 58.2771C69.6194 58.2157 69.077 59.0359 69.4745 59.7502C68.6051 59.7985 68.3735 58.4611 68.9061 57.7972C69.4853 57.0749 70.738 57.0317 71.3359 57.6073C74.1055 60.273 69.9376 63.7744 66.8551 61.3685C67.5101 63.1246 68.0136 65.5832 70.4665 66.0113C71.5811 66.1602 72.2053 63.3737 69.9427 64.1698C70.4741 63.1393 71.6083 63.2117 72.1718 63.6676C72.7524 64.1373 72.5696 65.4769 72.3836 65.8774C71.9304 66.853 71.1018 67.2613 70.1098 67.0158C68.9953 66.7852 68.2372 65.8514 67.7357 64.9511C68.4198 67.7458 69.4216 72.075 65.2279 73.9801C64.2604 74.4197 62.0551 74.1437 60.9589 73.1542C61.3044 72.1943 61.7615 71.3015 62.2408 70.4309C63.099 68.3588 63.9352 67.8565 64.6929 68.9689C64.9792 69.3893 64.9566 70.204 64.5479 70.7994C64.0686 71.164 63.5115 71.3052 62.9987 71.1341C63.5545 70.7091 63.7666 70.1432 63.0655 69.8729C62.7461 70.5649 62.46 71.2567 62.0401 71.9488C62.3039 72.6295 62.9874 72.9645 63.8569 72.998C64.9313 73.0393 66.5283 72.8565 67.3902 70.498C68.1295 67.9458 66.7289 64.5232 65.7294 61.6028C65.6923 60.1891 65.7555 58.6974 65.7183 57.2837C67.8323 55.3679 70.6264 54.7354 71.7484 52.8865C69.5787 54.5158 67.8102 53.5448 65.7852 53.6565C65.7034 53.2324 65.6886 52.9757 65.6068 52.5516C66.0973 52.7562 66.4651 52.6594 66.8106 52.5962C64.1876 50.0405 65.9522 47.468 68.0477 47.1833C68.9193 47.0649 70.5853 47.7302 70.5779 49.5382C70.6077 50.4496 69.8715 51.3154 69.118 51.391C68.6093 51.442 66.8961 50.8479 67.8695 49.4155C67.8547 50.2934 69.667 51.4746 69.4745 49.0471C69.4062 48.1869 67.4533 47.8344 66.8551 48.8127C66.2422 49.5791 66.2868 51.774 68.1927 52.5293C69.9835 53.664 71.3173 52.5441 72.4951 51.6811Z" fill="#FFED00" stroke="#FFCC00" stroke-width="0.0762" stroke-miterlimit="22.9256"/>
<path d="M17.8926 76.8788L20.0897 78.8571C20.3089 79.0517 20.5267 79.181 20.7451 79.244C20.9627 79.3063 21.1724 79.3063 21.3732 79.2435C21.5726 79.1807 21.7551 79.058 21.9194 78.877C22.0979 78.6788 22.2002 78.4734 22.2264 78.261C22.2532 78.0479 22.2017 77.83 22.0721 77.6071C22.2791 77.6624 22.4709 77.6635 22.6494 77.6108C22.8274 77.5586 22.9862 77.4566 23.1237 77.3039C23.3602 77.0411 23.4485 76.7642 23.3884 76.4743C23.3283 76.183 23.1213 75.8787 22.7674 75.56L20.731 73.7263L17.8926 76.8788ZM19.887 76.253L20.9378 77.1991C21.0644 77.3118 21.1575 77.4165 21.2178 77.514C21.2773 77.6108 21.3035 77.704 21.2951 77.7934C21.286 77.8822 21.241 77.9714 21.1609 78.0604C21.097 78.1313 21.0347 78.1786 20.9732 78.2019C20.9116 78.2251 20.8476 78.2278 20.7818 78.2092C20.7167 78.1899 20.6452 78.1529 20.5699 78.0983C20.4932 78.0437 20.4089 77.9743 20.3162 77.8895L19.2654 76.9433L19.887 76.253ZM20.9387 75.0849L21.8723 75.9255C21.9988 76.0382 22.0965 76.1379 22.1645 76.2268C22.2319 76.3149 22.2667 76.3985 22.2687 76.4764C22.2694 76.5542 22.2341 76.6327 22.1618 76.7129C22.0817 76.802 22.0009 76.8524 21.918 76.863C21.8358 76.8741 21.7457 76.852 21.6483 76.7957C21.5508 76.7395 21.4409 76.6549 21.3171 76.5421L20.3836 75.7015L20.9387 75.0849ZM26.429 77.9334L25.5173 77.3857L23.3327 81.0217L24.2442 81.5694L26.429 77.9334ZM31.5391 81.2852C31.6349 81.0041 31.6394 80.7367 31.5532 80.4846C31.4669 80.2325 31.294 80.002 31.0327 79.7946C30.7718 79.5863 30.4275 79.408 29.9996 79.2596C29.6963 79.1563 29.4139 79.0971 29.1523 79.0823C28.8898 79.067 28.6548 79.0912 28.4466 79.1544C28.2385 79.2176 28.0629 79.3148 27.9199 79.4458C27.7779 79.5771 27.6734 79.7368 27.6076 79.9253C27.5299 80.1509 27.5195 80.3604 27.5777 80.5535C27.6359 80.7465 27.7621 80.927 27.9555 81.0956C28.1486 81.2641 28.4098 81.4241 28.7387 81.5753L29.4212 81.8908C29.5959 81.9695 29.7363 82.0435 29.843 82.1132C29.9501 82.182 30.0218 82.2551 30.0582 82.3316C30.0957 82.4083 30.0961 82.4969 30.0608 82.5992C30.0064 82.7545 29.8866 82.8481 29.7015 82.8802C29.5164 82.9122 29.2741 82.8772 28.9745 82.7751C28.5869 82.6416 28.3169 82.4807 28.1626 82.2916C28.0083 82.1024 27.9744 81.8869 28.0599 81.6444L27.0323 81.2906C26.9186 81.6243 26.9014 81.9284 26.9827 82.2035C27.0632 82.4784 27.2384 82.7231 27.5082 82.9386C27.7778 83.155 28.1393 83.3402 28.5905 83.4956C29.0603 83.6564 29.4716 83.7392 29.8245 83.7434C30.1764 83.7472 30.4673 83.6743 30.6972 83.5269C30.9263 83.3791 31.0916 83.159 31.1928 82.8653C31.2736 82.6304 31.2878 82.4129 31.2346 82.2144C31.1805 82.0156 31.0601 81.8299 30.8717 81.659C30.6844 81.4883 30.4292 81.3263 30.1063 81.1751L29.3871 80.8409C29.2486 80.7767 29.1315 80.7188 29.0341 80.6668C28.9367 80.6147 28.8605 80.5638 28.8044 80.5145C28.7484 80.4644 28.7133 80.411 28.6978 80.3543C28.6827 80.2965 28.6886 80.2316 28.7139 80.158C28.764 80.0156 28.8778 79.9301 29.0567 79.9011C29.2348 79.8718 29.4701 79.9063 29.7612 80.0057C30.0679 80.1113 30.2856 80.2418 30.4152 80.3977C30.5449 80.5535 30.5856 80.7343 30.5392 80.9408L31.5391 81.2852ZM34.766 80.4165L33.7066 80.3238L33.3368 84.5496L34.3963 84.6423L34.5526 82.8554L36.584 83.0331L36.4277 84.82L37.487 84.9127L37.8567 80.687L36.7973 80.5943L36.6599 82.1658L34.6285 81.9881L34.766 80.4165ZM40.4606 80.3433L39.4167 80.5463L40.2261 84.7102L41.27 84.5072L40.9902 83.0677L41.4264 82.4948L43.3118 84.1104L44.5908 83.8618L42.0368 81.7154L43.5578 79.7413L42.2157 80.0022L40.7716 81.9435L40.4606 80.3433ZM44.9841 79.3538L46.7767 83.1983L50.1923 81.6056L49.8244 80.8165L47.3726 81.9598L46.9825 81.1232L49.1643 80.1058L48.7963 79.3167L46.6146 80.3341L46.3158 79.6934L48.7675 78.5501L48.3996 77.761L44.9841 79.3538ZM50.6292 76.4469L49.8028 77.1161L52.4723 80.4128L53.2987 79.7435L52.3758 78.6038L52.492 77.8931L54.9152 78.4345L55.9278 77.6145L52.6651 76.9183L53.0812 74.4613L52.0187 75.3218L51.6551 77.7137L50.6292 76.4469Z" fill="#0000FF"/>
<path d="M12.2766 80.1044L15.0431 77.4205L16.4068 78.8261L15.9096 79.3085L15.0428 78.4151L14.4034 79.0352L15.2304 79.8876L14.7332 80.3699L13.9062 79.5175L12.7734 80.6165L12.2766 80.1044ZM19.0407 81.0128C19.493 81.3646 19.7527 81.8152 19.8204 82.3647C19.8879 82.9143 19.7501 83.4098 19.4069 83.8511C19.0637 84.2924 18.6184 84.5455 18.0709 84.6102C17.5235 84.675 17.025 84.5327 16.5754 84.183C16.1233 83.8313 15.861 83.3822 15.7889 82.8358C15.7168 82.2892 15.8537 81.7964 16.1997 81.3571C16.5429 80.9158 16.9884 80.6597 17.5363 80.5886C18.0842 80.5177 18.5856 80.6591 19.0407 81.0128ZM16.9967 83.633C17.2926 83.8633 17.6202 83.954 17.9791 83.9053C18.338 83.8567 18.6294 83.6885 18.8531 83.4007C19.0748 83.1156 19.1639 82.7945 19.1205 82.4375C19.0771 82.0804 18.9088 81.7877 18.6155 81.5597C18.3194 81.3294 17.9936 81.2379 17.6382 81.2848C17.2829 81.3318 16.9943 81.4977 16.7726 81.7829C16.5466 82.0734 16.4542 82.3974 16.4951 82.7548C16.5362 83.1122 16.7033 83.4049 16.9967 83.633ZM23.567 83.9015C24.0638 84.1869 24.3839 84.5969 24.5272 85.1317C24.6705 85.6665 24.603 86.1764 24.3246 86.6612C24.0461 87.146 23.6404 87.4585 23.1073 87.5988C22.5743 87.7391 22.0608 87.6676 21.5669 87.3839C21.0702 87.0986 20.748 86.6903 20.6005 86.1592C20.4531 85.628 20.52 85.121 20.8015 84.6377C21.0799 84.1529 21.4855 83.8374 22.0181 83.6909C22.5508 83.5442 23.067 83.6144 23.567 83.9015ZM21.9074 86.7806C22.2326 86.9674 22.5696 87.0117 22.9182 86.9136C23.2668 86.8155 23.5319 86.6084 23.7135 86.2922C23.8934 85.979 23.9369 85.6487 23.8443 85.3011C23.7516 84.9536 23.5441 84.6872 23.222 84.5022C22.8967 84.3155 22.5614 84.2701 22.2159 84.3659C21.8705 84.462 21.6079 84.6665 21.428 84.9798C21.2448 85.299 21.1982 85.6326 21.2886 85.9808C21.379 86.3289 21.5852 86.5955 21.9074 86.7806ZM25.7186 89.1302L26.845 86.1759L26.1782 85.9218L26.4249 85.2745L28.4253 86.0371L28.1786 86.6844L27.5118 86.4302L26.3855 89.3844L25.7186 89.1302ZM28.9399 90.1255L29.7985 86.3678L30.7022 86.5743C31.1382 86.6775 31.4446 86.8411 31.6214 87.0649C31.7982 87.2887 31.8514 87.5547 31.7811 87.8627C31.7424 88.032 31.6721 88.1682 31.5702 88.2713C31.4682 88.3745 31.347 88.4457 31.2062 88.4847C31.3904 88.598 31.5207 88.7489 31.597 88.9374C31.6733 89.1257 31.6871 89.3266 31.6383 89.5398C31.5548 89.9054 31.3652 90.1587 31.0694 90.2994C30.7737 90.4401 30.377 90.4538 29.8794 90.3401L28.9399 90.1255ZM29.7899 89.6091L30.2419 89.7124C30.4307 89.759 30.5863 89.7518 30.7089 89.6909C30.8315 89.6297 30.9098 89.5247 30.9438 89.3758C30.9779 89.2268 30.9539 89.0976 30.8721 88.9881C30.7903 88.8785 30.6534 88.8001 30.4612 88.7527L30.0092 88.6494L29.7899 89.6091ZM30.1635 87.974L30.4885 88.0482C30.6476 88.0846 30.7764 88.0775 30.8753 88.0271C30.974 87.9766 31.0388 87.8926 31.0692 87.7748C31.0985 87.6463 31.0782 87.5401 31.0083 87.4565C30.9384 87.3728 30.8239 87.3128 30.6649 87.2764L30.3398 87.2022L30.1635 87.974ZM33.1278 90.95L34.9928 87.2129L35.5611 87.2513L36.9059 91.2055L36.1185 91.1523L35.796 90.1333L34.3721 90.0369L33.9152 91.0032L33.1278 90.95ZM34.6899 89.3641L35.5716 89.4237L35.2067 88.2715L34.6899 89.3641ZM38.8695 91.1153L38.4579 87.2829L39.1674 87.2068L39.5051 90.3504L40.6756 90.2246L40.7496 90.9134L38.8695 91.1153ZM42.7125 90.6902L41.9024 86.9218L42.6002 86.7719L43.2645 89.863L44.4153 89.6156L44.561 90.2928L42.7125 90.6902ZM50.0106 85.6328L49.2528 85.9256C49.0843 85.827 48.9072 85.7688 48.7218 85.7511C48.5363 85.7335 48.3544 85.7591 48.1763 85.8279C47.8231 85.9643 47.5786 86.1986 47.4426 86.5304C47.3066 86.8622 47.301 87.1899 47.4263 87.5139C47.5577 87.8539 47.7889 88.1005 48.1199 88.2537C48.4508 88.4069 48.7873 88.4155 49.1293 88.2796C49.2945 88.2158 49.4393 88.1207 49.5636 87.9944C49.6879 87.8682 49.7776 87.7125 49.8327 87.5275L50.6052 87.229C50.5761 87.6162 50.4552 87.9607 50.2425 88.2627C50.0296 88.5645 49.7354 88.7881 49.3596 88.9332C48.8317 89.1373 48.3179 89.1273 47.8182 88.9036C47.3184 88.6798 46.966 88.3022 46.7607 87.771C46.5617 87.2561 46.5726 86.7475 46.7934 86.2451C47.0145 85.7428 47.3905 85.3889 47.9217 85.1837C48.2942 85.0398 48.6642 85.0073 49.0319 85.0868C49.3995 85.1663 49.7256 85.3482 50.0106 85.6328ZM52.7868 87.2668L50.9105 83.8998L51.5338 83.5525L53.073 86.3142L54.1013 85.7411L54.4385 86.3462L52.7868 87.2668ZM53.7823 82.2108L54.3513 81.7801L55.8197 83.7194C55.9908 83.9513 56.1553 84.0893 56.3126 84.1333C56.4702 84.1775 56.6319 84.1366 56.7981 84.0107C56.9614 83.8871 57.0424 83.7452 57.041 83.5852C57.0395 83.425 56.9508 83.2288 56.7748 82.9962L55.3064 81.0569L55.8753 80.6262L57.3279 82.5447C57.6108 82.9184 57.7474 83.2844 57.7376 83.6424C57.7279 84.0005 57.5527 84.3083 57.2121 84.5662C56.8993 84.803 56.5696 84.8926 56.2231 84.8348C55.8767 84.777 55.5473 84.5418 55.2349 84.1294L53.7823 82.2108ZM59.926 82.2532L57.1942 79.5339L57.8483 78.8767C58.1668 78.5618 58.4678 78.3886 58.7513 78.3572C59.0348 78.326 59.2885 78.4217 59.5126 78.6446C59.6356 78.7671 59.7139 78.8989 59.7473 79.04C59.7807 79.1812 59.7769 79.3217 59.7354 79.4618C59.9291 79.3656 60.126 79.335 60.3263 79.3702C60.5264 79.4054 60.7041 79.5002 60.8592 79.6543C61.1249 79.919 61.2392 80.2139 61.2019 80.5394C61.1646 80.8649 60.9658 81.2085 60.6057 81.5702L59.926 82.2532ZM59.9384 81.2587L60.2655 80.9302C60.4051 80.7947 60.4814 80.6589 60.4948 80.5227C60.5079 80.3863 60.4603 80.2643 60.352 80.1564C60.2437 80.0486 60.1215 80.0005 59.9854 80.0118C59.849 80.0233 59.7099 80.0978 59.5678 80.2356L59.2407 80.5641L59.9384 81.2587ZM58.7498 80.0754L58.9849 79.8391C59.1001 79.7235 59.1624 79.6105 59.1719 79.4999C59.1815 79.3894 59.1444 79.29 59.0607 79.2017C58.9673 79.1087 58.8665 79.0697 58.7585 79.0847C58.6504 79.0997 58.539 79.1649 58.4238 79.2806L58.1886 79.5169L58.7498 80.0754Z" fill="#FEFEFE" stroke="white" stroke-width="0.0762" stroke-miterlimit="22.9256"/>
<path d="M21.1565 40.5928L22.8031 39.1556C23.0599 38.933 23.2847 38.7043 23.4794 38.4696C23.6748 38.2342 23.8289 37.9935 23.9424 37.747C24.0559 37.5005 24.1196 37.2474 24.1325 36.9886C24.1453 36.7296 24.0988 36.4652 23.9928 36.195C23.8867 35.925 23.7111 35.6478 23.4667 35.366C23.2357 35.1031 22.9984 34.9005 22.7546 34.7595C22.5122 34.6188 22.2656 34.5304 22.0167 34.497C21.7681 34.4619 21.5193 34.4741 21.2714 34.5313C21.0235 34.59 20.7785 34.686 20.5385 34.8216C20.2973 34.9571 20.0639 35.1239 19.838 35.3226L17.9754 36.9481L21.1565 40.5928ZM19.5419 36.8988L20.2548 36.2765C20.6774 35.9077 21.0727 35.7189 21.4409 35.7101C21.8099 35.7005 22.1477 35.8714 22.4545 36.2229C22.6589 36.4571 22.7843 36.6969 22.8306 36.9426C22.8761 37.1874 22.8413 37.4346 22.7252 37.6832C22.6091 37.932 22.4113 38.1798 22.1302 38.4251L21.4172 39.0473L19.5419 36.8988ZM27.4011 30.5355C26.9879 30.7047 26.6394 30.9122 26.3543 31.1574C26.0702 31.4023 25.8521 31.6768 25.7025 31.9785C25.5535 32.2812 25.4752 32.6019 25.4693 32.9412C25.4618 33.2798 25.5302 33.6285 25.6739 33.9849C25.8197 34.3404 26.0136 34.638 26.2553 34.8754C26.4961 35.1144 26.7759 35.2896 27.0935 35.4015C27.4115 35.5144 27.7592 35.5589 28.1336 35.5362C28.509 35.5132 28.9035 35.4189 29.3174 35.2518C29.7307 35.0827 30.0791 34.8753 30.3631 34.6302C30.6472 34.3853 30.8633 34.1117 31.0124 33.8091C31.1609 33.5079 31.2391 33.1871 31.2452 32.8478C31.2515 32.5095 31.1819 32.1614 31.0385 31.8051C30.8927 31.4495 30.6997 31.1515 30.4592 30.9135C30.2182 30.6747 29.9384 30.4995 29.6215 30.3861C29.3039 30.2741 28.9582 30.2288 28.5839 30.2515C28.2094 30.2741 27.815 30.3685 27.4011 30.5355ZM27.7748 31.4552C28.0745 31.3347 28.3563 31.2873 28.6177 31.3142C28.8788 31.34 29.1113 31.4373 29.3144 31.604C29.5167 31.7713 29.6802 32.0057 29.8038 32.3067C29.9243 32.6066 29.9702 32.8875 29.942 33.1484C29.9126 33.4096 29.8139 33.6414 29.6457 33.8442C29.4776 34.0467 29.2427 34.2093 28.9437 34.332C28.6439 34.4526 28.3622 34.5 28.0994 34.4726C27.8364 34.4451 27.603 34.3482 27.3987 34.1819C27.1954 34.0151 27.0313 33.7821 26.9085 33.4832C26.7879 33.1833 26.7431 32.9019 26.7725 32.6406C26.8023 32.3779 26.9024 32.1466 27.0717 31.9437C27.2409 31.7405 27.4759 31.578 27.7748 31.4552ZM33.928 33.6769L35.1398 33.6321L35.0743 31.8543L36.4727 31.8027C36.6512 31.7949 36.7974 31.8074 36.9107 31.8387C37.0231 31.8701 37.1106 31.9257 37.1736 32.0057C37.2366 32.0856 37.2817 32.194 37.308 32.3319C37.3351 32.4687 37.3515 32.6393 37.358 32.8435L37.3702 33.1764C37.3728 33.2463 37.3842 33.3125 37.403 33.3742C37.422 33.4368 37.4486 33.4936 37.4839 33.5456L38.8423 33.4955C38.7634 33.4095 38.704 33.3039 38.665 33.1809C38.6271 33.0567 38.5997 32.9143 38.5827 32.7549C38.5656 32.5956 38.5502 32.4195 38.5353 32.2266C38.5248 32.0892 38.5091 31.9675 38.4886 31.8638C38.4692 31.7589 38.4368 31.6668 38.3939 31.5872C38.35 31.5089 38.2883 31.4388 38.2073 31.3785C38.1272 31.3181 38.0219 31.2643 37.8914 31.2169C38.0586 31.1451 38.1985 31.0477 38.3128 30.9245C38.4283 30.8014 38.5131 30.6581 38.5703 30.4949C38.6265 30.3317 38.6522 30.1541 38.6451 29.9621C38.6339 29.6592 38.556 29.4143 38.4102 29.2274C38.2655 29.0415 38.0517 28.9083 37.7709 28.8287C37.4889 28.7479 37.1388 28.7163 36.7194 28.733L33.7496 28.8426L33.928 33.6769ZM34.9981 29.79L36.3165 29.7413C36.4918 29.7338 36.644 29.7326 36.7743 29.7378C36.9045 29.743 37.014 29.76 37.1006 29.7903C37.1886 29.8192 37.2547 29.8668 37.3005 29.9329C37.3451 29.9991 37.3695 30.0882 37.3737 30.2024C37.3793 30.3523 37.347 30.4701 37.2768 30.556C37.2055 30.6421 37.0978 30.7049 36.9536 30.7436C36.8084 30.7823 36.627 30.8045 36.4094 30.8115L35.0377 30.8621L34.9981 29.79ZM40.8105 33.7293L42.9228 34.2909C43.251 34.3791 43.5663 34.4377 43.8697 34.4677C44.1742 34.4981 44.4599 34.4914 44.7277 34.4477C44.9956 34.404 45.241 34.3152 45.4628 34.1811C45.6846 34.047 45.8778 33.8605 46.0424 33.6216C46.2071 33.3826 46.3387 33.082 46.4356 32.7219C46.5244 32.3834 46.5597 32.0733 46.5402 31.7924C46.5213 31.5126 46.4568 31.2588 46.3453 31.0338C46.2353 30.8081 46.086 30.6087 45.9 30.435C45.7127 30.2624 45.4962 30.1129 45.2496 29.9899C45.0022 29.8656 44.7336 29.7653 44.4425 29.6891L42.0533 29.0541L40.8105 33.7293ZM42.9702 30.3252L43.8848 30.5682C44.4267 30.7124 44.8044 30.9344 45.0175 31.2348C45.2318 31.5354 45.2791 31.9109 45.1592 32.3619C45.0793 32.6622 44.9505 32.9004 44.7728 33.0762C44.5953 33.2508 44.371 33.36 44.1 33.4029C43.8288 33.4457 43.5127 33.4203 43.1521 33.3243L42.2376 33.0813L42.9702 30.3252ZM52.512 33.4662C52.1409 33.2184 51.774 33.0455 51.4111 32.9463C51.0492 32.8478 50.6998 32.8204 50.366 32.8651C50.0316 32.9109 49.722 33.0253 49.4374 33.21C49.1526 33.3933 48.9018 33.645 48.6866 33.9633C48.4734 34.2829 48.3351 34.6102 48.2733 34.9434C48.21 35.2766 48.2211 35.6066 48.306 35.9325C48.3902 36.2592 48.5479 36.5724 48.7759 36.87C49.005 37.1684 49.3038 37.4427 49.6737 37.6925C50.045 37.9405 50.4117 38.1133 50.7738 38.2118C51.1356 38.3104 51.4832 38.3365 51.8176 38.2908C52.1504 38.2455 52.4601 38.131 52.7447 37.9464C53.0287 37.7624 53.2785 37.51 53.4936 37.1917C53.7069 36.8721 53.846 36.5454 53.9088 36.2131C53.9721 35.8797 53.9609 35.5498 53.8777 35.2236C53.7928 34.8978 53.6371 34.5858 53.409 34.2881C53.1808 33.9903 52.882 33.7162 52.512 33.4662ZM51.9585 34.2906C52.2262 34.4716 52.4229 34.6786 52.5468 34.9104C52.6714 35.1412 52.7208 35.3884 52.6962 35.6501C52.6707 35.9113 52.5678 36.1779 52.3872 36.4488C52.2061 36.7164 51.9988 36.9116 51.7668 37.0341C51.5337 37.1557 51.2864 37.2036 51.0243 37.1775C50.7622 37.1513 50.4962 37.0475 50.2272 36.8682C49.9596 36.6872 49.7629 36.4802 49.6386 36.2469C49.5144 36.0135 49.4642 35.7657 49.4878 35.5034C49.5123 35.2416 49.6137 34.9752 49.7929 34.7064C49.9741 34.4387 50.1824 34.2441 50.4153 34.1223C50.6498 34.0003 50.8975 33.954 51.1605 33.9807C51.4236 34.0075 51.6896 34.1113 51.9585 34.2906ZM57.8696 38.7327L57.1044 37.7918L53.351 40.8436L54.1161 41.7846L57.8696 38.7327Z" fill="#0000FF"/>
<path d="M11.5081 42.2221L11.0459 41.9553C10.7949 42.3831 10.4562 42.6586 10.0296 42.7816C9.60311 42.9048 9.18387 42.8474 8.77213 42.6097C8.36317 42.3736 8.10541 42.0401 7.99866 41.6091C7.8921 41.1782 7.95968 40.7463 8.20179 40.3132L7.78851 40.0746L8.13997 39.4659L8.55335 39.7044C8.80554 39.2812 9.14538 39.0075 9.57277 38.8828C10.0002 38.7582 10.4183 38.814 10.8271 39.0501C11.2389 39.2879 11.4978 39.6229 11.6036 40.0554C11.7094 40.4878 11.6407 40.9181 11.3974 41.3465L11.8596 41.6133L11.5081 42.2221ZM10.4548 41.614L8.79277 40.6545C8.63773 40.9164 8.59578 41.1737 8.6672 41.4263C8.73862 41.6788 8.89078 41.8704 9.12358 42.0008C9.35763 42.1359 9.60138 42.1721 9.85501 42.1091C10.1085 42.0462 10.3085 41.8812 10.4548 41.614ZM9.14432 40.0457L10.8064 41.0052C10.9628 40.7479 11.0053 40.493 10.9339 40.2405C10.8624 39.9879 10.7097 39.7941 10.4756 39.6589C10.2446 39.5255 10.0018 39.491 9.74739 39.5554C9.4929 39.6198 9.29197 39.7832 9.14432 40.0457ZM12.6661 33.8991L14.4042 37.6876L13.8992 38.2685L13.4639 37.2987L10.3702 36.5403L10.9308 35.8955L13.1108 36.4681L12.1634 34.4775L12.6661 33.8991ZM16.9604 34.9775L14.8362 32.6995L14.3221 33.179L13.8566 32.6799L15.399 31.2415L15.8644 31.7406L15.3503 32.2201L17.4745 34.498L16.9604 34.9775ZM17.0901 29.8547L18.906 28.5833L19.2974 29.1423L18.0574 30.0105L18.5048 30.6495L19.0008 30.3021C19.3483 30.0588 19.6715 29.9703 19.9705 30.0365C20.2697 30.1028 20.5133 30.2704 20.7017 30.5394C20.8999 30.8225 20.9648 31.1194 20.8964 31.4304C20.8281 31.7413 20.6426 32.0027 20.3399 32.2146L19.2681 32.9652L17.0901 29.8547ZM18.8963 31.2084L19.4525 32.0029L19.9527 31.6527C20.0863 31.5632 20.1695 31.4539 20.2022 31.3245C20.2348 31.1952 20.2094 31.0679 20.1259 30.9426C20.0493 30.8333 19.9455 30.7671 19.8145 30.7441C19.6835 30.7209 19.5441 30.7589 19.3964 30.8583L18.8963 31.2084ZM22.9652 26.2424C23.4809 26.0129 23.9932 25.9964 24.502 26.193C25.0108 26.3896 25.3772 26.7394 25.6013 27.2427C25.8253 27.7458 25.8382 28.2502 25.6403 28.7559C25.4422 29.2616 25.087 29.6285 24.5745 29.8566C24.0588 30.0863 23.5468 30.1055 23.0386 29.9141C22.5303 29.723 22.1657 29.3751 21.9449 28.8706C21.7208 28.3674 21.7052 27.8614 21.898 27.3524C22.0908 26.8434 22.4465 26.4734 22.9652 26.2424ZM24.2923 29.2352C24.6298 29.085 24.8607 28.8427 24.9852 28.5083C25.1096 28.1739 25.0988 27.8427 24.9527 27.5144C24.8081 27.1895 24.5705 26.9629 24.2401 26.8348C23.9096 26.7067 23.5772 26.7171 23.2429 26.8659C22.9053 27.0162 22.6745 27.2567 22.5502 27.5872C22.4258 27.9177 22.436 28.2456 22.5808 28.5706C22.7282 28.9019 22.9668 29.1327 23.2964 29.2631C23.6258 29.3934 23.9579 29.3841 24.2923 29.2352ZM28.7048 24.2016L31.1966 27.4372L30.4559 27.6495L28.6817 25.2223L28.4632 28.221L27.7167 28.435L28.1161 24.3702L28.7048 24.2016ZM32.3799 23.4015L33.0776 23.3159L33.2559 24.7674L33.8161 24.6987C34.2066 24.6507 34.5249 24.7167 34.771 24.8967C35.0172 25.0767 35.1623 25.3467 35.2065 25.7067C35.2486 26.0496 35.1665 26.3423 34.9602 26.5848C34.7539 26.8272 34.4673 26.9709 34.1006 27.0159L32.8427 27.1704L32.3799 23.4015ZM33.339 25.4448L33.4573 26.4074L34.0226 26.338C34.1822 26.3184 34.3076 26.2598 34.3991 26.1625C34.4906 26.0651 34.5271 25.9417 34.5088 25.7923C34.487 25.6433 34.4207 25.5317 34.31 25.4573C34.1992 25.3831 34.064 25.3558 33.9044 25.3754L33.339 25.4448ZM37.0933 26.8599L37.1595 23.0633L37.8624 23.0755L37.8358 24.5993L39.221 24.6235L39.2477 23.0997L39.9506 23.112L39.8843 26.9086L39.1815 26.8963L39.2092 25.3059L37.8239 25.2817L37.7962 26.8721L37.0933 26.8599ZM42.6999 23.4376L43.3847 23.5958L43.0558 25.0206L43.6058 25.1476C43.9891 25.2362 44.2656 25.4071 44.4354 25.6605C44.6052 25.9137 44.6492 26.2171 44.5676 26.5705C44.4898 26.9071 44.3126 27.1541 44.0357 27.3114C43.7589 27.4685 43.4405 27.5057 43.0805 27.4227L41.8457 27.1374L42.6999 23.4376ZM42.9023 25.6856L42.6841 26.6307L43.2391 26.7587C43.3958 26.7949 43.5337 26.7829 43.653 26.7226C43.7722 26.6624 43.8487 26.5589 43.8826 26.4123C43.9131 26.2649 43.889 26.1373 43.8103 26.0296C43.7316 25.9219 43.614 25.85 43.4573 25.8138L42.9023 25.6856ZM44.6805 27.792L45.5348 24.0921L46.2197 24.2502L45.3655 27.9501L44.6805 27.792ZM48.5692 25.0245L49.2255 25.2765L48.2693 27.7675L50.8055 25.883L51.4627 26.1352L50.102 29.6802L49.4456 29.4282L50.4018 26.9372L47.8655 28.8218L47.2084 28.5695L48.5692 25.0245ZM49.4847 24.3866L50.0356 24.598C50.017 24.6751 50.0265 24.7458 50.0643 24.8096C50.102 24.8736 50.1657 24.9227 50.2551 24.9571C50.34 24.9934 50.4183 24.9996 50.4897 24.9757C50.5611 24.9518 50.6175 24.9056 50.6584 24.837L51.2093 25.0485C51.1013 25.2343 50.946 25.3597 50.7432 25.4249C50.5406 25.4899 50.3226 25.4777 50.0895 25.3882C49.8532 25.2974 49.6815 25.1601 49.5743 24.9762C49.4673 24.7921 49.4374 24.5956 49.4847 24.3866ZM52.8276 31.2978L54.8397 28.0776L55.4359 28.45L54.5631 29.8469L56.4368 29.0755L57.149 29.5205L54.9487 30.3481L55.1346 32.7393L54.4245 32.2956L54.3047 30.2603L53.4236 31.6703L52.8276 31.2978ZM60.3781 32.3683L58.888 36.1707L58.3244 35.6452L59.4911 32.8743L56.8083 34.2315L56.2404 33.7018L59.9302 31.9507L60.3781 32.3683ZM64.9202 37.6241L60.8697 38.6073L60.3958 38.0008L61.4309 37.7586L62.7657 34.8664L63.2917 35.5397L62.3136 37.5703L64.4485 37.0203L64.9202 37.6241ZM66.0705 39.4712L67.1789 41.3909L66.5878 41.7321L65.831 40.4212L65.1555 40.8112L65.4583 41.3355C65.6704 41.7029 65.7304 42.0327 65.6383 42.3248C65.5463 42.6169 65.3581 42.8451 65.0736 43.0093C64.7745 43.182 64.473 43.2209 64.1691 43.1257C63.8654 43.0305 63.6211 42.8229 63.4363 42.503L62.7821 41.3697L66.0705 39.4712ZM64.5645 41.1525L63.7246 41.6373L64.0299 42.1661C64.1074 42.3072 64.2091 42.3995 64.3351 42.4433C64.4611 42.487 64.5902 42.4729 64.7222 42.4005C64.8378 42.3338 64.9127 42.2361 64.9471 42.1077C64.9816 41.9791 64.9558 41.8371 64.8698 41.6812L64.5645 41.1525Z" fill="#FEFEFE" stroke="white" stroke-width="0.0762" stroke-miterlimit="22.9256"/>
<path fill-rule="evenodd" clip-rule="evenodd" d="M21.3956 43.2437C23.7734 40.8032 26.1065 39.0324 29.4652 37.6633L36.5541 40.2972L36.4203 48.3775L28.9748 54.1811L21.4401 51.4579C21.4252 48.7198 21.4104 45.9817 21.3956 43.2437Z" fill="#FFED00" stroke="#2B2A29" stroke-width="0.0762" stroke-miterlimit="22.9256"/>
<path fill-rule="evenodd" clip-rule="evenodd" d="M37.847 40.3865C40.1654 39.4193 42.4837 38.452 44.8021 37.4847C47.8338 38.8686 50.5756 40.5428 52.9609 43.2436L52.8718 52.1721L45.0695 54.0918L37.7133 48.3329L37.847 40.3865Z" fill="#FFED00" stroke="#2B2A29" stroke-width="0.0762" stroke-miterlimit="22.9256"/>
<path fill-rule="evenodd" clip-rule="evenodd" d="M32.6306 65.3865L41.9041 65.4758L47.4771 70.9669L42.8404 77.6634C39.6155 78.29 35.5436 78.6975 31.5606 77.708L27.1915 71.1901L32.6306 65.3865Z" fill="#FFED00" stroke="#2B2A29" stroke-width="0.0762" stroke-miterlimit="22.9256"/>
<path fill-rule="evenodd" clip-rule="evenodd" d="M45.4708 55.3419L53.2284 53.2883C54.759 55.9297 56.2897 58.571 57.8205 61.2124C57.4229 63.6268 56.5349 65.6953 55.5244 67.5516L48.3688 70.0069L42.6843 64.5159L45.4708 55.3419Z" fill="#FFED00" stroke="#2B2A29" stroke-width="0.0762" stroke-miterlimit="22.9256"/>
<path fill-rule="evenodd" clip-rule="evenodd" d="M38.6036 73.5461V71.6412H39.5006C40.1137 71.7211 40.3128 72.0579 40.3505 72.633C40.3058 73.0647 40.0349 73.5094 39.5481 73.5438C39.4301 73.5522 39.3121 73.5476 39.1939 73.5535V73.1286C39.6101 73.1044 39.963 73.081 39.9496 72.5383C39.9213 72.2257 39.7382 72.0569 39.43 72.0662H39.0521V73.5535L38.6036 73.5461ZM45.0237 72.6814L45.0198 71.6174L44.1848 71.6152L44.187 71.0926L40.8294 67.8847L40.2101 68.4247L40.5149 68.7251L40.8305 68.4263L43.7437 71.3023L43.7393 72.055L44.5656 72.0532L44.5568 72.8362C44.5064 73.0516 44.404 73.072 44.2163 73.0907L42.9865 73.0949L42.9892 73.5522L43.9029 73.5434C44.5914 73.5498 45.0535 73.4459 45.0237 72.6814ZM31.9492 73.5376C31.2642 73.5704 30.855 73.3 30.8347 72.65L30.8279 71.6435L31.6734 71.6324L31.6712 71.0612L35.0291 67.8535L35.6482 68.3467L35.3434 68.6477L35.0275 68.395L32.1148 71.271L32.1191 72.0561L31.3951 72.0556C31.4025 72.1483 31.3943 72.2236 31.3912 72.3461C31.3881 72.4686 31.3824 72.5999 31.4028 72.7188C31.4318 72.887 31.5539 73.0581 31.7316 73.0904L33.0585 73.0982L33.0577 73.072L33.0477 71.6339H33.9452C35.1632 71.6981 35.1667 73.492 33.9923 73.536C33.8743 73.5408 33.7564 73.5403 33.6381 73.5462V73.0955C34.0679 73.0981 34.363 73.0748 34.3938 72.5309C34.3655 72.2179 34.1823 72.0491 33.8741 72.0589H33.4963V73.5432L31.9492 73.5376ZM37.9331 67.2206C37.838 67.1574 37.7506 67.1621 37.6691 67.2332L33.723 71.1724L33.6582 71.2506C33.6261 71.2874 33.6114 71.3355 33.6048 71.3895L33.6035 71.5062L33.0621 71.5032C33.0629 71.4545 33.0577 71.4096 33.0648 71.3579C33.0736 71.315 33.0762 71.2837 33.0936 71.2498C33.1662 71.0706 33.2893 70.9662 33.4235 70.8334L37.5476 66.69C37.7279 66.5476 37.8946 66.5718 38.0704 66.6881L42.3957 70.7818C42.5377 70.914 42.6671 71.0174 42.7477 71.1992C42.767 71.234 42.7706 71.2661 42.7812 71.31C42.7905 71.3632 42.7861 71.41 42.789 71.46L42.2365 71.4831L42.2317 71.3623C42.2228 71.3071 42.2059 71.2576 42.1716 71.2213L42.1024 71.143L37.9331 67.2206ZM42.3811 71.6412H42.8296V73.5535H42.3811V71.6412ZM35.8884 73.6009C35.3427 73.6009 34.8972 73.1552 34.8972 72.6095C34.8972 72.063 35.3427 71.6177 35.8884 71.6177C36.4349 71.6177 36.8802 72.063 36.8802 72.6095C36.8802 73.1552 36.4349 73.6009 35.8884 73.6009ZM35.8884 73.1759C35.5765 73.1759 35.3223 72.9214 35.3223 72.6095C35.3223 72.2975 35.5765 72.0426 35.8884 72.0426C36.2008 72.0426 36.4553 72.2975 36.4553 72.6095C36.4553 72.9214 36.2008 73.1759 35.8884 73.1759ZM41.3605 73.6009C40.8147 73.6009 40.3691 73.1552 40.3691 72.6095C40.3691 72.063 40.8147 71.6177 41.3605 71.6177C41.9067 71.6177 42.3521 72.063 42.3521 72.6095C42.3521 73.1552 41.9067 73.6009 41.3605 73.6009ZM41.3605 73.1759C41.0484 73.1759 40.7942 72.9214 40.7942 72.6095C40.7942 72.2975 41.0484 72.0426 41.3605 72.0426C41.6729 72.0426 41.9272 72.2975 41.9272 72.6095C41.9272 72.9214 41.6729 73.1759 41.3605 73.1759ZM36.9037 72.3968H37.872C37.9821 72.3656 38.0101 72.3243 38.0181 72.2348C38.0261 72.1453 37.9556 72.0419 37.8484 72.0426H36.9037V71.6335L38.0057 71.6494C38.079 71.6701 38.1604 71.6756 38.2257 71.7123C38.3939 71.8259 38.4883 71.9924 38.5093 72.2315C38.5065 72.4807 38.4199 72.6126 38.2495 72.719C38.1706 72.7427 38.0894 72.772 37.9898 72.7747H37.8484L38.462 73.5535H37.872L37.3676 72.7823L37.3456 73.5535H36.9136L36.9037 72.3968ZM37.8018 69.7121L37.6665 69.6199C37.6074 69.5765 37.5577 69.5357 37.5438 69.4482L37.6224 69.3647C37.6748 69.3219 37.7009 69.2829 37.706 69.2075C37.5882 68.9374 37.3139 69.166 37.4163 69.4137C37.1294 69.2757 37.0151 68.914 37.3574 68.7218C37.4653 68.6725 37.614 68.684 37.6957 68.766C37.6486 68.602 37.6988 68.524 37.7911 68.4045L37.8106 68.403C37.9022 68.5228 37.9596 68.602 37.9118 68.766C37.9939 68.684 38.1426 68.6725 38.2506 68.7218C38.5925 68.914 38.4786 69.2757 38.1918 69.4137C38.2939 69.166 38.0192 68.9374 37.902 69.2075C37.907 69.2829 37.9332 69.3219 37.9856 69.3647L38.0641 69.4482C38.0504 69.5357 38.0005 69.5765 37.9416 69.6199L37.8018 69.7121Z" fill="#0000FF"/>
<path d="M34.0302 74.5473H34.4351V76.7615H33.986V75.0313L33.8626 75.1421L33.6064 75.3634L33.3944 75.1009L34.0302 74.5473ZM35.5695 76.7141L35.6202 76.3567C35.6623 76.3736 35.7087 76.3888 35.7593 76.4025C35.8099 76.4162 35.8605 76.4263 35.9111 76.4326C35.9301 76.4347 35.948 76.4362 35.9649 76.4373C35.9817 76.4384 35.9986 76.4389 36.0155 76.4389C36.1674 76.4389 36.2802 76.4025 36.3539 76.3298C36.4277 76.257 36.4794 76.1774 36.5089 76.0909C36.5279 76.0382 36.54 75.9866 36.5453 75.9359C36.5506 75.8853 36.5532 75.8432 36.5532 75.8095H36.5438C36.5015 75.8684 36.4478 75.9197 36.3824 75.9629C36.317 76.0061 36.2295 76.0277 36.1199 76.0277C35.9448 76.0277 35.7862 75.9697 35.6438 75.8537C35.5015 75.7377 35.4303 75.5543 35.4303 75.3033C35.4303 75.084 35.492 74.899 35.6154 74.7482C35.7387 74.5975 35.9322 74.522 36.1958 74.522C36.4552 74.522 36.6397 74.588 36.7493 74.7197C36.8591 74.8515 36.9296 74.9965 36.9613 75.1546C36.9782 75.2348 36.9882 75.3133 36.9913 75.3903C36.9944 75.4673 36.996 75.5353 36.996 75.5943C36.996 75.976 36.9344 76.2496 36.8111 76.4152C36.6877 76.5807 36.5522 76.6877 36.4046 76.7362C36.3434 76.7552 36.2822 76.7678 36.221 76.7742C36.16 76.7805 36.104 76.7837 36.0534 76.7837C35.9986 76.7837 35.947 76.7821 35.8985 76.7789C35.8499 76.7758 35.8026 76.7699 35.7561 76.7615C35.7245 76.7573 35.6933 76.751 35.6628 76.7426C35.6322 76.7341 35.6012 76.7246 35.5695 76.7141ZM36.2085 75.6797C36.2147 75.6797 36.2206 75.6797 36.2258 75.6797C36.2311 75.6797 36.2358 75.6797 36.24 75.6797C36.3075 75.6734 36.3698 75.6413 36.4267 75.5833C36.4836 75.5252 36.5121 75.4225 36.5121 75.2748C36.5121 75.1273 36.4836 75.0245 36.4267 74.9665C36.3698 74.9084 36.3075 74.8762 36.24 74.87C36.2358 74.87 36.2311 74.87 36.2258 74.87C36.2206 74.87 36.2147 74.87 36.2085 74.87C36.2021 74.87 36.1964 74.87 36.191 74.87C36.1858 74.87 36.1811 74.87 36.1769 74.87C36.1094 74.8762 36.0471 74.9084 35.9902 74.9665C35.9333 75.0245 35.9048 75.1273 35.9048 75.2748C35.9048 75.4225 35.9333 75.5252 35.9902 75.5833C36.0471 75.6413 36.1094 75.6734 36.1769 75.6797C36.1811 75.6797 36.1858 75.6797 36.191 75.6797C36.1964 75.6797 36.2021 75.6797 36.2085 75.6797ZM38.0514 76.7141L38.1021 76.3567C38.1442 76.3736 38.1906 76.3888 38.2412 76.4025C38.2918 76.4162 38.3423 76.4263 38.393 76.4326C38.4119 76.4347 38.4299 76.4362 38.4468 76.4373C38.4636 76.4384 38.4805 76.4389 38.4974 76.4389C38.6493 76.4389 38.7621 76.4025 38.8359 76.3298C38.9096 76.257 38.9613 76.1774 38.9908 76.0909C39.0098 76.0382 39.0219 75.9866 39.0272 75.9359C39.0325 75.8853 39.0351 75.8432 39.0351 75.8095H39.0257C38.9834 75.8684 38.9297 75.9197 38.8643 75.9629C38.7989 76.0061 38.7114 76.0277 38.6018 76.0277C38.4267 76.0277 38.268 75.9697 38.1258 75.8537C37.9834 75.7377 37.9122 75.5543 37.9122 75.3033C37.9122 75.084 37.9739 74.899 38.0973 74.7482C38.2206 74.5975 38.4141 74.522 38.6777 74.522C38.9371 74.522 39.1216 74.588 39.2312 74.7197C39.3409 74.8515 39.4115 74.9965 39.4432 75.1546C39.4601 75.2348 39.4701 75.3133 39.4732 75.3903C39.4763 75.4673 39.4779 75.5353 39.4779 75.5943C39.4779 75.976 39.4163 76.2496 39.2929 76.4152C39.1696 76.5807 39.0341 76.6877 38.8865 76.7362C38.8253 76.7552 38.7642 76.7678 38.7029 76.7742C38.6419 76.7805 38.5859 76.7837 38.5353 76.7837C38.4805 76.7837 38.4288 76.7821 38.3804 76.7789C38.3318 76.7758 38.2845 76.7699 38.238 76.7615C38.2064 76.7573 38.1752 76.751 38.1447 76.7426C38.1141 76.7341 38.0831 76.7246 38.0514 76.7141ZM38.6903 75.6797C38.6967 75.6797 38.7024 75.6797 38.7077 75.6797C38.713 75.6797 38.7177 75.6797 38.7219 75.6797C38.7894 75.6734 38.8517 75.6413 38.9086 75.5833C38.9655 75.5252 38.994 75.4225 38.994 75.2748C38.994 75.1273 38.9655 75.0245 38.9086 74.9665C38.8517 74.9084 38.7894 74.8762 38.7219 74.87C38.7177 74.87 38.713 74.87 38.7077 74.87C38.7024 74.87 38.6967 74.87 38.6903 74.87C38.684 74.87 38.6783 74.87 38.673 74.87C38.6677 74.87 38.663 74.87 38.6588 74.87C38.5913 74.8762 38.529 74.9084 38.472 74.9665C38.4152 75.0245 38.3867 75.1273 38.3867 75.2748C38.3867 75.4225 38.4152 75.5252 38.472 75.5833C38.529 75.6413 38.5913 75.6734 38.6588 75.6797C38.663 75.6797 38.6677 75.6797 38.673 75.6797C38.6783 75.6797 38.684 75.6797 38.6903 75.6797ZM41.7922 74.8795L40.9824 76.7615H40.4795L41.3336 74.8953H40.3466V74.5473H41.7922V74.8795Z" fill="#0000FF"/>
<path fill-rule="evenodd" clip-rule="evenodd" d="M16.4245 61.3017L21.2172 52.4847L28.6628 55.2526L31.6053 64.8061L26.2997 70.1632L18.8097 67.7525C17.5093 65.6357 16.8889 63.5412 16.4245 61.3017Z" fill="#FFED00" stroke="#2B2A29" stroke-width="0.0762" stroke-miterlimit="22.9256"/>
<path fill-rule="evenodd" clip-rule="evenodd" d="M35.8544 1L37.8003 7.02726L44.1347 7.01507L39.0029 10.7281L40.9719 16.7478L35.8544 13.0153L30.737 16.7478L32.706 10.7281L27.5742 7.01507L33.9086 7.02726L35.8544 1Z" fill="#FFED00" stroke="#0000FF" stroke-width="0.75" stroke-miterlimit="22.9256" stroke-linecap="round" stroke-linejoin="round"/>
</svg>
