<svg width="75" height="73" viewBox="0 0 75 73" fill="none" xmlns="http://www.w3.org/2000/svg">
<g clip-path="url(#clip0)">
<path d="M72.4597 6.23387C71.3226 5.58065 70.2823 5.04839 69.242 4.54032C67.742 3.83871 66.121 3.08871 64.4517 2.53226C61.5968 1.56452 58.4517 0.790323 54.5323 0.0645161C53.8065 -0.0806452 53.3226 0.233871 53.1049 0.427419C52.8388 0.645161 52.5 1.08065 52.5242 1.78226C52.5242 1.87903 52.5242 2 52.5242 2.09677C51.5807 1.95161 50.6129 1.80645 49.5968 1.68548C49.5968 1.46774 49.5968 1.25 49.5968 1.03226C49.5968 0.0403225 48.8468 -0.709677 47.8549 -0.709677C47.4436 -0.733871 47.0323 -0.733871 46.5968 -0.758065L45.0968 -0.806452C44.3468 -0.830645 43.5968 -0.854839 42.8468 -0.879032C42.3146 -0.879032 41.7823 -0.903226 41.25 -0.927419C39.992 -0.951613 38.6613 -1 37.3549 -1C35.2742 -1 32.8307 -0.951613 30.3871 -0.854839C29.4194 -0.806452 28.2823 -0.733871 27.1694 -0.709677C26.2017 -0.66129 25.5 0.0887096 25.5 1.05645C25.5 1.25 25.5 1.46774 25.5 1.66129C24.4597 1.80645 23.4436 1.95161 22.4517 2.12097C22.4517 2 22.4517 1.85484 22.4517 1.70968C22.4517 0.983871 22.113 0.548387 21.8226 0.330645C21.5323 0.0887096 21.0484 -0.153226 20.3226 0.016129C17.8791 0.572581 15.871 1.08065 13.9597 1.6371C9.79844 2.84677 6.09682 4.32258 2.66134 6.1129C1.95973 6.47581 1.57263 7.10484 1.57263 7.87903C1.59683 8.72581 1.57263 9.57258 1.57263 10.3952V11.2419V12.1371C1.57263 13.0565 1.57263 13.9516 1.57263 14.871C1.57263 15.7177 2.03231 16.1532 2.29844 16.3226C2.39521 16.3952 2.51618 16.4677 2.66134 16.5161C2.8065 17.6774 2.97586 18.9113 3.1936 20.2661C3.5565 22.4919 4.01618 24.7419 4.54844 26.9677C5.8065 32.2177 7.59682 37.4919 9.89521 42.621C13.3549 50.3387 17.8307 57.2097 23.1775 63.0403C26.25 66.379 29.3952 69.1613 32.7581 71.5564C33.992 72.4274 35.1291 73.1532 36.1936 73.7581C36.5323 73.9274 36.8468 74 37.1371 74C37.5726 74 37.9355 73.8306 38.1049 73.7339C38.2017 73.6613 38.3226 73.6129 38.4194 73.5403C38.5404 73.4677 38.6613 73.4193 38.7823 73.3468C41.6613 71.6532 44.4678 69.5484 47.371 66.9113C51.8952 62.7984 55.9355 58.0323 59.3468 52.7097C62.8549 47.2661 65.6855 41.3629 68.0323 34.6613C69.242 31.1532 70.2581 27.4516 71.0081 23.7016C71.3468 22.0565 71.6371 20.4113 71.8791 18.8145C71.9758 18.1613 72.0484 17.4839 72.1452 16.7581L72.8952 17.0484L73.2581 15.2339C73.2581 15.1855 73.3065 15.0403 73.3065 14.871L73.3307 13.2258C73.3549 11.4355 73.3791 9.66935 73.4275 7.87903C73.4275 7.54032 73.3549 6.71774 72.4597 6.23387Z" fill="#FEFEFE"/>
<path d="M54.7985 2.43546C54.7985 2.50804 54.7985 2.58062 54.7985 2.65321C54.7985 3.28224 54.7985 3.91127 54.7985 4.5403C54.7985 4.70966 54.7743 4.75804 54.6049 4.73385C53.613 4.5645 52.5969 4.41933 51.6049 4.24998C50.2501 4.05643 48.9195 3.88708 47.5646 3.71772C47.4195 3.71772 47.3711 3.66933 47.3711 3.49998C47.3711 2.91933 47.3469 2.3145 47.3469 1.73385C47.3469 1.58869 47.2985 1.5403 47.1533 1.5403C46.4517 1.51611 45.7743 1.49191 45.0727 1.46772C43.8872 1.44353 42.7017 1.39514 41.5162 1.37095C40.0646 1.32256 38.6372 1.24998 37.1856 1.27417C35.3711 1.27417 33.5324 1.29837 31.7178 1.37095C30.4598 1.44353 29.2017 1.49191 27.9678 1.5403C27.7985 1.5403 27.7743 1.58869 27.7743 1.73385C27.7743 2.3145 27.7501 2.89514 27.7501 3.45159C27.7501 3.59675 27.7017 3.64514 27.5566 3.66933C26.734 3.76611 25.8872 3.88708 25.0646 4.00804C23.5162 4.24998 21.9437 4.51611 20.3953 4.80643C20.2501 4.83062 20.2017 4.80643 20.2017 4.63708C20.2017 3.93546 20.1775 3.23385 20.1775 2.55643C20.1775 2.41127 20.1533 2.38708 20.0082 2.41127C18.5566 2.74998 17.1049 3.11288 15.6533 3.52417C11.6372 4.63708 7.74204 6.0403 4.04043 7.95159C3.89526 8.02417 3.84688 8.09675 3.84688 8.24191C3.84688 10.129 3.84688 12.0161 3.84688 13.879C3.84688 13.9516 3.82268 14.0242 3.87107 14.0968C4.83881 13.7822 5.80655 13.4677 6.7501 13.1774C7.91139 12.8145 9.09688 12.5484 10.2582 12.1855C11.7824 11.7016 13.3307 11.2419 14.8791 10.8306C17.7098 10.129 20.5888 9.57256 23.492 9.16127C24.8953 8.94353 26.2985 8.77417 27.7259 8.62901C29.0082 8.50804 30.2662 8.38708 31.5485 8.3145C33.0969 8.21772 34.6695 8.14514 36.2178 8.12095C40.0404 8.07256 43.863 8.21772 47.6856 8.58062C49.3549 8.72579 51.0243 8.91933 52.6937 9.16127C54.6049 9.4274 56.492 9.76611 58.3791 10.1532C62.6372 11.0484 66.7985 12.258 70.8388 13.8306C71.0324 13.9032 71.0566 13.8548 71.0566 13.6855C71.0807 11.8951 71.1049 10.1048 71.1533 8.3145C71.1533 8.14514 71.1049 8.07256 70.9598 7.97579C67.7904 6.25804 64.5243 4.80643 61.0162 3.86288C58.9598 3.30643 56.9033 2.82256 54.7985 2.43546ZM66.1695 20.5806C66.242 20.1935 66.242 20.1935 65.9033 20.0968C63.2904 19.3468 60.6291 18.6935 57.9437 18.1613C56.0082 17.7742 54.0727 17.4355 52.113 17.1693C50.5162 16.9274 48.9195 16.758 47.3469 16.5887C45.9678 16.4677 44.5888 16.3468 43.2098 16.2742C41.6856 16.2016 40.1614 16.1532 38.6372 16.129C36.4356 16.1048 34.234 16.1774 32.0082 16.2984C30.3388 16.3951 28.6453 16.5403 26.9759 16.7338C25.4033 16.879 23.8791 17.0968 22.3307 17.3387C20.5162 17.6048 18.7017 17.9435 16.8872 18.3064C14.1291 18.8871 11.3711 19.5887 8.66139 20.3871C8.49204 20.4355 8.44365 20.508 8.54043 20.6532C8.58881 21.0161 8.6372 21.3548 8.70978 21.7177C9.12107 23.9193 9.58075 26.1209 10.1614 28.3226C11.3469 32.8226 12.8711 37.2016 14.8549 41.4597C17.4437 47 20.6856 52.129 24.7259 56.7258C27.0727 59.3871 29.613 61.8306 32.4195 64.008C33.8953 65.1451 35.4437 66.2338 37.0888 67.129C37.2098 67.2016 37.2824 67.2258 37.4033 67.1532C37.7178 66.9597 38.0566 66.7903 38.3711 66.5968C41.3953 64.7822 44.1291 62.5806 46.6937 60.1371C50.3469 56.6532 53.5162 52.7338 56.2017 48.4758C59.9517 42.5242 62.6372 36.1371 64.3791 29.3145C64.8872 27.3548 65.3227 25.3709 65.7098 23.3629C65.8791 22.4435 66.0485 21.5242 66.1695 20.5806ZM8.20172 18.5C8.20172 18.6209 8.2501 18.7177 8.2501 18.8629C11.5888 17.9193 14.9275 17.1451 18.3146 16.5403C20.3227 16.1774 22.3307 15.8871 24.3388 15.6451C25.6695 15.5 27.0243 15.3548 28.3791 15.258C29.9759 15.1371 31.5727 15.0403 33.1695 14.9919C35.1291 14.8951 37.0646 14.9193 39.0243 14.9193C42.0001 14.9193 44.9517 15.0403 47.9033 15.3064C49.4517 15.4274 51.0001 15.5968 52.5485 15.8145C54.2904 16.0322 56.0324 16.2984 57.7501 16.6129C60.5807 17.1451 63.3872 17.7742 66.1695 18.5242C66.484 18.6209 66.484 18.5968 66.5082 18.2822C66.5082 18.258 66.484 18.258 66.484 18.2338C66.6049 17.1935 66.7259 16.1774 66.8227 15.1371C66.8469 14.9677 66.8227 14.8951 66.6533 14.8468C66.0969 14.6532 65.5162 14.4355 64.9356 14.2661C63.4114 13.8064 61.863 13.4677 60.3146 13.1048C59.1775 12.8145 58.0404 12.5484 56.8791 12.3064C55.5727 12.0161 54.242 11.7742 52.9356 11.508C52.0888 11.3629 51.242 11.1693 50.3953 11.0726C49.5727 11 48.7743 10.8548 47.9759 10.758C47.2501 10.6613 46.5243 10.5645 45.7985 10.4919C45.1453 10.4193 44.4678 10.3951 43.8146 10.3468C43.1856 10.2984 42.5566 10.2258 41.9275 10.1774C40.9356 10.0806 39.9437 10.0806 38.9517 9.98385C37.8388 9.88708 36.7259 9.91127 35.613 9.95966C34.3549 10.0322 33.0727 10.129 31.8146 10.1532C30.6775 10.2016 29.5404 10.3709 28.4275 10.5161C27.5324 10.6371 26.6614 10.758 25.7904 10.879C25.0162 10.9758 24.242 11.0726 23.4678 11.1935C22.6453 11.3387 21.8227 11.4839 20.9759 11.629C19.9114 11.8226 18.8469 11.9919 17.7582 12.2097C16.2582 12.5 14.7582 12.8387 13.2582 13.1774C11.4678 13.5645 9.67752 14.0242 7.91139 14.5322C7.81462 14.5564 7.76623 14.6048 7.79043 14.7258C7.81462 15.0645 7.83881 15.4032 7.8872 15.7419C7.98397 16.6613 8.10494 17.5806 8.20172 18.5ZM4.06462 14.7742C3.82268 14.8709 3.58075 14.9193 3.33881 15.0161C3.19365 15.0887 3.14526 15.0645 3.14526 14.8709C3.14526 13.6613 3.14526 12.4516 3.14526 11.2419C3.14526 10.129 3.14526 8.99191 3.14526 7.87901C3.14526 7.68546 3.19365 7.58869 3.36301 7.49191C6.89526 5.65321 10.5969 4.24998 14.3953 3.13708C16.4759 2.53224 18.5566 2.02417 20.6614 1.5403C20.8549 1.51611 20.8791 1.5403 20.8791 1.70966C20.8791 2.41127 20.8791 3.11288 20.8791 3.7903C20.8791 3.95966 20.9033 3.98385 21.0727 3.95966C22.984 3.62095 24.9195 3.30643 26.8549 3.0645C27.0001 3.0403 27.0727 2.96772 27.0485 2.79837C27.0485 2.21772 27.0727 1.63708 27.0727 1.05643C27.0727 0.91127 27.0969 0.862883 27.242 0.862883C28.3066 0.814495 29.3953 0.766108 30.4598 0.717721C32.7582 0.596754 35.0566 0.57256 37.3549 0.57256C39.1695 0.548366 40.984 0.645141 42.7985 0.693528C43.8872 0.717721 45.0001 0.766108 46.0888 0.790302C46.6695 0.814495 47.2501 0.838689 47.8307 0.838689C47.9759 0.838689 48.0243 0.887076 48.0243 1.03224C48.0243 1.66127 48.0485 2.26611 48.0485 2.89514C48.0485 3.0403 48.0969 3.08869 48.242 3.11288C50.0807 3.33062 51.9437 3.57256 53.7824 3.88708C54.0969 3.93546 54.0969 3.93546 54.0969 3.62095C54.0969 2.99191 54.0969 2.38708 54.0727 1.75804C54.0727 1.61288 54.0969 1.5645 54.242 1.61288C57.5324 2.21772 60.7985 2.96772 63.9678 4.03224C65.5404 4.5645 67.0646 5.24191 68.5646 5.96772C69.6291 6.47579 70.6695 7.00804 71.6856 7.58869C71.7824 7.66127 71.8549 7.70966 71.8549 7.85482C71.8066 10.1774 71.7582 12.5 71.734 14.8468C71.734 14.8709 71.734 14.8951 71.7098 14.9193C71.4195 14.7984 71.1049 14.7016 70.8146 14.5806C70.5727 14.4113 70.6211 14.6532 70.6211 14.75C70.5243 15.4274 70.4759 16.1048 70.3791 16.758C70.1614 18.4274 69.9195 20.0968 69.6049 21.7419C69.0969 24.5242 68.4437 27.2822 67.6695 30.0161C65.8791 36.1613 63.4356 42.0161 60.3388 47.6048C57.5324 52.7338 54.1211 57.4274 50.1291 61.7339C48.0001 64.0322 45.7017 66.1613 43.234 68.1209C41.492 69.5242 39.6533 70.7822 37.742 71.9193C37.2824 72.2097 36.9678 72.1855 36.5082 71.9193C33.6533 70.2016 31.0162 68.1451 28.5485 65.8951C25.742 63.3548 23.2017 60.5726 20.8549 57.5968C17.5888 53.4113 14.8307 48.9113 12.5324 44.1209C10.1372 39.1129 8.17752 33.9355 6.7501 28.5887C6.16946 26.3629 5.66139 24.1129 5.2501 21.8387C5.00817 20.5322 4.79043 19.2016 4.62107 17.8951C4.47591 16.9032 4.35494 15.9113 4.25817 14.9193C4.25817 14.75 4.20978 14.6774 4.06462 14.7742Z" fill="#F1E50D"/>
<path d="M4.06458 14.7742C4.20974 14.6774 4.25812 14.75 4.25812 14.9193C4.3549 15.9113 4.47587 16.9032 4.62103 17.8951C4.79038 19.2016 5.00812 20.5322 5.25006 21.8387C5.66135 24.1129 6.16941 26.3629 6.75006 28.5887C8.17748 33.9355 10.1372 39.1129 12.5323 44.121C14.8307 48.9113 17.5888 53.4113 20.8549 57.5968C23.2017 60.5726 25.742 63.3548 28.5484 65.8951C31.0162 68.1451 33.6291 70.2016 36.5081 71.9193C36.9678 72.1855 37.2823 72.2097 37.742 71.9193C39.6533 70.7822 41.492 69.5242 43.2339 68.1209C45.7017 66.1613 48.0001 64.0322 50.1291 61.7339C54.121 57.4274 57.5323 52.7339 60.3388 47.6048C63.4355 42.0161 65.8791 36.1613 67.6694 30.0161C68.4436 27.2822 69.0968 24.5242 69.6049 21.7419C69.9194 20.0968 70.1613 18.4274 70.3791 16.7581C70.4759 16.1048 70.5243 15.4274 70.621 14.75C70.621 14.6532 70.5726 14.4113 70.8146 14.5806C70.6694 15.9113 70.5243 17.2419 70.3065 18.5726C70.0888 20.1935 69.7984 21.7903 69.4839 23.3871C68.7339 27.0161 67.7662 30.621 66.5323 34.129C64.3791 40.3468 61.5968 46.2984 58.0404 51.8387C54.7259 56.9919 50.8549 61.6371 46.3065 65.75C43.742 68.0968 40.9839 70.2258 37.9839 71.9919C37.7662 72.1129 37.5243 72.258 37.2823 72.379C37.1614 72.4516 37.0646 72.4274 36.9678 72.379C35.8307 71.75 34.742 71.0242 33.6775 70.2742C30.2662 67.8548 27.1694 65.0484 24.3388 61.9758C18.871 56.0484 14.613 49.3468 11.3226 41.9919C9.12103 37.0081 7.3307 31.9032 6.07264 26.6048C5.54038 24.4274 5.1049 22.2258 4.74199 20.0242C4.47587 18.379 4.25812 16.7339 4.08877 15.0887C4.08877 14.9919 4.06458 14.8951 4.06458 14.7742Z" fill="#22251E"/>
<path d="M54.7985 2.43549C56.9033 2.82259 58.9598 3.30646 61.0162 3.86291C64.5243 4.80646 67.7904 6.25807 70.9598 7.97581C71.1049 8.07259 71.1533 8.14517 71.1533 8.31452C71.1049 10.1048 71.0807 11.8952 71.0566 13.6855C71.0566 13.8548 71.0324 13.9032 70.8388 13.8307C66.7985 12.2581 62.6372 11.0484 58.3791 10.1532C56.492 9.76614 54.6049 9.42743 52.6936 9.1613C51.0243 8.91936 49.3549 8.72581 47.6856 8.58065C43.863 8.21775 40.0404 8.07259 36.2178 8.12097C34.6695 8.14517 33.0969 8.21775 31.5485 8.31452C30.2662 8.3871 29.0082 8.50807 27.7259 8.62904C26.2985 8.7742 24.8953 8.94355 23.492 9.1613C20.5888 9.57259 17.7098 10.129 14.8791 10.8307C13.3307 11.2419 11.7824 11.7016 10.2582 12.1855C9.09687 12.5484 7.91139 12.8145 6.75009 13.1774C5.80655 13.4677 4.8388 13.7823 3.87106 14.0968C3.82268 14.0242 3.84687 13.9516 3.84687 13.879C3.84687 12.0161 3.84687 10.129 3.84687 8.24194C3.84687 8.09678 3.89526 8.0242 4.04042 7.95162C7.74203 6.04033 11.6372 4.6371 15.6533 3.5242C17.1049 3.11291 18.5565 2.75001 20.0082 2.4113C20.1533 2.3871 20.1775 2.4113 20.1775 2.55646C20.1775 3.23388 20.2017 3.93549 20.2017 4.6371C20.2017 4.80646 20.2501 4.83065 20.3953 4.80646C21.9436 4.51613 23.5162 4.25001 25.0646 4.00807C25.8872 3.8871 26.734 3.76613 27.5565 3.66936C27.7017 3.64517 27.7501 3.59678 27.7501 3.45162C27.7501 2.89517 27.7743 2.31452 27.7743 1.73388C27.7743 1.58872 27.7985 1.54033 27.9678 1.54033C29.2017 1.49194 30.4598 1.44355 31.7178 1.37097C33.5324 1.29839 35.3711 1.2742 37.1856 1.2742C38.6372 1.25001 40.0646 1.32259 41.5162 1.37097C42.7017 1.39517 43.8872 1.44355 45.0727 1.46775C45.7743 1.49194 46.4517 1.51613 47.1533 1.54033C47.2985 1.54033 47.3469 1.58872 47.3469 1.73388C47.3469 2.31452 47.3711 2.91936 47.3711 3.50001C47.3711 3.66936 47.4195 3.71775 47.5646 3.71775C48.9195 3.8871 50.2501 4.05646 51.6049 4.25001C52.5969 4.41936 53.613 4.56452 54.6049 4.73388C54.7743 4.75807 54.7985 4.70968 54.7985 4.54033C54.7985 3.9113 54.7985 3.28226 54.7985 2.65323C54.7985 2.58065 54.7985 2.50807 54.7985 2.43549Z" fill="#573625"/>
<path d="M8.54041 20.6532C8.44364 20.5081 8.49202 20.4355 8.66138 20.3871C11.3711 19.5887 14.1291 18.8871 16.8872 18.3065C18.7017 17.9436 20.5162 17.6049 22.3307 17.3387C23.8791 17.0968 25.4033 16.8791 26.9517 16.7339C28.6453 16.5403 30.3388 16.3952 32.0082 16.2984C34.234 16.1774 36.4356 16.1049 38.6372 16.1291C40.1614 16.1532 41.6856 16.2016 43.2098 16.2742C44.5888 16.3468 45.9678 16.4678 47.3469 16.5887C48.9194 16.7581 50.5162 16.9274 52.113 17.1694C54.0727 17.4355 56.0082 17.7742 57.9436 18.1613C60.6291 18.6936 63.2904 19.3468 65.9033 20.0968C66.242 20.1936 66.242 20.1936 66.1694 20.5807C66.1211 20.5565 66.0485 20.5323 66.0001 20.5323C65.7098 20.4597 65.4436 20.3629 65.1533 20.2903C62.8065 19.6613 60.4598 19.1291 58.0646 18.6694C56.1775 18.2823 54.2904 17.992 52.3791 17.7258C51.0243 17.5323 49.6694 17.3629 48.3146 17.242C47.1775 17.121 46.0404 17.0484 44.9033 16.9758C43.5243 16.8791 42.1211 16.8307 40.742 16.7823C39.6775 16.7581 38.613 16.7581 37.5485 16.7581C36.0485 16.7581 34.5485 16.7581 33.0243 16.8307C31.5001 16.8791 29.9759 16.9516 28.4759 17.0968C27.5082 17.1936 26.5404 17.2662 25.5727 17.3629C24.4114 17.5081 23.2501 17.6532 22.113 17.8226C20.5404 18.0403 18.992 18.2823 17.4436 18.5968C15.1694 19.0323 12.8953 19.5162 10.6453 20.121C10.0162 20.2903 9.36299 20.4355 8.73396 20.6532C8.66138 20.6532 8.5888 20.6532 8.54041 20.6532Z" fill="#573625"/>
<path d="M66.4839 18.2339C66.4839 18.258 66.5081 18.258 66.5081 18.2822C66.4839 18.5968 66.4839 18.6209 66.1694 18.5242C63.3871 17.7742 60.5807 17.1451 57.75 16.6129C56.0323 16.2984 54.2904 16.0322 52.5484 15.8145C51 15.5968 49.4517 15.4274 47.9033 15.3064C44.9517 15.0403 42 14.9193 39.0242 14.9193C37.0646 14.9193 35.1291 14.8951 33.1694 14.9919C31.5726 15.0403 29.9759 15.1371 28.3791 15.258C27.0242 15.3548 25.6694 15.5 24.3388 15.6451C22.3307 15.8871 20.3226 16.1774 18.3146 16.5403C14.9275 17.1451 11.5888 17.9193 8.25005 18.8629C8.25005 18.7177 8.20166 18.6209 8.20166 18.5C8.27424 18.4758 8.34682 18.5 8.37101 18.4032C8.46779 18.4274 8.56456 18.4032 8.66134 18.379C9.70166 18.0887 10.742 17.7984 11.8065 17.5322C14.1291 16.9274 16.5 16.4435 18.871 16.008C20.4194 15.7419 21.9678 15.4758 23.5404 15.2822C24.6775 15.1129 25.8146 14.9919 26.9517 14.8709C28.2339 14.75 29.5162 14.6532 30.7742 14.5564C31.9355 14.4839 33.0726 14.4355 34.2339 14.4113C35.9759 14.3629 37.7178 14.3387 39.4839 14.3629C41.2984 14.4113 43.1371 14.4597 44.9517 14.6048C45.9436 14.6774 46.9113 14.7258 47.8791 14.8226C49.1613 14.9435 50.4678 15.0887 51.75 15.258C53.1049 15.4516 54.4355 15.6451 55.7904 15.8629C57.4113 16.1532 59.0323 16.4677 60.6291 16.8306C62.5404 17.2419 64.4275 17.7016 66.2904 18.2339C66.3629 18.2822 66.4355 18.2822 66.4839 18.2339Z" fill="#573625"/>
<path d="M8.54041 20.6532C8.58879 20.6532 8.66137 20.6532 8.73395 20.6532C8.73395 20.7258 8.73395 20.7984 8.75815 20.871C9.07266 22.7339 9.43557 24.5968 9.89524 26.4355C11.1533 31.7097 12.871 36.8145 15.1936 41.7258C18.0001 47.7258 21.6291 53.1694 26.1291 58.0081C28.2581 60.3065 30.5807 62.4113 33.0727 64.2742C34.3549 65.2419 35.6614 66.1371 37.0646 66.9113C37.1856 66.9839 37.2823 67.0081 37.4275 66.9355C37.6694 66.7661 37.9356 66.6452 38.1775 66.5C41.2985 64.6371 44.1049 62.3629 46.7178 59.8468C48.9436 57.7419 50.9759 55.4436 52.8388 53C56.9517 47.6048 60.121 41.7016 62.371 35.2903C63.3872 32.3871 64.2098 29.4113 64.8872 26.4113C65.2259 24.9355 65.5162 23.4355 65.7581 21.9597C65.8307 21.4758 65.9033 21.0161 66.0001 20.5323C66.0485 20.5323 66.121 20.5565 66.1694 20.5806C66.0485 21.5242 65.8791 22.4435 65.7098 23.3629C65.3227 25.371 64.8872 27.3548 64.3791 29.3145C62.6372 36.1371 59.9517 42.5242 56.2017 48.4758C53.5162 52.7339 50.3469 56.6532 46.6936 60.1371C44.1291 62.5806 41.3952 64.7823 38.371 66.5968C38.0565 66.7903 37.7178 66.9597 37.4033 67.1532C37.2823 67.2258 37.2098 67.2016 37.0888 67.129C35.4436 66.2339 33.8952 65.1452 32.4194 64.0081C29.613 61.8306 27.0727 59.3871 24.7259 56.7258C20.6856 52.129 17.4436 47 14.8549 41.4597C12.871 37.2016 11.3469 32.8226 10.1614 28.3226C9.58073 26.121 9.12105 23.9194 8.70976 21.7177C8.63718 21.3548 8.58879 21.0161 8.54041 20.6532Z" fill="#22251E"/>
<path d="M8.37099 18.4032C8.3468 18.5 8.27422 18.4758 8.20164 18.5C8.10486 17.5807 7.98389 16.6613 7.88712 15.742C7.83873 15.4032 7.81454 15.0645 7.79035 14.7258C7.76615 14.6049 7.81454 14.5565 7.91131 14.5323C9.67744 14.0242 11.4678 13.5645 13.2581 13.1774C14.7581 12.8387 16.2581 12.5 17.7581 12.2097C18.8468 11.992 19.9113 11.8226 20.9758 11.6291C21.8226 11.4839 22.6452 11.3387 23.4678 11.1936C24.242 11.0726 25.0162 10.9758 25.7903 10.8791C26.6613 10.7581 27.5323 10.6371 28.4274 10.5161C29.5403 10.371 30.6774 10.2016 31.8145 10.1532C33.0726 10.1291 34.3549 10.0323 35.6129 9.9597C36.7258 9.91131 37.8387 9.88712 38.9516 9.98389C39.9436 10.0807 40.9355 10.0807 41.9274 10.1774C42.5565 10.2258 43.1855 10.2984 43.8145 10.3468C44.4678 10.3952 45.1452 10.4194 45.7984 10.492C46.5242 10.5645 47.25 10.6613 47.9758 10.7581C48.7742 10.8549 49.5726 11 50.3952 11.0726C51.242 11.1694 52.0887 11.3629 52.9355 11.5081C54.242 11.7742 55.5726 12.0161 56.8791 12.3065C58.0404 12.5484 59.1774 12.8145 60.3145 13.1049C61.8629 13.4678 63.4113 13.8065 64.9355 14.2661C65.5162 14.4355 66.0968 14.6532 66.6533 14.8468C66.8226 14.8952 66.8468 14.9678 66.8226 15.1371C66.7258 16.1774 66.6049 17.1936 66.4839 18.2339C66.4355 18.2823 66.3629 18.2823 66.2904 18.2339C66.3629 17.992 66.3629 17.7258 66.4113 17.4597C66.4839 16.7097 66.5565 15.9597 66.6291 15.2097C66.6533 15.0645 66.6049 15.0161 66.4839 14.9678C65.8791 14.7742 65.3226 14.5565 64.7178 14.3871C62.1774 13.6855 59.5887 13.1049 57.0242 12.5242C55.6694 12.2097 54.3145 11.9678 52.9597 11.7016C51.9436 11.5081 50.9033 11.3145 49.8871 11.1936C49.0645 11.121 48.2904 10.9758 47.4678 10.8791C46.8387 10.8065 46.2097 10.6855 45.5565 10.6613C44.9516 10.6371 44.3226 10.5645 43.7178 10.5403C42.8226 10.4678 41.9274 10.3952 41.0323 10.3226C40.4033 10.2742 39.75 10.25 39.121 10.2016C38.0807 10.0807 37.0645 10.1049 36.0242 10.1291C34.6452 10.2016 33.2662 10.25 31.8871 10.3468C31.3065 10.371 30.7016 10.3952 30.121 10.4678C29.25 10.5887 28.3549 10.7097 27.4597 10.8307C26.492 10.9758 25.5484 11.0968 24.5807 11.2178C23.5645 11.3629 22.5726 11.5323 21.5807 11.7016C20.3468 11.9436 19.0887 12.1371 17.8307 12.3791C16.5968 12.621 15.3629 12.9113 14.1049 13.1774C12.121 13.6129 10.1371 14.0968 8.17744 14.6532C8.03228 14.6774 7.9597 14.7258 7.98389 14.8952C8.05647 15.5 8.10486 16.1291 8.17744 16.7581C8.25002 17.3145 8.29841 17.8468 8.37099 18.4032Z" fill="#22251E"/>
<path d="M40.4034 57.1129C40.4759 57.1371 40.5001 57.0887 40.5243 57.0645C40.6937 56.7984 40.9356 56.7016 41.2259 56.7258C41.4679 56.7258 41.7098 56.7258 41.9517 56.7016C42.1211 56.7016 42.1695 56.7258 42.1211 56.9193C41.8308 57.7177 41.5888 58.4919 41.3227 59.2903C41.2501 59.4597 41.2017 59.629 41.1534 59.7984C41.2743 59.7984 41.3953 59.871 41.4679 59.6774C41.8308 58.6129 42.1937 57.5484 42.5566 56.4597C42.605 56.3387 42.5808 56.2903 42.4356 56.2903C41.9034 56.2903 41.3711 56.2903 40.8388 56.2903C40.7905 56.2903 40.7421 56.2903 40.7179 56.3387C40.5969 56.5806 40.5001 56.8468 40.4034 57.1129ZM33.0001 59.3871C33.2905 59.0726 33.5566 58.7822 33.8227 58.4919C34.0888 58.2258 34.3308 57.9113 34.4517 57.5242C34.6695 56.9193 34.3308 56.3871 33.7259 56.2661C33.1453 56.1693 32.613 56.5564 32.5647 57.1129C32.5647 57.1613 32.5405 57.1855 32.5888 57.2097C32.6372 57.2097 32.6372 57.1855 32.6614 57.1613C32.6856 57.1371 32.6856 57.0887 32.7098 57.0645C32.9034 56.7016 33.2663 56.5564 33.6292 56.6774C33.9679 56.7984 34.1614 57.1613 34.0647 57.5484C33.9921 57.9113 33.8227 58.2016 33.605 58.4677C33.2905 58.879 32.9276 59.2419 32.5405 59.5806C32.4921 59.629 32.4437 59.6532 32.4679 59.7258C32.4921 59.7984 32.5405 59.7742 32.5888 59.7742C33.1937 59.7742 33.7743 59.7742 34.355 59.7742C34.4034 59.7742 34.4759 59.7742 34.5001 59.7258C34.5727 59.5322 34.6453 59.3387 34.7179 59.121C34.6937 59.121 34.6937 59.0968 34.6695 59.0968C34.5243 59.2661 34.3792 59.3871 34.1614 59.3871C33.7985 59.3871 33.4114 59.3871 33.0001 59.3871ZM39.9921 57.9839C39.9921 57.5484 39.9195 57.0887 39.6292 56.7016C39.1937 56.0968 38.5405 56.0968 38.105 56.7016C38.0082 56.871 37.9114 57.0645 37.863 57.2581C37.7905 57.4758 37.7663 57.7177 37.7421 57.9839C37.7421 58.4919 37.8388 59 38.1776 59.4355C38.2985 59.5806 38.4195 59.7016 38.5888 59.7742C38.9517 59.8951 39.363 59.7258 39.605 59.3871C39.8953 58.9758 39.9921 58.5161 39.9921 57.9839ZM37.4034 58.25C37.4034 57.5 37.2824 57.0645 37.0647 56.7258C36.605 56.0968 35.9276 56.0968 35.4921 56.75C35.3953 56.8951 35.3227 57.0645 35.2743 57.2581C35.2017 57.4758 35.1776 57.7177 35.1534 57.9597C35.1534 58.4919 35.2501 59 35.5888 59.4597C35.6856 59.6048 35.8308 59.7016 36.0001 59.7742C36.363 59.8951 36.7743 59.7258 37.0163 59.3871C37.3066 58.9758 37.4034 58.5161 37.4034 58.25ZM55.9598 36.0887C55.984 35.5322 55.9356 34.9758 55.8872 34.4193C55.7663 33.1129 55.5243 31.8548 55.113 30.621C54.0243 27.2581 52.113 24.4516 49.3792 22.2016C46.0888 19.5161 42.3147 18.1129 38.0808 17.9435C36.4598 17.8952 34.863 18.0403 33.3147 18.4274C29.3953 19.3226 26.0808 21.2822 23.4437 24.3064C21.0485 27.0403 19.6211 30.2339 19.1614 33.8387C18.9437 35.5081 18.9679 37.1532 19.2098 38.7984C19.4759 40.6129 20.0324 42.3306 20.855 43.9758C22.6211 47.5081 25.2824 50.2177 28.7905 52.0564C31.8147 53.6532 35.0566 54.3548 38.4679 54.1613C39.5566 54.1129 40.6453 53.9919 41.6856 53.7258C45.8469 52.7581 49.3066 50.629 51.9921 47.3145C54.6292 44.0484 55.9356 40.2742 55.9598 36.0887ZM66.0001 20.5322C65.9034 21.0161 65.8308 21.4758 65.7582 21.9597C65.5163 23.4355 65.2259 24.9355 64.8872 26.4113C64.2098 29.4113 63.3872 32.3871 62.3711 35.2903C60.1211 41.7016 56.9517 47.6048 52.8388 53C50.9759 55.4435 48.9437 57.7419 46.7179 59.8468C44.105 62.3629 41.2985 64.6371 38.1776 66.5C37.9356 66.6451 37.6695 66.7661 37.4276 66.9355C37.2824 67.0081 37.1856 66.9839 37.0647 66.9113C35.6614 66.1371 34.355 65.2419 33.0727 64.2742C30.5808 62.4113 28.2582 60.3064 26.1292 58.0081C21.6292 53.1693 18.0001 47.7258 15.1937 41.7258C12.8711 36.8145 11.1534 31.7097 9.8953 26.4355C9.43562 24.5968 9.07272 22.7339 8.7582 20.871C8.73401 20.7984 8.73401 20.7258 8.73401 20.6532C9.36304 20.4355 10.0163 20.2903 10.6453 20.121C12.8953 19.5161 15.1695 19.0322 17.4437 18.5968C18.9921 18.2823 20.5405 18.0403 22.113 17.8226C23.2501 17.6532 24.4114 17.5081 25.5727 17.3629C26.5405 17.2661 27.5082 17.1935 28.4759 17.0968C29.9759 16.9516 31.5001 16.879 33.0243 16.8306C34.5485 16.7581 36.0485 16.7581 37.5485 16.7581C38.613 16.7581 39.6776 16.7581 40.7421 16.7823C42.1211 16.8306 43.5243 16.879 44.9034 16.9758C46.0405 17.0484 47.1776 17.121 48.3147 17.2419C49.6695 17.3629 51.0243 17.5323 52.4034 17.7258C54.2905 17.9919 56.1776 18.2823 58.0647 18.6693C60.4598 19.129 62.8066 19.6613 65.1534 20.2903C65.4437 20.3629 65.7098 20.4597 66.0001 20.5322Z" fill="#1D9145"/>
<path d="M8.37105 18.4032C8.29847 17.8468 8.25008 17.3145 8.1775 16.7581C8.10492 16.129 8.05654 15.5 7.98395 14.8952C7.95976 14.7258 8.03234 14.6774 8.1775 14.6532C10.1372 14.0968 12.1211 13.6129 14.1049 13.1774C15.363 12.9113 16.5969 12.621 17.8307 12.379C19.0888 12.1371 20.3469 11.9435 21.5807 11.7016C22.5727 11.5322 23.5646 11.3629 24.5807 11.2177C25.5485 11.0968 26.492 10.9758 27.4598 10.8306C28.3549 10.7097 29.2501 10.5887 30.1211 10.4677C30.7017 10.3952 31.3065 10.371 31.8872 10.3468C33.2662 10.25 34.6452 10.2016 36.0243 10.129C37.0646 10.1048 38.0807 10.0806 39.121 10.2016C39.7501 10.25 40.4033 10.2742 41.0323 10.3226C41.9275 10.3952 42.8227 10.4677 43.7178 10.5403C44.3227 10.5645 44.9517 10.6371 45.5565 10.6613C46.2098 10.6855 46.8388 10.8064 47.4678 10.879C48.2904 10.9758 49.0646 11.121 49.8872 11.1935C50.9033 11.3145 51.9436 11.5081 52.9598 11.7016C54.3146 11.9677 55.6694 12.2097 57.0243 12.5242C59.5888 13.1048 62.1775 13.6855 64.7178 14.3871C65.3227 14.5564 65.8791 14.7742 66.484 14.9677C66.6049 15.0161 66.6533 15.0645 66.6291 15.2097C66.5565 15.9597 66.484 16.7097 66.4114 17.4597C66.363 17.7258 66.363 17.9919 66.2904 18.2339C64.4275 17.7016 62.5404 17.2419 60.6291 16.8306C59.0323 16.4677 57.4114 16.1532 55.7904 15.8629C54.4356 15.6452 53.1049 15.4516 51.7501 15.2581C50.4678 15.0887 49.1614 14.9435 47.8791 14.8226C46.9114 14.7258 45.9436 14.6774 44.9517 14.6048C43.1372 14.4597 41.2985 14.4113 39.484 14.3629C37.7178 14.3387 35.9759 14.3629 34.234 14.4113C33.0727 14.4355 31.9356 14.4839 30.7743 14.5564C29.5162 14.6532 28.234 14.75 26.9517 14.871C25.8146 14.9919 24.6775 15.1129 23.5404 15.2822C21.9678 15.4758 20.4194 15.7419 18.8711 16.0081C16.5001 16.4435 14.1291 16.9274 11.8065 17.5322C10.742 17.7984 9.7017 18.0887 8.66137 18.379C8.5646 18.4032 8.46783 18.4274 8.37105 18.4032Z" fill="#1D9145"/>
<path d="M37.8871 18.8145C36.1694 18.8387 34.863 18.9597 33.5565 19.25C29.5162 20.1936 26.1533 22.2742 23.5646 25.5403C21.3871 28.2742 20.1775 31.4194 19.9355 34.9274C19.8146 36.5484 19.9355 38.1452 20.2984 39.7419C21.1694 43.6613 23.2017 46.879 26.3226 49.3952C29.2742 51.7903 32.6855 53.0726 36.4597 53.2903C38.0081 53.3871 39.5323 53.2903 41.0081 52.9758C44.1049 52.3468 46.863 51.0161 49.2339 48.9113C52.6694 45.8629 54.6049 42.0645 55.0404 37.4919C55.1855 35.8468 55.0888 34.2258 54.75 32.629C53.9275 28.8065 52.0162 25.6129 49.0404 23.0726C45.7259 20.2419 41.8549 18.8629 37.8871 18.8145ZM55.9597 36.0887C55.9355 40.2742 54.6291 44.0484 51.992 47.3145C49.3065 50.629 45.8468 52.7581 41.6855 53.7258C40.6452 53.9919 39.5565 54.1129 38.4678 54.1613C35.0565 54.3548 31.8146 53.6532 28.7904 52.0565C25.2823 50.2177 22.621 47.5081 20.8549 43.9758C20.0323 42.3306 19.4759 40.6129 19.2097 38.7984C18.9678 37.1532 18.9436 35.5081 19.1613 33.8387C19.621 30.2339 21.0484 27.0403 23.4436 24.3065C26.0807 21.2823 29.3952 19.3226 33.3146 18.4274C34.863 18.0403 36.4597 17.8952 38.0807 17.9436C42.3146 18.1129 46.0888 19.5161 49.3791 22.2016C52.113 24.4516 54.0242 27.2581 55.113 30.621C55.5242 31.8548 55.7662 33.1129 55.8871 34.4194C55.9355 34.9758 55.9839 35.5323 55.9597 36.0887Z" fill="#573625"/>
<path d="M35.6614 58.0565C35.6614 58.4677 35.6856 58.9032 35.8549 59.2903C35.9275 59.4597 36.0243 59.629 36.242 59.629C36.484 59.6532 36.6049 59.4839 36.7017 59.3145C36.7501 59.2177 36.7743 59.121 36.7985 59.0242C36.8953 58.5161 36.9194 58.0081 36.8711 57.5C36.8711 57.1855 36.8227 56.8952 36.6533 56.629C36.4598 56.3629 36.1453 56.3387 35.9517 56.6048C35.8549 56.7258 35.8065 56.871 35.7582 57.0161C35.6856 57.3548 35.6614 57.7177 35.6614 58.0565ZM37.4033 58.25C37.4033 58.5161 37.3065 58.9758 37.0162 59.3871C36.7743 59.7258 36.363 59.8952 36.0001 59.7742C35.8307 59.7016 35.6856 59.6048 35.5888 59.4597C35.2501 59 35.1533 58.4919 35.1533 57.9597C35.1775 57.7177 35.2017 57.4758 35.2743 57.2581C35.3227 57.0645 35.3953 56.8952 35.492 56.75C35.9275 56.0968 36.6049 56.0968 37.0646 56.7258C37.2823 57.0645 37.4033 57.5 37.4033 58.25Z" fill="#F1E50D"/>
<path d="M38.25 58.0806C38.25 58.4677 38.2742 58.879 38.4194 59.2661C38.5161 59.4597 38.6129 59.629 38.8548 59.629C39.0968 59.629 39.2177 59.4839 39.3145 59.2661C39.3629 59.1935 39.3871 59.0968 39.3871 59.0242C39.5081 58.5161 39.5081 58.0081 39.4839 57.5C39.4597 57.2097 39.4113 56.9194 39.2419 56.6532C39.0726 56.3387 38.7339 56.3387 38.5161 56.629C38.4436 56.75 38.3952 56.8952 38.3468 57.0403C38.2742 57.379 38.2742 57.7177 38.25 58.0806ZM39.9919 57.9839C39.9919 58.5161 39.8952 58.9758 39.6048 59.3871C39.3629 59.7258 38.9516 59.8952 38.5887 59.7742C38.4194 59.7016 38.2984 59.5806 38.1774 59.4355C37.8387 59 37.7419 58.4919 37.7419 57.9839C37.7661 57.7177 37.7903 57.4758 37.8629 57.2581C37.9113 57.0645 38.0081 56.871 38.1048 56.7016C38.5403 56.0968 39.1936 56.0968 39.629 56.7016C39.9194 57.0887 39.9919 57.5484 39.9919 57.9839Z" fill="#F1E50D"/>
<path d="M33 59.3871C33.4113 59.3871 33.7984 59.3871 34.1613 59.3871C34.379 59.3871 34.5242 59.2661 34.6694 59.0968C34.6935 59.0968 34.6935 59.121 34.7177 59.121C34.6452 59.3387 34.5726 59.5322 34.5 59.7258C34.4758 59.7742 34.4032 59.7742 34.3548 59.7742C33.7742 59.7742 33.1935 59.7742 32.5887 59.7742C32.5403 59.7742 32.4919 59.7984 32.4677 59.7258C32.4435 59.6532 32.4919 59.629 32.5403 59.5806C32.9274 59.2419 33.2903 58.879 33.6048 58.4677C33.8226 58.2016 34.0161 57.9113 34.0645 57.5484C34.1613 57.1613 33.9677 56.7984 33.629 56.6774C33.2661 56.5564 32.9032 56.7016 32.7097 57.0645C32.6855 57.0887 32.6855 57.1371 32.6613 57.1613C32.6371 57.1855 32.6371 57.2097 32.5887 57.2097C32.5403 57.1855 32.5645 57.1613 32.5645 57.1129C32.6129 56.5564 33.1452 56.1693 33.7258 56.2661C34.3306 56.3871 34.6694 56.9193 34.4516 57.5242C34.3306 57.9113 34.0887 58.2258 33.8226 58.4919C33.5564 58.7822 33.2903 59.0726 33 59.3871Z" fill="#F1E50D"/>
<path d="M40.4033 57.1129C40.5001 56.8468 40.5969 56.5806 40.7178 56.3387C40.742 56.2903 40.7904 56.2903 40.8388 56.2903C41.3711 56.2903 41.9033 56.2903 42.4356 56.2903C42.5807 56.2903 42.6049 56.3387 42.5565 56.4597C42.1936 57.5484 41.8307 58.6129 41.4678 59.6774C41.3953 59.871 41.2743 59.7984 41.1533 59.7984C41.2017 59.629 41.2501 59.4597 41.3227 59.2903C41.5888 58.4919 41.8307 57.7177 42.1211 56.9193C42.1695 56.7258 42.1211 56.7016 41.9517 56.7016C41.7098 56.7258 41.4678 56.7258 41.2259 56.7258C40.9356 56.7016 40.6936 56.7984 40.5243 57.0645C40.5001 57.0887 40.4759 57.1371 40.4033 57.1129Z" fill="#F1E50D"/>
<path d="M36.1694 50.9435C36.0968 50.9435 36.0242 50.9435 35.9516 50.9194C35.879 50.9194 35.7823 50.8952 35.8065 51.0161C35.8307 51.1129 35.6855 51.2823 35.9032 51.3064C36.242 51.3306 36.5565 51.3548 36.8952 51.3548C37.0645 51.3548 36.992 51.2097 37.0161 51.1371C37.0403 51.0403 37.0161 50.9919 36.8952 50.9919C36.6532 50.9677 36.4113 50.9435 36.1694 50.9435ZM46.5968 22.4677C46.7178 22.4435 46.8387 22.4194 46.8871 22.3226C46.9113 22.25 46.8871 22.2016 46.8387 22.129C46.7661 22.0564 46.6936 22.0323 46.5726 22.0564C46.5484 22.0564 46.5 22.0806 46.4758 22.1048C46.3065 22.2016 46.1855 22.1532 46.0403 22.0806C45.871 21.9839 45.871 21.8387 45.871 21.6694C45.871 21.5484 45.7742 21.4758 45.6774 21.4274C45.6049 21.4032 45.5323 21.4274 45.4839 21.4758C45.4113 21.5726 45.4355 21.6935 45.5081 21.7661C45.7742 22.1532 46.1855 22.3468 46.5968 22.4677ZM49.6452 43.7097C49.8871 43.6855 50.129 43.6855 50.371 43.6613C50.5161 43.6613 50.6129 43.6855 50.7097 43.8306C50.8065 44.0484 50.9516 44.2419 51.0968 44.4597C51.1452 44.3871 51.1694 44.3145 51.1452 44.2419C51.0484 43.9274 50.9516 43.6129 50.879 43.3226C50.8307 43.2016 50.8065 43.1774 50.7097 43.2258C50.3952 43.3226 50.1049 43.4435 49.7903 43.5403C49.7178 43.5645 49.6694 43.5887 49.6452 43.7097ZM24.5807 46.0806C24.6774 45.8387 24.7984 45.5726 24.8952 45.3306C24.9436 45.2581 24.9678 45.2097 25.0645 45.2097C25.3549 45.1855 25.621 45.1613 25.8871 45.1129C25.8629 44.9919 25.742 44.9919 25.6452 44.9677C25.3549 44.9194 25.0645 44.871 24.7984 44.7984C24.6532 44.7742 24.6049 44.8226 24.6049 44.9677C24.5565 45.2581 24.5323 45.5484 24.4839 45.8387C24.4597 45.9355 24.4597 46.0323 24.5807 46.0806ZM25.3307 44.3629C25.3065 44.2661 25.2097 44.2177 25.1371 44.2177C24.871 44.1694 24.629 44.121 24.3871 44.0726C24.0726 44.0242 24.0726 44.0242 24.0242 44.3387C23.9758 44.6048 23.9516 44.871 23.9274 45.1371C23.9274 45.2097 23.9274 45.2823 24 45.3064C24.0726 45.3306 24.0726 45.2339 24.0726 45.1855C24.1694 44.9919 24.2661 44.7984 24.3387 44.5806C24.3871 44.4839 24.4355 44.4597 24.5323 44.4355C24.7984 44.4355 25.0645 44.3871 25.3307 44.3629ZM51.5081 43.6129C51.6049 43.5403 51.5807 43.4677 51.5565 43.3952C51.4839 43.0806 51.3871 42.7661 51.3145 42.4758C51.2661 42.3548 51.2178 42.3548 51.121 42.379C50.8307 42.5 50.5161 42.5968 50.2016 42.6935C50.129 42.7177 50.0807 42.7661 50.0807 42.8629C50.3468 42.8871 50.6129 42.8387 50.879 42.8387C50.9758 42.8145 51.0484 42.8629 51.0968 42.9597C51.2178 43.1774 51.3629 43.3952 51.5081 43.6129ZM22.1371 30.7419C21.9678 31.1774 21.7984 31.5887 21.629 32.0242C21.7742 31.9274 21.871 31.7823 22.0403 31.7581C22.6694 31.6371 23.2984 31.4919 23.9032 31.371C24.0242 31.3468 24.0726 31.4194 24.121 31.4919C24.1936 31.5887 24.242 31.6855 24.1694 31.7823C24.121 31.879 24.0242 31.8548 23.9516 31.8306C23.8549 31.8064 23.7581 31.8548 23.7097 31.9516C23.6613 32.0484 23.6613 32.1452 23.7097 32.2419C23.7823 32.3387 23.879 32.3629 23.9758 32.3387C24.121 32.3387 24.2178 32.2419 24.2661 32.121C24.4355 31.8306 24.3629 31.5403 24.1694 31.2984C23.8065 30.8387 23.4678 30.4032 23.1049 29.9435C22.9355 29.7258 22.742 29.5323 22.742 29.2177C22.621 29.5081 22.4758 29.7742 22.4274 30.0887C22.4758 30.0161 22.5 29.9435 22.5484 29.8952C22.621 29.7742 22.7178 29.7258 22.8145 29.8468C23.0807 30.1613 23.3226 30.4758 23.5887 30.8145C23.2016 30.8871 22.8629 30.9597 22.5 31.0323C22.1371 31.1048 22.1371 31.1048 22.1371 30.7419ZM52.6694 29.9919H52.5968C52.6936 30.2823 52.5 30.4758 52.3549 30.6694C52.0161 31.0806 51.6532 31.4919 51.3387 31.9032C51.242 32 51.1694 32.0242 51.0726 31.9758C50.9758 31.9516 50.879 31.9274 50.8307 31.8064C50.8065 31.6855 50.9032 31.6613 50.9758 31.6129C51.0726 31.5403 51.1452 31.4677 51.0968 31.3468C51.0484 31.2258 50.9758 31.1048 50.8307 31.129C50.6371 31.1532 50.5645 31.2742 50.5403 31.4435C50.5161 31.7581 50.7339 32.0484 51.0968 32.1452C51.4355 32.2419 51.7984 32.2903 52.1371 32.3871C52.621 32.5323 53.1774 32.4597 53.6129 32.9194C53.5161 32.5564 53.4194 32.2661 53.2984 31.9516C53.2742 32 53.2742 32.0242 53.2742 32.0242C53.3226 32.4355 53.3226 32.4597 52.9113 32.3871C52.8871 32.3629 52.8629 32.3629 52.8387 32.3629C52.5484 32.2903 52.2339 32.2419 51.9194 32.1694C52.1855 31.8548 52.4032 31.5645 52.6452 31.2742C52.8629 31.0081 52.8629 31.0081 53.0323 31.2984C53.0323 31.2984 53.0565 31.2984 53.1049 31.2984C52.9597 30.8629 52.8145 30.4274 52.6694 29.9919ZM41.1774 49.0081C41.0565 49.6129 40.9597 50.1694 40.8145 50.7016C40.7178 51.0887 40.7661 51.5242 40.4032 51.8387C40.6936 51.7661 41.0081 51.6935 41.2742 51.5726C41.2016 51.5484 41.129 51.5726 41.0565 51.5726C40.9597 51.5726 40.9113 51.5242 40.8629 51.4516C40.7903 51.2581 40.9355 50.9919 41.129 50.9194C41.3468 50.871 41.5403 50.8226 41.7339 50.75C41.7823 50.75 41.8549 50.7016 41.9032 50.75C42.0242 50.871 42.1936 50.9919 42.2178 51.1613C42.242 51.3064 42.0484 51.2823 41.9758 51.3548C41.9516 51.379 41.9758 51.379 41.9516 51.4274C42.4113 51.2823 42.8226 51.1613 43.2581 51.0403C43.2581 51.0403 43.2581 51.0161 43.2581 50.9919C43.0161 51.0403 42.8952 50.871 42.75 50.7258C42.6049 50.5806 42.4597 50.4113 42.3145 50.2661C41.9516 49.8548 41.5887 49.4435 41.1774 49.0081ZM29.879 50.3387C29.9032 50.3387 29.9032 50.3145 29.9274 50.2903C29.7339 50.1694 29.7581 49.9758 29.7581 49.7823C29.8065 49.2258 29.879 48.6935 29.9032 48.1371C29.9274 47.9194 29.9758 47.7016 29.9274 47.4355C29.879 47.4839 29.8307 47.5081 29.7823 47.5323C29.2742 47.8226 28.7903 48.1371 28.3065 48.4274C28.0161 48.5968 27.75 48.8387 27.3629 48.7903C27.6049 48.9597 27.871 49.1048 28.1613 49.2742C28.1371 49.1532 28.0645 49.129 28.0161 49.0806C27.9436 49.0323 27.9194 48.9355 27.9678 48.8629C28.0645 48.6694 28.3549 48.5968 28.5242 48.6935C28.6694 48.7903 28.7903 48.8629 28.9355 48.9355C29.129 49.0323 29.2016 49.1532 29.1774 49.371C29.1049 49.7339 29.129 49.7339 28.7903 49.6129C28.7661 49.6129 28.7661 49.6129 28.7178 49.6371C29.1049 49.879 29.492 50.0968 29.879 50.3387ZM35.3226 52.0081C35.1049 51.7903 35.1049 51.7661 35.0081 51.4516C34.9355 51.1371 34.8387 50.8226 34.7661 50.4839C34.6452 50.0726 34.5484 49.6613 34.4274 49.25C34.379 49.2742 34.3549 49.2984 34.3307 49.3226C33.9436 49.8064 33.5565 50.2903 33.1452 50.75C32.9516 50.9919 32.7823 51.3064 32.4194 51.379C32.7339 51.4274 33.0242 51.5 33.3629 51.5726C33.2903 51.4516 33.1936 51.4758 33.1452 51.4274C33.0484 51.379 33 51.3306 33.0242 51.2097C33.0726 50.9919 33.2903 50.8468 33.5081 50.8952C33.6774 50.9194 33.8226 50.9677 33.9678 50.9919C34.1855 51.0161 34.2823 51.1129 34.3307 51.3306C34.379 51.6694 34.379 51.6694 34.0403 51.6694C34.0403 51.6694 34.0403 51.6694 34.0161 51.7177C34.4516 51.8145 34.8871 51.9113 35.3226 52.0081ZM24.9678 26.9677C24.7742 26.8226 24.6049 26.7258 24.4355 26.629C24.3629 26.5806 24.3387 26.629 24.3145 26.6774C23.9032 27.3064 23.492 27.9597 23.0807 28.5887C23.0565 28.6371 22.9839 28.6855 23.0565 28.7339C23.2258 28.8306 23.371 28.9758 23.5645 29.0484C23.5887 29 23.5887 28.9758 23.5645 28.9516C23.3226 28.6129 23.3226 28.4677 23.5403 28.129C23.6129 28.0323 23.6613 28.0081 23.7339 28.0806C24.242 28.3952 24.75 28.7339 25.2581 29.0726C25.4032 29.1694 25.4516 29.2661 25.3549 29.4355C25.3307 29.4597 25.2823 29.5081 25.3307 29.6048C25.621 29.1694 25.8871 28.7581 26.129 28.371C26.129 28.3468 26.1049 28.3468 26.1049 28.3226C25.9839 28.4435 25.8871 28.6613 25.6452 28.5161C25.1371 28.1774 24.6049 27.8387 24.0968 27.5C24.0484 27.4758 24 27.4516 24.0242 27.379C24.0726 27.1371 24.4355 26.8952 24.6774 26.9435C24.75 26.9677 24.8226 26.9919 24.9678 26.9677ZM45.1936 47.3145C44.5403 47.6774 43.8629 48.0161 43.2097 48.379C43.2097 48.4032 43.2097 48.4274 43.2339 48.4274C43.2823 48.4032 43.3549 48.379 43.4032 48.3548C43.5242 48.3306 43.6452 48.3306 43.6936 48.4516C43.9355 48.8871 44.1774 49.2742 44.3226 49.7339C44.371 49.9032 44.3952 50.0968 44.2984 50.2903C44.2016 50.4597 44.129 50.4839 43.9839 50.3387C43.8871 50.2419 43.7903 50.2177 43.6694 50.2661C43.5484 50.3387 43.5 50.4355 43.5242 50.5564C43.5484 50.6774 43.6452 50.75 43.7661 50.7742C43.8871 50.7984 43.9839 50.7742 44.0807 50.7258C44.4678 50.5081 44.6129 50.0484 44.4436 49.5645C44.3226 49.2742 44.1532 48.9839 44.0081 48.6935C43.7661 48.2581 43.7661 48.2581 44.2258 48.0161C44.3468 47.9677 44.3952 47.9435 44.4436 48.0645C44.6855 48.5726 44.9516 49.0564 45.2178 49.5403C45.3871 49.8548 45.3871 49.8548 45.121 50.0726C45.0968 50.0726 45.121 50.0968 45.121 50.1452C45.5323 49.9032 45.9436 49.6855 46.3549 49.4677C45.9678 49.4919 45.9678 49.4919 45.75 49.1048C45.5565 48.7419 45.3629 48.379 45.1694 47.9919C44.9758 47.629 44.9758 47.629 45.1936 47.3145ZM30.4839 21.6694C30.5081 21.6694 30.5081 21.6935 30.5081 21.7177C30.5807 21.6935 30.6532 21.6694 30.7258 21.6694C30.8468 21.6452 30.9194 21.6694 30.9678 21.7903C31.1613 22.25 31.379 22.7097 31.4758 23.1935C31.5242 23.3871 31.4758 23.5564 31.3549 23.7016C31.2581 23.8226 31.1855 23.8468 31.0887 23.7016C31.0403 23.629 30.9678 23.5564 30.8468 23.5806C30.6774 23.5806 30.5565 23.7258 30.5807 23.871C30.629 24.0403 30.7984 24.1613 30.992 24.1129C31.4516 24.0403 31.742 23.5323 31.5968 23C31.5242 22.6855 31.379 22.371 31.2581 22.0564C31.0645 21.5726 31.0645 21.5726 31.5484 21.379C31.6694 21.3548 31.7178 21.379 31.742 21.4758C31.9355 21.9597 32.129 22.4194 32.3226 22.9032C32.492 23.2903 32.492 23.2903 32.2258 23.5806C32.6613 23.4113 33.0968 23.2419 33.5081 23.0484C33.0726 23.0726 33.1452 23.0726 32.9758 22.6855C32.8065 22.25 32.6129 21.8145 32.4436 21.379C32.2984 21.0645 32.2984 21.0645 32.5887 20.8468C32.5887 20.8468 32.5887 20.8226 32.5645 20.7984C31.8871 21.0887 31.1855 21.379 30.4839 21.6694ZM31.2097 48.2339C31.2097 48.2823 31.2339 48.3064 31.2581 48.3064C31.5242 48.4758 31.5242 48.4758 31.4274 48.7661C31.2339 49.25 31.0645 49.7339 30.871 50.2177C30.75 50.5323 30.75 50.5323 30.3871 50.4839C30.3871 50.4839 30.3871 50.4839 30.3387 50.5323C30.7984 50.7016 31.2339 50.8468 31.6694 51.0161C31.6936 50.9435 31.6694 50.9435 31.6452 50.9435C31.379 50.7984 31.379 50.75 31.4758 50.4839C31.5242 50.3387 31.5968 50.1694 31.6452 50C31.6936 49.879 31.742 49.8548 31.8629 49.9032C32.1049 50 32.3226 50.0726 32.5887 50.0726C32.879 50.0484 33.0968 49.9032 33.1936 49.6613C33.2661 49.3952 33.1694 49.2016 32.9758 49.0081C32.9516 48.9839 32.9032 48.9355 32.8549 48.9113C32.3468 48.5968 31.7661 48.4516 31.2097 48.2339ZM51.2661 27.5C51.1936 27.621 51.2661 27.6694 51.2903 27.7177C51.3629 27.8629 51.3387 27.9597 51.2178 28.0323C50.8065 28.2742 50.4194 28.5403 49.9597 28.7097C49.7903 28.7581 49.621 28.7823 49.4274 28.7097C49.2339 28.6371 49.2097 28.5403 49.3549 28.3952C49.4274 28.3226 49.4758 28.2258 49.4274 28.129C49.379 28.0323 49.3065 27.9355 49.1855 27.9355C49.0645 27.9355 48.992 27.9839 48.9436 28.0806C48.871 28.2016 48.8952 28.2984 48.9194 28.4194C49.0887 28.7823 49.4758 28.9758 49.9113 28.879C50.2984 28.7823 50.6371 28.5403 50.9758 28.3468C51.121 28.2742 51.2903 28.0806 51.4113 28.129C51.5323 28.1774 51.5807 28.4194 51.6774 28.5403C51.7742 28.6613 51.7258 28.7097 51.629 28.7581C51.1694 29.0242 50.7339 29.2903 50.2742 29.5564C49.9113 29.7742 49.9113 29.7742 49.5968 29.5323C49.8387 29.9194 50.0807 30.3306 50.3226 30.7419C50.3952 30.6694 50.3226 30.621 50.3226 30.5726C50.25 30.4274 50.2742 30.3306 50.3952 30.2581C50.9274 29.9677 51.4597 29.6532 51.992 29.3387C52.0887 29.2661 52.2097 29.2903 52.2823 29.4113C52.3065 29.4355 52.3307 29.5081 52.4274 29.4839C52.0403 28.8306 51.6532 28.1774 51.2661 27.5ZM33.629 23.0484C33.7016 23.0726 33.7742 23.0484 33.8468 23.0242C34.2823 22.9516 34.7178 22.879 35.129 22.7823C35.4194 22.7339 35.6855 22.6855 35.879 22.4677C36.1936 22.129 36.0726 21.6452 35.6613 21.5C35.4194 21.4274 35.1774 21.4516 34.9597 21.4758C34.7903 21.5 34.5726 21.5968 34.4758 21.5242C34.3307 21.4516 34.379 21.2097 34.3549 21.0403C34.2823 20.629 34.2823 20.629 34.5968 20.4113C34.1371 20.4839 33.6774 20.5806 33.2178 20.6774C33.6049 20.75 33.6049 20.75 33.6774 21.1613C33.75 21.5726 33.8226 21.9597 33.8952 22.371C33.992 22.8306 33.992 22.8306 33.629 23.0484ZM40.1371 20.2177C40.4516 20.4839 40.4516 20.4839 40.3307 20.8952C40.2097 21.3306 40.0887 21.7661 39.9678 22.1774C39.8468 22.5645 39.8468 22.5645 39.4597 22.5161V22.5403C39.5323 22.6129 39.629 22.6129 39.7258 22.6371C40.2581 22.7823 40.7903 23 41.3468 23.0726C41.6613 23.121 42 22.9516 42.0968 22.6855C42.2178 22.3952 42.0968 22.129 41.7581 21.9113C41.6371 21.8387 41.492 21.7661 41.3468 21.7177C41.1774 21.6694 40.9597 21.6694 40.8871 21.5484C40.8145 21.4274 40.9355 21.2339 40.9839 21.0645C41.1049 20.6532 41.1049 20.6532 41.492 20.6048C41.0565 20.4839 40.5968 20.3629 40.1371 20.2177ZM37.1613 49.6613C37.5968 49.7823 37.5726 49.7823 37.5968 50.2661C37.621 50.6774 37.6694 51.0645 37.6936 51.4758C37.7178 51.9113 37.7178 51.9113 37.3307 52.0564C37.3549 52.0806 37.379 52.1048 37.4032 52.1048C37.9113 52.0564 38.4194 52.0323 38.9274 51.9839C39.121 51.9597 39.3387 51.9355 39.5081 51.8387C39.7742 51.6694 39.9194 51.4758 39.871 51.2097C39.8468 50.9435 39.6532 50.7742 39.3629 50.7016C39.1936 50.629 38.9758 50.6532 38.7823 50.6532C38.6371 50.629 38.4194 50.75 38.3468 50.6532C38.25 50.5323 38.2984 50.3145 38.2742 50.1694C38.25 49.7581 38.25 49.7581 38.6613 49.7097C39.0484 49.6613 39.3871 49.6855 39.5565 50.121C39.5565 50.1452 39.5807 50.1452 39.6049 50.1452C39.629 49.9758 39.6049 49.8306 39.5807 49.6855C39.5807 49.4919 39.5081 49.4677 39.3387 49.4919C38.8065 49.5403 38.25 49.5645 37.7178 49.6129C37.5242 49.6371 37.3307 49.6371 37.1613 49.6613ZM53.2742 35.871C53.4678 35.8468 53.6371 35.8226 53.8065 35.7984C53.9274 35.7984 53.9758 35.7742 53.9516 35.6532C53.879 34.9032 53.7823 34.1774 53.7097 33.4274C53.6855 33.4032 53.6855 33.379 53.6129 33.379C53.6371 33.5968 53.6371 33.8145 53.3468 33.8387C52.8387 33.8871 52.3307 33.9597 51.8226 34.0081C51.3871 34.0323 51.4113 34.0323 51.3145 33.6935C51.3145 33.6694 51.2903 33.6694 51.2661 33.6694C51.3145 34.1774 51.3629 34.6613 51.4355 35.1694C51.4597 35.3871 51.4839 35.6048 51.6049 35.7984C51.75 36.0645 51.992 36.2097 52.2339 36.1613C52.5 36.1129 52.6936 35.8952 52.742 35.5806C52.7903 35.2903 52.7661 35.0242 52.7178 34.7339C52.7178 34.6129 52.742 34.5887 52.8387 34.5645C53.0807 34.5403 53.3226 34.5161 53.5645 34.4919C53.6129 34.4919 53.6613 34.4919 53.6613 34.5645C53.6855 34.8064 53.7097 35.0242 53.7097 35.2661C53.7339 35.4839 53.6129 35.629 53.4194 35.7258C53.371 35.75 53.3226 35.75 53.2742 35.871ZM27.5081 24.1371C27.5081 24.6935 27.871 25.1532 28.379 25.2984C29.1774 25.5645 30.1694 24.8871 30.3629 24.1855C30.5565 23.4597 30.0968 22.7097 29.371 22.6371C28.7178 22.5645 27.9194 23 27.6532 23.6048C27.5565 23.7984 27.5081 23.9677 27.5081 24.1371ZM39.4597 20.1694H37.9597C38.1532 20.2419 38.371 20.1935 38.371 20.4597C38.371 20.7016 38.371 20.9194 38.371 21.1613C38.371 21.2339 38.3226 21.2581 38.25 21.2581C38.0081 21.2581 37.7661 21.2339 37.5 21.2581C37.4274 21.2581 37.379 21.2097 37.379 21.1371C37.4032 20.8952 37.4032 20.6774 37.4032 20.4597C37.4032 20.2903 37.5 20.2177 37.6452 20.1935C37.6936 20.1935 37.742 20.2177 37.8387 20.1452H36.3629C36.7258 20.2419 36.7258 20.2419 36.7258 20.6774C36.7016 21.1129 36.7016 21.5726 36.6774 22.0081C36.6774 22.4194 36.6774 22.4677 36.2903 22.4919C36.2903 22.4919 36.2903 22.5161 36.2661 22.5403C36.7742 22.5403 37.2339 22.6129 37.7178 22.5403C37.6936 22.5161 37.6694 22.5161 37.6452 22.5161C37.379 22.4677 37.3549 22.4435 37.3549 22.1774C37.3549 22.0323 37.3549 21.9113 37.3549 21.7903C37.3549 21.4032 37.379 21.4032 37.742 21.4274C37.9597 21.4274 38.2258 21.3306 38.3226 21.4516C38.4194 21.5968 38.371 21.8387 38.3468 22.0564C38.3226 22.4435 38.371 22.4919 37.9597 22.5403V22.5645C38.3952 22.6371 39.2661 22.6371 39.4113 22.5887C39.3871 22.5645 39.3629 22.5645 39.3629 22.5403C39.0484 22.5161 39.0242 22.4919 39.0242 22.2016C39.0484 21.6935 39.0484 21.1855 39.0726 20.6774C39.0726 20.2903 39.0726 20.2661 39.4597 20.1694ZM23.8065 33.621C23.7823 33.621 23.7581 33.621 23.7581 33.621C23.7339 33.6935 23.7097 33.7661 23.6613 33.8387C23.6129 33.9355 23.5403 33.9839 23.4436 33.9355C23.3468 33.9113 23.3952 33.8387 23.3952 33.7661C23.4194 33.621 23.4436 33.5 23.4194 33.3548C23.371 32.7742 22.9597 32.3871 22.4516 32.5081C22.0645 32.5806 21.871 32.8952 21.75 33.2339C21.7258 33.379 21.7016 33.5242 21.6532 33.6452C21.3629 33.621 21.4839 33.379 21.3871 33.2339C21.3145 33.7177 21.242 34.1774 21.1694 34.6613C21.1694 34.6613 21.1936 34.6613 21.2178 34.6613C21.242 34.5887 21.2661 34.5161 21.2903 34.4435C21.3387 34.3468 21.4113 34.3226 21.5081 34.3468C21.5807 34.371 21.5565 34.4435 21.5323 34.4919C21.5081 34.7097 21.4839 34.9274 21.5565 35.1452C21.629 35.4355 21.7984 35.6774 22.1129 35.7742C22.4274 35.871 22.6694 35.75 22.8871 35.5323C23.1049 35.3145 23.1774 35.0484 23.25 34.7823C23.25 34.7339 23.2258 34.6129 23.3468 34.6371C23.4436 34.6371 23.5161 34.6855 23.5161 34.8064C23.5161 34.879 23.5161 34.9516 23.5161 35.0484C23.5403 35.0484 23.5403 35.0484 23.5645 35.0484L23.8065 33.621ZM41.9032 23.2661C42.121 23.3387 42.3629 23.3871 42.5807 23.4597C42.7984 23.5323 43.0645 23.5323 43.2339 23.6532C43.621 23.9435 44.0323 24.1371 44.4436 24.4032C44.4678 24.4274 44.5161 24.4758 44.5887 24.4516C44.5887 24.379 44.5403 24.379 44.492 24.3548C44.4194 24.3064 44.3226 24.2581 44.3226 24.1129C44.3468 23.9919 44.4194 23.8952 44.5645 23.871C44.7097 23.8226 44.8307 23.75 44.9758 23.6774C45.2903 23.5564 45.6049 23.4113 45.9436 23.2661C45.7258 23.629 45.5565 23.9435 45.3629 24.2581C45.1452 24.6452 45.1452 24.6452 44.7097 24.5726C45.1452 24.8145 45.5565 25.0806 45.992 25.3226C45.7016 25.0081 45.7016 25.0081 45.9194 24.621C46.1613 24.2339 46.4032 23.8468 46.6452 23.4597C46.8387 23.0968 46.8387 23.0968 47.2016 23.2661C47.2016 23.2661 47.2258 23.2419 47.25 23.2177C46.8145 22.9758 46.379 22.7097 45.9436 22.4677C45.9194 22.5403 45.9678 22.5403 45.992 22.5645C46.0887 22.6371 46.2097 22.6613 46.1855 22.8064C46.1613 22.9758 46.0645 23.0242 45.9436 23.0968C45.5323 23.2419 45.121 23.4355 44.7339 23.6048C44.6855 23.6048 44.6371 23.6532 44.5887 23.6048C44.7823 23.3145 44.9516 23 45.1452 22.6855C45.3629 22.2984 45.3871 22.2984 45.7984 22.3952C45.3871 22.1048 44.9516 21.8629 44.5161 21.6452C44.5403 21.6935 44.5887 21.7177 44.6371 21.7661C44.7581 21.8387 44.7823 21.9355 44.7097 22.0564C44.3952 22.5887 44.1049 23.121 43.7903 23.6532C43.6694 23.7984 43.5484 23.8226 43.379 23.7016C43.3065 23.6532 43.2823 23.5806 43.2097 23.5806C42.992 23.5081 42.9678 23.3629 43.0161 23.1694C43.1855 22.6613 43.3065 22.1774 43.4516 21.6694C43.5484 21.3064 43.5726 21.3064 43.9355 21.3548C43.9355 21.3548 43.9355 21.3548 43.9597 21.3064C43.5 21.1855 43.0161 21.0403 42.5565 20.9194C42.8952 21.1371 42.8952 21.1371 42.7742 21.5484C42.6774 21.9597 42.5565 22.371 42.4355 22.7823C42.3145 23.2177 42.3145 23.2177 41.9032 23.2661ZM50.5161 36.0645C50.5161 28.8548 44.6855 23.0242 37.4274 23C30.2178 22.9758 24.3629 28.8306 24.3387 36.0645C24.3387 43.2742 30.1936 49.129 37.4274 49.1532C44.6613 49.1532 50.492 43.3226 50.5161 36.0645ZM49.4516 25.371C49.4758 25.3952 49.5 25.4677 49.5484 25.4194C49.5726 25.3952 49.5242 25.371 49.5 25.3468C49.1855 25.0081 48.8952 24.6694 48.5807 24.3306C48.5565 24.379 48.5565 24.4032 48.5807 24.4274C48.75 24.6694 48.75 24.7177 48.5323 24.9113C48.1694 25.25 47.7823 25.5887 47.4194 25.9274C47.1532 26.1935 47.129 26.2177 46.8387 25.9758C46.8387 25.9758 46.8145 25.9758 46.7661 26C47.1049 26.3387 47.3952 26.6532 47.7097 26.9919C47.7339 27.0161 47.7581 27.0887 47.7823 27.0403C47.8307 27.0161 47.7823 26.9919 47.7581 26.9435C47.6129 26.7016 47.6129 26.6774 47.8065 26.5081C47.9516 26.3871 48.0726 26.2419 48.2178 26.1452C48.2661 26.0968 48.3145 25.9758 48.3871 26.0242C48.4839 26.0968 48.4839 26.1694 48.4597 26.2903C48.3629 26.629 48.2661 26.9677 48.1694 27.3306C48.1452 27.379 48.121 27.4516 48.1694 27.5C48.3629 27.7177 48.5807 27.9355 48.7742 28.1532C48.7984 28.1532 48.8226 28.129 48.8468 28.129C48.5807 27.8629 48.75 27.5968 48.7984 27.3306C48.8468 27.1371 48.8952 26.9435 48.9436 26.75C48.9678 26.629 48.871 26.4355 48.9194 26.3871C49.0161 26.3145 49.1855 26.3145 49.3065 26.2661C49.4516 26.1935 49.621 26.121 49.7903 26.0726C49.8629 26.0726 49.9355 26.0726 49.9839 26.1452C50.0081 26.2177 49.9839 26.2419 49.9355 26.2903C49.8387 26.4113 49.8387 26.5081 49.9355 26.6048C50.0081 26.7258 50.129 26.7742 50.25 26.7258C50.371 26.6532 50.4194 26.5564 50.4194 26.4113C50.3952 26.121 50.0323 25.8548 49.742 25.9032C49.5484 25.9516 49.4032 26.0242 49.2339 26.0968C48.9194 26.2419 48.7984 26.2177 48.5807 25.9758C48.5081 25.9032 48.5081 25.8548 48.6049 25.7823C48.7258 25.6613 48.871 25.5403 49.0161 25.3952C49.1613 25.25 49.3065 25.2016 49.4516 25.371ZM48.2903 47.8226C48.1452 47.9194 48.0242 47.9435 47.879 47.7984C47.492 47.3145 47.0807 46.8548 46.6936 46.371C46.6694 46.3468 46.621 46.2984 46.6694 46.25C46.8387 46.129 46.9839 45.9597 47.2016 45.9839C47.371 45.9839 47.492 46.0806 47.6855 46.1532C47.5403 45.9113 47.371 45.7661 47.25 45.5968C46.621 46.1048 46.0161 46.6129 45.4113 47.1452C45.3629 47.1694 45.2903 47.1935 45.3629 47.2661C45.4839 47.4113 45.6049 47.5806 45.7258 47.7258C45.7984 47.6774 45.7742 47.629 45.75 47.6048C45.629 47.2419 45.7016 47.0484 46.0161 46.8064C46.0645 46.7581 46.1129 46.7339 46.1855 46.8064C46.5726 47.2903 46.9839 47.7742 47.3952 48.2581C47.492 48.379 47.4678 48.4758 47.371 48.5968C47.3226 48.621 47.2742 48.6452 47.2742 48.7419C47.6371 48.4516 48 48.1613 48.3145 47.8468C48.3629 47.8468 48.4113 47.8226 48.3871 47.7742C48.3387 47.75 48.3145 47.7984 48.2903 47.8226ZM49.5 46.5645C49.2823 46.7339 49.2097 46.7097 49.0645 46.4677C48.9678 46.2984 48.9436 46.1774 49.0887 46.0323C49.2097 45.9355 49.3065 45.8145 49.379 45.6935C49.5 45.4758 49.6452 45.4274 49.8871 45.5C50.1774 45.5968 50.2016 45.5968 50.0323 45.8629C50.0323 45.9113 50.0323 45.9355 50.0565 45.9597C50.3226 45.621 50.6129 45.2581 50.879 44.8952C50.6855 45.0161 50.492 44.9919 50.2984 44.9435C49.8145 44.8468 49.3307 44.75 48.8468 44.6532C48.5807 44.6048 48.3145 44.5081 48 44.5081C48.242 45.0161 48.4839 45.4758 48.6774 45.9597C48.8226 46.371 49.1613 46.7339 49.0645 47.2177C49.2097 47.0242 49.379 46.8064 49.5242 46.6129C49.5726 46.5645 49.621 46.5403 49.5968 46.4919C49.5484 46.4435 49.5242 46.5161 49.5 46.5645ZM26.5403 44.8226C26.5645 44.8468 26.5887 44.871 26.5887 44.8952C26.7097 45.0403 26.6129 45.1613 26.5161 45.2823C26.1774 45.621 25.8629 45.9839 25.5242 46.3226C25.1613 46.6855 25.2823 46.6855 24.8226 46.4919L25.8145 47.4113C25.8387 47.4355 25.8629 47.4839 25.9113 47.4597C25.9355 47.4113 25.8871 47.4113 25.8629 47.3871C25.7178 47.2177 25.7178 47.0726 25.8871 46.9274C26.0323 46.7823 26.1774 46.6371 26.3226 46.4677C26.4194 46.3468 26.4678 46.4194 26.5161 46.5161C26.5403 46.5887 26.5161 46.6613 26.5161 46.7339C26.4678 46.9274 26.4678 47.121 26.3952 47.2903C26.2016 47.7016 26.3226 48.0161 26.6855 48.2581C26.7823 48.3306 26.8549 48.4274 26.9758 48.4758C26.879 48.3306 26.8307 48.1855 26.8549 48.0161C26.9032 47.8226 26.9274 47.6532 26.9758 47.4839C27 47.2419 27.0968 46.9758 26.9516 46.7339C27.121 46.7097 27.2661 46.6371 27.4113 46.5645C27.5323 46.4919 27.6774 46.4435 27.7984 46.3952C27.871 46.3468 27.9436 46.3468 28.0161 46.4194C28.0645 46.4919 28.0161 46.5403 27.9678 46.6129C27.9194 46.7097 27.9194 46.8064 28.0161 46.879C28.0887 46.9758 28.1855 47.0484 28.3065 47C28.4032 46.9516 28.4758 46.8548 28.4758 46.7339C28.5 46.6371 28.4516 46.5645 28.4032 46.4919C28.2097 46.2258 27.9194 46.129 27.629 46.25C27.4355 46.3468 27.2661 46.4435 27.0968 46.5161C26.9032 46.5887 26.6613 46.4919 26.5645 46.2984C26.492 46.1532 26.6613 46.129 26.7339 46.0564C26.8065 45.9355 26.9274 45.8387 27.0242 45.7419C27.1452 45.5726 27.2903 45.5484 27.4597 45.6935C27.4839 45.7177 27.5081 45.7903 27.5565 45.7419C27.5807 45.7177 27.5323 45.6935 27.4839 45.6694C27.2178 45.379 26.9274 45.1129 26.6371 44.8468L26.5645 44.7984C26.5645 44.75 26.5161 44.7258 26.492 44.75C26.4678 44.7742 26.5161 44.7984 26.5403 44.8226ZM26.492 27.6935C26.492 27.7177 26.4194 27.7419 26.4678 27.7661C26.492 27.7903 26.5161 27.7661 26.5403 27.7419C26.5403 27.7177 26.5645 27.7177 26.5887 27.6935C26.6855 27.5968 26.8065 27.4758 26.9032 27.379C27.1694 27.0887 27.4355 26.8226 27.7016 26.5323C27.7984 26.4113 27.8952 26.2903 27.9436 26.1452C28.0161 25.879 28.0161 25.6371 27.7984 25.4435C27.6049 25.2742 27.3387 25.2742 27.0726 25.4194C26.8065 25.5645 26.5887 25.7823 26.371 26C26.2984 26.0726 26.25 26.0968 26.1774 26C26.0323 25.8306 25.8629 25.6855 25.6936 25.5403C25.621 25.4677 25.5968 25.4435 25.6694 25.371C25.8145 25.2016 25.9839 25.0564 26.129 24.8871C26.2984 24.7661 26.492 24.7419 26.6855 24.8145C26.7339 24.8145 26.8065 24.9113 26.879 24.8145C26.7581 24.6935 26.6129 24.5726 26.4678 24.4274C26.3952 24.3548 26.371 24.4032 26.3226 24.4516C25.8387 24.9597 25.3307 25.4677 24.8468 26C24.8468 26 24.8226 26.0242 24.7984 26.0484C24.7742 26.0726 24.7258 26.121 24.75 26.121C24.7984 26.1694 24.8226 26.121 24.8468 26.0726L24.8952 26.0242C25.0403 25.9274 25.1613 25.9516 25.2823 26.0726C25.6936 26.4839 26.0807 26.871 26.492 27.2581C26.6371 27.379 26.6371 27.5 26.5645 27.6452C26.5403 27.6694 26.5161 27.6935 26.492 27.6935ZM37.8871 18.8145C41.8549 18.8629 45.7258 20.2419 49.0403 23.0726C52.0161 25.6129 53.9274 28.8064 54.75 32.629C55.0887 34.2258 55.1855 35.8468 55.0403 37.4919C54.6049 42.0645 52.6694 45.8629 49.2339 48.9113C46.8629 51.0161 44.1049 52.3468 41.0081 52.9758C39.5323 53.2903 38.0081 53.3871 36.4597 53.2903C32.6855 53.0726 29.2742 51.7903 26.3226 49.3952C23.2016 46.879 21.1694 43.6613 20.2984 39.7419C19.9355 38.1452 19.8145 36.5484 19.9355 34.9274C20.1774 31.4194 21.3871 28.2742 23.5645 25.5403C26.1532 22.2742 29.5161 20.1935 33.5565 19.25C34.8629 18.9597 36.1694 18.8387 37.8871 18.8145Z" fill="#F1E50D"/>
<path d="M35.6614 58.0565C35.6614 57.7177 35.6856 57.3548 35.7582 57.0161C35.8065 56.871 35.8549 56.7258 35.9517 56.6048C36.1452 56.3387 36.4598 56.3629 36.6533 56.629C36.8227 56.8952 36.8711 57.1855 36.8711 57.5C36.9194 58.0081 36.8952 58.5161 36.7985 59.0242C36.7743 59.121 36.7501 59.2177 36.7017 59.3145C36.6049 59.4839 36.484 59.6532 36.242 59.629C36.0243 59.629 35.9275 59.4597 35.8549 59.2903C35.6856 58.9032 35.6614 58.4677 35.6614 58.0565Z" fill="#1D9145"/>
<path d="M38.25 58.0806C38.2742 57.7177 38.2742 57.379 38.3468 57.0403C38.3952 56.8951 38.4435 56.75 38.5161 56.629C38.7339 56.3387 39.0726 56.3387 39.2419 56.6532C39.4113 56.9193 39.4597 57.2097 39.4839 57.5C39.5081 58.008 39.5081 58.5161 39.3871 59.0242C39.3871 59.0968 39.3629 59.1935 39.3145 59.2661C39.2177 59.4839 39.0968 59.629 38.8548 59.629C38.6129 59.629 38.5161 59.4597 38.4194 59.2661C38.2742 58.879 38.25 58.4677 38.25 58.0806Z" fill="#1D9145"/>
<path d="M41.9032 23.2661C42.3145 23.2177 42.3145 23.2177 42.4355 22.7823C42.5564 22.371 42.6774 21.9597 42.7742 21.5484C42.8951 21.1371 42.8951 21.1371 42.5564 20.9194C43.0161 21.0403 43.5 21.1855 43.9596 21.3065C43.9355 21.3548 43.9355 21.3548 43.9355 21.3548C43.5726 21.3065 43.5484 21.3065 43.4516 21.6694C43.3064 22.1774 43.1855 22.6613 43.0161 23.1694C42.9677 23.3629 42.9919 23.5081 43.2096 23.5806C43.2822 23.5806 43.3064 23.6532 43.379 23.7016C43.5484 23.8226 43.6693 23.7984 43.7903 23.6532C44.1048 23.121 44.3951 22.5887 44.7096 22.0565C44.7822 21.9355 44.758 21.8387 44.6371 21.7661C44.5887 21.7177 44.5403 21.6936 44.5161 21.6452C44.9516 21.8629 45.3871 22.1048 45.7984 22.3952C45.3871 22.2984 45.3629 22.2984 45.1451 22.6855C44.9516 23 44.7822 23.3145 44.5887 23.6048C44.6371 23.6532 44.6855 23.6048 44.7338 23.6048C45.1209 23.4355 45.5322 23.2419 45.9435 23.0968C46.0645 23.0242 46.1613 22.9758 46.1855 22.8065C46.2096 22.6613 46.0887 22.6371 45.9919 22.5645C45.9677 22.5403 45.9193 22.5403 45.9435 22.4677C46.379 22.7097 46.8145 22.9758 47.25 23.2177C47.2258 23.2419 47.2016 23.2661 47.2016 23.2661C46.8387 23.0968 46.8387 23.0968 46.6451 23.4597C46.4032 23.8468 46.1613 24.2339 45.9193 24.621C45.7016 25.0081 45.7016 25.0081 45.9919 25.3226C45.5564 25.0806 45.1451 24.8145 44.7096 24.5726C45.1451 24.6452 45.1451 24.6452 45.3629 24.2581C45.5564 23.9435 45.7258 23.629 45.9435 23.2661C45.6048 23.4113 45.2903 23.5565 44.9758 23.6774C44.8306 23.75 44.7096 23.7984 44.5645 23.871C44.4193 23.8952 44.3467 23.9919 44.3226 24.1129C44.3226 24.2581 44.4193 24.3065 44.4919 24.3548C44.5403 24.379 44.5887 24.379 44.5887 24.4516C44.5161 24.4758 44.4677 24.4274 44.4435 24.4032C44.0322 24.1371 43.6209 23.9435 43.2338 23.6532C43.0645 23.5323 42.7984 23.5323 42.5806 23.4597C42.3629 23.3871 42.1209 23.3387 41.9032 23.2661Z" fill="#22251E"/>
<path d="M22.4275 33.1613C22.0888 33.1371 21.8952 33.2823 21.8227 33.5484C21.7985 33.6452 21.8227 33.6936 21.9194 33.7178C22.2823 33.7661 22.6452 33.8145 22.9839 33.8871C23.2501 33.9113 23.3227 33.8145 23.2259 33.5484C23.2017 33.4274 23.1049 33.3549 23.0081 33.3065C22.8146 33.1855 22.621 33.1613 22.4275 33.1613ZM22.5001 35.121C22.8388 35.1452 23.0081 35.0242 23.1049 34.7339C23.1291 34.6129 23.1049 34.5887 23.0081 34.5645C22.6694 34.5161 22.3307 34.4678 21.992 34.4194C21.8952 34.3952 21.7501 34.3226 21.7017 34.4194C21.6291 34.5403 21.6775 34.6855 21.7501 34.8065C21.7985 34.9032 21.871 34.9516 21.9678 35C22.1614 35.0968 22.3549 35.121 22.5001 35.121ZM23.8065 33.621L23.5646 35.0484C23.5404 35.0484 23.5404 35.0484 23.5162 35.0484C23.5162 34.9758 23.5162 34.879 23.5162 34.8065C23.5162 34.6855 23.4436 34.6371 23.3469 34.6371C23.2259 34.6129 23.2501 34.7339 23.2501 34.7823C23.1775 35.0484 23.1049 35.3145 22.8872 35.5323C22.6694 35.75 22.4275 35.871 22.113 35.7742C21.7985 35.6774 21.6291 35.4355 21.5565 35.1452C21.4839 34.9274 21.5081 34.7097 21.5323 34.4919C21.5565 34.4436 21.5807 34.371 21.5081 34.3468C21.4114 34.3226 21.3388 34.3468 21.2904 34.4436C21.2662 34.5161 21.242 34.5887 21.2178 34.6613C21.1936 34.6613 21.1694 34.6613 21.1694 34.6613C21.242 34.1774 21.3146 33.7178 21.3872 33.2339C21.4839 33.379 21.363 33.621 21.6533 33.6452C21.7017 33.5242 21.7259 33.379 21.7501 33.2339C21.871 32.8952 22.0646 32.5807 22.4517 32.5081C22.9598 32.3871 23.371 32.7742 23.4194 33.3549C23.4436 33.5 23.4194 33.621 23.3952 33.7661C23.3952 33.8387 23.3469 33.9113 23.4436 33.9355C23.5404 33.9839 23.613 33.9355 23.6614 33.8387C23.7098 33.7661 23.7339 33.6936 23.7581 33.621C23.7581 33.621 23.7823 33.621 23.8065 33.621Z" fill="#22251E"/>
<path d="M39.4598 20.1693C39.0727 20.2661 39.0727 20.2903 39.0727 20.6774C39.0485 21.1855 39.0485 21.6935 39.0243 22.2016C39.0243 22.4919 39.0485 22.5161 39.363 22.5403C39.363 22.5645 39.3872 22.5645 39.4114 22.5887C39.2662 22.6371 38.3953 22.6371 37.9598 22.5645V22.5403C38.3711 22.4919 38.3227 22.4435 38.3469 22.0564C38.3711 21.8387 38.4195 21.5968 38.3227 21.4516C38.2259 21.3306 37.9598 21.4274 37.742 21.4274C37.3791 21.4032 37.3549 21.4032 37.3549 21.7903C37.3549 21.9113 37.3549 22.0322 37.3549 22.1774C37.3549 22.4435 37.3791 22.4677 37.6453 22.5161C37.6695 22.5161 37.6937 22.5161 37.7178 22.5403C37.234 22.6129 36.7743 22.5403 36.2662 22.5403C36.2904 22.5161 36.2904 22.4919 36.2904 22.4919C36.6775 22.4677 36.6775 22.4193 36.6775 22.008C36.7017 21.5726 36.7017 21.1129 36.7259 20.6774C36.7259 20.2419 36.7259 20.2419 36.363 20.1451H37.8388C37.742 20.2177 37.6937 20.1935 37.6453 20.1935C37.5001 20.2177 37.4033 20.2903 37.4033 20.4597C37.4033 20.6774 37.4033 20.8951 37.3791 21.1371C37.3791 21.2097 37.4275 21.258 37.5001 21.258C37.7662 21.2339 38.0082 21.258 38.2501 21.258C38.3227 21.258 38.3711 21.2339 38.3711 21.1613C38.3711 20.9193 38.3711 20.7016 38.3711 20.4597C38.3711 20.1935 38.1533 20.2419 37.9598 20.1693H39.4598Z" fill="#22251E"/>
<path d="M47.7097 26.9919C47.3951 26.6532 47.1048 26.3387 46.7661 26C46.8145 25.9758 46.8387 25.9758 46.8387 25.9758C47.129 26.2177 47.1532 26.1935 47.4193 25.9274C47.7822 25.5887 48.1693 25.25 48.5322 24.9113C48.75 24.7177 48.75 24.6694 48.5806 24.4274C48.5564 24.4032 48.5564 24.379 48.5806 24.3306C48.8951 24.6694 49.1855 25.0081 49.5 25.3468C49.4758 25.3468 49.4758 25.371 49.4516 25.371C49.3064 25.2016 49.1613 25.25 49.0161 25.3952C48.871 25.5403 48.7258 25.6613 48.6048 25.7823C48.508 25.8548 48.508 25.9032 48.5806 25.9758C48.7984 26.2177 48.9193 26.2419 49.2339 26.0968C49.4032 26.0242 49.5484 25.9516 49.7419 25.9032C50.0322 25.8548 50.3951 26.121 50.4193 26.4113C50.4193 26.5565 50.371 26.6532 50.25 26.7258C50.129 26.7742 50.008 26.7258 49.9355 26.6048C49.8387 26.5081 49.8387 26.4113 49.9355 26.2903C49.9839 26.2419 50.008 26.2177 49.9839 26.1452C49.9355 26.0726 49.8629 26.0726 49.7903 26.0726C49.621 26.121 49.4516 26.1935 49.3064 26.2661C49.1855 26.3145 49.0161 26.3145 48.9193 26.3871C48.871 26.4355 48.9677 26.629 48.9435 26.75C48.8951 26.9435 48.8468 27.1371 48.7984 27.3306C48.75 27.5968 48.5806 27.8629 48.8468 28.129C48.8226 28.129 48.7984 28.1532 48.7742 28.1532C48.5806 27.9355 48.3629 27.7177 48.1693 27.5C48.121 27.4516 48.1451 27.379 48.1693 27.3306C48.2661 26.9677 48.3629 26.629 48.4597 26.2903C48.4839 26.1694 48.4839 26.0968 48.3871 26.0242C48.3145 25.9758 48.2661 26.0968 48.2177 26.1452C48.0726 26.2419 47.9516 26.3871 47.8064 26.5081C47.6129 26.6774 47.6129 26.7016 47.758 26.9435L47.7097 26.9919Z" fill="#22251E"/>
<path d="M26.6371 44.8468C26.9275 45.1129 27.2178 45.3791 27.4839 45.6694L27.4597 45.6936C27.2904 45.5484 27.1452 45.5726 27.0242 45.742C26.9275 45.8387 26.8065 45.9355 26.7339 46.0565C26.6613 46.1291 26.492 46.1533 26.5646 46.2984C26.6613 46.492 26.9033 46.5887 27.0968 46.5162C27.2662 46.4436 27.4355 46.3468 27.6291 46.25C27.9194 46.1291 28.2097 46.2258 28.4033 46.492C28.4517 46.5645 28.5001 46.6371 28.4759 46.7339C28.4759 46.8549 28.4033 46.9516 28.3065 47C28.1855 47.0484 28.0888 46.9758 28.0162 46.8791C27.9194 46.8065 27.9194 46.7097 27.9678 46.6129C28.0162 46.5404 28.0646 46.492 28.0162 46.4194C27.9436 46.3468 27.871 46.3468 27.7984 46.3952C27.6775 46.4436 27.5323 46.492 27.4113 46.5645C27.2662 46.6371 27.121 46.7097 26.9517 46.7339C27.0968 46.9758 27.0001 47.242 26.9759 47.4839C26.9275 47.6533 26.9033 47.8226 26.8549 48.0162C26.8307 48.1855 26.8791 48.3307 26.9759 48.4758C26.8549 48.4274 26.7823 48.3307 26.6855 48.2581C26.3226 48.0162 26.2017 47.7016 26.3952 47.2903C26.4678 47.121 26.4678 46.9274 26.5162 46.7339C26.5162 46.6613 26.5404 46.5887 26.5162 46.5162C26.4678 46.4194 26.4194 46.3468 26.3226 46.4678C26.1775 46.6371 26.0323 46.7823 25.8871 46.9274C25.7178 47.0726 25.7178 47.2178 25.863 47.3871C25.8388 47.3871 25.8388 47.4113 25.8146 47.4113C25.5001 47.121 25.1613 46.8065 24.8226 46.492C25.2823 46.6855 25.1613 46.6855 25.5242 46.3226C25.863 45.9839 26.1775 45.621 26.5162 45.2823C26.613 45.1613 26.7097 45.0404 26.5888 44.8952C26.613 44.871 26.613 44.8468 26.6371 44.8468Z" fill="#22251E"/>
<path d="M29.9032 24.379C29.9032 23.9193 29.371 23.1451 28.9355 22.9758C28.4758 22.7822 27.9677 23.1693 28.0403 23.6532C28.1371 24.2339 28.4516 24.6935 28.9597 24.9839C29.3952 25.2258 29.9032 24.8629 29.9032 24.379ZM27.5081 24.1371C27.5081 23.9677 27.5564 23.7984 27.6532 23.6048C27.9193 23 28.7177 22.5645 29.371 22.6371C30.0968 22.7097 30.5564 23.4597 30.3629 24.1855C30.1693 24.8871 29.1774 25.5645 28.379 25.2984C27.871 25.1532 27.5081 24.6935 27.5081 24.1371Z" fill="#22251E"/>
<path d="M52.4032 34.6129C52.258 34.6371 52.1613 34.6613 52.0403 34.6613C51.9435 34.6855 51.8226 34.6855 51.7258 34.7097C51.629 34.7339 51.5564 34.7822 51.5322 34.879C51.4839 35.0726 51.629 35.3145 51.8226 35.3871C52.2097 35.5322 52.5726 35.2419 52.5726 34.8306C52.5726 34.6855 52.5484 34.5645 52.4032 34.6129ZM53.2742 35.871C53.3226 35.75 53.371 35.75 53.4193 35.7258C53.6129 35.629 53.7339 35.4839 53.7097 35.2661C53.7097 35.0242 53.6855 34.8064 53.6613 34.5645C53.6613 34.4919 53.6129 34.4919 53.5645 34.4919C53.3226 34.5161 53.0806 34.5403 52.8387 34.5645C52.7419 34.5887 52.7177 34.6129 52.7177 34.7339C52.7661 35.0242 52.7903 35.2903 52.7419 35.5806C52.6935 35.8951 52.5 36.1129 52.2339 36.1613C51.9919 36.2097 51.75 36.0645 51.6048 35.7984C51.4839 35.6048 51.4597 35.3871 51.4355 35.1693C51.3629 34.6613 51.3145 34.1774 51.2661 33.6693C51.2903 33.6693 51.3145 33.6693 51.3145 33.6935C51.4113 34.0322 51.3871 34.0322 51.8226 34.008C52.3306 33.9597 52.8387 33.8871 53.3468 33.8387C53.6371 33.8145 53.6371 33.5968 53.6129 33.379C53.6855 33.379 53.6855 33.4032 53.7097 33.4274C53.7822 34.1774 53.879 34.9032 53.9516 35.6532C53.9758 35.7742 53.9274 35.7984 53.8064 35.7984C53.6371 35.8226 53.4677 35.8468 53.2742 35.871Z" fill="#22251E"/>
<path d="M39.1211 51.379C39.1211 51.0161 38.8307 50.7742 38.4436 50.8468C38.3469 50.8468 38.3469 50.8951 38.3469 50.9677C38.3711 51.1613 38.3711 51.3548 38.3952 51.5484C38.4194 51.8629 38.5646 51.9355 38.8549 51.8387C39.0485 51.7419 39.1211 51.5968 39.1211 51.379ZM37.1614 49.6613C37.3307 49.6371 37.5243 49.6371 37.6936 49.6129C38.2501 49.5645 38.8065 49.5403 39.3388 49.4919C39.5082 49.4677 39.5807 49.4919 39.5807 49.6855C39.6049 49.8306 39.6291 49.9758 39.6049 50.1451C39.5807 50.1451 39.5565 50.1451 39.5565 50.121C39.3872 49.6855 39.0485 49.6613 38.6614 49.7097C38.2501 49.758 38.2501 49.758 38.2743 50.1693C38.2985 50.3145 38.2501 50.5322 38.3469 50.6532C38.4194 50.75 38.6372 50.629 38.7823 50.6532C38.9759 50.6532 39.1936 50.629 39.363 50.7016C39.6533 50.7742 39.8469 50.9435 39.8711 51.2097C39.9194 51.4758 39.7743 51.6693 39.5082 51.8387C39.3388 51.9355 39.1211 51.9597 38.9275 51.9839C38.4194 52.0322 37.9114 52.0564 37.4033 52.1048C37.3791 52.1048 37.3549 52.0806 37.3307 52.0564C37.7178 51.9113 37.7178 51.9113 37.6936 51.4758C37.6694 51.0645 37.6211 50.6774 37.5969 50.2661C37.5727 49.7822 37.5969 49.7822 37.1614 49.6613Z" fill="#22251E"/>
<path d="M27.4839 26.4839C27.4839 26.2177 27.3387 26.0242 27.121 25.9274C26.8549 25.8306 26.6613 25.9516 26.492 26.121C26.4194 26.1693 26.3952 26.2177 26.4678 26.2903C26.6129 26.4113 26.7581 26.5806 26.9033 26.7016C27 26.7742 27.0726 26.9193 27.242 26.8226C27.3871 26.7258 27.4839 26.6048 27.4839 26.4839ZM26.5645 27.6451C26.6371 27.5 26.6371 27.379 26.492 27.2581C26.0807 26.871 25.6936 26.4839 25.2823 26.0726C25.1613 25.9516 25.0404 25.9274 24.8952 26.0242C24.871 26.0242 24.871 26 24.8468 26C25.3307 25.4677 25.8387 24.9597 26.3226 24.4516C26.371 24.4032 26.3952 24.3548 26.4678 24.4274C26.6129 24.5726 26.7581 24.6935 26.8791 24.8145C26.8065 24.9113 26.7339 24.8145 26.6855 24.8145C26.492 24.7419 26.2984 24.7661 26.1291 24.8871C25.9839 25.0564 25.8145 25.2016 25.6694 25.371C25.5968 25.4435 25.621 25.4677 25.6936 25.5403C25.8629 25.6855 26.0323 25.8306 26.1774 26C26.25 26.0968 26.2984 26.0726 26.371 26C26.5887 25.7822 26.8065 25.5645 27.0726 25.4193C27.3387 25.2742 27.6049 25.2742 27.7984 25.4435C28.0162 25.6371 28.0162 25.879 27.9436 26.1451C27.8952 26.2903 27.7984 26.4113 27.7016 26.5322C27.4355 26.8226 27.1694 27.0887 26.9033 27.379C26.8065 27.4758 26.6855 27.5968 26.5887 27.6935C26.5887 27.6693 26.5645 27.6451 26.5645 27.6451Z" fill="#22251E"/>
<path d="M41.3952 22.2984C41.3952 22.0322 41.1291 21.7661 40.8629 21.7419C40.7904 21.7419 40.7904 21.7903 40.7662 21.8387C40.7178 22.0564 40.6452 22.2742 40.5726 22.5161C40.5242 22.6855 40.621 22.7822 40.7904 22.8306C41.1049 22.9032 41.3952 22.6613 41.3952 22.2984ZM40.1371 20.2177C40.5968 20.3629 41.0565 20.4839 41.492 20.6048C41.1049 20.6532 41.1049 20.6532 40.9839 21.0645C40.9355 21.2339 40.8146 21.4274 40.8871 21.5484C40.9597 21.6693 41.1775 21.6693 41.3468 21.7177C41.492 21.7661 41.6371 21.8387 41.7581 21.9113C42.0968 22.129 42.2178 22.3951 42.0968 22.6855C42 22.9516 41.6613 23.121 41.3468 23.0726C40.7904 23 40.2581 22.7822 39.7258 22.6371C39.6291 22.6129 39.5323 22.6129 39.4597 22.5403V22.5161C39.8468 22.5645 39.8468 22.5645 39.9678 22.1774C40.0887 21.7661 40.2097 21.3306 40.3307 20.8951C40.4517 20.4839 40.4517 20.4839 40.1371 20.2177Z" fill="#22251E"/>
<path d="M35.2984 22.25C35.3226 21.8145 34.9355 21.5726 34.5242 21.7178C34.4516 21.7419 34.4758 21.7903 34.5 21.8387C34.5242 22.0323 34.5484 22.2258 34.5968 22.4194C34.6452 22.7097 34.7904 22.7823 35.0565 22.6613C35.2258 22.5887 35.3226 22.4436 35.2984 22.25ZM33.6291 23.0484C33.992 22.8307 33.992 22.8307 33.8952 22.371C33.8226 21.9597 33.75 21.5726 33.6775 21.1613C33.6049 20.75 33.6049 20.75 33.2178 20.6774C33.6775 20.5807 34.1371 20.4839 34.5968 20.4113C34.2823 20.629 34.2823 20.629 34.3549 21.0403C34.3791 21.2097 34.3307 21.4516 34.4758 21.5242C34.5726 21.5968 34.7904 21.5 34.9597 21.4758C35.1775 21.4516 35.4194 21.4274 35.6613 21.5C36.0726 21.6452 36.1936 22.129 35.8791 22.4677C35.6855 22.6855 35.4194 22.7339 35.1291 22.7823C34.7178 22.879 34.2823 22.9516 33.8468 23.0242C33.7742 23.0484 33.7016 23.0726 33.6291 23.0484Z" fill="#22251E"/>
<path d="M51.2662 27.5C51.6533 28.1774 52.0404 28.8306 52.4275 29.4839C52.3307 29.5081 52.3066 29.4355 52.2824 29.4113C52.2098 29.2903 52.0888 29.2661 51.992 29.3387C51.4598 29.6532 50.9275 29.9677 50.3953 30.2581C50.2743 30.3306 50.2501 30.4274 50.3227 30.5726C50.3227 30.621 50.3953 30.6694 50.3227 30.7419C50.0807 30.3306 49.8388 29.9194 49.5969 29.5323C49.9114 29.7742 49.9114 29.7742 50.2743 29.5565C50.734 29.2903 51.1695 29.0242 51.6291 28.7581C51.7259 28.7097 51.7743 28.6613 51.6775 28.5403C51.5807 28.4194 51.5324 28.1774 51.4114 28.129C51.2904 28.0806 51.1211 28.2742 50.9759 28.3468C50.6372 28.5403 50.2985 28.7823 49.9114 28.879C49.4759 28.9758 49.0888 28.7823 48.9195 28.4194C48.8953 28.2984 48.8711 28.2016 48.9437 28.0806C48.992 27.9839 49.0646 27.9355 49.1856 27.9355C49.3066 27.9355 49.3791 28.0323 49.4275 28.129C49.4759 28.2258 49.4275 28.3226 49.3549 28.3952C49.2098 28.5403 49.234 28.6371 49.4275 28.7097C49.6211 28.7823 49.7904 28.7581 49.9598 28.7097C50.4195 28.5403 50.8066 28.2742 51.2178 28.0323C51.3388 27.9597 51.363 27.8629 51.2904 27.7177C51.2662 27.6694 51.1937 27.621 51.2662 27.5Z" fill="#22251E"/>
<path d="M32.5887 49.2016C32.5887 48.9597 32.4194 48.8629 32.25 48.7661C32.1775 48.742 32.1291 48.742 32.0807 48.8387C32.0081 49.0807 31.9113 49.3468 31.7904 49.6129C31.7662 49.7097 31.7904 49.7339 31.8871 49.7581C32.25 49.9032 32.5887 49.6371 32.5887 49.2016ZM31.2097 48.2339C31.7662 48.4516 32.3468 48.5968 32.8549 48.9113C32.9033 48.9355 32.9516 48.9839 32.9758 49.0081C33.1694 49.2016 33.2662 49.3952 33.1936 49.6613C33.0968 49.9032 32.8791 50.0484 32.5887 50.0726C32.3226 50.0726 32.1049 50 31.8629 49.9032C31.742 49.8549 31.6936 49.879 31.6452 50C31.5968 50.1694 31.5242 50.3387 31.4758 50.4839C31.3791 50.75 31.3791 50.7984 31.6452 50.9436C31.6694 50.9436 31.6936 50.9436 31.6694 51.0161C31.2339 50.8468 30.7984 50.7016 30.3387 50.5323C30.3871 50.4839 30.3871 50.4839 30.3871 50.4839C30.75 50.5323 30.75 50.5323 30.871 50.2178C31.0646 49.7339 31.2339 49.25 31.4275 48.7661C31.5242 48.4758 31.5242 48.4758 31.2581 48.3065C31.2339 48.3065 31.2097 48.2823 31.2097 48.2339Z" fill="#22251E"/>
<path d="M30.4839 21.6694C31.1855 21.379 31.8871 21.0887 32.5645 20.7984C32.5887 20.8226 32.5887 20.8468 32.5887 20.8468C32.2984 21.0645 32.2984 21.0645 32.4436 21.379C32.6129 21.8145 32.8065 22.25 32.9758 22.6855C33.1452 23.0726 33.0726 23.0726 33.5081 23.0484C33.0968 23.2419 32.6613 23.4113 32.2258 23.5807C32.4919 23.2903 32.4919 23.2903 32.3226 22.9032C32.129 22.4194 31.9355 21.9597 31.742 21.4758C31.7178 21.379 31.6694 21.3549 31.5484 21.379C31.0645 21.5726 31.0645 21.5726 31.2581 22.0565C31.379 22.371 31.5242 22.6855 31.5968 23C31.742 23.5323 31.4516 24.0403 30.992 24.1129C30.7984 24.1613 30.629 24.0403 30.5807 23.871C30.5565 23.7258 30.6774 23.5807 30.8468 23.5807C30.9678 23.5565 31.0403 23.629 31.0887 23.7016C31.1855 23.8468 31.2581 23.8226 31.3549 23.7016C31.4758 23.5565 31.5242 23.3871 31.4758 23.1936C31.379 22.7097 31.1613 22.25 30.9678 21.7903C30.9194 21.6694 30.8468 21.6452 30.7258 21.6694C30.6532 21.6694 30.5807 21.6936 30.5081 21.7178C30.5081 21.6936 30.5081 21.6694 30.4839 21.6694Z" fill="#22251E"/>
<path d="M45.1936 47.3145C44.9758 47.629 44.9758 47.629 45.1694 47.9919C45.3629 48.379 45.5565 48.7419 45.75 49.1048C45.9678 49.4919 45.9678 49.4919 46.3549 49.4677C45.9436 49.6855 45.5323 49.9032 45.121 50.1452C45.121 50.0968 45.0968 50.0726 45.121 50.0726C45.3871 49.8548 45.3871 49.8548 45.2178 49.5403C44.9517 49.0564 44.6855 48.5726 44.4436 48.0645C44.3952 47.9435 44.3468 47.9677 44.2258 48.0161C43.7662 48.2581 43.7662 48.2581 44.0081 48.6935C44.1533 48.9839 44.3226 49.2742 44.4436 49.5645C44.6129 50.0484 44.4678 50.5081 44.0807 50.7258C43.9839 50.7742 43.8871 50.7984 43.7662 50.7742C43.6452 50.75 43.5484 50.6774 43.5242 50.5564C43.5 50.4355 43.5484 50.3387 43.6694 50.2661C43.7904 50.2177 43.8871 50.2419 43.9839 50.3387C44.1291 50.4839 44.2017 50.4597 44.2984 50.2903C44.3952 50.0968 44.371 49.9032 44.3226 49.7339C44.1775 49.2742 43.9355 48.8871 43.6936 48.4516C43.6452 48.3306 43.5242 48.3306 43.4033 48.3548C43.3549 48.379 43.2823 48.4032 43.2339 48.4274C43.2097 48.4274 43.2097 48.4032 43.2097 48.379C43.8629 48.0161 44.5404 47.6774 45.1936 47.3145Z" fill="#22251E"/>
<path d="M24.9677 26.9677C24.8226 26.9919 24.75 26.9677 24.6774 26.9436C24.4355 26.8952 24.0726 27.1371 24.0242 27.379C24 27.4516 24.0484 27.4758 24.0968 27.5C24.6048 27.8387 25.1371 28.1774 25.6452 28.5161C25.8871 28.6613 25.9839 28.4436 26.1048 28.3226C26.1048 28.3468 26.129 28.3468 26.129 28.371C25.8871 28.7581 25.621 29.1694 25.3306 29.6048C25.2823 29.5081 25.3306 29.4597 25.3548 29.4355C25.4516 29.2661 25.4032 29.1694 25.2581 29.0726C24.75 28.7339 24.2419 28.3952 23.7339 28.0806C23.6613 28.0081 23.6129 28.0323 23.5403 28.129C23.3226 28.4677 23.3226 28.6129 23.5645 28.9516C23.5887 28.9758 23.5887 29 23.5645 29.0484C23.371 28.9758 23.2258 28.8306 23.0565 28.7339C22.9839 28.6855 23.0565 28.6371 23.0806 28.5887C23.4919 27.9597 23.9032 27.3065 24.3145 26.6774C24.3387 26.629 24.3629 26.5806 24.4355 26.629C24.6048 26.7258 24.7742 26.8226 24.9677 26.9677Z" fill="#22251E"/>
<path d="M48.3145 47.8468C48 48.1613 47.6371 48.4516 47.2741 48.7419C47.2741 48.6452 47.3225 48.621 47.3709 48.5968C47.4677 48.4758 47.4919 48.379 47.3951 48.2581C46.9838 47.7742 46.5725 47.2903 46.1854 46.8065C46.1129 46.7339 46.0645 46.7581 46.0161 46.8065C45.7016 47.0484 45.629 47.2419 45.75 47.6049C45.7741 47.629 45.7983 47.6774 45.7258 47.7258C45.6048 47.5807 45.4838 47.4113 45.3629 47.2661C45.2903 47.1936 45.3629 47.1694 45.4112 47.1452C46.0161 46.6129 46.6209 46.1049 47.25 45.5968C47.3709 45.7661 47.5403 45.9113 47.6854 46.1532C47.4919 46.0807 47.3709 45.9839 47.2016 45.9839C46.9838 45.9597 46.8387 46.129 46.6693 46.25C46.6209 46.2984 46.6693 46.3468 46.6935 46.371C47.0806 46.8549 47.4919 47.3145 47.879 47.7984C48.0241 47.9436 48.1451 47.9194 48.2903 47.8226L48.3145 47.8468Z" fill="#22251E"/>
<path d="M33.9678 50C33.7743 50.2661 33.5807 50.4839 33.3872 50.7258C33.6533 50.7984 33.9194 50.8468 34.2098 50.8951C34.1372 50.6048 34.0646 50.3145 33.9678 50ZM35.3227 52.008C34.8872 51.9113 34.4517 51.8145 34.0162 51.7177C34.0404 51.6693 34.0404 51.6693 34.0404 51.6693C34.3791 51.6693 34.3791 51.6693 34.3307 51.3306C34.2823 51.1129 34.1856 51.0161 33.9678 50.9919C33.8227 50.9677 33.6775 50.9193 33.5081 50.8951C33.2904 50.8468 33.0727 50.9919 33.0243 51.2097C33.0001 51.3306 33.0485 51.379 33.1452 51.4274C33.1936 51.4758 33.2904 51.4516 33.363 51.5726C33.0243 51.5 32.7339 51.4274 32.4194 51.379C32.7823 51.3064 32.9517 50.9919 33.1452 50.75C33.5565 50.2903 33.9436 49.8064 34.3307 49.3226C34.3549 49.2984 34.3791 49.2742 34.4275 49.25C34.5485 49.6613 34.6452 50.0726 34.7662 50.4839C34.8388 50.8226 34.9356 51.1371 35.0081 51.4516C35.1049 51.7661 35.1049 51.7903 35.3227 52.008Z" fill="#22251E"/>
<path d="M29.2742 48.0161C29.0081 48.1855 28.7419 48.3306 28.4758 48.5C28.7178 48.6693 28.9597 48.7903 29.2016 48.9355C29.2258 48.621 29.25 48.3306 29.2742 48.0161ZM29.879 50.3387C29.4919 50.0968 29.1049 49.879 28.7178 49.6371C28.7661 49.6129 28.7661 49.6129 28.7903 49.6129C29.129 49.7339 29.1049 49.7339 29.1774 49.371C29.2016 49.1532 29.129 49.0322 28.9355 48.9355C28.7903 48.8629 28.6694 48.7903 28.5242 48.6935C28.3549 48.5968 28.0645 48.6693 27.9678 48.8629C27.9194 48.9355 27.9436 49.0322 28.0161 49.0806C28.0645 49.129 28.1371 49.1532 28.1613 49.2742C27.871 49.1048 27.6049 48.9597 27.3629 48.7903C27.75 48.8387 28.0161 48.5968 28.3065 48.4274C28.7903 48.1371 29.2742 47.8226 29.7823 47.5322C29.8307 47.5081 29.879 47.4839 29.9274 47.4355C29.9758 47.7016 29.9274 47.9193 29.9032 48.1371C29.879 48.6935 29.8065 49.2258 29.7581 49.7822C29.7581 49.9758 29.7339 50.1693 29.9274 50.2903C29.9032 50.3145 29.9032 50.3387 29.879 50.3387Z" fill="#22251E"/>
<path d="M41.1533 49.9032C41.0807 50.2178 41.0324 50.4597 40.984 50.7258C40.9598 50.8226 40.984 50.8226 41.0565 50.7984C41.2985 50.75 41.5162 50.6774 41.7582 50.6049C41.5646 50.3629 41.3711 50.1452 41.1533 49.9032ZM41.1775 49.0081C41.5888 49.4436 41.9517 49.8549 42.3146 50.2662C42.4598 50.4113 42.6049 50.5807 42.7501 50.7258C42.8953 50.871 43.0162 51.0403 43.2582 50.992C43.2582 51.0162 43.2582 51.0403 43.2582 51.0403C42.8227 51.1613 42.4114 51.2823 41.9517 51.4274C41.9759 51.3791 41.9517 51.3791 41.9759 51.3549C42.0485 51.2823 42.242 51.3065 42.2178 51.1613C42.1936 50.992 42.0243 50.871 41.9033 50.75C41.8549 50.7016 41.7824 50.75 41.734 50.75C41.5404 50.8226 41.3469 50.871 41.1291 50.9194C40.9356 50.992 40.7904 51.2581 40.863 51.4516C40.9114 51.5242 40.9598 51.5726 41.0565 51.5726C41.1291 51.5726 41.2017 51.5484 41.2743 51.5726C41.0082 51.6936 40.6936 51.7662 40.4033 51.8387C40.7662 51.5242 40.7178 51.0887 40.8146 50.7016C40.9598 50.1694 41.0565 49.6129 41.1775 49.0081Z" fill="#22251E"/>
<path d="M48.5081 45.2339C48.6532 45.5242 48.7742 45.7903 48.8952 46.0806C49.0887 45.8387 49.2339 45.6452 49.4274 45.4274C49.1129 45.3548 48.8226 45.2822 48.5081 45.2339ZM49.5242 46.6129C49.379 46.8064 49.2097 47.0242 49.0645 47.2177C49.1613 46.7339 48.8226 46.371 48.6774 45.9597C48.4839 45.4758 48.2419 45.0161 48 44.5081C48.3145 44.5081 48.5806 44.6048 48.8468 44.6532C49.3306 44.75 49.8145 44.8468 50.2984 44.9435C50.4919 44.9919 50.6855 45.0161 50.879 44.8952C50.6129 45.2581 50.3226 45.621 50.0565 45.9597C50.0323 45.9355 50.0323 45.9113 50.0323 45.8629C50.2016 45.5968 50.1774 45.5968 49.8871 45.5C49.6452 45.4274 49.5 45.4758 49.379 45.6935C49.3065 45.8145 49.2097 45.9355 49.0887 46.0322C48.9435 46.1774 48.9677 46.2984 49.0645 46.4677C49.2097 46.7097 49.2823 46.7339 49.5 46.5645L49.5242 46.6129Z" fill="#22251E"/>
<path d="M52.6694 29.9919C52.8146 30.4274 52.9598 30.8629 53.1049 31.2984C53.0565 31.2984 53.0323 31.2984 53.0323 31.2984C52.863 31.0081 52.863 31.0081 52.6452 31.2742C52.4033 31.5645 52.1856 31.8548 51.9194 32.1694C52.234 32.2419 52.5485 32.2903 52.8388 32.3629C52.863 32.3629 52.8872 32.3629 52.9114 32.3871C53.3227 32.4597 53.3227 32.4355 53.2743 32.0242C53.2743 32.0242 53.2743 32 53.2985 31.9516C53.4194 32.2661 53.5162 32.5564 53.613 32.9194C53.1775 32.4597 52.621 32.5323 52.1372 32.3871C51.7985 32.2903 51.4356 32.2419 51.0969 32.1452C50.7339 32.0484 50.5162 31.7581 50.5404 31.4435C50.5646 31.2742 50.6372 31.1532 50.8307 31.129C50.9759 31.1048 51.0485 31.2258 51.0969 31.3468C51.1452 31.4677 51.0727 31.5403 50.9759 31.6129C50.9033 31.6613 50.8065 31.6855 50.8307 31.8064C50.8791 31.9274 50.9759 31.9516 51.0727 31.9758C51.1694 32.0242 51.242 32 51.3388 31.9032C51.6533 31.4919 52.0162 31.0806 52.3549 30.6693C52.5001 30.4758 52.6936 30.2823 52.5969 29.9919H52.6694Z" fill="#22251E"/>
<path d="M22.1371 30.7419C22.1371 31.1048 22.1371 31.1048 22.5 31.0322C22.8629 30.9597 23.2016 30.8871 23.5887 30.8145C23.3226 30.4758 23.0806 30.1613 22.8145 29.8468C22.7177 29.7258 22.621 29.7742 22.5484 29.8951C22.5 29.9435 22.4758 30.0161 22.4274 30.0887C22.4758 29.7742 22.621 29.5081 22.7419 29.2177C22.7419 29.5322 22.9355 29.7258 23.1048 29.9435C23.4677 30.4032 23.8064 30.8387 24.1693 31.2984C24.3629 31.5403 24.4355 31.8306 24.2661 32.121C24.2177 32.2419 24.121 32.3387 23.9758 32.3387C23.879 32.3629 23.7823 32.3387 23.7097 32.2419C23.6613 32.1452 23.6613 32.0484 23.7097 31.9516C23.7581 31.8548 23.8548 31.8064 23.9516 31.8306C24.0242 31.8548 24.121 31.879 24.1693 31.7822C24.2419 31.6855 24.1935 31.5887 24.121 31.4919C24.0726 31.4193 24.0242 31.3468 23.9032 31.371C23.2984 31.4919 22.6693 31.6371 22.0403 31.7581C21.871 31.7822 21.7742 31.9274 21.629 32.0242C21.7984 31.5887 21.9677 31.1774 22.1371 30.7419Z" fill="#22251E"/>
<path d="M51.5081 43.6129C51.3629 43.3952 51.2178 43.1774 51.0968 42.9597C51.0484 42.8629 50.9758 42.8145 50.8791 42.8387C50.6129 42.8387 50.3468 42.8871 50.0807 42.8629C50.0807 42.7661 50.1291 42.7177 50.2017 42.6936C50.5162 42.5968 50.8307 42.5 51.121 42.379C51.2178 42.3548 51.2662 42.3548 51.3146 42.4758C51.3871 42.7661 51.4839 43.0806 51.5565 43.3952C51.5807 43.4677 51.6049 43.5403 51.5081 43.6129Z" fill="#22251E"/>
<path d="M25.3307 44.3629C25.0646 44.3871 24.7985 44.4355 24.5323 44.4355C24.4356 44.4597 24.3872 44.4839 24.3388 44.5807C24.2662 44.7984 24.1694 44.992 24.0727 45.1855C24.0727 45.2339 24.0727 45.3307 24.0001 45.3065C23.9275 45.2823 23.9275 45.2097 23.9275 45.1371C23.9517 44.871 23.9759 44.6049 24.0243 44.3387C24.0727 44.0242 24.0727 44.0242 24.3872 44.0726C24.6291 44.121 24.871 44.1694 25.1372 44.2178C25.2097 44.2178 25.3065 44.2662 25.3307 44.3629Z" fill="#22251E"/>
<path d="M24.5807 46.0807C24.4598 46.0323 24.4598 45.9355 24.484 45.8387C24.5323 45.5484 24.5565 45.2581 24.6049 44.9677C24.6049 44.8226 24.6533 44.7742 24.7985 44.7984C25.0646 44.871 25.3549 44.9194 25.6452 44.9677C25.742 44.9919 25.863 44.9919 25.8872 45.1129C25.6211 45.1613 25.3549 45.1855 25.0646 45.2097C24.9678 45.2097 24.9436 45.2581 24.8952 45.3307C24.7985 45.5726 24.6775 45.8387 24.5807 46.0807Z" fill="#22251E"/>
<path d="M49.6453 43.7097C49.6695 43.5887 49.7178 43.5645 49.7904 43.5403C50.1049 43.4436 50.3953 43.3226 50.7098 43.2258C50.8066 43.1774 50.8307 43.2016 50.8791 43.3226C50.9517 43.6129 51.0485 43.9274 51.1453 44.242C51.1695 44.3145 51.1453 44.3871 51.0969 44.4597C50.9517 44.242 50.8066 44.0484 50.7098 43.8307C50.613 43.6855 50.5162 43.6613 50.3711 43.6613C50.1291 43.6855 49.8872 43.6855 49.6453 43.7097Z" fill="#22251E"/>
<path d="M46.5968 22.4677C46.1855 22.3468 45.7742 22.1532 45.5081 21.7661C45.4355 21.6936 45.4113 21.5726 45.4839 21.4758C45.5323 21.4274 45.6049 21.4032 45.6774 21.4274C45.7742 21.4758 45.871 21.5484 45.871 21.6694C45.871 21.8387 45.871 21.9839 46.0403 22.0807C46.1855 22.1532 46.3065 22.2016 46.4758 22.1048C46.5 22.0807 46.5484 22.0565 46.5726 22.0565C46.6936 22.0323 46.7661 22.0565 46.8387 22.129C46.8871 22.2016 46.9113 22.25 46.8871 22.3226C46.8145 22.4194 46.7178 22.4436 46.5968 22.4677Z" fill="#22251E"/>
<path d="M36.1694 50.9436C36.4113 50.9436 36.6532 50.9678 36.8952 50.992C37.0161 50.992 37.0403 51.0403 37.0161 51.1371C36.992 51.2097 37.0645 51.3549 36.8952 51.3549C36.5565 51.3549 36.242 51.3307 35.9032 51.3065C35.6855 51.2823 35.8307 51.1129 35.8065 51.0162C35.7823 50.8952 35.8791 50.9194 35.9516 50.9194C36.0242 50.9436 36.0968 50.9436 36.1694 50.9436Z" fill="#22251E"/>
<path d="M47.7581 26.9435C47.7823 26.9919 47.8307 27.0161 47.7823 27.0403C47.7581 27.0887 47.7339 27.0161 47.7097 26.9919L47.7581 26.9435Z" fill="#22251E"/>
<path d="M48.2904 47.8226C48.3146 47.7984 48.3388 47.75 48.3872 47.7742C48.4114 47.8226 48.363 47.8468 48.3146 47.8468L48.2904 47.8226Z" fill="#22251E"/>
<path d="M49.5 46.5645C49.5242 46.5161 49.5484 46.4436 49.5968 46.4919C49.621 46.5403 49.5726 46.5645 49.5242 46.6129L49.5 46.5645Z" fill="#22251E"/>
<path d="M27.4839 45.6694C27.5323 45.6936 27.5807 45.7178 27.5565 45.742C27.5081 45.7903 27.4839 45.7178 27.4597 45.6936L27.4839 45.6694Z" fill="#22251E"/>
<path d="M24.8468 26.0726C24.8226 26.121 24.7984 26.1693 24.75 26.121C24.7258 26.121 24.7742 26.0726 24.7984 26.0484C24.8226 26.0726 24.8226 26.0726 24.8468 26.0726Z" fill="#22251E"/>
<path d="M49.5 25.3468C49.5242 25.371 49.5726 25.3952 49.5484 25.4194C49.5 25.4678 49.4759 25.3952 49.4517 25.371C49.4759 25.371 49.4759 25.3468 49.5 25.3468Z" fill="#22251E"/>
<path d="M25.863 47.3871C25.8872 47.4113 25.9355 47.4113 25.9113 47.4597C25.863 47.4839 25.8388 47.4355 25.8146 47.4113C25.8388 47.4113 25.8388 47.3871 25.863 47.3871Z" fill="#22251E"/>
<path d="M26.5405 44.8226C26.5163 44.7984 26.4679 44.7742 26.4921 44.75C26.5163 44.7258 26.5646 44.75 26.5646 44.7984L26.5405 44.8226Z" fill="#22251E"/>
<path d="M26.5888 44.8951C26.5888 44.871 26.5646 44.8468 26.5404 44.8226L26.5646 44.7984L26.6372 44.8468C26.613 44.8468 26.613 44.871 26.5888 44.8951Z" fill="#22251E"/>
<path d="M24.8952 26.0242L24.8468 26.0726C24.8227 26.0726 24.8227 26.0726 24.7985 26.0484C24.8227 26.0242 24.8468 26 24.8468 26C24.871 26 24.871 26.0242 24.8952 26.0242Z" fill="#22251E"/>
<path d="M26.5404 27.7419C26.5162 27.7661 26.492 27.7903 26.4678 27.7661C26.4194 27.7419 26.492 27.7177 26.492 27.6935C26.5162 27.7177 26.5162 27.7177 26.5404 27.7419Z" fill="#22251E"/>
<path d="M26.4919 27.6935C26.5161 27.6935 26.5403 27.6694 26.5645 27.6452C26.5645 27.6452 26.5887 27.6694 26.5887 27.6935C26.5645 27.7177 26.5403 27.7177 26.5403 27.7419C26.5161 27.7177 26.5161 27.7177 26.4919 27.6935Z" fill="#22251E"/>
<path d="M22.5001 35.121C22.3549 35.121 22.1614 35.0968 21.9678 35C21.871 34.9516 21.7984 34.9032 21.7501 34.8065C21.6775 34.6855 21.6291 34.5403 21.7017 34.4194C21.7501 34.3226 21.8952 34.3952 21.992 34.4194C22.3307 34.4677 22.6694 34.5161 23.0081 34.5645C23.1049 34.5887 23.1291 34.6129 23.1049 34.7339C23.0081 35.0242 22.8388 35.1452 22.5001 35.121Z" fill="#F1E50D"/>
<path d="M22.4275 33.1613C22.6211 33.1613 22.8146 33.1855 23.0082 33.3065C23.1049 33.3548 23.2017 33.4274 23.2259 33.5484C23.3227 33.8145 23.2501 33.9113 22.984 33.8871C22.6453 33.8145 22.2824 33.7661 21.9195 33.7178C21.8227 33.6936 21.7985 33.6452 21.8227 33.5484C21.8953 33.2823 22.0888 33.1371 22.4275 33.1613Z" fill="#F1E50D"/>
<path d="M29.9033 24.3791C29.9033 24.8629 29.3953 25.2258 28.9598 24.9839C28.4517 24.6936 28.1372 24.2339 28.0404 23.6532C27.9678 23.1694 28.4759 22.7823 28.9356 22.9758C29.3711 23.1452 29.9033 23.9194 29.9033 24.3791Z" fill="#F1E50D"/>
<path d="M52.4033 34.6129C52.5485 34.5645 52.5726 34.6855 52.5726 34.8306C52.5726 35.2419 52.2097 35.5322 51.8226 35.3871C51.6291 35.3145 51.4839 35.0726 51.5323 34.879C51.5565 34.7822 51.6291 34.7339 51.7259 34.7097C51.8226 34.6855 51.9436 34.6855 52.0404 34.6613C52.1614 34.6613 52.2581 34.6371 52.4033 34.6129Z" fill="#F1E50D"/>
<path d="M39.121 51.379C39.121 51.5968 39.0484 51.7419 38.8549 51.8387C38.5645 51.9355 38.4194 51.8629 38.3952 51.5484C38.371 51.3548 38.371 51.1613 38.3468 50.9678C38.3468 50.8952 38.3468 50.8468 38.4436 50.8468C38.8307 50.7742 39.121 51.0161 39.121 51.379Z" fill="#F1E50D"/>
<path d="M27.4839 26.4839C27.4839 26.6048 27.3871 26.7258 27.242 26.8226C27.0726 26.9194 27 26.7742 26.9033 26.7016C26.7581 26.5807 26.6129 26.4113 26.4678 26.2903C26.3952 26.2178 26.4194 26.1694 26.492 26.121C26.6613 25.9516 26.8549 25.8307 27.121 25.9274C27.3387 26.0242 27.4839 26.2178 27.4839 26.4839Z" fill="#F1E50D"/>
<path d="M41.3952 22.2984C41.3952 22.6613 41.1049 22.9032 40.7904 22.8306C40.621 22.7823 40.5242 22.6855 40.5726 22.5161C40.6452 22.2742 40.7178 22.0564 40.7662 21.8387C40.7904 21.7903 40.7904 21.7419 40.863 21.7419C41.1291 21.7661 41.3952 22.0323 41.3952 22.2984Z" fill="#F1E50D"/>
<path d="M35.2984 22.25C35.3226 22.4435 35.2258 22.5887 35.0565 22.6613C34.7903 22.7823 34.6452 22.7097 34.5968 22.4194C34.5484 22.2258 34.5242 22.0323 34.5 21.8387C34.4758 21.7903 34.4516 21.7419 34.5242 21.7177C34.9355 21.5726 35.3226 21.8145 35.2984 22.25Z" fill="#F1E50D"/>
<path d="M32.5887 49.2016C32.5887 49.6371 32.25 49.9032 31.8871 49.7581C31.7903 49.7339 31.7661 49.7097 31.7903 49.6129C31.9113 49.3468 32.0081 49.0807 32.0807 48.8387C32.1291 48.7419 32.1774 48.7419 32.25 48.7661C32.4194 48.8629 32.5887 48.9597 32.5887 49.2016Z" fill="#F1E50D"/>
<path d="M33.9679 50C34.0646 50.3145 34.1372 50.6048 34.2098 50.8951C33.9195 50.8468 33.6533 50.7984 33.3872 50.7258C33.5808 50.4839 33.7743 50.2661 33.9679 50Z" fill="#F1E50D"/>
<path d="M29.2742 48.0161C29.25 48.3307 29.2258 48.621 29.2016 48.9355C28.9597 48.7903 28.7178 48.6694 28.4758 48.5C28.742 48.3307 29.0081 48.1855 29.2742 48.0161Z" fill="#F1E50D"/>
<path d="M41.1533 49.9032C41.371 50.1452 41.5646 50.3629 41.7581 50.6048C41.5162 50.6774 41.2984 50.75 41.0565 50.7984C40.9839 50.8226 40.9597 50.8226 40.9839 50.7258C41.0323 50.4597 41.0807 50.2177 41.1533 49.9032Z" fill="#F1E50D"/>
<path d="M48.5082 45.2339C48.8227 45.2822 49.113 45.3548 49.4275 45.4274C49.234 45.6451 49.0888 45.8387 48.8953 46.0806C48.7743 45.7903 48.6533 45.5242 48.5082 45.2339Z" fill="#F1E50D"/>
<path d="M50.0324 36.0645C50.0324 43.0564 44.3711 48.7177 37.4033 48.7177C30.4114 48.7177 24.7501 43.0564 24.7501 36.0645C24.7501 29.0726 30.4114 23.4113 37.4033 23.4113C44.3711 23.4113 50.0324 29.0726 50.0324 36.0645Z" fill="#FEFEFE"/>
<path d="M34.9598 36.2097C34.9598 36.1129 35.0324 36.1129 35.0807 36.0645C35.7824 35.5081 36.484 34.9758 37.2098 34.4194C37.3066 34.371 37.3307 34.2984 37.3307 34.1774C37.113 32.7742 36.9437 31.3952 36.7743 29.992C36.7501 29.8468 36.6775 29.7984 36.5566 29.75C35.4195 29.3145 34.2824 28.9032 33.1211 28.492C32.8066 28.371 32.5646 28.371 32.2743 28.6129C31.2824 29.3871 30.2904 30.1613 29.3227 30.9597C29.2259 31.0565 29.1775 31.1291 29.2017 31.2742C29.2501 31.7823 29.2743 32.2903 29.2985 32.7984C29.3953 33.6452 29.4678 34.4678 29.5646 35.2903C29.5646 35.4113 29.613 35.4597 29.7098 35.4839C30.9678 36.0403 32.2501 36.5726 33.5082 37.1291C33.6049 37.1774 33.6775 37.1532 33.7743 37.0807C33.9678 36.9113 34.1614 36.7661 34.3791 36.621C34.5727 36.4758 34.7178 36.2823 34.9598 36.1855C35.0082 36.2823 34.9114 36.3065 34.8872 36.3307C34.5485 36.5968 34.2098 36.8629 33.8711 37.1049C33.7259 37.2016 33.7017 37.3226 33.7259 37.4678C33.7985 37.9516 33.8711 38.4355 33.9195 38.9194C34.0646 39.8145 34.1856 40.7339 34.3307 41.6291C34.3307 41.7016 34.3549 41.7742 34.4517 41.8226C35.7824 42.3791 37.113 42.9113 38.4437 43.4194C38.5404 43.4436 38.613 43.4436 38.7098 43.371C38.9517 43.1774 39.2178 43.0081 39.4598 42.8145C40.3307 42.1613 41.2017 41.4839 42.0727 40.8307C42.1695 40.7581 42.1937 40.6855 42.1937 40.5403C42.0485 39.1371 41.8791 37.7339 41.7098 36.3549C41.6856 36.2581 41.6614 36.1855 41.5646 36.1371C40.2098 35.5807 38.8791 35.0242 37.5485 34.4436C37.4275 34.3952 37.3549 34.4194 37.2582 34.492C36.5566 35.0484 35.8307 35.6049 35.1291 36.1371C35.0807 36.1855 35.0324 36.2581 34.9598 36.2097ZM26.613 29.3871C26.7824 29.242 26.8066 29.0242 26.9517 28.8307C27.5324 28.0807 28.1372 27.3549 28.863 26.7258C29.492 26.1694 30.1695 25.7097 30.8711 25.25C31.0404 25.1532 31.234 25.1291 31.4033 25.0323C31.8146 24.9355 32.2017 24.9597 32.613 24.9839C32.5162 26.0242 32.6372 27.0887 32.6856 28.1291C32.6856 28.2258 32.734 28.25 32.8307 28.2742C34.113 28.7097 35.3711 29.1694 36.6291 29.6774C36.7259 29.7258 36.7985 29.7258 36.8953 29.6532C37.984 28.8549 39.0727 28.1049 40.1856 27.3549C40.3066 27.2823 40.3066 27.2339 40.2824 27.1129C40.1856 26.6774 40.0888 26.2661 39.992 25.8307C39.8711 25.3226 39.7501 24.8145 39.5324 24.3549C39.5324 24.1855 39.4114 24.1613 39.2904 24.1371C38.2985 23.871 37.2824 23.6532 36.242 23.6532C36.242 23.5565 36.3146 23.5807 36.3872 23.5807C36.992 23.5807 37.6211 23.5323 38.2259 23.5807C38.8549 23.6291 39.484 23.7016 40.0646 23.8952C40.2582 23.9678 40.4759 23.9436 40.6453 24.0645C40.3791 24.0403 40.1372 24.0403 39.8953 24.1129C39.5082 24.1855 39.5566 24.1371 39.7017 24.4758C39.992 25.3226 40.2098 26.1936 40.3791 27.0887C40.4033 27.2097 40.4517 27.2823 40.5727 27.3307C41.2501 27.5968 41.9275 27.8871 42.6049 28.2016C43.2098 28.492 43.8388 28.7581 44.4678 29.0484C44.4678 29.0968 44.4437 29.1694 44.4678 29.2178C44.7824 30.5242 45.0001 31.8549 45.2178 33.1855C45.242 33.3065 45.2662 33.3549 45.363 33.4032C46.4275 33.9113 47.4678 34.4436 48.4598 35.0484C48.5566 35.0968 48.6049 35.0968 48.6775 35.0242C48.7743 34.9032 48.8227 34.7823 48.9437 34.6855C49.2582 34.3468 49.5243 33.9597 49.5485 33.4516C49.6937 33.7178 49.6695 34.0081 49.7178 34.2984C49.7662 34.7339 49.8388 35.1452 49.863 35.5807C49.8872 35.992 49.9114 36.4032 49.8872 36.8145C49.863 37.2016 49.8146 37.5645 49.7662 37.9274C49.6937 38.5323 49.5727 39.1371 49.3791 39.7178C49.2098 39.5968 49.0646 39.4758 48.8711 39.4032C48.8469 39.3791 48.7985 39.3791 48.7743 39.3549C48.7743 39.3307 48.7743 39.3065 48.7743 39.2823C48.7985 37.9758 48.7017 36.6694 48.5807 35.3629C48.5566 35.2178 48.4598 35.1452 48.363 35.0968C47.3711 34.5161 46.3549 33.9839 45.3388 33.5C45.2178 33.4274 45.1453 33.4516 45.0485 33.5242C44.0324 34.3468 43.0162 35.1694 41.9759 35.992C41.8307 36.1129 41.7824 36.2581 41.8066 36.4516C41.9033 37.1049 41.9759 37.7581 42.0485 38.4113C42.1453 39.1129 42.2178 39.8387 42.2904 40.5403C42.3146 40.6371 42.3146 40.6855 42.4114 40.7339C43.5727 41.1694 44.7098 41.6291 45.8711 42.0403C45.9437 42.0645 45.992 42.0887 46.0646 42.0403L46.0888 42.0645C46.0404 42.1371 46.0404 42.1855 46.0404 42.2581C46.0404 43.0323 46.0162 43.8065 45.9195 44.5807C45.8469 44.8226 45.7743 45.0645 45.7259 45.3065C45.7017 45.4274 45.7743 45.3791 45.8227 45.3791C45.8227 45.4032 45.8227 45.4274 45.8227 45.4516C45.7017 45.4516 45.6291 45.5 45.5324 45.5726C44.8549 46.1291 44.1533 46.6613 43.4033 47.121C43.0888 47.3145 42.7501 47.4597 42.4598 47.7016C42.4114 47.7258 42.363 47.7258 42.3146 47.75C42.2904 47.7258 42.2662 47.7016 42.242 47.7016C41.8307 47.7258 41.3953 47.7016 40.984 47.6774C40.3066 47.6049 39.6775 47.4355 39.0243 47.2903C39.0001 47.2661 39.0001 47.242 38.9759 47.242C38.9759 47.1936 38.9759 47.121 38.9759 47.0726C38.8307 45.9355 38.6856 44.8226 38.5404 43.6855C38.5404 43.5645 38.4678 43.5161 38.3711 43.492C37.0404 43.0081 35.734 42.4758 34.4275 41.9194C34.3307 41.8952 34.2582 41.8952 34.1856 41.9678C33.1695 42.6936 32.1533 43.4436 31.1372 44.1452C31.0404 44.1936 30.992 44.2661 31.0404 44.3629C31.2582 45.2339 31.4759 46.0807 31.8388 46.9032C31.8388 46.9274 31.9114 46.9758 31.8388 47.0242C31.7904 47.0484 31.7904 47 31.7662 46.9758C31.6211 46.7097 31.5243 46.4194 31.4275 46.1291C31.234 45.5968 31.0888 45.0161 30.9678 44.4597C30.9195 44.2903 30.8469 44.2178 30.7017 44.1452C29.6372 43.6371 28.5969 43.1049 27.6291 42.4758C27.484 42.4032 27.363 42.2823 27.2178 42.3549C27.1937 42.2823 27.3388 42.2823 27.2904 42.1855C27.1937 42.0161 27.1937 41.8226 27.1453 41.6291C26.8791 40.5403 26.6856 39.4516 26.5162 38.3387C26.492 38.242 26.4678 38.1694 26.3469 38.0968C25.9356 37.8549 25.5243 37.6129 25.1614 37.2984C25.113 37.1532 24.8953 37.1532 24.8953 36.9597C24.9195 36.9597 24.9437 36.9597 24.9437 36.9597C25.3791 37.3952 25.8872 37.7097 26.3953 38.0242C26.492 38.0968 26.5646 38.0726 26.6372 37.9758C27.5082 37.1291 28.4275 36.3307 29.3711 35.5323C29.4437 35.4839 29.4678 35.4113 29.4437 35.3145C29.4195 35 29.3711 34.7097 29.3469 34.3952C29.2501 33.3549 29.1533 32.3145 29.1049 31.25C29.1049 31.1291 29.0566 31.0807 28.9356 31.0565C28.1372 30.742 27.3388 30.4516 26.492 30.2339C26.3469 30.1855 26.3711 30.0645 26.4195 29.9678C26.4678 29.7984 26.5162 29.6532 26.5646 29.4839C26.613 29.4597 26.613 29.4355 26.613 29.3871Z" fill="#22251E"/>
<path d="M37.4033 23.8468C30.6533 23.8468 25.1855 29.3387 25.1855 36.0645C25.1855 42.8145 30.6533 48.2823 37.4033 48.2823C44.1291 48.2823 49.621 42.8145 49.621 36.0645C49.621 29.3387 44.1291 23.8468 37.4033 23.8468ZM37.4033 49.1532C30.1936 49.1532 24.3146 43.2742 24.3146 36.0645C24.3146 28.8548 30.1936 22.9758 37.4033 22.9758C44.613 22.9758 50.4678 28.8548 50.4678 36.0645C50.4678 43.2742 44.613 49.1532 37.4033 49.1532Z" fill="#573625"/>
</g>
<defs>
<clipPath id="clip0">
<rect width="75" height="73" fill="white"/>
</clipPath>
</defs>
</svg>
