<svg width="50" height="72" viewBox="0 0 50 72" fill="none" xmlns="http://www.w3.org/2000/svg">
<g clip-path="url(#clip0)">
<path d="M24.75 71.199C37.8447 71.199 48.46 55.4399 48.46 36C48.46 16.5601 37.8447 0.800995 24.75 0.800995C11.6554 0.800995 1.04004 16.5601 1.04004 36C1.04004 55.4399 11.6554 71.199 24.75 71.199Z" fill="#FEFEFE"/>
<path d="M47.57 36C47.57 26.424 44.96 17.775 40.75 11.529C36.63 5.4 30.96 1.611 24.75 1.611C18.54 1.611 12.87 5.4 8.75002 11.529C4.54002 17.775 1.93002 26.424 1.93002 36C1.93002 45.576 4.54002 54.225 8.75002 60.471C12.87 66.6 18.54 70.389 24.75 70.389C30.96 70.389 36.63 66.6 40.75 60.471C44.96 54.225 47.57 45.576 47.57 36ZM42.28 10.701C46.65 17.19 49.35 26.136 49.35 36C49.35 45.864 46.65 54.81 42.28 61.299C37.82 67.914 31.63 72 24.75 72C17.87 72 11.68 67.914 7.22002 61.299C2.85002 54.81 0.150024 45.864 0.150024 36C0.150024 26.136 2.85002 17.19 7.22002 10.701C11.68 4.086 17.87 0 24.75 0C31.63 0 37.82 4.086 42.28 10.701Z" fill="#00AFEF"/>
<path fill-rule="evenodd" clip-rule="evenodd" d="M24.6 2.655C40.85 2.286 45.97 27.891 45.75 27.954C32.55 31.734 18.6 31.959 3.76002 27.891C3.16002 27.729 8.11002 3.015 24.6 2.655Z" fill="#00AFEF"/>
<path d="M24.57 1.683C36.02 1.431 42.17 13.005 44.95 20.862C45.6 22.698 46.06 24.309 46.36 25.524C46.67 26.775 46.82 27.657 46.83 27.891C46.84 28.395 46.59 28.737 46.07 28.881C39.37 30.798 32.47 31.815 25.37 31.833C18.27 31.851 10.97 30.879 3.44999 28.818C2.97999 28.692 2.70999 28.377 2.64999 27.9C2.58999 27.396 2.87999 25.452 3.61999 22.905C4.34999 20.43 5.50999 17.289 7.18999 14.193C10.6 7.929 16.13 1.872 24.57 1.683ZM42.9 21.447C40.32 14.148 34.71 3.393 24.62 3.618C17.21 3.78 12.23 9.315 9.11999 15.039C7.50999 18 6.39999 21.015 5.69999 23.4C5.19999 25.119 4.91999 26.451 4.81999 27.171C11.87 29.034 18.72 29.925 25.37 29.898C31.95 29.88 38.34 28.98 44.57 27.279C44.5 26.946 44.4 26.496 44.26 25.947C43.97 24.768 43.52 23.202 42.9 21.447Z" fill="#FEFEFE"/>
<path fill-rule="evenodd" clip-rule="evenodd" d="M26.49 27.99C26.56 27.936 26.54 27.855 26.74 27.963C26.57 28.035 26.72 28.035 26.49 27.99ZM24.45 22.248L24.3 22.275L24.44 22.401L24.45 23.193L24.23 23.319C24.5 23.364 24.46 23.103 24.44 24.255C24.4 24.246 24.25 24.219 24.22 24.228C24.02 24.246 24.11 24.228 24 24.309L24.45 24.363L24.4 26.424C24.43 26.559 24.44 26.667 24.44 26.811C24.44 27.027 24.43 27.045 24.38 27.216C24.38 27.225 24.37 27.243 24.37 27.252L24.31 27.387C24.31 27.378 24.31 27.414 24.3 27.432L23.31 27.36C23.34 27.09 23.32 26.712 23.38 26.46L23.45 26.244C23.49 25.974 23.24 26.082 23.51 25.254C23.57 25.083 23.44 25.101 23.48 24.327L23.77 24.228C23.43 24.201 23.43 24.282 23.55 23.13C23.65 22.113 23.79 22.302 24.1 22.311C24.08 22.302 24.05 22.293 24.04 22.284C24.02 22.284 24 22.275 23.98 22.266C23.97 22.257 23.94 22.248 23.92 22.248C23.77 22.185 23.87 22.239 23.77 22.176L23.96 21.366H24.26C24.36 21.456 24.32 21.393 24.39 21.546C24.41 21.609 24.43 21.717 24.44 21.771C24.46 21.933 24.45 22.086 24.45 22.248ZM24.21 25.317C24.14 25.263 24.21 25.263 24.06 25.245C23.95 25.227 23.89 25.245 23.79 25.254L24.21 25.317ZM23.63 27.207C23.77 27.297 23.47 27.234 23.84 27.288C23.93 27.297 24.1 27.288 24.19 27.297C24.17 27.279 24.15 27.27 24.13 27.261L23.92 27.207C23.91 27.207 23.68 27.207 23.63 27.207ZM23.6 23.265C24.02 23.355 23.95 23.274 23.98 23.265C23.75 23.112 23.77 23.13 23.6 23.265ZM24.23 26.262L23.73 26.154C23.79 26.217 23.85 26.424 24.23 26.262ZM24.29 21.258C24.05 21.249 24.04 21.33 24.04 21.114L24.3 21.15L24.29 21.258ZM23.33 29.196C23.51 29.304 23.6 29.259 23.87 29.268C23.72 29.16 24.07 29.205 23.56 29.151C23.34 29.124 23.38 29.169 23.33 29.196ZM35.6 29.151C35.86 29.214 36.35 29.106 36.63 29.016C36.17 28.935 35.95 29.025 35.6 29.151ZM25.32 26.775C25.38 26.838 25.38 26.811 25.44 26.946C25.57 27.243 25.45 27.18 25.43 27.207C25.29 27.099 25.3 27.189 25.32 26.775ZM22.51 27.324C22.43 26.919 23.25 24.426 23.35 23.778C23.44 24.228 23.25 26.775 23.18 27.351L22.51 27.324ZM32.55 23.337L32.48 23.544C32.51 23.319 32.44 23.472 32.55 23.337ZM34.97 23.265C35 23.436 34.93 23.373 34.9 23.391V23.148C34.97 23.22 34.95 23.112 34.97 23.265ZM27.12 27.423C26.34 27.387 26.4 27.342 26.33 27.09L25.36 22.032C25.34 21.807 25.3 21.348 25.43 21.15C25.64 21.24 25.58 21.204 25.65 21.501C26.02 23.022 26.97 26.433 27.12 27.423ZM14.68 19.845C14.82 20.151 14.76 20.601 14.76 20.943C14.76 21.681 14.87 21.789 14.6 21.906C14.5 21.771 14.58 22.05 14.52 21.699L14.5 20.88C14.5 20.295 14.2 20.259 14.68 19.845ZM14.09 21.951C13.85 21.879 13.91 21.924 13.92 21.564L13.96 19.962L14.29 20.106C14.29 20.43 14.32 20.34 14.21 20.592C14.03 21.006 14.29 21.69 14.09 21.951ZM13.62 22.059V22.185L13.73 22.419C13.88 22.437 14.07 22.329 14.24 22.698C14.36 22.95 14.31 25.074 14.31 25.443C14.33 26.685 14.34 27.927 14.34 29.16L14.45 24.084C14.44 23.697 14.34 22.707 14.59 22.446C14.68 22.356 14.7 22.563 15.12 22.095C14.85 21.69 14.91 22.023 14.89 21.15C14.88 20.745 14.87 20.331 14.86 19.917L15.34 20.052C15.55 19.845 17.28 16.443 17.47 15.966C17.86 16.074 18.65 16.587 19.05 16.812L22.13 18.531C22.93 18.963 23.49 19.134 23.41 19.494L23.92 19.512C23.82 19.854 23.93 19.602 24.05 19.908C23.72 20.223 23.98 20.268 23.31 20.673C23.37 20.844 23.21 20.673 23.5 20.835C23.51 20.844 23.54 20.853 23.55 20.862C23.56 20.862 23.59 20.871 23.6 20.88L21.28 29.835L21.79 29.88L22.2 28.269L23.14 28.224C23.08 28.665 22.94 29.556 23 29.943H23.07L23.26 28.233C23.72 28.224 23.92 28.197 24.35 28.17L24.15 29.943H24.29L24.33 29.511L24.38 29.943H25.28L25.29 27.99C25.81 27.972 25.72 28.368 25.8 28.791C25.88 29.16 25.98 29.583 26.03 29.943H26.88L26.65 28.647L27.43 28.602L27.76 29.889L28.29 29.862C28.01 28.701 25.99 21.258 26.04 20.763L29.25 22.554C29.89 22.887 29.65 23.094 29.73 23.742C29.82 24.435 30.02 23.517 30.05 25.038L30.15 29.727H30.73L30.63 24.948C31.32 25.182 31.59 25.722 32.57 25.47C32.74 25.353 32.46 24.966 32.96 24.453C33.24 24.165 33.18 23.661 33.22 23.265L34.35 23.193C34.38 24.264 34.64 23.31 34.65 24.489C34.65 25.011 34.67 25.533 34.67 26.055C34.67 27.072 34.76 28.098 34.72 29.097C34.45 29.124 33.97 29.115 33.71 29.079C33.05 28.998 33.47 29.025 32.86 29.133C32.07 29.268 31.53 29.016 31.2 29.664C31.81 29.664 34.87 29.376 35.27 29.196C35.28 29.178 35.28 29.142 35.29 29.151L35.33 28.575C35.32 28.341 35.3 28.134 35.3 27.9C35.29 27.423 35.29 26.946 35.28 26.469L35.23 24.354C35.2 23.814 35.21 24.057 35.42 23.733C35.53 23.553 35.53 23.391 35.51 23.121C35.49 22.788 35.47 22.905 35.36 22.716C35.33 22.653 35.33 22.689 35.3 22.572C35.25 22.41 35.27 21.852 34.53 21.825C33.65 21.807 32.47 21.996 31.57 22.041C31.5 21.744 31.36 21.366 31.26 21.087C31.11 20.619 31.1 20.664 30.65 20.412C30.06 20.07 29.52 19.755 28.94 19.431L20.46 14.526C20 14.256 19.08 13.797 18.75 13.518C18.89 12.996 19.6 12.123 19.49 11.646C19.39 11.214 19.2 10.593 18.73 10.422C18.55 10.359 17.4 10.476 17.22 10.611L17.04 10.8C16.36 11.691 16.08 11.772 15.32 13.131C13.82 15.822 13.82 18.081 13.82 20.88C13.82 21.375 13.94 21.789 13.62 22.059Z" fill="#282829"/>
<path fill-rule="evenodd" clip-rule="evenodd" d="M24.09 69.102C40.31 70.11 45.58 44.964 45.74 44.091C33.65 40.356 17.52 40.095 3.69998 43.74C3.09998 43.902 9.22998 68.184 24.09 69.102Z" fill="#00AFEF"/>
<path d="M24.1601 68.139C29.2401 68.454 33.1901 65.952 36.2001 62.478C41.4401 56.421 43.8601 47.484 44.5001 44.748C38.7101 43.065 32.0401 42.174 25.1701 42.111C18.3401 42.057 11.3101 42.831 4.79007 44.469C4.90007 45.036 5.16007 46.035 5.57007 47.349C6.20007 49.383 7.19007 52.02 8.56007 54.738C11.7001 60.993 16.8501 67.689 24.1601 68.139ZM37.8901 63.666C34.4801 67.608 29.9401 70.443 24.0201 70.074C15.6701 69.552 10.0001 62.307 6.60007 55.53C5.18007 52.713 4.15007 49.977 3.50007 47.871C2.81007 45.666 2.53007 44.028 2.61007 43.623C2.70007 43.2 2.96007 42.93 3.40007 42.813C10.3501 40.977 17.8801 40.122 25.1901 40.185C32.6501 40.248 39.8901 41.265 46.0901 43.173L46.9501 43.443L46.8001 44.244C46.6901 44.838 44.3001 56.25 37.8901 63.666Z" fill="#FEFEFE"/>
<path fill-rule="evenodd" clip-rule="evenodd" d="M36.11 41.679L29.52 41.067L29.39 67.806L36.11 64.917V41.679ZM14.29 41.904L20.89 41.292L21.01 68.022L14.29 65.142V41.904Z" fill="#FEFEFE"/>
<path d="M21.74 64.548H22.2V66.654H21.97V64.755H21.6L21.74 64.548ZM23.57 66.708L23.38 66.591L24.01 65.736C23.93 65.754 23.85 65.772 23.77 65.772C23.59 65.772 23.43 65.709 23.3 65.592C23.17 65.466 23.11 65.322 23.11 65.142C23.11 65.025 23.14 64.908 23.2 64.818C23.26 64.719 23.35 64.638 23.47 64.584C23.58 64.521 23.71 64.494 23.84 64.494C23.97 64.494 24.09 64.521 24.2 64.575C24.31 64.638 24.39 64.71 24.46 64.818C24.52 64.917 24.55 65.025 24.55 65.142C24.55 65.223 24.53 65.313 24.49 65.412C24.45 65.502 24.38 65.619 24.28 65.754L23.57 66.708ZM23.83 65.583C23.97 65.583 24.08 65.538 24.18 65.457C24.27 65.367 24.32 65.268 24.32 65.142C24.32 65.016 24.27 64.917 24.18 64.827C24.08 64.746 23.97 64.701 23.83 64.701C23.69 64.701 23.58 64.746 23.48 64.827C23.38 64.917 23.34 65.016 23.34 65.142C23.34 65.268 23.38 65.367 23.48 65.457C23.58 65.538 23.69 65.583 23.83 65.583ZM25.95 64.494L26.14 64.602L25.51 65.466C25.6 65.439 25.68 65.43 25.75 65.43C25.94 65.43 26.09 65.493 26.22 65.61C26.35 65.736 26.42 65.88 26.42 66.06C26.42 66.177 26.39 66.285 26.32 66.384C26.26 66.483 26.17 66.564 26.06 66.618C25.94 66.681 25.82 66.708 25.68 66.708C25.56 66.708 25.44 66.681 25.33 66.627C25.22 66.564 25.13 66.492 25.07 66.384C25.01 66.285 24.97 66.177 24.97 66.06C24.97 65.979 24.99 65.889 25.03 65.79C25.07 65.7 25.14 65.583 25.24 65.448L25.95 64.494ZM25.69 65.619C25.56 65.619 25.44 65.655 25.35 65.745C25.25 65.835 25.2 65.934 25.2 66.06C25.2 66.177 25.25 66.285 25.35 66.375C25.44 66.456 25.56 66.501 25.69 66.501C25.83 66.501 25.95 66.456 26.04 66.375C26.14 66.285 26.19 66.177 26.19 66.06C26.19 65.934 26.14 65.835 26.04 65.745C25.95 65.655 25.83 65.619 25.69 65.619ZM26.66 65.601C26.66 65.322 26.7 65.106 26.76 64.953C26.83 64.8 26.92 64.692 27.05 64.611C27.17 64.53 27.3 64.494 27.45 64.494C27.6 64.494 27.74 64.53 27.86 64.611C27.99 64.692 28.08 64.809 28.16 64.962C28.23 65.124 28.26 65.331 28.26 65.601C28.26 65.862 28.23 66.078 28.16 66.231C28.09 66.393 27.99 66.51 27.86 66.591C27.74 66.663 27.6 66.708 27.45 66.708C27.3 66.708 27.17 66.672 27.05 66.591C26.93 66.51 26.83 66.402 26.77 66.249C26.7 66.087 26.66 65.88 26.66 65.601ZM26.89 65.601C26.89 65.844 26.91 66.024 26.96 66.141C27 66.267 27.07 66.357 27.17 66.42C27.26 66.483 27.36 66.519 27.46 66.519C27.56 66.519 27.66 66.483 27.75 66.42C27.84 66.366 27.91 66.267 27.96 66.15C28.01 65.997 28.04 65.817 28.04 65.601C28.04 65.394 28.02 65.223 27.97 65.088C27.91 64.953 27.84 64.854 27.75 64.791C27.66 64.728 27.56 64.692 27.46 64.692C27.36 64.692 27.26 64.728 27.17 64.791C27.07 64.854 27.01 64.944 26.96 65.061C26.91 65.187 26.89 65.367 26.89 65.601Z" fill="#FEFEFE" stroke="#FEFEFE" stroke-width="0.0762"/>
<path fill-rule="evenodd" clip-rule="evenodd" d="M24.73 30.42C26.43 30.42 27.96 31.041 29.08 32.049C30.19 33.048 30.88 34.434 30.88 35.955C30.88 37.476 30.19 38.862 29.08 39.861C27.96 40.86 26.43 41.481 24.73 41.481C23.04 41.481 21.51 40.86 20.39 39.861C19.28 38.862 18.59 37.476 18.59 35.955C18.59 34.434 19.28 33.048 20.39 32.049C21.51 31.041 23.04 30.42 24.73 30.42Z" fill="#00AFEF"/>
<path fill-rule="evenodd" clip-rule="evenodd" d="M25.58 31.482C25.32 31.761 25.06 32.031 24.8 32.301C24.61 32.481 24.42 32.67 24.22 32.85L25.36 34.749C25.82 34.839 26.28 34.929 26.75 35.019L27.89 35.244L29.08 33.885C28.95 33.552 28.78 33.246 28.59 32.949C28.36 32.598 28.08 32.265 27.79 31.932L25.58 31.482ZM23.5 36.531C23.74 37.116 23.93 37.719 24.07 38.349C24.11 38.529 24.15 38.709 24.18 38.889L26.53 39.375C26.86 39.204 27.17 38.997 27.45 38.763C27.87 38.412 28.24 37.998 28.56 37.512L27.76 35.397L26.71 35.19C26.25 35.1 25.79 35.019 25.34 34.929L23.5 36.531ZM26.71 40.662C26.82 40.671 26.92 40.671 27.02 40.671C27.34 40.671 27.61 40.662 27.7 40.653L27.73 40.824C27.63 40.842 27.35 40.851 27.02 40.842C26.82 40.842 26.6 40.842 26.39 40.833L24.3 41.265C24.3 41.319 24.3 41.382 24.29 41.436C24.23 41.436 24.16 41.427 24.1 41.418C24.1 41.328 24.11 41.238 24.11 41.148L22.85 40.23C21.75 40.041 21.07 39.618 20.45 39.177L19.9 39.267C19.14 38.349 18.68 37.206 18.67 35.973L18.7 35.856L19.72 36.828C20.08 36.522 20.43 36.216 20.77 35.91C20.93 35.766 21.08 35.622 21.23 35.478L21.52 33.453C21.3 33.219 21.05 33.012 20.81 32.814C20.74 32.751 20.66 32.688 20.59 32.625L19.47 33.255L19.49 33.219C19.76 32.805 20.09 32.418 20.47 32.085C20.75 31.824 21.06 31.599 21.4 31.392L20.7 32.481C20.78 32.544 20.86 32.616 20.95 32.688C21.18 32.877 21.42 33.084 21.64 33.309L24.03 32.778C24.24 32.58 24.45 32.382 24.65 32.184C24.91 31.923 25.16 31.653 25.42 31.383L24.39 30.483C24.8 30.456 25.2 30.474 25.6 30.519C26.53 30.636 27.43 30.942 28.21 31.419L27.92 31.806C28.23 32.139 28.51 32.49 28.76 32.859C28.98 33.201 29.17 33.57 29.31 33.957L30.42 35.055L30.73 34.983L30.79 35.136L30.46 35.217L30.23 37.449C30.25 37.539 30.27 37.62 30.29 37.701C30.32 37.845 30.35 37.989 30.38 38.142C30.33 38.232 30.28 38.331 30.23 38.421C30.19 38.187 30.15 37.962 30.09 37.737C30.08 37.665 30.06 37.602 30.05 37.53L28.73 37.602C28.4 38.106 28.02 38.529 27.59 38.889C27.3 39.123 27 39.33 26.68 39.501L26.71 40.662ZM20.49 38.979C21.1 39.42 21.75 39.843 22.81 40.041L24 39.015C23.97 38.799 23.93 38.592 23.88 38.385C23.73 37.719 23.53 37.089 23.27 36.477L21.23 35.73C21.12 35.829 21.02 35.928 20.91 36.027C20.55 36.351 20.19 36.675 19.82 36.99L20.49 38.979Z" fill="#FEFEFE"/>
<path d="M3.50001 28.791C3.99001 29.043 4.49001 29.295 4.98001 29.529C5.11001 30.816 5.32001 32.076 5.57001 33.3C5.83001 34.488 6.12001 35.622 6.43001 36.729C6.46001 35.658 6.50001 34.587 6.57001 33.516C6.64001 32.463 6.75001 31.419 6.92001 30.393C7.41001 30.6 7.91001 30.798 8.41001 30.978C8.20001 32.679 8.02001 34.416 8.00001 36.18C7.98001 37.953 8.15001 39.708 8.39001 41.418C7.88001 41.553 7.39001 41.706 6.89001 41.85C6.38001 40.914 5.92001 39.915 5.53001 38.844C5.12001 37.737 4.76001 36.567 4.46001 35.343C4.43001 36.549 4.46001 37.764 4.53001 38.961C4.61001 40.158 4.75001 41.337 4.96001 42.48C4.46001 42.66 3.96001 42.84 3.46001 43.02C3.11001 40.698 2.86001 38.304 2.89001 35.883C2.92001 33.48 3.18001 31.104 3.50001 28.791ZM9.46001 31.338C10.17 31.563 10.88 31.779 11.59 31.959C12.29 32.139 13.01 32.292 13.71 32.427C13.66 32.967 13.62 33.525 13.59 34.092C12.68 33.975 11.77 33.849 10.86 33.705C10.83 34.173 10.81 34.65 10.79 35.136C11.64 35.208 12.49 35.271 13.34 35.334C13.33 35.874 13.31 36.423 13.31 36.972C12.46 36.972 11.6 36.981 10.74 36.981C10.76 37.584 10.79 38.178 10.82 38.772C11.76 38.682 12.7 38.601 13.64 38.529C13.67 39.123 13.71 39.708 13.78 40.293C13.05 40.401 12.33 40.518 11.61 40.653C10.88 40.797 10.16 40.968 9.44001 41.139C9.23001 39.537 9.07001 37.89 9.09001 36.225C9.11001 34.578 9.27001 32.94 9.46001 31.338ZM14.65 32.58C15.31 32.661 15.96 32.742 16.61 32.787C17.27 32.841 17.92 32.85 18.58 32.868C18.58 33.372 18.58 33.885 18.58 34.389C17.78 34.38 16.98 34.353 16.19 34.317C16.18 34.74 16.17 35.163 16.16 35.595C16.85 35.604 17.53 35.613 18.22 35.622C18.22 36.099 18.22 36.585 18.22 37.062C17.53 37.062 16.84 37.062 16.15 37.071C16.16 37.566 16.16 38.061 16.18 38.565C16.19 39.06 16.21 39.555 16.24 40.041C15.71 40.077 15.17 40.131 14.64 40.185C14.55 38.934 14.48 37.656 14.49 36.378C14.5 35.1 14.57 33.831 14.65 32.58Z" fill="#ED3237"/>
<path d="M31.0801 32.859C31.7401 32.85 32.4001 32.841 33.0701 32.814C33.7301 32.787 34.4001 32.733 35.0601 32.679C35.1001 33.282 35.1201 33.894 35.1301 34.506C34.6801 34.533 34.2301 34.551 33.7701 34.56C33.7801 35.478 33.7901 36.396 33.7801 37.305C33.7701 38.214 33.7501 39.132 33.7201 40.032C33.2801 40.014 32.8501 39.996 32.4101 39.978C32.4201 39.087 32.4401 38.187 32.4401 37.296C32.4501 36.396 32.4401 35.496 32.4401 34.596C31.9801 34.605 31.5301 34.605 31.0801 34.614C31.0801 34.029 31.0801 33.444 31.0801 32.859ZM38.4401 37.134C38.8301 37.377 39.2101 37.629 39.5901 37.881C39.4901 38.547 39.3401 39.087 39.1401 39.501C38.9501 39.915 38.7201 40.203 38.4501 40.383C38.1901 40.554 37.8601 40.599 37.4901 40.545C37.0301 40.482 36.6601 40.311 36.3801 40.041C36.1101 39.762 35.8701 39.321 35.6801 38.709C35.5801 38.403 35.5101 38.052 35.4601 37.665C35.4201 37.287 35.4001 36.855 35.4001 36.387C35.4001 35.766 35.4401 35.208 35.5201 34.731C35.6101 34.245 35.7401 33.822 35.9201 33.471C36.2601 32.76 36.7501 32.364 37.4201 32.247C37.9601 32.157 38.4201 32.274 38.7601 32.634C39.1101 33.003 39.3701 33.642 39.5501 34.542C39.1601 34.758 38.7701 34.965 38.3801 35.163C38.3401 34.911 38.2801 34.731 38.2401 34.614C38.1601 34.425 38.0601 34.29 37.9501 34.2C37.8401 34.101 37.7201 34.065 37.5801 34.074C37.2801 34.101 37.0601 34.344 36.9101 34.803C36.7901 35.145 36.7401 35.658 36.7401 36.36C36.7401 37.233 36.8001 37.836 36.9301 38.16C37.0701 38.493 37.2601 38.673 37.5201 38.691C37.7801 38.709 37.9801 38.592 38.1201 38.322C38.2601 38.061 38.3701 37.665 38.4401 37.134ZM40.0701 31.824C40.5101 31.707 40.9501 31.572 41.3801 31.437C41.4601 31.986 41.5101 32.544 41.5401 33.111C41.5701 33.678 41.5801 34.245 41.6001 34.821C42.0901 34.749 42.5701 34.677 43.0601 34.605C43.0401 33.975 43.0301 33.345 42.9901 32.724C42.9601 32.112 42.9001 31.491 42.8201 30.888C43.2601 30.699 43.7001 30.483 44.1401 30.267C44.3301 32.184 44.4401 34.155 44.4401 36.126C44.4301 38.115 44.2901 40.077 44.1201 42.012C43.6801 41.85 43.2401 41.706 42.8101 41.562C42.8801 40.86 42.9301 40.149 42.9801 39.429C43.0201 38.709 43.0501 37.98 43.0801 37.251C42.5901 37.251 42.1001 37.242 41.6101 37.233C41.5901 37.899 41.5601 38.556 41.5201 39.213C41.4801 39.87 41.4401 40.518 41.3701 41.166C40.9401 41.058 40.5001 40.959 40.0601 40.86C40.1801 39.366 40.2801 37.854 40.2801 36.333C40.2801 34.812 40.2001 33.309 40.0701 31.824ZM45.0601 29.718C45.5001 29.421 45.9401 29.106 46.3801 28.755C46.6001 31.086 46.7301 33.462 46.7301 35.856C46.7201 38.25 46.5501 40.626 46.3601 42.966C45.9201 42.759 45.4801 42.561 45.0501 42.372C45.2201 40.293 45.3801 38.169 45.3801 36.036C45.3901 33.912 45.2601 31.797 45.0601 29.718Z" fill="#ED3237"/>
<path d="M12.8 60.795H13.27V61.551L13.93 60.795H14.5L13.64 61.776L14.58 63H14.03L13.27 62.019V63H12.8V60.795ZM16.07 60.741C16.42 60.741 16.72 60.849 16.97 61.074C17.22 61.299 17.34 61.578 17.34 61.902C17.34 62.226 17.22 62.496 16.97 62.721C16.72 62.946 16.42 63.054 16.07 63.054C15.71 63.054 15.4 62.946 15.16 62.712C14.91 62.487 14.79 62.208 14.79 61.893C14.79 61.686 14.85 61.488 14.96 61.317C15.07 61.137 15.23 60.993 15.43 60.894C15.63 60.786 15.84 60.741 16.07 60.741ZM16.07 61.146C15.84 61.146 15.65 61.218 15.49 61.362C15.34 61.506 15.26 61.686 15.26 61.902C15.26 62.145 15.36 62.343 15.55 62.487C15.7 62.595 15.88 62.649 16.07 62.649C16.3 62.649 16.48 62.577 16.64 62.433C16.8 62.289 16.87 62.109 16.87 61.902C16.87 61.695 16.79 61.515 16.64 61.371C16.48 61.218 16.29 61.146 16.07 61.146ZM20.04 61.182L19.71 61.461C19.49 61.254 19.24 61.146 18.96 61.146C18.72 61.146 18.53 61.218 18.36 61.362C18.2 61.506 18.12 61.686 18.12 61.893C18.12 62.046 18.16 62.172 18.23 62.289C18.3 62.397 18.4 62.487 18.53 62.559C18.66 62.622 18.81 62.649 18.97 62.649C19.1 62.649 19.23 62.631 19.34 62.586C19.45 62.541 19.57 62.46 19.71 62.334L20.03 62.631C19.84 62.793 19.67 62.901 19.51 62.964C19.35 63.027 19.17 63.054 18.96 63.054C18.58 63.054 18.27 62.946 18.02 62.73C17.78 62.514 17.66 62.235 17.66 61.893C17.66 61.677 17.71 61.479 17.82 61.308C17.93 61.137 18.09 61.002 18.3 60.894C18.51 60.786 18.73 60.741 18.97 60.741C19.17 60.741 19.36 60.777 19.55 60.849C19.74 60.93 19.9 61.038 20.04 61.182ZM20.44 60.795H20.92V61.623H21.74V60.795H22.21V63H21.74V62.037H20.92V63H20.44V60.795ZM22.77 60.795H23.24V61.551L23.91 60.795H24.47L23.61 61.776L24.55 63H24L23.24 62.019V63H22.77V60.795ZM26.05 60.741C26.39 60.741 26.69 60.849 26.94 61.074C27.19 61.299 27.32 61.578 27.32 61.902C27.32 62.226 27.19 62.496 26.95 62.721C26.7 62.946 26.4 63.054 26.05 63.054C25.68 63.054 25.38 62.946 25.13 62.712C24.89 62.487 24.77 62.208 24.77 61.893C24.77 61.686 24.82 61.488 24.94 61.317C25.05 61.137 25.21 60.993 25.4 60.894C25.6 60.786 25.82 60.741 26.05 60.741ZM26.04 61.146C25.81 61.146 25.62 61.218 25.47 61.362C25.31 61.506 25.24 61.686 25.24 61.902C25.24 62.145 25.33 62.343 25.53 62.487C25.68 62.595 25.85 62.649 26.05 62.649C26.27 62.649 26.46 62.577 26.61 62.433C26.77 62.289 26.85 62.109 26.85 61.902C26.85 61.695 26.77 61.515 26.61 61.371C26.46 61.218 26.27 61.146 26.04 61.146ZM27.79 60.795H28.28C28.55 60.795 28.75 60.813 28.86 60.858C28.98 60.903 29.07 60.975 29.14 61.074C29.21 61.173 29.24 61.299 29.24 61.434C29.24 61.578 29.21 61.704 29.13 61.794C29.05 61.893 28.94 61.965 28.78 62.019L29.36 63H28.85L28.3 62.064H28.25V63H27.79V60.795ZM28.25 61.659H28.4C28.55 61.659 28.65 61.641 28.71 61.605C28.76 61.569 28.79 61.515 28.79 61.434C28.79 61.38 28.78 61.344 28.75 61.308C28.72 61.272 28.69 61.245 28.64 61.227C28.59 61.209 28.51 61.2 28.38 61.2H28.25V61.659ZM29.75 62.001H30.6V62.379H29.75V62.001ZM31.92 60.795H32.39L33.34 63H32.85L32.66 62.55H31.66L31.46 63H30.97L31.92 60.795ZM32.16 61.38L31.83 62.136H32.48L32.16 61.38ZM33.46 60.795H34.81V61.209H34.37V63H33.89V61.209H33.46V60.795ZM35.88 60.795H36.35L37.3 63H36.81L36.62 62.55H35.62L35.42 63H34.94L35.88 60.795ZM36.12 61.38L35.79 62.136H36.45L36.12 61.38Z" fill="#ED3237"/>
<path fill-rule="evenodd" clip-rule="evenodd" d="M15.7 47.268C16.21 46.116 16.71 45.81 18.08 45.621L31.25 45.711C32.46 45.864 33.33 46.377 33.69 47.421C33.82 48.492 33.46 49.23 32.58 50.013H28.37L29.11 48.852L20.21 48.906L24.42 55.233H25.03L27.04 52.398L31.12 52.38L26.68 59.22C25.56 60.651 23.81 60.561 22.75 59.229L16.23 49.221C15.78 48.618 15.63 47.961 15.7 47.268Z" fill="#3C70B6"/>
<path fill-rule="evenodd" clip-rule="evenodd" d="M18.0601 55.233H31.3001L30.4701 56.7H19.0001L18.0601 55.233Z" fill="#ED3237"/>
<path d="M19.01 55.413H19.18V55.881C19.22 55.881 19.24 55.863 19.26 55.845C19.27 55.827 19.29 55.764 19.32 55.674C19.36 55.548 19.39 55.476 19.43 55.449C19.46 55.422 19.52 55.404 19.6 55.404C19.6 55.404 19.61 55.404 19.62 55.404V55.566H19.6C19.57 55.566 19.54 55.575 19.52 55.584C19.51 55.593 19.49 55.611 19.48 55.638C19.47 55.656 19.46 55.71 19.44 55.782C19.43 55.818 19.42 55.854 19.41 55.872C19.39 55.899 19.37 55.926 19.34 55.944C19.38 55.962 19.41 55.989 19.44 56.034C19.46 56.079 19.49 56.133 19.52 56.214L19.63 56.52H19.43L19.33 56.232C19.33 56.232 19.33 56.223 19.32 56.205C19.32 56.205 19.31 56.187 19.3 56.16C19.28 56.106 19.26 56.07 19.25 56.052C19.23 56.043 19.21 56.034 19.18 56.034V56.52H19.01V55.413ZM19.74 55.413H19.91V55.854H20.14C20.2 55.854 20.25 55.863 20.29 55.89C20.34 55.908 20.37 55.944 20.4 55.998C20.43 56.052 20.44 56.115 20.44 56.187C20.44 56.268 20.43 56.331 20.4 56.385C20.37 56.439 20.33 56.475 20.3 56.493C20.26 56.511 20.21 56.52 20.14 56.52H19.74V55.413ZM19.91 56.331H20.07C20.13 56.331 20.16 56.331 20.19 56.322C20.21 56.313 20.23 56.304 20.24 56.277C20.26 56.25 20.27 56.223 20.27 56.187C20.27 56.142 20.25 56.106 20.23 56.079C20.2 56.052 20.15 56.043 20.08 56.043H19.91V56.331ZM20.54 55.413H20.71V56.52H20.54V55.413ZM20.89 56.52V55.413H21.17C21.27 55.413 21.34 55.413 21.37 55.431C21.42 55.44 21.46 55.476 21.49 55.539C21.53 55.593 21.54 55.665 21.54 55.755C21.54 55.818 21.53 55.881 21.51 55.926C21.5 55.971 21.47 56.007 21.44 56.034C21.41 56.061 21.38 56.079 21.35 56.088C21.31 56.097 21.25 56.097 21.18 56.097H21.06V56.52H20.89ZM21.06 55.602V55.908H21.16C21.23 55.908 21.27 55.908 21.29 55.899C21.32 55.881 21.33 55.863 21.35 55.845C21.36 55.818 21.37 55.791 21.37 55.755C21.37 55.71 21.36 55.683 21.34 55.656C21.32 55.629 21.3 55.611 21.27 55.602C21.25 55.602 21.21 55.602 21.15 55.602H21.06ZM21.69 55.413H22.27V55.593H21.86V56.52H21.69V55.413ZM22.36 55.413H22.53V55.854H22.76C22.82 55.854 22.87 55.863 22.92 55.89C22.96 55.908 23 55.944 23.03 55.998C23.06 56.052 23.07 56.115 23.07 56.187C23.07 56.268 23.05 56.331 23.02 56.385C22.99 56.439 22.96 56.475 22.92 56.493C22.89 56.511 22.83 56.52 22.76 56.52H22.36V55.413ZM22.53 56.331H22.7C22.75 56.331 22.79 56.331 22.81 56.322C22.83 56.313 22.85 56.304 22.87 56.277C22.88 56.25 22.89 56.223 22.89 56.187C22.89 56.142 22.88 56.106 22.85 56.079C22.83 56.052 22.78 56.043 22.71 56.043H22.53V56.331ZM23.17 55.413H23.34V56.52H23.17V55.413ZM23.64 55.71L23.47 55.665C23.51 55.485 23.61 55.395 23.78 55.395C23.88 55.395 23.95 55.422 24 55.476C24.06 55.53 24.08 55.602 24.08 55.683C24.08 55.728 24.07 55.782 24.05 55.818C24.02 55.863 23.99 55.899 23.94 55.935C24 55.962 24.04 55.998 24.07 56.043C24.1 56.088 24.11 56.142 24.11 56.214C24.11 56.313 24.08 56.385 24.03 56.448C23.97 56.511 23.89 56.538 23.78 56.538C23.69 56.538 23.62 56.52 23.57 56.484C23.52 56.439 23.48 56.367 23.46 56.268L23.61 56.196C23.63 56.259 23.65 56.304 23.68 56.322C23.71 56.349 23.74 56.358 23.78 56.358C23.83 56.358 23.87 56.34 23.9 56.313C23.92 56.277 23.93 56.241 23.93 56.205C23.93 56.16 23.92 56.124 23.89 56.097C23.86 56.07 23.82 56.052 23.77 56.052H23.73V55.89H23.75C23.8 55.89 23.84 55.872 23.87 55.836C23.89 55.809 23.91 55.764 23.91 55.719C23.91 55.674 23.9 55.647 23.87 55.611C23.85 55.584 23.82 55.575 23.78 55.575C23.71 55.575 23.66 55.62 23.64 55.71ZM24.26 56.52V55.413H24.43V55.845H24.77V55.413H24.94V56.52H24.77V56.034H24.43V56.52H24.26ZM25.12 56.52V55.413H25.75V55.602H25.29V55.845H25.72V56.034H25.29V56.331H25.76V56.52H25.12ZM26.41 56.394V56.52H26.25V56.394C26.11 56.385 26.01 56.34 25.96 56.259C25.9 56.178 25.88 56.079 25.88 55.953C25.88 55.827 25.9 55.728 25.96 55.647C26.02 55.566 26.12 55.53 26.25 55.521V55.413H26.41V55.521C26.55 55.53 26.64 55.566 26.7 55.647C26.76 55.728 26.79 55.836 26.79 55.953C26.79 56.079 26.76 56.178 26.7 56.259C26.65 56.34 26.55 56.385 26.41 56.394ZM26.41 56.205C26.46 56.205 26.5 56.196 26.53 56.178C26.56 56.151 26.59 56.124 26.6 56.097C26.61 56.061 26.62 56.016 26.62 55.944C26.62 55.791 26.55 55.71 26.41 55.71V56.205ZM26.25 56.205V55.71C26.17 55.71 26.12 55.728 26.09 55.773C26.06 55.809 26.04 55.881 26.04 55.962C26.04 56.124 26.11 56.205 26.25 56.205ZM27.07 56.52V55.602H26.82V55.413H27.49V55.602H27.24V56.52H27.07ZM27.6 56.52V55.413H28.23V55.602H27.77V55.845H28.2V56.034H27.77V56.331H28.25V56.52H27.6ZM28.4 55.413H28.98V55.593H28.57V56.52H28.4V55.413ZM29.76 56.52H29.57L29.5 56.268H29.16L29.09 56.52H28.91L29.24 55.413H29.42L29.76 56.52ZM29.44 56.079L29.33 55.665L29.21 56.079H29.44ZM29.97 55.71L29.8 55.665C29.84 55.485 29.94 55.395 30.11 55.395C30.21 55.395 30.28 55.422 30.34 55.476C30.39 55.53 30.41 55.602 30.41 55.683C30.41 55.728 30.4 55.782 30.38 55.818C30.35 55.863 30.32 55.899 30.27 55.935C30.33 55.962 30.37 55.998 30.4 56.043C30.43 56.088 30.44 56.142 30.44 56.214C30.44 56.313 30.41 56.385 30.36 56.448C30.31 56.511 30.22 56.538 30.11 56.538C30.03 56.538 29.96 56.52 29.9 56.484C29.85 56.439 29.81 56.367 29.79 56.268L29.95 56.196C29.96 56.259 29.98 56.304 30.01 56.322C30.04 56.349 30.07 56.358 30.11 56.358C30.16 56.358 30.2 56.34 30.23 56.313C30.25 56.277 30.26 56.241 30.26 56.205C30.26 56.16 30.25 56.124 30.22 56.097C30.19 56.07 30.15 56.052 30.1 56.052H30.06V55.89H30.08C30.13 55.89 30.17 55.872 30.2 55.836C30.23 55.809 30.24 55.764 30.24 55.719C30.24 55.674 30.23 55.647 30.21 55.611C30.18 55.584 30.15 55.575 30.11 55.575C30.04 55.575 29.99 55.62 29.97 55.71Z" fill="#FEFEFE"/>
<path fill-rule="evenodd" clip-rule="evenodd" d="M24.68 43.353L28.3 54.126L21.12 54.135L24.68 43.353Z" fill="#FEFEFE"/>
<path d="M24.9801 43.272L28.7201 54.414H20.7001L24.6701 42.372L24.9801 43.272ZM27.8701 53.847L24.6801 44.343L21.5401 53.856L27.8701 53.847Z" fill="#373435"/>
<path fill-rule="evenodd" clip-rule="evenodd" d="M25.31 47.205C24.93 49.095 25.16 49.554 26.4 50.805C27.3 51.867 26.44 53.64 24.87 53.595C20.65 53.442 24.19 48.465 25.31 47.205Z" fill="url(#paint0_linear)"/>
<path d="M25.3201 47.205C25.1301 48.15 25.0901 48.735 25.2601 49.239C25.4201 49.752 25.7801 50.175 26.4001 50.796C26.6701 51.111 26.7901 51.489 26.7701 51.867C26.7601 52.137 26.6801 52.407 26.5501 52.65C26.4201 52.893 26.2301 53.109 25.9901 53.271C25.6901 53.487 25.3101 53.613 24.8701 53.595C24.3901 53.577 24.0101 53.496 23.7201 53.37C23.1601 53.118 22.9101 52.695 22.8601 52.173C22.8101 51.66 22.9701 51.039 23.2401 50.427C23.7901 49.113 24.8001 47.772 25.3101 47.205L25.3201 47.187V47.205ZM25.2401 49.248C25.0801 48.744 25.1201 48.159 25.3001 47.223C24.7901 47.808 23.7901 49.131 23.2501 50.427C22.9801 51.048 22.8301 51.66 22.8701 52.173C22.9201 52.695 23.1701 53.118 23.7201 53.361C24.0201 53.487 24.3901 53.568 24.8701 53.586C25.3001 53.595 25.6801 53.478 25.9801 53.271C26.2201 53.1 26.4101 52.893 26.5401 52.65C26.6701 52.407 26.7501 52.137 26.7601 51.867C26.7701 51.498 26.6601 51.12 26.3901 50.805C25.7701 50.184 25.4101 49.752 25.2401 49.248Z" fill="#FFF212"/>
<path fill-rule="evenodd" clip-rule="evenodd" d="M23.52 51.372C23.69 50.211 24.29 49.221 24.99 48.195C24.79 49.455 24.85 49.977 25.38 50.517C26.02 51.174 26.6 51.948 25.55 53.181L25.31 53.262L25.33 52.983C25.36 51.903 25.09 51.147 24.61 50.508C24.57 50.967 24.27 51.327 24.18 51.723C24.06 52.209 24.1 52.569 24.37 53.019L24.58 53.244C24.36 53.199 24.16 53.118 23.97 52.992C23.61 52.713 23.4 52.164 23.52 51.372Z" fill="url(#paint1_linear)"/>
</g>
<defs>
<linearGradient id="paint0_linear" x1="25.3014" y1="53.5451" x2="25.3014" y2="47.2037" gradientUnits="userSpaceOnUse">
<stop stop-color="#F3A43C"/>
<stop offset="0.239216" stop-color="#FFF464"/>
<stop offset="1" stop-color="#FFF212"/>
</linearGradient>
<linearGradient id="paint1_linear" x1="24.6814" y1="53.0255" x2="24.6814" y2="48.1901" gradientUnits="userSpaceOnUse">
<stop stop-color="#ED3237"/>
<stop offset="0.509804" stop-color="#B9393E"/>
<stop offset="1" stop-color="#AF3A3F"/>
</linearGradient>
<clipPath id="clip0">
<rect width="49.5" height="72" fill="white"/>
</clipPath>
</defs>
</svg>
