<svg width="124" height="78" viewBox="0 0 124 78" fill="none" xmlns="http://www.w3.org/2000/svg">
<path d="M61.5144 67.757L49.5879 59.0921L61.5144 77.6661L73.4398 59.0921L61.5144 67.757Z" fill="white"/>
<path d="M69.0533 21.2854L75.7484 11.9506L91.9156 0L91.3307 8.34179L79.553 14.0487L71.4141 23.3678L66.3186 33.5026L66.5348 34.5317L72.9406 28.0671L76.4367 38.8289L61.5149 49.6722L46.5906 38.8289L50.0868 28.0671L56.4926 34.5317L56.7098 33.5026L51.6143 23.3678L43.4744 14.0487L31.6977 8.34179L31.1118 0L47.279 11.9506L53.9741 21.2854H69.0533Z" fill="white"/>
<path d="M78.59 11.6392C78.5876 11.5783 78.565 11.5378 78.5244 11.5033L78.59 11.6392Z" fill="#FEFEFE"/>
<path d="M72.2711 11.8421C72.1955 11.8734 72.1152 11.968 71.7822 12.5399L72.2711 11.8421Z" fill="#FEFEFE"/>
<path d="M123.028 17.2405L109.018 2.32816L95.4242 13.9738L83.7871 20.7135L86.0615 24.6393L98.0591 17.6909L108.679 8.59233L117.704 18.1998L111.578 32.7891L100.197 46.4606L88.9834 44.5882L101.287 51.9707L115.498 35.1717L123.028 17.2405Z" fill="white"/>
<path d="M0 17.2405L14.0102 2.32816L27.6037 13.9738L39.2408 20.7135L36.9661 24.6393L24.9688 17.6909L14.3489 8.59233L5.32357 18.1998L11.4499 32.7891L22.831 46.4606L34.0442 44.5882L21.7406 51.9707L7.52987 35.1717L0 17.2405Z" fill="white"/>
<path d="M85.2143 35.5285C85.1639 35.4985 85.0941 35.489 85.0376 35.5033C84.992 35.5166 84.9539 35.5322 84.8912 35.6017C84.9971 35.3869 85.0955 35.1826 85.1843 34.9964C85.7065 33.8965 85.7426 33.7559 85.5387 33.6333C85.488 33.6024 85.4233 33.5939 85.3658 33.6082C85.2276 33.6442 85.1962 33.6528 83.9064 35.9115C85.3188 33.0328 85.3103 33.0294 85.0836 32.8926C85.0328 32.8623 84.9668 32.8528 84.9093 32.8684C84.7867 32.8997 84.7302 32.914 83.695 34.6856C83.7791 34.5198 83.856 34.3625 83.9282 34.2158C84.4504 33.1496 84.5045 33.0053 84.2945 32.8793C84.2427 32.8493 84.1756 32.8395 84.1178 32.8541C84.0745 32.866 84.0361 32.8817 83.9762 32.9477C84.1297 32.6451 84.2716 32.3605 84.3952 32.1082C84.9682 30.9471 85.0053 30.8136 84.7976 30.6887C84.7459 30.6587 84.6822 30.6502 84.6257 30.6648C84.4807 30.7019 84.4527 30.7091 82.7176 33.7321C82.5961 33.9408 82.4725 34.1569 82.3465 34.3755C82.368 34.3299 82.3884 34.2856 82.4088 34.2424C83.5881 31.6902 83.5881 31.6902 83.3685 31.5581C83.3168 31.5271 83.2497 31.5186 83.1908 31.5343C83.0768 31.5642 83.0155 31.6122 82.4868 32.5443C82.6526 32.1756 82.8088 31.826 82.9338 31.5377C83.2854 30.7248 83.3481 30.5784 83.1476 30.4568C83.0958 30.4259 83.0311 30.4173 82.9733 30.4316C82.9001 30.4511 82.8545 30.463 82.6393 30.8003C82.7476 30.5879 82.8473 30.3884 82.9372 30.207C83.4645 29.1418 83.5234 29.0002 83.3096 28.8728C83.2592 28.8415 83.1932 28.832 83.1367 28.8476C83.0383 28.8728 82.9927 28.8848 82.5556 29.632C82.6516 29.4339 82.7414 29.2463 82.8245 29.0723C83.3491 27.9663 83.3828 27.839 83.1799 27.7174C83.1295 27.6865 83.0587 27.6766 83.0008 27.6922C82.8892 27.7225 82.8099 27.7835 82.3295 28.6049C82.3874 28.4776 82.4436 28.3554 82.4943 28.2424C82.8858 27.3705 82.9518 27.2024 82.7452 27.0774C82.6934 27.0475 82.6274 27.0379 82.5699 27.0536C82.4378 27.087 82.3465 27.1748 81.4049 28.8068C82.1062 27.3345 82.0725 27.314 81.8914 27.2048C81.841 27.1748 81.7746 27.1663 81.7171 27.1806C81.6548 27.1976 81.615 27.2085 81.489 27.3934C81.7532 26.8589 82.003 26.3486 82.2012 25.9319C82.7489 24.7826 82.7775 24.6791 82.5746 24.5579C82.5242 24.5266 82.4568 24.5181 82.4003 24.5328C82.291 24.5613 82.242 24.5736 81.5598 25.7409C81.6211 25.616 81.6776 25.4958 81.7314 25.3828C82.2097 24.368 82.2648 24.2145 82.0572 24.0895C82.0065 24.0596 81.9418 24.05 81.8853 24.0643C81.7627 24.0967 81.7171 24.1086 80.6049 26.0194C80.6914 25.8417 80.7755 25.6725 80.8514 25.5139C81.4648 24.242 81.4771 24.129 81.2739 24.0078C81.2225 23.9765 81.154 23.9683 81.0975 23.9826C81.0158 24.0044 80.9532 24.0415 80.7217 24.4136C81.6116 22.5545 81.5622 22.5246 81.3664 22.4071C81.3147 22.3758 81.2487 22.3673 81.1911 22.383C81.0686 22.4153 81.0349 22.4238 80.2039 23.89C80.4538 23.3641 80.6938 22.8538 80.879 22.4504C81.1721 21.8042 81.2824 21.5401 81.2487 21.3971L80.2148 22.3207C80.1535 22.4248 80.0875 22.5379 80.0153 22.6652C80.0657 22.562 80.115 22.4633 80.162 22.3673L77.7984 24.4749C77.7215 24.6325 77.6473 24.7836 77.5799 24.9229C77.0444 26.0303 77.007 26.1709 77.2136 26.2958C77.264 26.3258 77.33 26.3339 77.3852 26.3196C77.5224 26.2849 77.5533 26.2754 78.8936 23.9418C78.6465 24.4463 78.4122 24.9276 78.2189 25.3338C77.6194 26.5985 77.6088 26.6883 77.8104 26.8085C77.8607 26.8398 77.9295 26.848 77.9847 26.8337C78.1144 26.8 78.161 26.7867 79.2071 24.9651C78.9971 25.407 78.799 25.8274 78.6417 26.1756C78.2151 27.1173 78.1624 27.2769 78.3666 27.3995C78.417 27.4294 78.4865 27.439 78.5443 27.4233C78.6536 27.3957 78.7339 27.3345 79.201 26.5406C79.0162 26.9249 78.8456 27.2793 78.7064 27.5782C78.3173 28.4116 78.2356 28.5859 78.447 28.7118C78.4973 28.7421 78.5634 28.7516 78.6213 28.736C78.6883 28.7179 78.7305 28.707 78.8984 28.4453C77.7167 30.7932 77.7338 30.8027 77.9462 30.9314C77.9966 30.9613 78.0616 30.9709 78.1191 30.9552C78.2597 30.9191 78.2883 30.912 79.9445 28.0395C79.7453 28.4442 79.5649 28.8177 79.4161 29.1299C79.0138 29.9789 78.9406 30.1328 79.1496 30.2577C79.2 30.2887 79.2647 30.2972 79.3225 30.2829C79.4366 30.2529 79.475 30.242 80.2795 28.849C80.0047 29.4073 79.7416 29.9418 79.535 30.3741C78.991 31.5186 78.9634 31.6208 79.1663 31.7419C79.2167 31.7733 79.2851 31.7814 79.3416 31.7671C79.4172 31.7467 79.4761 31.7144 79.6599 31.4284C79.0162 32.7915 79.056 32.8156 79.2337 32.9225C79.2851 32.9525 79.3488 32.961 79.4066 32.9464C79.5496 32.9093 79.5724 32.9031 81.0219 30.3585C81.0277 30.3489 81.0339 30.3394 81.0373 30.3295C80.8333 30.768 80.6424 31.1738 80.4946 31.503C80.1583 32.2475 80.0885 32.4013 80.2917 32.5239C80.3421 32.5539 80.4092 32.5634 80.467 32.5491C80.5511 32.5263 80.5944 32.514 80.8667 32.0636C80.689 32.4218 80.5293 32.752 80.3925 33.0352C79.9721 33.9203 79.8955 34.079 80.1055 34.2049C80.1573 34.2362 80.2257 34.2458 80.2832 34.2305C80.336 34.2158 80.3816 34.1944 80.4728 34.0779C80.3768 34.2676 80.2856 34.4476 80.2039 34.6145C79.6323 35.7746 79.5976 35.8924 79.8053 36.0173C79.857 36.0487 79.9241 36.0568 79.9819 36.0425C80.1236 36.0054 80.1654 35.9945 81.5431 33.5697C80.5906 35.681 80.6063 35.6895 80.8116 35.8131C80.8619 35.8444 80.9331 35.8539 80.9893 35.8383C81.0866 35.8121 81.1721 35.7385 81.4505 35.2752C81.3246 35.5537 81.2054 35.8168 81.1023 36.0511C80.6737 37.0274 80.6243 37.1751 80.8272 37.2963C80.8776 37.3276 80.9426 37.3358 81.0002 37.3215C81.1118 37.2926 81.1636 37.2796 81.9922 35.8625C81.8601 36.1242 81.7365 36.3693 81.6296 36.5879C81.0951 37.6698 81.0396 37.8151 81.251 37.9425C81.3028 37.9738 81.3702 37.9819 81.4264 37.9676C81.4829 37.952 81.5213 37.9425 81.6296 37.7899C81.4999 38.0456 81.3808 38.287 81.2752 38.5021C80.7503 39.5734 80.6951 39.7174 80.9065 39.8434C80.9569 39.8747 81.0206 39.8832 81.0781 39.8686C81.2201 39.8315 81.2381 39.8267 82.9324 36.8807C82.9566 36.8398 82.9804 36.7979 83.0046 36.7547C82.7176 37.3443 82.4402 37.9125 82.2226 38.3758C81.68 39.5302 81.6476 39.6466 81.8516 39.7692C81.9019 39.7991 81.9707 39.8087 82.0269 39.7944C82.1566 39.7593 82.2553 39.6657 83.1714 38.0817C83.0189 38.3915 82.8796 38.6774 82.7595 38.9249C82.3537 39.7739 82.2696 39.9503 82.481 40.0776C82.5157 40.0994 82.5579 40.1089 82.5988 40.1089C82.6192 40.1089 82.6369 40.1076 82.6563 40.1028C82.7956 40.0657 82.8255 40.0572 83.952 38.047C84.4119 37.2255 85.0366 36.1133 85.2024 35.9115C85.2385 35.8938 85.2684 35.8659 85.2888 35.8301C85.3525 35.7266 85.3188 35.5911 85.2143 35.5285Z" fill="#CFB54B"/>
<path d="M52.0359 13.4829C52.49 12.2206 52.472 12.205 52.3025 12.1028C52.2511 12.0719 52.1837 12.062 52.1261 12.0776C52.0288 12.1042 51.9614 12.1508 51.5688 12.815L52.0359 13.4829Z" fill="#CFB54B"/>
<path d="M71.5784 11.8713C71.528 11.8413 71.4582 11.8318 71.4017 11.8461C71.2733 11.8808 71.2002 11.9459 70.5166 13.155C70.6092 12.9293 70.6967 12.7179 70.7678 12.5365C71.0007 11.9506 71.0691 11.7739 70.8771 11.6589C70.8264 11.6276 70.7569 11.619 70.7004 11.6337C70.5493 11.6745 70.4686 11.761 69.3411 13.7821C69.2846 13.8842 69.2243 13.9898 69.1658 14.0956C69.705 12.4756 69.7013 12.4718 69.5164 12.3625C69.466 12.3312 69.3962 12.3217 69.3387 12.3373C69.2162 12.3711 69.1511 12.4395 68.7273 13.2092C69.115 12.1692 69.0912 12.1535 68.9268 12.0551C68.8751 12.0238 68.81 12.0153 68.7525 12.0299C68.6517 12.0562 68.6133 12.067 68.1411 12.8824C68.3011 12.5293 68.4512 12.1944 68.5734 11.9135C68.9411 11.0727 69.0058 10.9215 68.8019 10.799C68.7525 10.769 68.6888 10.7591 68.6313 10.7748C68.4917 10.8109 68.4703 10.817 67.0507 13.2885C67.0146 13.3522 66.9775 13.4168 66.9404 13.4819C67.7414 11.5867 67.7391 11.5853 67.5419 11.4665C67.4916 11.4366 67.4255 11.427 67.3676 11.4427C67.2202 11.4798 67.1899 11.4883 65.5399 14.3728C65.48 14.4773 65.4187 14.5855 65.3551 14.6948C65.5903 14.1665 65.8221 13.6402 65.9964 13.2333C66.3351 12.4333 66.4046 12.2676 66.2041 12.1464C66.1523 12.1164 66.0839 12.1069 66.0264 12.1222C65.8882 12.1596 65.8368 12.2134 65.0344 13.6728C64.9935 13.7484 64.9493 13.8277 64.9047 13.9081C64.9084 13.8962 64.9118 13.8853 64.9156 13.8733C65.384 12.3516 65.384 12.3516 65.2049 12.2448C65.1545 12.2134 65.0861 12.2053 65.0282 12.2209C64.8985 12.2556 64.8447 12.305 64.1816 13.4975C64.6225 12.1906 64.6034 12.1787 64.4315 12.0756C64.3811 12.0456 64.3113 12.0357 64.2548 12.0504C64.1203 12.0865 64.0471 12.1549 63.209 13.633C64.0124 11.7464 64.0039 11.7416 63.8071 11.6228C63.7564 11.5928 63.6893 11.583 63.6318 11.5976C63.5008 11.6323 63.418 11.7103 62.5605 13.2116C62.7671 12.7625 62.9629 12.3302 63.1178 11.9772C63.514 11.075 63.5631 10.9215 63.3625 10.8013C63.3122 10.77 63.2475 10.7615 63.191 10.7762C63.0517 10.8122 63.0228 10.8204 61.577 13.3317C61.7448 12.9797 61.8974 12.6556 62.026 12.3792C62.3828 11.6024 62.4669 11.4175 62.2565 11.2912C62.2061 11.2613 62.1401 11.2517 62.0836 11.2674C61.9382 11.3045 61.8987 11.314 60.3613 14.0017C60.5115 13.6861 60.6473 13.393 60.7627 13.1418C61.1133 12.3734 61.1865 12.2134 60.9813 12.0899C60.9309 12.0599 60.8625 12.0504 60.8046 12.066C60.6592 12.1042 60.5979 12.1702 59.5627 14.0221C59.5171 14.1038 59.4705 14.1903 59.4211 14.2768C59.9845 12.6434 59.9821 12.6424 59.7983 12.5317C59.7479 12.5018 59.6805 12.4922 59.623 12.5079C59.48 12.5464 59.4163 12.61 58.4665 14.3091C59.2928 12.3288 59.2904 12.3265 59.0933 12.2087C59.0415 12.1777 58.9707 12.1692 58.9118 12.1848C58.8025 12.2134 58.7185 12.2941 58.3848 12.8718C59.031 11.2769 59.0139 11.2674 58.8315 11.1568C58.7811 11.1268 58.7161 11.1183 58.6585 11.1326C58.5193 11.1687 58.4941 11.1758 57.0698 13.6619C57.2114 13.363 57.3435 13.0819 57.4517 12.8442C57.8058 12.067 57.8732 11.8979 57.6689 11.7753C57.6185 11.7453 57.5511 11.7355 57.495 11.7511C57.3905 11.7787 57.3448 11.791 56.8008 12.7251C56.9173 12.4827 57.0228 12.258 57.114 12.0599C57.4623 11.3093 57.544 11.1316 57.3411 11.009C57.2907 10.9777 57.2247 10.9695 57.1682 10.9838C57.0252 11.0209 56.9809 11.0332 55.3561 13.8492C55.5433 13.4458 55.72 13.0614 55.865 12.7336C56.3229 11.7031 56.3528 11.5724 56.1547 11.4533C56.104 11.4223 56.0393 11.4138 55.9828 11.4281C55.8545 11.4618 55.8146 11.4713 54.6773 13.4396C54.7988 13.1816 54.9139 12.9379 55.015 12.7169C55.5157 11.6252 55.5457 11.5002 55.3428 11.379C55.2911 11.3477 55.225 11.3392 55.1675 11.3539C55.0269 11.391 54.9452 11.4713 53.898 13.3099C54.0577 12.9498 54.2092 12.6076 54.328 12.3265C54.6439 11.583 54.7099 11.4281 54.5118 11.3093C54.4601 11.2779 54.3903 11.2698 54.3351 11.2854C54.1935 11.3225 54.1213 11.392 53.2386 12.9654C53.3707 12.6533 53.4946 12.3554 53.5954 12.1055C53.8895 11.3814 53.9498 11.2313 53.7551 11.1149C53.7047 11.0836 53.6373 11.074 53.5797 11.0893C53.4286 11.1292 53.3408 11.2276 52.0522 13.5057L52.3321 13.9033C52.3559 13.8601 52.3811 13.8158 52.4063 13.7699C52.4281 13.7341 52.4485 13.6967 52.4699 13.6596C52.4291 13.7569 52.3896 13.8482 52.3525 13.9346L52.8233 14.6059C52.8533 14.5518 52.8856 14.4977 52.9179 14.4388C52.8894 14.5014 52.8628 14.5637 52.8362 14.625L53.289 15.2711C53.337 15.187 53.3888 15.0982 53.4429 15.0008C53.3935 15.103 53.3479 15.1993 53.3037 15.2929L53.7489 15.9292C53.9474 15.5884 54.1888 15.1714 54.4829 14.6587C54.5057 14.6179 54.5299 14.577 54.5527 14.5351C54.5404 14.5603 54.5309 14.5842 54.519 14.6083C54.2715 15.139 54.0362 15.6446 53.8439 16.065L54.2476 16.6413C54.4781 16.2536 54.8168 15.6674 55.3319 14.7741C55.2117 15.025 55.1001 15.2616 55.0027 15.474C54.568 16.417 54.519 16.561 54.7219 16.6822C54.7722 16.7125 54.8383 16.722 54.8948 16.7064C55.0027 16.6774 55.0449 16.6665 55.6573 15.6088C55.5818 15.7719 55.5096 15.9258 55.4449 16.0674C55.0868 16.8565 55.0102 17.0485 55.2165 17.1724C55.2672 17.2024 55.3343 17.2119 55.3908 17.1976C55.5409 17.1578 55.5804 17.1482 57.3374 14.0786C57.4299 13.9176 57.5259 13.7498 57.6223 13.5816C56.8618 15.455 56.874 15.4621 57.0684 15.5785C57.1188 15.6099 57.1876 15.6184 57.2427 15.6027C57.3435 15.5751 57.3952 15.5377 57.7098 14.9842C57.5872 15.282 57.4708 15.5656 57.3748 15.808C57.0708 16.5729 57.0071 16.7316 57.2042 16.8504C57.2546 16.8803 57.3244 16.8902 57.3819 16.8756C57.5321 16.8347 57.6019 16.7568 58.7113 14.7693C58.7739 14.6577 58.841 14.5399 58.907 14.4197C58.3498 16.0374 58.3573 16.0422 58.5408 16.1515C58.5925 16.1814 58.6585 16.191 58.7161 16.1756C58.7811 16.1586 58.8277 16.1372 58.9493 15.9571C58.8723 16.1225 58.7991 16.2802 58.7355 16.4242C58.3464 17.2779 58.2803 17.4437 58.4856 17.5673C58.5374 17.5976 58.602 17.6058 58.6599 17.5915C58.7991 17.5544 58.84 17.5445 60.2572 15.0682C60.1346 15.3276 60.0192 15.5728 59.9208 15.7889C59.5099 16.6859 59.4585 16.8385 59.6614 16.961C59.7118 16.991 59.7765 17.0005 59.8344 16.9848C59.9797 16.9477 60.0097 16.9392 61.7258 13.9527L61.7751 13.8686C61.5048 14.4521 61.2359 15.0407 61.0388 15.4873C60.6715 16.3244 60.6078 16.4854 60.8117 16.608C60.8625 16.639 60.9285 16.6475 60.986 16.6318C61.1253 16.5957 61.1542 16.5886 62.4151 14.3574C62.426 14.338 62.4379 14.319 62.4475 14.2985C62.2892 14.6744 62.1363 15.0359 62.0151 15.3372C61.6958 16.1225 61.6431 16.275 61.8388 16.3918C61.8892 16.4228 61.9539 16.4313 62.0117 16.417C62.1472 16.3796 62.169 16.3748 63.2199 14.5062C63.3421 14.29 63.4756 14.0524 63.609 13.8182C63.5991 13.8434 63.592 13.8686 63.5835 13.8938C63.0756 15.3865 63.0756 15.3865 63.2533 15.4945C63.3037 15.5248 63.3724 15.5329 63.4299 15.5186C63.5658 15.4815 63.61 15.4345 64.3954 14.0163C64.4076 13.9935 64.4206 13.9693 64.4352 13.9455C63.9787 15.4308 63.9859 15.4359 64.1625 15.5425C64.2143 15.5738 64.2851 15.5833 64.3426 15.5666C64.4134 15.5486 64.471 15.5101 64.5973 15.3229C64.4111 15.7433 64.2347 16.1467 64.0965 16.4722C63.7625 17.2551 63.6941 17.4185 63.8936 17.5387C63.944 17.5687 64.0087 17.5782 64.0665 17.5625C64.2129 17.5254 64.2476 17.5159 65.9208 14.5903C66.0131 14.4282 66.1091 14.2611 66.2054 14.0929C66.0768 14.4007 65.9542 14.6958 65.8534 14.9481C65.5484 15.7072 65.4919 15.873 65.6853 15.9894C65.7356 16.0194 65.7993 16.0279 65.8558 16.0133C65.9855 15.9799 66.0131 15.9738 67.1552 13.986C66.186 16.1202 66.1993 16.1287 66.4036 16.2512C66.455 16.2825 66.521 16.2907 66.5789 16.2764C66.7144 16.2403 66.7433 16.2332 67.8711 14.2407C67.4493 15.3671 67.4722 15.3794 67.6427 15.4815C67.6945 15.5125 67.7666 15.5224 67.8242 15.5067C67.9658 15.4682 68.057 15.3576 68.6347 14.2996C68.1353 15.7985 68.1435 15.8019 68.3225 15.9101C68.3729 15.9414 68.4413 15.9496 68.4979 15.9353C68.6361 15.8982 68.6912 15.8427 69.5906 14.2349C68.9615 15.7481 68.9843 15.7613 69.1729 15.8754C69.2243 15.9053 69.2917 15.9149 69.3482 15.8992C69.4875 15.8621 69.5379 15.808 70.4866 14.1052C70.4962 14.0895 70.5037 14.0739 70.5118 14.0596C70.4158 14.3091 70.3341 14.5242 70.2633 14.7091L71.3033 13.2248C71.7728 11.9891 71.7465 11.9721 71.5784 11.8713Z" fill="#CFB54B"/>
<path d="M51.4118 12.5913C51.5115 12.3043 51.5081 12.1927 51.3699 12.111C51.3195 12.08 51.2545 12.0701 51.197 12.0858C51.1622 12.0943 51.1357 12.1028 51.0962 12.1399L51.4118 12.5913Z" fill="#CFB54B"/>
<path d="M86.8959 43.3389C86.9116 43.3437 86.9262 43.3471 86.9415 43.3484C86.9262 43.3471 86.9116 43.3437 86.8959 43.3389ZM87.0773 42.9413C87.0256 42.9113 86.9643 42.9028 86.9068 42.9171C86.8697 42.928 86.8421 42.9376 86.8118 42.9679C86.9476 42.205 86.9357 42.1978 86.8013 42.1161C86.7495 42.0862 86.6835 42.0766 86.6259 42.0923C86.5909 42.1004 86.5647 42.109 86.5272 42.1413C86.6413 41.8771 86.7471 41.6262 86.8322 41.4172C87.0916 40.7881 87.1543 40.638 86.9633 40.5239C86.9129 40.4936 86.8469 40.4841 86.789 40.4998C86.6678 40.5321 86.6283 40.5416 85.7252 42.1199C85.9148 41.7284 86.0915 41.3573 86.2344 41.0475C86.6474 40.1515 86.7049 39.9833 86.4996 39.8598C86.4493 39.8295 86.3771 39.8199 86.3209 39.8356C86.2031 39.8656 86.0687 40.0099 85.5451 40.8913C85.8872 40.239 86.2018 39.6388 86.4554 39.1404C87.1471 37.7798 87.1614 37.6834 86.9524 37.5575C86.902 37.5275 86.836 37.5176 86.7784 37.5323C86.6773 37.5585 86.579 37.6392 86.0121 38.5733C87.0763 36.6244 87.0076 36.5822 86.8142 36.4657C86.7628 36.4358 86.6882 36.4262 86.6307 36.4405C86.4421 36.4909 86.1238 36.9304 84.6191 39.551C86.7049 35.7825 86.6511 35.7512 86.4132 35.6082C86.358 35.5748 86.2906 35.565 86.227 35.582C86.0445 35.631 85.701 36.1018 84.6814 37.8434C84.7488 37.7137 84.8064 37.597 84.8557 37.4948C85.0501 37.0904 85.1907 36.7983 84.9636 36.6615C84.9133 36.6315 84.8377 36.622 84.7798 36.6363C84.5204 36.7047 84.003 37.5166 80.6113 43.4768C80.5681 43.5503 80.5262 43.6245 80.4843 43.6991C80.7005 43.2991 80.902 42.9233 81.0763 42.5917C81.9012 41.0233 81.8845 40.943 81.6755 40.8167C81.6251 40.7867 81.5553 40.7772 81.4978 40.7915C81.2935 40.8456 81.0161 41.2671 78.535 45.6256C78.499 45.6889 78.4619 45.7525 78.4244 45.8162C80.4853 41.8666 80.4578 41.8509 80.2127 41.7042C80.1623 41.6732 80.0901 41.6633 80.0339 41.679C79.8212 41.7345 79.5151 42.2002 76.9773 46.6666C76.6484 47.2467 76.2978 47.8662 75.9553 48.4644C76.0023 48.3707 76.0489 48.2782 76.0959 48.1869C76.5463 47.3008 77.0133 46.3844 77.3436 45.7035C77.9213 44.5158 77.9611 44.3813 77.7497 44.254C77.6993 44.224 77.6281 44.2142 77.5706 44.2298C77.3616 44.2839 77.0362 44.7799 74.3233 49.5381C74.1793 49.7913 74.0316 50.0497 73.8825 50.3115C73.8838 50.3078 73.8862 50.3054 73.8872 50.302C76.4322 45.5197 76.4213 45.5136 76.1596 45.3553C76.1078 45.3253 76.0407 45.3154 75.9829 45.3301C75.7956 45.3791 75.6108 45.6218 72.66 50.7571C72.5592 50.9335 72.4547 51.1136 72.3502 51.295C72.899 50.2802 73.4106 49.3267 73.795 48.5883C74.5252 47.183 74.5408 47.0833 74.3257 46.9549C74.2705 46.9212 74.2055 46.9127 74.1418 46.9297C73.9727 46.9753 73.7636 47.2371 72.7199 49.0662C72.8053 48.9028 72.8847 48.7479 72.9589 48.6026C73.671 47.2048 73.6867 47.105 73.4753 46.9787C73.4249 46.9478 73.3531 46.9393 73.2952 46.9536C73.1056 47.0039 72.8571 47.3559 71.1264 50.4099C71.19 50.2887 71.2513 50.1709 71.3088 50.0593C71.9948 48.7204 72.0091 48.6026 71.7977 48.4753C71.7473 48.4453 71.6717 48.4358 71.6152 48.4501C71.4518 48.4933 71.2094 48.8055 70.2089 50.5287C70.2208 50.5059 70.2317 50.4844 70.2436 50.4627C70.4911 49.9861 70.6688 49.6317 70.7853 49.3794C70.951 49.0216 71.0603 48.785 70.8537 48.6601C70.8023 48.6302 70.7338 48.6206 70.6773 48.6363C70.5211 48.6758 70.2964 48.9713 68.9262 51.3192C69.0583 51.0645 69.1641 50.8542 69.2458 50.6839C69.4368 50.2826 69.5628 50.0174 69.3429 49.8853C69.2925 49.854 69.2169 49.8445 69.1594 49.8598C68.9299 49.92 68.6093 50.4027 66.2048 54.6853C65.9767 55.0925 65.7378 55.5176 65.4998 55.9415C65.8927 55.1646 66.2841 54.3888 66.5773 53.7869C67.1682 52.5716 67.204 52.448 66.9939 52.3217C66.9388 52.2894 66.8714 52.2799 66.8077 52.2965C66.6818 52.3302 66.5041 52.5345 66.0847 53.2143C66.5293 52.3159 66.4847 52.2342 66.3141 52.1321C66.2637 52.1022 66.1929 52.0926 66.1364 52.1069C65.9298 52.161 65.6428 52.5934 63.2891 56.7245C63.1556 56.9563 63.0212 57.1929 62.8867 57.4285C63.1437 56.8831 63.3899 56.3548 63.5832 55.9282C64.0397 54.9182 64.0853 54.7827 63.8835 54.6615C63.8331 54.6302 63.7623 54.6216 63.7044 54.6359C63.5447 54.6792 63.3936 54.8776 62.3018 56.8109C62.5265 56.351 62.7379 55.9153 62.9109 55.5439C63.4668 54.3612 63.4991 54.241 63.2949 54.1185C63.2445 54.0872 63.1774 54.079 63.1209 54.0933C62.9694 54.1328 62.9299 54.1437 61.0229 57.4727C60.9916 57.5279 60.9578 57.5833 60.9269 57.6395C61.078 57.3216 61.2186 57.0199 61.3327 56.769C61.6595 56.0473 61.7483 55.8526 61.5393 55.7267C61.4876 55.6964 61.4205 55.6868 61.3616 55.7025C61.2751 55.7253 61.2258 55.7529 61.0001 56.1338C61.6115 54.653 61.5778 54.6312 61.3963 54.5233C61.3459 54.4919 61.2809 54.4834 61.2247 54.4981C61.0961 54.5318 61.0733 54.5376 59.9815 56.4422C60.9051 54.462 60.8966 54.4559 60.695 54.3347C60.6433 54.3033 60.5773 54.2952 60.5197 54.3105C60.3829 54.3466 60.3502 54.3551 59.2418 56.3187C59.9083 54.5699 59.8998 54.5641 59.715 54.4535C59.6632 54.4222 59.5961 54.414 59.5386 54.4283C59.4123 54.463 59.3476 54.5209 58.6688 55.7192C59.3476 53.9479 59.3378 53.9418 59.1505 53.8302C59.1002 53.8002 59.0365 53.7907 58.98 53.805C58.8479 53.84 58.8346 53.8434 57.7167 55.7985C57.6697 55.8802 57.6207 55.9656 57.5713 56.0521C58.2848 54.2182 58.2702 54.2097 58.0734 54.0909C58.0217 54.061 57.9519 54.0511 57.8957 54.0667C57.797 54.0933 57.7347 54.1328 57.4188 54.6768C57.8957 53.4002 57.8654 53.3835 57.6939 53.279C57.6435 53.2491 57.575 53.2395 57.5185 53.2548C57.3888 53.2899 57.3371 53.3365 56.6191 54.6206C57.3395 52.7867 57.3313 52.782 57.1352 52.6642C57.0848 52.6329 57.0188 52.6244 56.9613 52.64C56.8482 52.669 56.8111 52.6785 56.1769 53.7859C56.3042 53.4952 56.4234 53.2215 56.5228 52.9859C56.8377 52.239 56.9119 52.0613 56.7104 51.9401C56.6586 51.9088 56.595 51.9003 56.5374 51.9159C56.3979 51.9507 56.374 51.9578 55.1441 54.1185C55.1287 54.145 55.1131 54.1726 55.0974 54.1988C55.7749 52.4599 55.7674 52.4552 55.573 52.3387C55.5213 52.3074 55.4542 52.2989 55.3963 52.3146C55.2761 52.3459 55.2152 52.3963 54.6048 53.4737C54.7359 53.1636 54.8571 52.8695 54.9582 52.621C55.2404 51.9207 55.3146 51.7321 55.1155 51.6119C55.0651 51.581 55.0001 51.5725 54.9449 51.5867C54.8309 51.617 54.8033 51.6242 54.1221 52.8058C54.7948 51.2589 54.7754 51.247 54.5895 51.1364C54.5378 51.1054 54.4717 51.0959 54.4142 51.1112C54.2903 51.1449 54.2566 51.1534 53.4498 52.5787C54.1548 50.7871 54.1391 50.7776 53.9458 50.6608C53.8954 50.6308 53.8293 50.6213 53.7715 50.637C53.6479 50.6693 53.6166 50.6778 52.8275 52.0685C53.6237 50.0977 53.619 50.0953 53.4246 49.9776C53.3728 49.9462 53.3068 49.9381 53.2493 49.9537C53.123 49.9871 53.093 49.9946 52.2416 51.5054C52.8901 49.9333 52.8707 49.921 52.6858 49.8094C52.6341 49.7794 52.5647 49.7699 52.5068 49.7856C52.3641 49.824 52.3053 49.8839 51.4767 51.3886C51.4668 51.4043 51.4586 51.4199 51.4487 51.4356C51.8116 50.1229 51.8069 50.1192 51.635 50.0174C51.5846 49.9861 51.5185 49.9765 51.461 49.9922C51.3984 50.0089 51.3613 50.0184 51.2448 50.1903C51.4392 49.7675 51.623 49.3638 51.7708 49.0312C52.1599 48.1498 52.2188 47.9997 52.0169 47.8785C51.9652 47.8472 51.9005 47.8387 51.844 47.8533C51.7337 47.8819 51.6952 47.8928 51.0249 49.054C51.7541 47.5074 51.7323 47.4928 51.5437 47.3801C51.4933 47.3498 51.431 47.3416 51.3732 47.3559C51.2339 47.392 51.2159 47.3968 49.7963 49.8625C49.7905 49.8754 49.782 49.8887 49.7735 49.902C49.9151 49.5728 50.0438 49.2691 50.1459 49.0193C50.3883 48.4283 50.452 48.27 50.2624 48.1546C50.2106 48.1246 50.1412 48.1151 50.0833 48.1304C49.9887 48.157 49.9236 48.2073 49.7003 48.5917C50.3907 46.848 50.3849 46.8443 50.195 46.7316C50.1446 46.7013 50.0799 46.6918 50.022 46.7074C49.8852 46.7435 49.86 46.7496 48.8343 48.576C48.7996 48.6387 48.7635 48.7023 48.7277 48.7684C49.2922 47.1963 49.2799 47.1891 49.0964 47.0799C49.0457 47.0485 48.9796 47.04 48.9235 47.0547C48.7996 47.087 48.7672 47.0955 47.9339 48.5655C48.0527 48.2904 48.1657 48.0296 48.2569 47.8087C48.5439 47.1207 48.6123 46.9573 48.4166 46.8395C48.3662 46.8082 48.3025 46.8 48.2447 46.8143C48.1534 46.8385 48.1197 46.8467 47.7344 47.5013C47.941 47.0799 48.132 46.6907 48.2879 46.3605C48.7468 45.3924 48.7972 45.264 48.5919 45.1401C48.5415 45.1102 48.4779 45.1006 48.42 45.1163C48.2903 45.151 48.276 45.1547 47.2959 46.8851C47.2516 46.9645 47.2047 47.0462 47.158 47.1302C47.636 45.8907 47.6156 45.8788 47.4402 45.7743C47.3898 45.743 47.3238 45.7348 47.2649 45.7491C47.1362 45.7839 47.0882 45.8295 46.3832 47.088C46.8302 45.7743 46.8121 45.7648 46.6402 45.6613C46.5899 45.6313 46.5262 45.6218 46.4687 45.6375C46.339 45.6712 46.3257 45.6746 45.4634 47.2096C45.431 47.2671 45.3973 47.326 45.3626 47.3883C45.891 45.9496 45.8872 45.9473 45.7085 45.8404C45.6567 45.809 45.5859 45.7995 45.5284 45.8162C45.4419 45.8404 45.3807 45.8907 45.2363 46.1311C45.5917 45.1139 45.5679 45.0982 45.4045 45.0009C45.3541 44.9709 45.2881 44.9614 45.2316 44.977C45.1631 44.9937 45.1223 45.0046 44.9493 45.2712C45.1594 44.8327 45.3579 44.415 45.5151 44.0739C45.9304 43.1779 46.004 43.0159 45.795 42.8896C45.7446 42.8596 45.6819 42.8511 45.6244 42.8657C45.4862 42.9018 45.4719 42.9052 43.9478 45.5425C43.8447 45.7202 43.7388 45.904 43.6333 46.0889C43.7436 45.8237 43.8481 45.5724 43.9335 45.3648C44.1725 44.7714 44.2361 44.6118 44.0462 44.4977C43.9948 44.4664 43.926 44.4582 43.8685 44.4736C43.7711 44.5001 43.7112 44.5495 43.459 44.9852C43.9213 43.6834 43.9032 43.6725 43.7279 43.567C43.6765 43.537 43.6091 43.5272 43.5516 43.5428C43.4327 43.5742 43.364 43.6317 42.7311 44.7391C43.639 42.6601 43.6333 42.6567 43.429 42.5342C43.3773 42.5028 43.3136 42.4933 43.2561 42.509C43.1478 42.5365 43.1097 42.5474 42.4384 43.6991C42.6171 43.3267 42.7842 42.975 42.9187 42.6805C43.3245 41.8005 43.3929 41.631 43.1863 41.505C43.1349 41.4751 43.0688 41.4652 43.011 41.4809C42.8755 41.5156 42.838 41.5265 41.6959 43.5323C42.1235 42.3878 42.0983 42.3731 41.9277 42.27C41.8763 42.2387 41.8089 42.2302 41.75 42.2448C41.6601 42.27 41.607 42.3095 41.3956 42.6771C41.9315 41.2419 41.9168 41.2334 41.7344 41.1231C41.684 41.0931 41.6193 41.0846 41.5614 41.0989C41.4341 41.1326 41.3956 41.1422 40.2716 43.0948C40.3556 42.9113 40.435 42.737 40.5058 42.5774C40.8768 41.7464 40.948 41.5663 40.74 41.4414C40.6896 41.4124 40.6259 41.4029 40.567 41.4172C40.5551 41.421 40.5442 41.4233 40.5347 41.4268C40.5361 41.4233 40.5384 41.4186 40.5408 41.4138C40.9119 40.6822 41.2612 39.9919 41.5148 39.4707C41.9434 38.5903 42.0213 38.4317 41.8076 38.3044C41.7572 38.273 41.6887 38.2635 41.6336 38.2792C41.5975 38.2887 41.5638 38.302 41.5172 38.349C41.7694 37.8782 41.9985 37.4458 42.1895 37.0771C42.8285 35.8519 42.8574 35.7583 42.646 35.631C42.5956 35.6 42.5258 35.5902 42.4693 35.6058C42.3624 35.6324 42.2627 35.7117 41.7453 36.5641C41.9529 36.1849 42.1453 35.8315 42.3158 35.5112C42.5824 35.0128 42.772 34.6441 42.8959 34.382C43.0699 34.0157 43.1853 33.7733 42.9725 33.646C42.9221 33.6147 42.8489 33.6051 42.7914 33.6208C42.7359 33.6351 42.6797 33.6725 42.5847 33.789C42.8921 33.2388 43.1781 32.7224 43.4242 32.2673C43.7606 31.6453 44.0006 31.1816 44.1568 30.8538C44.3754 30.3925 44.4881 30.1246 44.2695 29.9925C44.2191 29.9626 44.1483 29.953 44.0908 29.9673C44.003 29.9902 43.8842 30.1045 43.5744 30.5787C45.3013 27.4863 45.1931 27.4213 44.9711 27.2868C44.9146 27.2535 44.8472 27.245 44.7825 27.2616C44.756 27.2688 44.727 27.2834 44.6937 27.3096C45.2016 26.4269 45.6135 25.7066 45.9437 25.1132L43.7364 23.1439C42.2869 25.6994 40.7832 28.3319 39.766 29.9867C40.7076 28.2693 42.245 25.631 43.715 23.1244L42.3985 21.95C40.9813 24.5536 41.0668 24.6063 41.2806 24.735C41.331 24.765 41.4041 24.7745 41.4617 24.7602C41.4859 24.753 41.5134 24.7408 41.5434 24.717C39.2077 28.7401 39.2796 28.7833 39.527 28.9321C39.5822 28.9648 39.6472 28.9743 39.7095 28.9573C39.7674 28.943 39.8453 28.8783 39.9631 28.734C38.2001 31.8601 38.3178 31.9309 38.5374 32.063C38.5963 32.0991 38.6671 32.1076 38.7356 32.0896C38.822 32.0667 38.9493 31.9513 39.1322 31.7209C37.4916 34.6152 37.5948 34.6775 37.8096 34.8072C37.8675 34.8409 37.9359 34.8504 38.0043 34.8324C38.0894 34.8096 38.2144 34.6969 38.3948 34.4661C36.2641 38.1699 36.359 38.2274 36.5943 38.368C36.6521 38.4028 36.7206 38.4126 36.7876 38.3946C34.9984 41.5336 35.0127 41.7944 35.2578 41.9408C35.3081 41.9721 35.3813 41.9816 35.4379 41.966C35.5832 41.9289 35.8882 41.5336 36.6726 40.2536C36.4925 40.5839 36.3447 40.8623 36.227 41.0979C35.8307 41.8819 35.7476 42.1307 35.9723 42.2639C36.0288 42.2976 36.0935 42.3071 36.1596 42.289C36.2712 42.2605 36.4418 42.0766 36.7819 41.5602C36.7601 41.5987 36.7386 41.6371 36.7182 41.6756C36.2654 42.4862 35.9424 43.0877 35.7296 43.5129C35.4018 44.1675 35.3071 44.4089 35.5281 44.541C35.5784 44.5709 35.6479 44.5818 35.7058 44.5662C35.911 44.5134 36.2893 43.9622 38.8244 39.5752C38.6324 39.9197 38.4533 40.2465 38.2903 40.5478C37.9444 41.1891 37.6969 41.6657 37.5359 42.0058C37.3139 42.479 37.1972 42.7527 37.4205 42.8872C37.476 42.9195 37.542 42.9294 37.6067 42.9124C37.6789 42.8933 37.7701 42.8153 37.9131 42.6254C36.8251 44.6717 36.9126 44.7248 37.1097 44.8436C37.1611 44.8749 37.2285 44.8845 37.285 44.8688C37.4219 44.8327 37.5311 44.7258 38.6457 42.8021C37.9672 44.1314 37.9924 44.2107 38.1881 44.3285C38.2385 44.3595 38.3032 44.368 38.3611 44.3537C38.468 44.3248 38.5051 44.3153 39.1631 43.1789C39.0828 43.3437 39.0048 43.501 38.9327 43.6497C38.3321 44.894 38.3226 45.0046 38.5269 45.1282C38.5773 45.1582 38.6433 45.1667 38.7008 45.1524C38.7621 45.1367 38.8016 45.1258 38.9207 44.9529C38.791 45.229 38.6743 45.4836 38.5773 45.7035C38.2624 46.4024 38.1881 46.5682 38.3897 46.6894C38.4404 46.7193 38.5051 46.7292 38.5616 46.7146C38.7022 46.6775 38.7274 46.6713 40.2116 44.0797C40.387 43.7747 40.5742 43.4482 40.7556 43.1333C40.1289 44.8123 40.1347 44.816 40.3281 44.9325C40.3798 44.9638 40.4482 44.9719 40.5058 44.9566C40.5922 44.9338 40.6525 44.8906 40.8302 44.5961C40.4326 45.6627 40.4544 45.6759 40.6198 45.7743C40.6705 45.8056 40.7342 45.8152 40.7904 45.7995C40.871 45.7791 40.9071 45.7682 41.1556 45.3563C40.9827 45.7178 40.8207 46.0603 40.6872 46.3496C40.2562 47.2885 40.2069 47.4315 40.4111 47.5541C40.4615 47.5854 40.5262 47.5939 40.5841 47.5793C40.7148 47.5445 40.739 47.5384 41.9519 45.4247C41.0368 47.5217 41.063 47.5374 41.2683 47.6599C41.319 47.6909 41.3851 47.6994 41.4402 47.6851C41.5747 47.649 41.5941 47.6429 42.5967 45.8656C42.6688 45.7396 42.7434 45.6051 42.8213 45.4679C42.2654 47.0267 42.2712 47.0305 42.4574 47.1422C42.5092 47.1721 42.5752 47.182 42.6327 47.1663C42.6641 47.1578 42.6879 47.1493 42.7182 47.1255C42.6208 47.3583 42.5306 47.5769 42.4537 47.7631C42.2099 48.3684 42.1453 48.5318 42.3362 48.6468C42.3853 48.6771 42.4503 48.6867 42.5078 48.671C42.629 48.6397 42.6641 48.6315 43.7425 46.7735C43.5468 47.183 43.364 47.5697 43.2138 47.8965C42.7505 48.9004 42.7036 49.0359 42.9064 49.1575C42.9582 49.1885 43.0219 49.197 43.0794 49.1827C43.2104 49.1476 43.2247 49.1442 44.259 47.327C44.3332 47.1973 44.4115 47.0594 44.4908 46.9188C44.0343 48.2073 44.0452 48.2135 44.2205 48.318C44.2719 48.3493 44.343 48.3588 44.4016 48.3432C44.469 48.3238 44.5241 48.2867 44.6144 48.1546C44.2072 49.2739 44.2361 49.2906 44.4006 49.3903C44.451 49.4203 44.5194 49.4302 44.5773 49.4155C44.7175 49.377 44.7859 49.3076 45.7408 47.6092C45.2772 48.9736 45.2833 48.9774 45.4539 49.0805C45.5042 49.1119 45.5716 49.12 45.6292 49.1057C45.7395 49.0758 45.7756 49.0662 46.2944 48.1461C45.8848 49.215 45.909 49.2293 46.0758 49.329C46.1262 49.3604 46.1922 49.3689 46.2501 49.3542C46.2886 49.3437 46.3172 49.3362 46.3628 49.2919C46.1708 49.6834 45.9907 50.0545 45.8406 50.3704C45.3408 51.4261 45.2904 51.5687 45.4995 51.6936C45.5498 51.7239 45.6149 51.7335 45.6724 51.7188C45.7984 51.6855 45.8382 51.6756 46.9119 49.8094C46.7941 50.0797 46.6859 50.333 46.596 50.5468C46.3162 51.217 46.2487 51.3757 46.4435 51.4931C46.4938 51.5231 46.5609 51.533 46.6188 51.5183C46.7618 51.4799 46.7951 51.4703 48.0285 49.2882C48.0693 49.2174 48.1092 49.1442 48.151 49.072C47.5771 50.6693 47.5805 50.6717 47.7619 50.781C47.8137 50.8123 47.8807 50.8208 47.9386 50.8062C48.0731 50.7704 48.1367 50.7102 48.9881 49.1993C48.3059 50.9277 48.3287 50.9406 48.5197 51.055C48.5701 51.086 48.6413 51.0945 48.6974 51.0802C48.7407 51.0679 48.7791 51.0499 48.8285 50.9961C48.7396 51.2062 48.6556 51.4043 48.5858 51.5786C48.3131 52.2485 48.2399 52.4286 48.4394 52.5478C48.4898 52.5787 48.5534 52.5886 48.6099 52.573C48.7226 52.544 48.7553 52.5355 49.5093 51.2375C49.4709 51.3216 49.4338 51.4043 49.3977 51.4836C48.9749 52.4181 48.9282 52.5597 49.1298 52.6822C49.1815 52.7122 49.2452 52.7217 49.3027 52.7061C49.4218 52.6751 49.4576 52.6666 50.2719 51.2494C50.0605 51.7083 49.859 52.1502 49.7017 52.5045C49.3378 53.3294 49.2608 53.5013 49.4661 53.6249C49.5178 53.6548 49.5839 53.6644 49.6414 53.649C49.7725 53.614 49.7963 53.6082 50.7379 51.935C50.8111 51.8043 50.8918 51.6627 50.9708 51.5197C50.5939 52.8875 50.5973 52.8899 50.7716 52.9944C50.823 53.0244 50.8904 53.0339 50.947 53.0186C51.0406 52.9944 51.0923 52.9597 51.3419 52.5284C50.7294 54.013 50.7475 54.0235 50.9276 54.1318C50.9793 54.1628 51.0453 54.1726 51.1029 54.157C51.2377 54.1222 51.3061 54.0535 52.1694 52.526C51.413 54.4031 51.4273 54.4116 51.6217 54.529C51.6724 54.5593 51.7384 54.5689 51.7946 54.5532C51.9219 54.5209 51.9485 54.5137 52.8298 52.9573C52.0673 54.8906 52.0687 54.8906 52.262 55.0073C52.3134 55.0383 52.3795 55.0479 52.4373 55.0325C52.5405 55.0046 52.579 54.9951 53.045 54.1869C52.9633 54.3755 52.8887 54.5532 52.8217 54.7119C52.5296 55.4165 52.4588 55.5837 52.6569 55.7025C52.7076 55.7338 52.7723 55.7423 52.8288 55.7277C52.9476 55.6964 52.9742 55.6892 53.7967 54.2553C53.6203 54.6734 53.4555 55.0625 53.3306 55.3733C53.0702 56.017 53.0089 56.1696 53.2009 56.285C53.2516 56.3163 53.3187 56.3245 53.3766 56.3091C53.5134 56.273 53.5723 56.2142 54.4574 54.6336C53.8052 56.3078 53.8184 56.3149 54.0118 56.4303C54.0622 56.4616 54.1269 56.4712 54.1847 56.4555C54.3073 56.4232 54.3373 56.416 55.2091 54.8896C55.0409 55.2725 54.8847 55.6269 54.7611 55.92C54.4778 56.5876 54.4019 56.7677 54.5977 56.8855C54.6481 56.9168 54.7141 56.925 54.772 56.9107C54.9064 56.8746 54.933 56.8688 56.0125 54.9627C55.2761 56.8385 55.2836 56.8433 55.4818 56.9624C55.5322 56.9924 55.6006 57.0009 55.6571 56.9862C55.7939 56.9491 55.8515 56.894 56.6573 55.4516C56.0724 56.9985 56.0761 56.9995 56.2586 57.1102C56.3104 57.1401 56.375 57.1496 56.4339 57.134C56.5398 57.1054 56.5674 57.0979 56.9803 56.3605C56.2862 58.143 56.2923 58.1464 56.4867 58.2628C56.5384 58.2942 56.6011 58.3027 56.6586 58.288C56.7968 58.2523 56.822 58.2462 58.0625 56.0773C57.3432 57.9554 57.349 57.9592 57.54 58.0742C57.5907 58.1045 57.6554 58.1127 57.7129 58.0984C57.8392 58.0647 57.862 58.0589 58.6317 56.6836C57.9519 58.4633 57.9594 58.4671 58.1442 58.5788C58.196 58.6087 58.2607 58.6186 58.3182 58.6029C58.4036 58.5801 58.4469 58.5702 58.7315 58.0947C58.6702 58.2281 58.6113 58.3565 58.5572 58.478C58.1371 59.4244 58.0901 59.567 58.292 59.6885C58.3424 59.7199 58.407 59.728 58.4649 59.7137C58.6079 59.6766 58.6426 59.6667 60.1497 57.0332C59.3786 58.8742 59.381 58.8766 59.5757 58.993C59.6275 59.0244 59.6969 59.0329 59.7534 59.0172C59.7667 59.0135 59.78 59.0101 59.7929 59.005C59.6309 59.3461 59.4797 59.6705 59.3558 59.9432C58.9994 60.7343 58.9224 60.9267 59.1291 61.0502C59.1795 61.0802 59.2465 61.0901 59.302 61.0754C59.4498 61.0359 59.493 61.0251 61.2738 57.917C59.8004 60.9291 59.8038 60.9314 60.0333 61.0696C60.085 61.0996 60.1544 61.1091 60.2123 61.0948C60.3958 61.0455 60.582 60.7765 62.1 58.0695C60.8642 60.6911 60.8714 60.6948 61.0913 60.8269C61.1417 60.8569 61.2077 60.8654 61.2656 60.8511C61.3926 60.8174 61.4852 60.7319 62.3846 59.183C62.2287 59.4734 62.0843 59.745 61.9536 59.9912C61.2656 61.3001 61.2172 61.4492 61.4324 61.5789C61.4671 61.599 61.5127 61.6099 61.556 61.6099C61.5764 61.6099 61.5968 61.6075 61.6149 61.6028C61.83 61.5462 62.1 61.1404 64.2641 57.2756C64.485 56.8807 64.7168 56.4664 64.95 56.0545C64.9463 56.0627 64.9415 56.0712 64.9378 56.0797C64.5068 56.9287 64.0612 57.8067 63.7453 58.4576C63.1761 59.6235 63.1485 59.727 63.3538 59.8519C63.4093 59.8843 63.4753 59.8938 63.54 59.8771C63.6254 59.853 63.731 59.7617 63.9461 59.4496C63.8113 59.7042 63.7058 59.9119 63.6264 60.0776C63.4464 60.4521 63.3276 60.701 63.5413 60.8283C63.5917 60.8593 63.6601 60.8691 63.7167 60.8535C63.9267 60.7993 64.293 60.2359 67.4082 54.8188L67.4372 54.7718C65.667 58.0599 65.7041 58.0828 65.9407 58.2244C65.991 58.2547 66.0619 58.2642 66.1197 58.2499C66.3107 58.1992 66.5677 57.8295 68.4302 54.5437C68.3066 54.7765 68.1926 54.9975 68.0891 55.198C67.43 56.4807 67.4154 56.5937 67.6234 56.7187C67.6738 56.7496 67.7507 56.7595 67.8069 56.7439C68.0101 56.6908 68.3247 56.2417 69.9686 53.3488C69.8389 53.5983 69.7163 53.8349 69.607 54.0501C68.901 55.4346 68.8867 55.5333 69.0967 55.6593C69.1471 55.6906 69.223 55.7001 69.2806 55.6845C69.4079 55.6497 69.558 55.4925 70.0768 54.623C69.139 56.4313 69.2156 56.4773 69.4065 56.5924C69.4569 56.6223 69.5257 56.6322 69.5832 56.6176C69.7861 56.5648 70.1235 56.0497 72.9289 51.1701C70.7972 55.1861 70.8346 55.2089 71.0784 55.3556C71.1287 55.3866 71.2009 55.3965 71.2584 55.3808C71.4818 55.3229 71.8504 54.7622 74.7053 49.7556C75.0007 49.2378 75.3129 48.689 75.6217 48.1508C75.1819 49.0145 74.7366 49.8925 74.4111 50.5614C73.7936 51.8319 73.7817 51.9449 73.9859 52.0674C74.0363 52.0974 74.1095 52.1069 74.166 52.0926C74.387 52.0337 74.7291 51.5149 77.3606 46.8841C77.4133 46.7891 77.4675 46.6942 77.5216 46.5982C75.367 50.7234 75.3766 50.7296 75.6288 50.8807C75.6792 50.9107 75.7514 50.9202 75.8089 50.9059C75.9601 50.8664 76.1619 50.6152 77.1948 48.8416C76.4778 50.2155 76.5007 50.2948 76.7002 50.4147C76.7516 50.4446 76.8247 50.4545 76.8826 50.4399C77.0518 50.3942 77.3354 50.0245 78.4956 48.0429C78.4329 48.1665 78.3778 48.2771 78.3308 48.3755C78.1051 48.8501 77.9887 49.1238 78.212 49.2582C78.2661 49.2919 78.3332 49.3004 78.3982 49.2834C78.612 49.2269 79.0443 48.593 80.5167 46.0361C79.0201 48.7765 79.0981 48.8222 79.3119 48.9519C79.366 48.9845 79.431 48.9927 79.4957 48.9774C79.6435 48.9389 79.8872 48.6325 80.5371 47.553C80.0796 48.4729 80.1636 48.5222 80.3114 48.6111C80.3618 48.6421 80.4278 48.6506 80.4843 48.6363C80.662 48.5907 80.8288 48.367 83.7687 43.2787C83.8467 43.1442 83.9236 43.0097 84.004 42.8729C81.9985 46.686 82.0479 46.7159 82.2927 46.8623C82.3434 46.8923 82.4118 46.9022 82.468 46.8875C82.6338 46.8433 82.7287 46.7279 84.4448 43.6919C84.517 43.5656 84.5902 43.4359 84.6658 43.3015C84.4173 43.8169 84.1759 44.3163 83.9921 44.7163C83.5744 45.6218 83.5178 45.7934 83.7218 45.9173C83.7725 45.9473 83.8409 45.9568 83.8971 45.9411C84.0523 45.9003 84.1364 45.8043 85.5342 43.3447C85.4392 43.568 85.3504 43.7784 85.2748 43.9595C85.0069 44.6142 84.9432 44.769 85.1366 44.8868C85.187 44.9168 85.252 44.9253 85.3095 44.9107C85.4321 44.8773 85.4416 44.8749 86.0962 43.7076C86.1599 43.5959 86.227 43.4734 86.2954 43.3519C86.1538 44.1457 86.1647 44.1519 86.3015 44.2346C86.3519 44.2649 86.4145 44.273 86.471 44.2587C86.5766 44.2298 86.5827 44.2203 86.8721 43.7086C86.9538 43.5646 87.0712 43.3542 87.1158 43.2896C87.1291 43.2763 87.1424 43.2606 87.1529 43.2426C87.2155 43.1394 87.1805 43.005 87.0773 42.9413Z" fill="#CFB54B"/>
</svg>
