<svg width="124" height="78" viewBox="0 0 124 78" fill="none" xmlns="http://www.w3.org/2000/svg">
<path d="M61.8734 67.7992L49.9469 59.1343L61.8734 77.7083L73.7988 59.1343L61.8734 67.7992Z" fill="#201E1E"/>
<path d="M69.4124 21.3277L76.1076 11.9929L92.2747 0.0422363L91.6899 8.38402L79.9122 14.0909L71.7733 23.4101L66.6778 33.5449L66.894 34.574L73.2997 28.1093L76.7959 38.8712L61.874 49.7144L46.9498 38.8712L50.446 28.1093L56.8517 34.574L57.0689 33.5449L51.9734 23.4101L43.8335 14.0909L32.0569 8.38402L31.471 0.0422363L47.6381 11.9929L54.3333 21.3277H69.4124Z" fill="#201E1E"/>
<path d="M78.949 11.6814C78.9466 11.6206 78.924 11.58 78.8834 11.5455L78.949 11.6814Z" fill="#FEFEFE"/>
<path d="M72.6305 11.8843C72.5549 11.9156 72.4745 12.0102 72.1416 12.5822L72.6305 11.8843Z" fill="#FEFEFE"/>
<path d="M123.387 17.2828L109.377 2.37042L95.7831 14.016L84.146 20.7558L86.4204 24.6816L98.418 17.7331L109.038 8.63459L118.063 18.2421L111.937 32.8314L100.556 46.5029L89.3423 44.6305L101.646 52.013L115.857 35.214L123.387 17.2828Z" fill="#201E1E"/>
<path d="M0.359146 17.2828L14.3694 2.37042L27.9629 14.016L39.6 20.7558L37.3253 24.6816L25.328 17.7331L14.7081 8.63459L5.68272 18.2421L11.809 32.8314L23.1901 46.5029L34.4034 44.6305L22.0997 52.013L7.88902 35.214L0.359146 17.2828Z" fill="#201E1E"/>
<path d="M85.5734 35.5707C85.5231 35.5408 85.4533 35.5312 85.3968 35.5455C85.3511 35.5588 85.313 35.5745 85.2504 35.6439C85.3563 35.4291 85.4546 35.2249 85.5435 35.0386C86.0657 33.9387 86.1018 33.7981 85.8979 33.6756C85.8471 33.6446 85.7825 33.6361 85.7249 33.6504C85.5867 33.6865 85.5554 33.695 84.2655 35.9537C85.678 33.0751 85.6694 33.0717 85.4427 32.9348C85.392 32.9045 85.326 32.895 85.2684 32.9106C85.1459 32.942 85.0894 32.9563 84.0541 34.7278C84.1382 34.5621 84.2151 34.4048 84.2873 34.2581C84.8095 33.1918 84.8637 33.0475 84.6536 32.9215C84.6019 32.8916 84.5348 32.8817 84.4769 32.8963C84.4337 32.9083 84.3952 32.9239 84.3353 32.99C84.4889 32.6873 84.6308 32.4027 84.7544 32.1505C85.3273 30.9893 85.3644 30.8558 85.1568 30.7309C85.105 30.7009 85.0414 30.6924 84.9848 30.7071C84.8398 30.7442 84.8119 30.7513 83.0768 33.7743C82.9552 33.983 82.8317 34.1992 82.7057 34.4177C82.7271 34.3721 82.7476 34.3278 82.768 34.2846C83.9472 31.7324 83.9472 31.7324 83.7277 31.6004C83.6759 31.5694 83.6088 31.5609 83.55 31.5765C83.4359 31.6065 83.3746 31.6545 82.846 32.5866C83.0117 32.2179 83.168 31.8683 83.2929 31.5799C83.6446 30.767 83.7072 30.6206 83.5067 30.4991C83.455 30.4681 83.3903 30.4596 83.3324 30.4739C83.2592 30.4933 83.2136 30.5052 82.9985 30.8426C83.1067 30.6301 83.2065 30.4306 83.2963 30.2492C83.8237 29.184 83.8826 29.0424 83.6688 28.9151C83.6184 28.8838 83.5523 28.8742 83.4958 28.8899C83.3974 28.9151 83.3518 28.927 82.9147 29.6742C83.0107 29.4761 83.1006 29.2885 83.1837 29.1146C83.7083 28.0085 83.742 27.8812 83.5391 27.7597C83.4887 27.7287 83.4179 27.7188 83.36 27.7345C83.2483 27.7648 83.169 27.8257 82.6887 28.6472C82.7465 28.5198 82.8027 28.3976 82.8534 28.2846C83.2449 27.4128 83.311 27.2446 83.1043 27.1197C83.0526 27.0897 82.9866 27.0802 82.929 27.0958C82.7969 27.1292 82.7057 27.217 81.7641 28.849C82.4654 27.3767 82.4317 27.3563 82.2506 27.247C82.2002 27.217 82.1338 27.2085 82.0763 27.2228C82.014 27.2398 81.9741 27.2507 81.8482 27.4356C82.1123 26.9011 82.3622 26.3908 82.5603 25.9741C83.1081 24.8249 83.1367 24.7214 82.9338 24.6002C82.8834 24.5689 82.816 24.5604 82.7595 24.575C82.6502 24.6036 82.6012 24.6158 81.919 25.7832C81.9803 25.6582 82.0368 25.5381 82.0905 25.425C82.5688 24.4102 82.624 24.2567 82.4163 24.1318C82.3656 24.1018 82.3009 24.0923 82.2444 24.1066C82.1219 24.1389 82.0763 24.1508 80.9641 26.0616C81.0506 25.8839 81.1346 25.7147 81.2106 25.5561C81.824 24.2843 81.8363 24.1712 81.633 24.0501C81.5816 24.0187 81.5132 24.0106 81.4567 24.0249C81.375 24.0466 81.3123 24.0838 81.0808 24.4558C81.9707 22.5968 81.9214 22.5668 81.7256 22.4494C81.6739 22.4181 81.6078 22.4095 81.5503 22.4252C81.4277 22.4575 81.394 22.4661 80.5631 23.9323C80.8129 23.4063 81.0529 22.896 81.2381 22.4926C81.5312 21.8465 81.6415 21.5823 81.6078 21.4393L80.574 22.3629C80.5127 22.4671 80.4466 22.5801 80.3745 22.7074C80.4248 22.6043 80.4742 22.5055 80.5212 22.4095L78.1576 24.5171C78.0807 24.6747 78.0065 24.8259 77.9391 24.9651C77.4036 26.0725 77.3661 26.2131 77.5728 26.3381C77.6231 26.368 77.6892 26.3762 77.7443 26.3619C77.8815 26.3272 77.9125 26.3176 79.2528 23.984C79.0056 24.4885 78.7714 24.9699 78.578 25.376C77.9785 26.6407 77.968 26.7306 78.1695 26.8507C78.2199 26.8821 78.2887 26.8902 78.3438 26.8759C78.4735 26.8422 78.5202 26.8289 79.5663 25.0073C79.3563 25.4492 79.1581 25.8696 79.0008 26.2179C78.5743 27.1595 78.5215 27.3192 78.7258 27.4417C78.7762 27.4717 78.8456 27.4812 78.9035 27.4655C79.0128 27.438 79.0931 27.3767 79.5602 26.5828C79.3753 26.9672 79.2048 27.3215 79.0655 27.6204C78.6764 28.4538 78.5947 28.6281 78.8061 28.7541C78.8565 28.7844 78.9225 28.7939 78.9804 28.7782C79.0475 28.7602 79.0897 28.7493 79.2575 28.4875C78.0759 30.8354 78.0929 30.8449 78.3054 30.9736C78.3557 31.0036 78.4208 31.0131 78.4783 30.9975C78.6189 30.9614 78.6475 30.9542 80.3037 28.0817C80.1045 28.4865 79.9241 28.8599 79.7753 29.1721C79.3729 30.0211 79.2997 30.175 79.5088 30.2999C79.5591 30.3309 79.6238 30.3394 79.6817 30.3251C79.7957 30.2952 79.8342 30.2843 80.6386 28.8912C80.3639 29.4495 80.1008 29.984 79.8941 30.4164C79.3501 31.5609 79.3226 31.663 79.5254 31.7842C79.5758 31.8155 79.6442 31.8237 79.7008 31.8094C79.7763 31.7889 79.8352 31.7566 80.0191 31.4706C79.3753 32.8337 79.4151 32.8579 79.5928 32.9648C79.6443 32.9947 79.7079 33.0032 79.7658 32.9886C79.9088 32.9515 79.9316 32.9454 81.3811 30.4007C81.3869 30.3912 81.393 30.3816 81.3964 30.3718C81.1925 30.8102 81.0015 31.216 80.8538 31.5452C80.5174 32.2897 80.4477 32.4436 80.6509 32.5661C80.7013 32.5961 80.7683 32.6056 80.8262 32.5913C80.9103 32.5685 80.9535 32.5563 81.2259 32.1059C81.0482 32.464 80.8885 32.7942 80.7517 33.0775C80.3312 33.9626 80.2546 34.1212 80.4647 34.2472C80.5164 34.2785 80.5849 34.288 80.6424 34.2727C80.6951 34.2581 80.7408 34.2366 80.832 34.1202C80.736 34.3098 80.6448 34.4899 80.5631 34.6567C79.9915 35.8169 79.9568 35.9346 80.1644 36.0596C80.2162 36.0909 80.2832 36.0991 80.3411 36.0848C80.4827 36.0477 80.5246 36.0368 81.9023 33.6119C80.9498 35.7232 80.9654 35.7318 81.1707 35.8553C81.2211 35.8866 81.2923 35.8962 81.3484 35.8805C81.4458 35.8543 81.5312 35.7808 81.8097 35.3175C81.6837 35.5959 81.5646 35.8591 81.4614 36.0933C81.0328 37.0696 80.9835 37.2174 81.1864 37.3386C81.2368 37.3699 81.3018 37.3781 81.3593 37.3638C81.471 37.3348 81.5227 37.3219 82.3513 35.9047C82.2192 36.1665 82.0957 36.4116 81.9888 36.6301C81.4543 37.712 81.3988 37.8574 81.6102 37.9847C81.662 38.016 81.7294 38.0242 81.7855 38.0099C81.842 37.9942 81.8805 37.9847 81.9888 37.8322C81.8591 38.0878 81.7399 38.3292 81.6344 38.5443C81.1094 39.6157 81.0543 39.7597 81.2657 39.8856C81.3161 39.9169 81.3797 39.9255 81.4373 39.9108C81.5792 39.8737 81.5973 39.8689 83.2916 36.9229C83.3157 36.8821 83.3396 36.8402 83.3637 36.7969C83.0768 37.3866 82.7993 37.9547 82.5818 38.4181C82.0391 39.5724 82.0068 39.6889 82.2107 39.8114C82.2611 39.8414 82.3299 39.8509 82.386 39.8366C82.5157 39.8015 82.6145 39.7079 83.5305 38.1239C83.378 38.4337 83.2388 38.7197 83.1186 38.9672C82.7129 39.8162 82.6288 39.9925 82.8402 40.1198C82.8749 40.1416 82.9171 40.1512 82.958 40.1512C82.9784 40.1512 82.9961 40.1498 83.0155 40.145C83.1547 40.1079 83.1847 40.0994 84.3111 38.0892C84.7711 37.2678 85.3957 36.1556 85.5615 35.9537C85.5976 35.936 85.6276 35.9081 85.648 35.8724C85.7117 35.7689 85.678 35.6334 85.5734 35.5707Z" fill="#CFB54B"/>
<path d="M52.3949 13.5252C52.849 12.2629 52.831 12.2472 52.6614 12.1451C52.61 12.1141 52.5426 12.1042 52.4851 12.1199C52.3877 12.1464 52.3203 12.1931 51.9278 12.8572L52.3949 13.5252Z" fill="#3BB554"/>
<path d="M71.9374 11.9135C71.887 11.8836 71.8172 11.8741 71.7607 11.8883C71.6324 11.9231 71.5592 11.9881 70.8756 13.1973C70.9682 12.9716 71.0557 12.7602 71.1268 12.5787C71.3597 11.9929 71.4281 11.8162 71.2361 11.7011C71.1854 11.6698 71.1159 11.6613 71.0594 11.6759C70.9083 11.7168 70.8276 11.8032 69.7001 13.8244C69.6436 13.9265 69.5833 14.032 69.5248 14.1379C70.064 12.5178 70.0603 12.5141 69.8754 12.4048C69.825 12.3735 69.7553 12.3639 69.6977 12.3796C69.5752 12.4133 69.5101 12.4817 69.0863 13.2514C69.4741 12.2114 69.4502 12.1958 69.2858 12.0974C69.2341 12.0661 69.169 12.0575 69.1115 12.0722C69.0107 12.0984 68.9723 12.1093 68.5001 12.9246C68.6601 12.5716 68.8102 12.2366 68.9324 11.9558C69.3001 11.1149 69.3648 10.9638 69.1609 10.8412C69.1115 10.8112 69.0478 10.8014 68.9903 10.817C68.8507 10.8531 68.8293 10.8592 67.4097 13.3307C67.3736 13.3944 67.3365 13.4591 67.2994 13.5241C68.1004 11.6289 68.0981 11.6276 67.901 11.5088C67.8506 11.4788 67.7845 11.4693 67.7267 11.4849C67.5793 11.5221 67.549 11.5306 65.8989 14.415C65.839 14.5195 65.7777 14.6278 65.7141 14.737C65.9493 14.2087 66.1811 13.6824 66.3554 13.2756C66.6941 12.4756 66.7636 12.3098 66.5631 12.1886C66.5113 12.1586 66.4429 12.1491 66.3854 12.1644C66.2472 12.2019 66.1958 12.2557 65.3934 13.7151C65.3525 13.7906 65.3083 13.87 65.2637 13.9503C65.2674 13.9384 65.2708 13.9275 65.2746 13.9156C65.743 12.3939 65.743 12.3939 65.5639 12.287C65.5135 12.2557 65.4451 12.2475 65.3873 12.2632C65.2575 12.2979 65.2038 12.3472 64.5406 13.5398C64.9815 12.2329 64.9624 12.2209 64.7905 12.1178C64.7401 12.0878 64.6703 12.078 64.6138 12.0926C64.4793 12.1287 64.4061 12.1971 63.568 13.6752C64.3714 11.7886 64.3629 11.7838 64.1661 11.665C64.1154 11.6351 64.0484 11.6252 63.9908 11.6398C63.8598 11.6746 63.777 11.7525 62.9195 13.2538C63.1261 12.8048 63.3219 12.3724 63.4768 12.0194C63.873 11.1173 63.9221 10.9638 63.7216 10.8436C63.6712 10.8123 63.6065 10.8038 63.55 10.8184C63.4107 10.8545 63.3818 10.8626 61.936 13.374C62.1039 13.022 62.2564 12.6979 62.385 12.4215C62.7418 11.6446 62.8259 11.4598 62.6155 11.3335C62.5651 11.3035 62.4991 11.294 62.4426 11.3096C62.2972 11.3467 62.2577 11.3563 60.7204 14.0439C60.8705 13.7283 61.0063 13.4352 61.1217 13.184C61.4724 12.4157 61.5456 12.2557 61.3403 12.1321C61.2899 12.1021 61.2215 12.0926 61.1636 12.1083C61.0182 12.1464 60.957 12.2124 59.9217 14.0643C59.8761 14.1461 59.8295 14.2325 59.7801 14.319C60.3435 12.6856 60.3411 12.6846 60.1573 12.574C60.1069 12.544 60.0395 12.5345 59.982 12.5501C59.839 12.5886 59.7753 12.6523 58.8256 14.3513C59.6518 12.3711 59.6494 12.3687 59.4523 12.2509C59.4005 12.2199 59.3297 12.2114 59.2708 12.2271C59.1616 12.2557 59.0775 12.3363 58.7439 12.9141C59.39 11.3192 59.373 11.3096 59.1905 11.199C59.1401 11.169 59.0751 11.1605 59.0175 11.1748C58.8783 11.2109 58.8531 11.2181 57.4288 13.7042C57.5704 13.4053 57.7025 13.1241 57.8107 12.8865C58.1648 12.1093 58.2322 11.9401 58.0279 11.8175C57.9776 11.7876 57.9101 11.7777 57.854 11.7934C57.7495 11.8209 57.7039 11.8332 57.1599 12.7673C57.2763 12.5249 57.3818 12.3003 57.473 12.1021C57.8213 11.3515 57.903 11.1738 57.7001 11.0512C57.6497 11.0199 57.5837 11.0118 57.5272 11.0261C57.3842 11.0632 57.3399 11.0754 55.7151 13.8914C55.9023 13.488 56.079 13.1037 56.224 12.7758C56.6819 11.7454 56.7119 11.6146 56.5137 11.4955C56.463 11.4645 56.3983 11.456 56.3418 11.4703C56.2135 11.504 56.1736 11.5135 55.0363 13.4819C55.1578 13.2238 55.2729 12.9801 55.374 12.7592C55.8747 11.6674 55.9047 11.5425 55.7018 11.4213C55.6501 11.39 55.584 11.3815 55.5265 11.3961C55.3859 11.4332 55.3042 11.5135 54.257 13.3522C54.4167 12.992 54.5682 12.6499 54.687 12.3687C55.0029 11.6252 55.069 11.4703 54.8708 11.3515C54.8191 11.3202 54.7493 11.312 54.6941 11.3277C54.5525 11.3648 54.4804 11.4342 53.5976 13.0077C53.7297 12.6955 53.8536 12.3976 53.9544 12.1478C54.2485 11.4237 54.3088 11.2735 54.1141 11.1571C54.0637 11.1258 53.9963 11.1163 53.9387 11.1316C53.7876 11.1714 53.6998 11.2698 52.4113 13.5479L52.6911 13.9455C52.7149 13.9023 52.7401 13.8581 52.7653 13.8121C52.7871 13.7763 52.8075 13.7389 52.829 13.7018C52.7881 13.7992 52.7486 13.8904 52.7115 13.9769L53.1823 14.6482C53.2123 14.5941 53.2446 14.5399 53.277 14.481C53.2484 14.5437 53.2218 14.606 53.1953 14.6672L53.648 15.3134C53.696 15.2293 53.7478 15.1404 53.8019 15.0431C53.7525 15.1452 53.7069 15.2415 53.6627 15.3352L54.1079 15.9714C54.3064 15.6306 54.5478 15.2136 54.8419 14.7009C54.8647 14.6601 54.8889 14.6192 54.9117 14.5774C54.8994 14.6026 54.8899 14.6264 54.878 14.6506C54.6305 15.1813 54.3953 15.6868 54.2029 16.1072L54.6067 16.6836C54.8371 16.2958 55.1758 15.7096 55.6909 14.8163C55.5707 15.0672 55.4591 15.3038 55.3617 15.5163C54.927 16.4592 54.878 16.6032 55.0809 16.7244C55.1313 16.7547 55.1973 16.7643 55.2538 16.7486C55.3617 16.7197 55.4039 16.7088 56.0164 15.6511C55.9408 15.8141 55.8686 15.968 55.8039 16.1096C55.4458 16.8987 55.3692 17.0907 55.5755 17.2146C55.6262 17.2446 55.6933 17.2541 55.7498 17.2398C55.8999 17.2 55.9394 17.1905 57.6964 14.1209C57.789 13.9598 57.885 13.792 57.9813 13.6238C57.2208 15.4972 57.233 15.5043 57.4274 15.6208C57.4778 15.6521 57.5466 15.6606 57.6017 15.6449C57.7025 15.6174 57.7542 15.5799 58.0688 15.0264C57.9462 15.3243 57.8298 15.6078 57.7338 15.8502C57.4298 16.6152 57.3661 16.7738 57.5632 16.8926C57.6136 16.9226 57.6834 16.9324 57.741 16.9178C57.8911 16.8769 57.9609 16.799 59.0703 14.8116C59.133 14.6999 59.2 14.5821 59.2661 14.462C58.7088 16.0797 58.7163 16.0844 58.8998 16.1937C58.9515 16.2237 59.0176 16.2332 59.0751 16.2179C59.1401 16.2009 59.1867 16.1794 59.3083 15.9993C59.2313 16.1648 59.1581 16.3224 59.0945 16.4664C58.7054 17.3202 58.6393 17.486 58.8446 17.6095C58.8964 17.6398 58.961 17.648 59.0189 17.6337C59.1581 17.5966 59.199 17.5867 60.6162 15.1105C60.4936 15.3699 60.3782 15.615 60.2798 15.8312C59.869 16.7282 59.8176 16.8807 60.0204 17.0032C60.0708 17.0332 60.1355 17.0427 60.1934 17.0271C60.3387 16.99 60.3687 16.9815 62.0848 13.9949L62.1341 13.9108C61.8638 14.4943 61.5949 15.0829 61.3978 15.5295C61.0305 16.3666 60.9668 16.5277 61.1707 16.6502C61.2215 16.6812 61.2875 16.6897 61.345 16.6741C61.4843 16.638 61.5132 16.6308 62.7741 14.3997C62.785 14.3803 62.797 14.3612 62.8065 14.3408C62.6482 14.7166 62.4953 15.0781 62.3741 15.3794C62.0548 16.1648 62.0021 16.3173 62.1978 16.4341C62.2482 16.465 62.3129 16.4735 62.3707 16.4592C62.5062 16.4218 62.528 16.417 63.5789 14.5484C63.7011 14.3323 63.8346 14.0946 63.968 13.8604C63.9581 13.8856 63.951 13.9108 63.9425 13.936C63.4346 15.4288 63.4346 15.4288 63.6123 15.5367C63.6627 15.567 63.7314 15.5752 63.789 15.5609C63.9248 15.5238 63.969 15.4768 64.7544 14.0586C64.7667 14.0358 64.7796 14.0116 64.7942 13.9878C64.3377 15.473 64.3449 15.4781 64.5216 15.5847C64.5733 15.616 64.6441 15.6255 64.7016 15.6089C64.7724 15.5908 64.83 15.5523 64.9563 15.3651C64.7701 15.7855 64.5937 16.1889 64.4555 16.5144C64.1215 17.2974 64.0531 17.4608 64.2526 17.5809C64.303 17.6109 64.3677 17.6204 64.4255 17.6048C64.5719 17.5677 64.6067 17.5581 66.2798 14.6325C66.3721 14.4705 66.4681 14.3033 66.5644 14.1352C66.4358 14.4429 66.3132 14.7381 66.2124 14.9903C65.9074 15.7495 65.8509 15.9152 66.0443 16.0317C66.0947 16.0616 66.1583 16.0701 66.2148 16.0555C66.3445 16.0221 66.3721 16.016 67.5142 14.0283C66.545 16.1624 66.5583 16.1709 66.7626 16.2935C66.814 16.3248 66.88 16.3329 66.9379 16.3186C67.0734 16.2826 67.1023 16.2754 68.2301 14.2829C67.8084 15.4094 67.8312 15.4216 68.0017 15.5238C68.0535 15.5547 68.1256 15.5646 68.1832 15.5489C68.3248 15.5105 68.416 15.3998 68.9937 14.3418C68.4943 15.8407 68.5025 15.8441 68.6816 15.9523C68.7319 15.9837 68.8004 15.9918 68.8569 15.9775C68.9951 15.9404 69.0502 15.8849 69.9496 14.2771C69.3205 15.7903 69.3433 15.8036 69.5319 15.9176C69.5833 15.9476 69.6507 15.9571 69.7072 15.9415C69.8465 15.9043 69.8969 15.8502 70.8456 14.1474C70.8552 14.1318 70.8627 14.1161 70.8708 14.1018C70.7748 14.3513 70.6931 14.5665 70.6223 14.7513L71.6623 13.2671C72.1318 12.0313 72.1055 12.0143 71.9374 11.9135Z" fill="#CFB54B"/>
<path d="M51.7709 12.6335C51.8706 12.3466 51.8672 12.2349 51.729 12.1532C51.6786 12.1222 51.6136 12.1123 51.5561 12.128C51.5214 12.1365 51.4948 12.145 51.4553 12.1821L51.7709 12.6335Z" fill="#3BB554"/>
<path d="M87.2551 43.3812C87.2708 43.386 87.2854 43.3894 87.3008 43.3907C87.2854 43.3894 87.2708 43.386 87.2551 43.3812ZM87.4366 42.9836C87.3848 42.9536 87.3236 42.9451 87.266 42.9594C87.2289 42.9703 87.2014 42.9798 87.1711 43.0101C87.3069 42.2472 87.295 42.2401 87.1605 42.1584C87.1088 42.1284 87.0427 42.1189 86.9852 42.1345C86.9501 42.1427 86.9239 42.1512 86.8865 42.1836C87.0005 41.9194 87.1064 41.6685 87.1915 41.4595C87.4509 40.8304 87.5135 40.6803 87.3226 40.5662C87.2722 40.5359 87.2061 40.5264 87.1483 40.542C87.0271 40.5744 86.9876 40.5839 86.0844 42.1621C86.274 41.7706 86.4507 41.3996 86.5937 41.0898C87.0066 40.1938 87.0642 40.0256 86.8589 39.902C86.8085 39.8717 86.7363 39.8622 86.6802 39.8779C86.5624 39.9078 86.4279 40.0522 85.9043 40.9335C86.2465 40.2813 86.561 39.6811 86.8146 39.1827C87.5064 37.822 87.5207 37.7257 87.3117 37.5997C87.2613 37.5698 87.1952 37.5599 87.1377 37.5745C87.0366 37.6008 86.9382 37.6814 86.3714 38.6156C87.4356 36.6666 87.3668 36.6244 87.1734 36.508C87.122 36.478 87.0475 36.4685 86.99 36.4828C86.8014 36.5332 86.4831 36.9727 84.9784 39.5933C87.0642 35.8248 87.0104 35.7934 86.7724 35.6505C86.7173 35.6171 86.6499 35.6072 86.5862 35.6242C86.4037 35.6733 86.0603 36.1441 85.0407 37.8857C85.1081 37.756 85.1656 37.6392 85.215 37.5371C85.4094 37.1327 85.55 36.8406 85.3229 36.7037C85.2725 36.6738 85.1969 36.6643 85.1391 36.6785C84.8797 36.747 84.3622 37.5589 80.9706 43.5191C80.9273 43.5926 80.8854 43.6668 80.8436 43.7414C81.0597 43.3414 81.2613 42.9655 81.4356 42.634C82.2604 41.0656 82.2437 40.9853 82.0347 40.859C81.9843 40.829 81.9146 40.8195 81.857 40.8338C81.6528 40.8879 81.3753 41.3094 78.8943 45.6678C78.8582 45.7311 78.8211 45.7948 78.7837 45.8585C80.8446 41.9088 80.817 41.8932 80.5719 41.7465C80.5215 41.7155 80.4494 41.7056 80.3932 41.7213C80.1804 41.7768 79.8744 42.2425 77.3365 46.7088C77.0077 47.2889 76.657 47.9085 76.3145 48.5066C76.3615 48.413 76.4082 48.3204 76.4552 48.2292C76.9055 47.3431 77.3726 46.4266 77.7028 45.7458C78.2805 44.558 78.3203 44.4236 78.1089 44.2962C78.0585 44.2663 77.9874 44.2564 77.9299 44.2721C77.7208 44.3262 77.3954 44.8222 74.6826 49.5803C74.5386 49.8336 74.3908 50.092 74.2417 50.3538C74.2431 50.35 74.2454 50.3477 74.2465 50.3442C76.7915 45.562 76.7806 45.5558 76.5188 45.3975C76.4671 45.3676 76.4 45.3577 76.3421 45.3723C76.1549 45.4214 75.97 45.6641 73.0192 50.7994C72.9185 50.9757 72.814 51.1558 72.7094 51.3373C73.2582 50.3225 73.7699 49.3689 74.1542 48.6305C74.8844 47.2253 74.9001 47.1255 74.6849 46.9972C74.6298 46.9635 74.5648 46.955 74.5011 46.972C74.3319 47.0176 74.1229 47.2794 73.0791 49.1085C73.1646 48.9451 73.2439 48.7902 73.3181 48.6448C74.0303 47.2471 74.046 47.1473 73.8345 47.021C73.7842 46.99 73.7123 46.9815 73.6545 46.9958C73.4649 47.0462 73.2163 47.3982 71.4856 50.4522C71.5493 50.331 71.6105 50.2132 71.6681 50.1015C72.354 48.7626 72.3683 48.6448 72.1569 48.5175C72.1066 48.4876 72.031 48.478 71.9745 48.4923C71.8111 48.5356 71.5687 48.8477 70.5682 50.571C70.5801 50.5482 70.591 50.5267 70.6029 50.5049C70.8504 50.0283 71.0281 49.674 71.1445 49.4217C71.3103 49.0639 71.4196 48.8273 71.2129 48.7024C71.1615 48.6724 71.0931 48.6629 71.0366 48.6785C70.8803 48.718 70.6557 49.0135 69.2854 51.3614C69.4175 51.1068 69.5234 50.8964 69.6051 50.7262C69.7961 50.3248 69.922 50.0597 69.7021 49.9276C69.6517 49.8962 69.5762 49.8867 69.5186 49.902C69.2892 49.9623 68.9685 50.445 66.5641 54.7276C66.336 55.1347 66.097 55.5599 65.8591 55.9837C66.2519 55.2069 66.6434 54.4311 66.9365 53.8292C67.5275 52.6139 67.5632 52.4903 67.3532 52.364C67.298 52.3317 67.2306 52.3221 67.167 52.3388C67.041 52.3725 66.8633 52.5768 66.4439 53.2566C66.8885 52.3582 66.8439 52.2765 66.6734 52.1744C66.623 52.1444 66.5522 52.1349 66.4957 52.1492C66.289 52.2033 66.002 52.6357 63.6483 56.7667C63.5149 56.9986 63.3804 57.2351 63.246 57.4707C63.503 56.9254 63.7491 56.397 63.9425 55.9705C64.399 54.9604 64.4446 54.8249 64.2427 54.7037C64.1923 54.6724 64.1215 54.6639 64.0637 54.6782C63.904 54.7214 63.7528 54.9199 62.6611 56.8532C62.8858 56.3933 63.0972 55.9575 63.2701 55.5861C63.826 54.4035 63.8584 54.2833 63.6541 54.1608C63.6037 54.1294 63.5367 54.1213 63.4802 54.1356C63.3287 54.1751 63.2892 54.186 61.3821 57.515C61.3508 57.5701 61.3171 57.6256 61.2861 57.6818C61.4373 57.3638 61.5779 57.0622 61.6919 56.8113C62.0187 56.0896 62.1076 55.8949 61.8986 55.7689C61.8468 55.7386 61.7797 55.7291 61.7208 55.7448C61.6344 55.7676 61.585 55.7951 61.3593 56.1761C61.9707 54.6952 61.937 54.6734 61.7556 54.5655C61.7052 54.5342 61.6402 54.5257 61.584 54.5403C61.4553 54.574 61.4325 54.5798 60.3408 56.4845C61.2643 54.5042 61.2558 54.4981 61.0543 54.3769C61.0025 54.3456 60.9365 54.3374 60.879 54.3528C60.7421 54.3888 60.7094 54.3974 59.601 56.3609C60.2676 54.6122 60.2591 54.6064 60.0742 54.4957C60.0225 54.4644 59.9554 54.4562 59.8979 54.4705C59.7716 54.5053 59.7069 54.5631 59.0281 55.7614C59.7069 53.9902 59.697 53.9841 59.5098 53.8724C59.4594 53.8425 59.3957 53.8329 59.3392 53.8472C59.2071 53.8823 59.1939 53.8857 58.0759 55.8408C58.0289 55.9225 57.9799 56.0079 57.9305 56.0944C58.6441 54.2605 58.6294 54.252 58.4327 54.1332C58.3809 54.1032 58.3111 54.0934 58.255 54.109C58.1562 54.1356 58.094 54.1751 57.778 54.7191C58.255 53.4425 58.2247 53.4258 58.0531 53.3213C58.0027 53.2913 57.9343 53.2818 57.8778 53.2971C57.7481 53.3322 57.6963 53.3788 56.9784 54.6629C57.6987 52.829 57.6905 52.8243 57.4945 52.7065C57.4441 52.6751 57.378 52.6666 57.3205 52.6823C57.2075 52.7112 57.1704 52.7208 56.5362 53.8282C56.6635 53.5374 56.7826 53.2637 56.882 53.0282C57.1969 52.2813 57.2711 52.1036 57.0696 51.9824C57.0179 51.9511 56.9542 51.9425 56.8967 51.9582C56.7571 51.9929 56.7333 52.0001 55.5033 54.1608C55.488 54.1873 55.4723 54.2149 55.4567 54.2411C56.1341 52.5022 56.1266 52.4974 55.9323 52.381C55.8805 52.3497 55.8134 52.3412 55.7556 52.3568C55.6354 52.3882 55.5745 52.4385 54.9641 53.516C55.0951 53.2059 55.2163 52.9117 55.3174 52.6632C55.5997 51.963 55.6739 51.7744 55.4747 51.6542C55.4243 51.6232 55.3593 51.6147 55.3042 51.629C55.1901 51.6593 55.1625 51.6665 54.4814 52.8481C55.154 51.3012 55.1346 51.2893 54.9488 51.1786C54.897 51.1477 54.831 51.1381 54.7734 51.1534C54.6495 51.1871 54.6158 51.1957 53.809 52.621C54.514 50.8294 54.4984 50.8198 54.305 50.7031C54.2546 50.6731 54.1886 50.6636 54.1307 50.6792C54.0071 50.7116 53.9758 50.7201 53.1867 52.1107C53.983 50.14 53.9782 50.1376 53.7838 50.0198C53.7321 49.9885 53.666 49.9803 53.6085 49.996C53.4822 50.0294 53.4522 50.0368 52.6008 51.5477C53.2494 49.9756 53.23 49.9633 53.0451 49.8517C52.9934 49.8217 52.9239 49.8122 52.866 49.8278C52.7234 49.8663 52.6645 49.9262 51.8359 51.4309C51.826 51.4465 51.8179 51.4622 51.808 51.4779C52.1709 50.1652 52.1661 50.1614 51.9942 50.0597C51.9438 50.0283 51.8778 50.0188 51.8203 50.0345C51.7576 50.0511 51.7205 50.0607 51.6041 50.2326C51.7985 49.8098 51.9823 49.406 52.13 49.0734C52.5191 48.1921 52.578 48.042 52.3762 47.9208C52.3244 47.8894 52.2597 47.8809 52.2032 47.8956C52.0929 47.9242 52.0545 47.9351 51.3842 49.0962C52.1134 47.5497 52.0916 47.5351 51.903 47.4224C51.8526 47.3921 51.7903 47.3839 51.7324 47.3982C51.5932 47.4343 51.5751 47.4391 50.1556 49.9048C50.1498 49.9177 50.1413 49.931 50.1328 49.9443C50.2744 49.6151 50.4031 49.3114 50.5052 49.0615C50.7476 48.4706 50.8112 48.3123 50.6216 48.1968C50.5699 48.1669 50.5004 48.1574 50.4425 48.1727C50.3479 48.1992 50.2829 48.2496 50.0596 48.634C50.75 46.8903 50.7442 46.8865 50.5542 46.7739C50.5038 46.7436 50.4391 46.734 50.3813 46.7497C50.2444 46.7858 50.2192 46.7919 49.1935 48.6183C49.1588 48.6809 49.1227 48.7446 49.087 48.8106C49.6514 47.2386 49.6391 47.2314 49.4557 47.1221C49.4049 47.0908 49.3389 47.0823 49.2827 47.0969C49.1588 47.1293 49.1265 47.1378 48.2931 48.6077C48.4119 48.3327 48.5249 48.0719 48.6162 47.851C48.9031 47.163 48.9716 46.9996 48.7758 46.8818C48.7254 46.8505 48.6618 46.8423 48.6039 46.8566C48.5127 46.8808 48.479 46.8889 48.0936 47.5436C48.3003 47.1221 48.4912 46.733 48.6471 46.4028C49.106 45.4346 49.1564 45.3063 48.9511 45.1824C48.9008 45.1524 48.8371 45.1429 48.7792 45.1585C48.6495 45.1933 48.6352 45.197 47.6551 46.9274C47.6109 47.0067 47.5639 47.0884 47.5173 47.1725C47.9952 45.933 47.9748 45.9211 47.7995 45.8166C47.7491 45.7853 47.6831 45.7771 47.6242 45.7914C47.4955 45.8261 47.4475 45.8717 46.7425 47.1303C47.1894 45.8166 47.1714 45.8071 46.9995 45.7036C46.9491 45.6736 46.8854 45.6641 46.8279 45.6797C46.6982 45.7134 46.6849 45.7168 45.8226 47.2518C45.7903 47.3094 45.7566 47.3682 45.7219 47.4305C46.2502 45.9919 46.2465 45.9895 46.0677 45.8826C46.016 45.8513 45.9452 45.8418 45.8877 45.8585C45.8012 45.8826 45.7399 45.933 45.5956 46.1734C45.951 45.1562 45.9271 45.1405 45.7637 45.0431C45.7134 45.0132 45.6473 45.0037 45.5908 45.0193C45.5224 45.036 45.4815 45.0469 45.3086 45.3134C45.5186 44.875 45.7171 44.4573 45.8744 44.1162C46.2897 43.2202 46.3632 43.0581 46.1542 42.9318C46.1038 42.9019 46.0412 42.8934 45.9837 42.908C45.8454 42.9441 45.8311 42.9475 44.3071 45.5848C44.2039 45.7625 44.098 45.9463 43.9925 46.1311C44.1028 45.866 44.2073 45.6147 44.2928 45.4071C44.5317 44.8137 44.5954 44.654 44.4054 44.54C44.354 44.5087 44.2853 44.5005 44.2277 44.5158C44.1304 44.5424 44.0705 44.5917 43.8182 45.0275C44.2805 43.7257 44.2625 43.7148 44.0871 43.6093C44.0357 43.5793 43.9683 43.5694 43.9108 43.5851C43.792 43.6164 43.7232 43.674 43.0904 44.7814C43.9983 42.7024 43.9925 42.699 43.7883 42.5764C43.7365 42.5451 43.6728 42.5356 43.6153 42.5512C43.5071 42.5788 43.4689 42.5897 42.7976 43.7414C42.9763 43.3689 43.1435 43.0173 43.278 42.7228C43.6837 41.8428 43.7522 41.6733 43.5455 41.5473C43.4941 41.5174 43.4281 41.5075 43.3702 41.5231C43.2347 41.5579 43.1973 41.5688 42.0551 43.5745C42.4827 42.43 42.4575 42.4154 42.287 42.3123C42.2356 42.2809 42.1682 42.2724 42.1093 42.2871C42.0194 42.3123 41.9663 42.3517 41.7549 42.7194C42.2907 41.2842 42.2761 41.2757 42.0936 41.1654C42.0432 41.1354 41.9786 41.1269 41.9207 41.1412C41.7934 41.1749 41.7549 41.1844 40.6308 43.1371C40.7149 42.9536 40.7942 42.7793 40.865 42.6197C41.2361 41.7887 41.3072 41.6086 41.0992 41.4837C41.0488 41.4547 40.9852 41.4452 40.9263 41.4595C40.9144 41.4632 40.9035 41.4656 40.894 41.469C40.8953 41.4656 40.8977 41.4608 40.9001 41.4561C41.2711 40.7245 41.6204 40.0341 41.874 39.5129C42.3026 38.6326 42.3806 38.474 42.1668 38.3466C42.1164 38.3153 42.048 38.3058 41.9928 38.3214C41.9568 38.331 41.9231 38.3442 41.8764 38.3912C42.1287 37.9204 42.3578 37.4881 42.5488 37.1194C43.1877 35.8942 43.2167 35.8006 43.0053 35.6733C42.9549 35.6423 42.8851 35.6324 42.8286 35.6481C42.7217 35.6746 42.622 35.754 42.1045 36.6064C42.3122 36.2271 42.5045 35.8738 42.6751 35.5534C42.9416 35.0551 43.1312 34.6864 43.2551 34.4242C43.4291 34.058 43.5445 33.8156 43.3317 33.6882C43.2814 33.6569 43.2082 33.6474 43.1506 33.6631C43.0951 33.6774 43.039 33.7148 42.944 33.8312C43.2514 33.2811 43.5374 32.7647 43.7835 32.3095C44.1198 31.6876 44.3598 31.2239 44.5161 30.8961C44.7346 30.4348 44.8473 30.1669 44.6288 30.0348C44.5784 30.0048 44.5076 29.9953 44.45 30.0096C44.3622 30.0324 44.2434 30.1468 43.9336 30.621C45.6606 27.5286 45.5523 27.4636 45.3304 27.3291C45.2739 27.2957 45.2065 27.2872 45.1418 27.3039C45.1152 27.3111 45.0863 27.3257 45.0529 27.3519C45.5609 26.4692 45.9728 25.7488 46.303 25.1555L44.0957 23.1861C42.6461 25.7417 41.1425 28.3742 40.1253 30.029C41.0669 28.3116 42.6043 25.6733 44.0742 23.1667L42.7578 21.9922C41.3406 24.5958 41.426 24.6486 41.6398 24.7773C41.6902 24.8072 41.7634 24.8168 41.8209 24.8025C41.8451 24.7953 41.8727 24.7831 41.9026 24.7592C39.567 28.7824 39.6388 28.8256 39.8863 28.9744C39.9414 29.0071 40.0065 29.0166 40.0688 28.9996C40.1266 28.9853 40.2046 28.9206 40.3224 28.7762C38.5593 31.9024 38.6771 31.9732 38.8967 32.1053C38.9556 32.1414 39.0264 32.1499 39.0948 32.1318C39.1813 32.109 39.3086 31.9936 39.4914 31.7631C37.8509 34.6574 37.954 34.7197 38.1688 34.8494C38.2267 34.8831 38.2951 34.8927 38.3636 34.8746C38.4487 34.8518 38.5736 34.7391 38.754 34.5083C36.6233 38.2122 36.7183 38.2697 36.9535 38.4103C37.0114 38.445 37.0798 38.4549 37.1469 38.4368C35.3576 41.5759 35.3719 41.8367 35.617 41.9831C35.6674 42.0144 35.7406 42.0239 35.7971 42.0082C35.9425 41.9711 36.2475 41.5759 37.0318 40.2959C36.8517 40.6261 36.704 40.9046 36.5862 41.1402C36.19 41.9242 36.1069 42.173 36.3316 42.3061C36.3881 42.3398 36.4528 42.3494 36.5188 42.3313C36.6305 42.3027 36.801 42.1189 37.1411 41.6025C37.1193 41.6409 37.0979 41.6794 37.0774 41.7179C36.6247 42.5284 36.3016 43.13 36.0888 43.5551C35.761 44.2098 35.6664 44.4511 35.8873 44.5832C35.9377 44.6132 36.0071 44.6241 36.065 44.6084C36.2703 44.5557 36.6485 44.0045 39.1837 39.6174C38.9917 39.962 38.8126 40.2888 38.6495 40.59C38.3037 41.2314 38.0562 41.708 37.8951 42.0481C37.6732 42.5213 37.5564 42.795 37.7797 42.9294C37.8352 42.9618 37.9013 42.9717 37.966 42.9546C38.0381 42.9356 38.1294 42.8576 38.2723 42.6677C37.1843 44.714 37.2718 44.7671 37.4689 44.8859C37.5203 44.9172 37.5877 44.9267 37.6443 44.9111C37.7811 44.875 37.8904 44.7681 39.0049 42.8443C38.3265 44.1737 38.3517 44.253 38.5474 44.3708C38.5978 44.4018 38.6625 44.4103 38.7203 44.396C38.8272 44.3671 38.8643 44.3575 39.5224 43.2212C39.442 43.386 39.3641 43.5432 39.2919 43.692C38.6914 44.9362 38.6819 45.0469 38.8861 45.1705C38.9365 45.2004 39.0026 45.2089 39.0601 45.1946C39.1214 45.179 39.1608 45.1681 39.28 44.9951C39.1503 45.2712 39.0335 45.5259 38.9365 45.7458C38.6216 46.4447 38.5474 46.6105 38.7489 46.7317C38.7997 46.7616 38.8643 46.7715 38.9208 46.7568C39.0614 46.7197 39.0866 46.7136 40.5709 44.122C40.7462 43.8169 40.9334 43.4905 41.1149 43.1756C40.4882 44.8545 40.494 44.8583 40.6873 44.9747C40.7391 45.006 40.8075 45.0142 40.865 44.9989C40.9515 44.9761 41.0117 44.9328 41.1894 44.6384C40.7918 45.7049 40.8136 45.7182 40.9791 45.8166C41.0298 45.8479 41.0934 45.8574 41.1496 45.8418C41.2303 45.8214 41.2664 45.8105 41.5149 45.3985C41.342 45.7601 41.1799 46.1025 41.0465 46.3919C40.6155 47.3308 40.5661 47.4738 40.7704 47.5963C40.8208 47.6277 40.8854 47.6362 40.9433 47.6215C41.074 47.5868 41.0982 47.5807 42.3111 45.467C41.3961 47.564 41.4223 47.5797 41.6276 47.7022C41.6783 47.7332 41.7443 47.7417 41.7995 47.7274C41.934 47.6913 41.9534 47.6852 42.9559 45.9078C43.0281 45.7819 43.1026 45.6474 43.1806 45.5102C42.6247 47.069 42.6305 47.0728 42.8167 47.1844C42.8684 47.2144 42.9345 47.2242 42.992 47.2086C43.0233 47.2001 43.0471 47.1916 43.0774 47.1677C42.9801 47.4006 42.8899 47.6191 42.8129 47.8054C42.5692 48.4106 42.5045 48.574 42.6955 48.6891C42.7445 48.7194 42.8095 48.7289 42.8671 48.7133C42.9883 48.6819 43.0233 48.6738 44.1018 46.8157C43.906 47.2253 43.7232 47.612 43.5731 47.9388C43.1098 48.9427 43.0628 49.0782 43.2657 49.1997C43.3174 49.2307 43.3811 49.2392 43.4386 49.2249C43.5697 49.1899 43.584 49.1865 44.6182 47.3693C44.6924 47.2396 44.7707 47.1017 44.85 46.9611C44.3935 48.2496 44.4044 48.2557 44.5797 48.3602C44.6311 48.3916 44.7023 48.4011 44.7608 48.3854C44.8283 48.366 44.8834 48.3289 44.9736 48.1968C44.5665 49.3162 44.5954 49.3328 44.7598 49.4326C44.8102 49.4625 44.8786 49.4724 44.9365 49.4578C45.0768 49.4193 45.1452 49.3499 46.1001 47.6515C45.6364 49.0159 45.6426 49.0197 45.8131 49.1228C45.8635 49.1541 45.9309 49.1623 45.9884 49.148C46.0987 49.118 46.1348 49.1085 46.6536 48.1883C46.2441 49.2573 46.2683 49.2716 46.4351 49.3713C46.4854 49.4026 46.5515 49.4111 46.6094 49.3965C46.6478 49.386 46.6764 49.3785 46.722 49.3342C46.53 49.7257 46.35 50.0968 46.1998 50.4127C45.7001 51.4683 45.6497 51.611 45.8587 51.7359C45.9091 51.7662 45.9741 51.7757 46.0317 51.7611C46.1576 51.7277 46.1974 51.7179 47.2711 49.8517C47.1534 50.122 47.0451 50.3752 46.9552 50.589C46.6754 51.2593 46.608 51.418 46.8027 51.5354C46.8531 51.5654 46.9202 51.5752 46.978 51.5606C47.121 51.5221 47.1544 51.5126 48.3877 49.3305C48.4286 49.2597 48.4684 49.1865 48.5103 49.1143C47.9363 50.7116 47.9397 50.714 48.1212 50.8232C48.1729 50.8545 48.24 50.8631 48.2979 50.8484C48.4323 50.8127 48.496 50.7524 49.3474 49.2416C48.6652 50.97 48.688 50.9829 48.879 51.0973C48.9294 51.1283 49.0005 51.1368 49.0567 51.1225C49.0999 51.1102 49.1384 51.0922 49.1877 51.0384C49.0989 51.2484 49.0148 51.4465 48.945 51.6208C48.6723 52.2908 48.5991 52.4709 48.7986 52.59C48.849 52.621 48.9127 52.6309 48.9692 52.6152C49.0819 52.5863 49.1146 52.5778 49.8686 51.2797C49.8301 51.3638 49.793 51.4465 49.7569 51.5259C49.3341 52.4603 49.2875 52.602 49.489 52.7245C49.5408 52.7545 49.6044 52.764 49.662 52.7483C49.7811 52.7174 49.8168 52.7088 50.6311 51.2917C50.4197 51.7505 50.2182 52.1924 50.0609 52.5468C49.697 53.3717 49.6201 53.5436 49.8254 53.6671C49.8771 53.6971 49.9431 53.7066 50.0007 53.6913C50.1317 53.6563 50.1556 53.6505 51.0972 51.9773C51.1704 51.8465 51.2511 51.7049 51.33 51.562C50.9532 52.9298 50.9566 52.9322 51.1309 53.0367C51.1823 53.0666 51.2497 53.0762 51.3062 53.0608C51.3998 53.0367 51.4516 53.002 51.7011 52.5706C51.0887 54.0552 51.1067 54.0658 51.2868 54.174C51.3386 54.205 51.4046 54.2149 51.4621 54.1992C51.5969 54.1645 51.6654 54.0957 52.5287 52.5682C51.7723 54.4454 51.7865 54.4539 51.9809 54.5713C52.0317 54.6016 52.0977 54.6111 52.1539 54.5955C52.2812 54.5631 52.3077 54.556 53.1891 52.9996C52.4265 54.9328 52.4279 54.9328 52.6213 55.0496C52.6727 55.0806 52.7387 55.0901 52.7966 55.0748C52.8997 55.0469 52.9382 55.0374 53.4043 54.2292C53.3225 54.4178 53.248 54.5955 53.1809 54.7541C52.8888 55.4588 52.818 55.626 53.0162 55.7448C53.0669 55.7761 53.1316 55.7846 53.1881 55.77C53.3069 55.7386 53.3334 55.7315 54.1559 54.2976C53.9796 54.7157 53.8148 55.1048 53.6899 55.4156C53.4294 56.0593 53.3682 56.2118 53.5602 56.3272C53.6109 56.3585 53.678 56.3667 53.7358 56.3514C53.8727 56.3153 53.9316 56.2564 54.8167 54.6758C54.1644 56.35 54.1777 56.3572 54.3711 56.4726C54.4214 56.5039 54.4861 56.5134 54.544 56.4978C54.6665 56.4654 54.6965 56.4583 55.5683 54.9318C55.4002 55.3148 55.2439 55.6692 55.1203 55.9623C54.8371 56.6299 54.7612 56.81 54.9569 56.9277C55.0073 56.9591 55.0734 56.9672 55.1312 56.9529C55.2657 56.9168 55.2922 56.9111 56.3717 55.005C55.6354 56.8808 55.6429 56.8855 55.841 57.0047C55.8914 57.0346 55.9598 57.0431 56.0163 57.0285C56.1532 56.9914 56.2107 56.9363 57.0165 55.4939C56.4317 57.0408 56.4354 57.0418 56.6179 57.1524C56.6696 57.1824 56.7343 57.1919 56.7932 57.1763C56.8991 57.1477 56.9266 57.1402 57.3396 56.4028C56.6454 58.1853 56.6516 58.1887 56.846 58.3051C56.8977 58.3364 56.9603 58.3449 57.0179 58.3303C57.1561 58.2945 57.1813 58.2884 58.4218 56.1196C57.7025 57.9977 57.7083 58.0014 57.8992 58.1165C57.95 58.1468 58.0146 58.155 58.0722 58.1407C58.1985 58.107 58.2213 58.1012 58.991 56.7259C58.3111 58.5056 58.3186 58.5094 58.5035 58.621C58.5552 58.651 58.6199 58.6608 58.6774 58.6452C58.7629 58.6224 58.8061 58.6125 59.0907 58.1369C59.0294 58.2704 58.9705 58.3987 58.9164 58.5203C58.4963 59.4666 58.4494 59.6093 58.6512 59.7308C58.7016 59.7621 58.7663 59.7703 58.8242 59.756C58.9671 59.7189 59.0019 59.709 60.5089 57.0755C59.7379 58.9165 59.7403 58.9189 59.935 59.0353C59.9867 59.0666 60.0562 59.0751 60.1127 59.0595C60.126 59.0557 60.1392 59.0523 60.1522 59.0472C59.9901 59.3883 59.839 59.7128 59.7151 59.9854C59.3586 60.7766 59.2817 60.9689 59.4883 61.0925C59.5387 61.1225 59.6058 61.1323 59.6613 61.1177C59.809 61.0782 59.8522 61.0673 61.633 57.9592C60.1597 60.9713 60.1631 60.9737 60.3925 61.1119C60.4443 61.1419 60.5137 61.1514 60.5716 61.1371C60.7551 61.0877 60.9413 60.8188 62.4592 58.1117C61.2235 60.7334 61.2306 60.7371 61.4506 60.8692C61.5009 60.8991 61.567 60.9077 61.6248 60.8934C61.7518 60.8597 61.8444 60.7742 62.7438 59.2253C62.5879 59.5157 62.4436 59.7873 62.3128 60.0334C61.6248 61.3424 61.5765 61.4915 61.7917 61.6212C61.8264 61.6413 61.872 61.6522 61.9152 61.6522C61.9357 61.6522 61.9561 61.6498 61.9741 61.645C62.1893 61.5885 62.4592 61.1827 64.6233 57.3179C64.8443 56.923 65.0761 56.5087 65.3093 56.0968C65.3055 56.1049 65.3008 56.1134 65.297 56.122C64.866 56.971 64.4204 57.8489 64.1045 58.4998C63.5353 59.6658 63.5077 59.7693 63.713 59.8942C63.7685 59.9265 63.8346 59.9361 63.8992 59.9194C63.9847 59.8952 64.0902 59.804 64.3054 59.4918C64.1705 59.7465 64.065 59.9541 63.9857 60.1199C63.8056 60.4944 63.6868 60.7432 63.9006 60.8706C63.951 60.9015 64.0194 60.9114 64.0759 60.8957C64.286 60.8416 64.6522 60.2782 67.7675 54.861L67.7964 54.814C66.0262 58.1022 66.0633 58.125 66.2999 58.2666C66.3503 58.2969 66.4211 58.3065 66.479 58.2922C66.67 58.2414 66.927 57.8717 68.7894 54.586C68.6659 54.8188 68.5518 55.0397 68.4483 55.2403C67.7893 56.523 67.7746 56.636 67.9826 56.7609C68.033 56.7919 68.1099 56.8018 68.1661 56.7861C68.3694 56.733 68.6839 56.284 70.3278 53.3911C70.1981 53.6406 70.0756 53.8772 69.9663 54.0923C69.2603 55.4768 69.246 55.5756 69.456 55.7015C69.5064 55.7328 69.5823 55.7424 69.6398 55.7267C69.7671 55.692 69.9173 55.5347 70.4361 54.6653C69.4982 56.4736 69.5748 56.5196 69.7658 56.6346C69.8162 56.6646 69.8849 56.6745 69.9425 56.6598C70.1454 56.6071 70.4827 56.092 73.2882 51.2123C71.1564 55.2283 71.1939 55.2511 71.4376 55.3979C71.488 55.4288 71.5602 55.4387 71.6177 55.4231C71.841 55.3652 72.2097 54.8045 75.0645 49.7979C75.36 49.2801 75.6722 48.7313 75.9809 48.1931C75.5411 49.0568 75.0958 49.9347 74.7704 50.6037C74.1528 51.8741 74.1409 51.9871 74.3452 52.1097C74.3956 52.1397 74.4688 52.1492 74.5253 52.1349C74.7462 52.076 75.0883 51.5572 77.7198 46.9264C77.7726 46.8314 77.8267 46.7364 77.8808 46.6404C75.7263 50.7657 75.7358 50.7718 75.9881 50.923C76.0385 50.9529 76.1106 50.9625 76.1682 50.9482C76.3193 50.9087 76.5212 50.6574 77.554 48.8838C76.8371 50.2578 76.8599 50.3371 77.0594 50.4569C77.1108 50.4869 77.184 50.4968 77.2419 50.4821C77.4111 50.4365 77.6946 50.0668 78.8548 48.0852C78.7922 48.2088 78.737 48.3194 78.69 48.4178C78.4643 48.8923 78.3479 49.166 78.5712 49.3005C78.6254 49.3342 78.6924 49.3427 78.7574 49.3257C78.9712 49.2692 79.4036 48.6353 80.8759 46.0784C79.3794 48.8188 79.4574 48.8644 79.6712 48.9941C79.7253 49.0268 79.7903 49.035 79.855 49.0197C80.0027 48.9812 80.2465 48.6748 80.8963 47.5953C80.4388 48.5151 80.5229 48.5645 80.6706 48.6534C80.721 48.6843 80.7871 48.6928 80.8436 48.6785C81.0213 48.6329 81.1881 48.4093 84.128 43.3209C84.206 43.1865 84.2829 43.052 84.3632 42.9151C82.3578 46.7283 82.4071 46.7582 82.6519 46.9046C82.7026 46.9345 82.7711 46.9444 82.8272 46.9298C82.993 46.8855 83.088 46.7701 84.8041 43.7342C84.8763 43.6079 84.9494 43.4782 85.025 43.3437C84.7765 43.8591 84.5351 44.3585 84.3513 44.7585C83.9336 45.6641 83.8771 45.8357 84.081 45.9596C84.1317 45.9895 84.2002 45.9991 84.2563 45.9834C84.4116 45.9425 84.4957 45.8465 85.8934 43.387C85.7985 43.6103 85.7096 43.8207 85.634 44.0018C85.3661 44.6564 85.3025 44.8113 85.4958 44.9291C85.5462 44.9591 85.6112 44.9676 85.6688 44.9529C85.7913 44.9196 85.8008 44.9172 86.4555 43.7499C86.5191 43.6382 86.5862 43.5157 86.6546 43.3941C86.513 44.188 86.5239 44.1941 86.6608 44.2768C86.7111 44.3071 86.7738 44.3153 86.8303 44.301C86.9358 44.2721 86.942 44.2625 87.2313 43.7509C87.313 43.6069 87.4305 43.3965 87.4751 43.3318C87.4883 43.3185 87.5016 43.3029 87.5122 43.2848C87.5748 43.1817 87.5397 43.0472 87.4366 42.9836Z" fill="#CFB54B"/>
</svg>

