<svg width="36" height="48" viewBox="0 0 36 48" fill="none" xmlns="http://www.w3.org/2000/svg">
<path d="M17.9998 0C8.25664 0 0.329102 7.92754 0.329102 17.6717C0.329102 20.2133 0.849318 22.64 1.87452 24.885C6.29269 34.5529 14.7635 44.7603 17.2551 47.6581C17.4417 47.8747 17.7139 47.9995 18.0003 47.9995C18.2867 47.9995 18.5588 47.8747 18.7455 47.6581C21.236 44.7608 29.7069 34.5539 34.1265 24.885C35.1522 22.64 35.672 20.2133 35.672 17.6717C35.671 7.92754 27.7434 0 17.9998 0ZM17.9998 26.8504C12.9386 26.8504 8.82058 22.7324 8.82058 17.6712C8.82058 12.6095 12.9386 8.49148 17.9998 8.49148C23.061 8.49148 27.179 12.6095 27.179 17.6712C27.1795 22.7324 23.0615 26.8504 17.9998 26.8504Z" fill="#CF0909"/>
</svg>
