<svg width="187" height="94" viewBox="0 0 187 94" fill="none" xmlns="http://www.w3.org/2000/svg">
<path d="M105.032 32.1389L115.272 18.0443L140 0L139.105 12.5953L121.091 21.2121L108.643 35.2831L100.849 50.5856L101.18 52.1395L110.978 42.3785L116.325 58.6278L93.5018 75L70.675 58.6278L76.0224 42.3785L85.8202 52.1395L86.1524 50.5856L78.3587 35.2831L65.9087 21.2121L47.8961 12.5953L47 0L71.7278 18.0443L81.9681 32.1389H105.032Z" fill="#201E1E"/>
<path d="M120 18C119.964 17.5522 119.619 17.2537 119 17L120 18Z" fill="#FEFEFE"/>
<path d="M110 18C109.845 18.0449 109.681 18.1805 109 19L110 18Z" fill="#FEFEFE"/>
<path d="M187 26.5296L165.578 4L144.793 21.5942L127 31.7766L130.478 37.7077L148.822 27.21L165.06 13.4639L178.86 27.9789L169.493 50.0204L152.09 70.6753L134.945 67.8466L153.758 79L175.487 53.6201L187 26.5296Z" fill="#201E1E"/>
<path d="M0 26.5296L21.4219 4L42.2066 21.5942L60 31.7766L56.5219 37.7077L38.1778 27.21L21.9398 13.4639L8.13985 27.9789L17.5071 50.0204L34.909 70.6753L52.0543 67.8466L33.2418 79L11.5133 53.6201L0 26.5296Z" fill="#201E1E"/>
<path d="M129.332 54.1459C129.255 54.1011 129.149 54.0869 129.063 54.1083C128.994 54.1281 128.936 54.1516 128.841 54.2555C129.002 53.934 129.151 53.6284 129.286 53.3497C130.08 51.7039 130.134 51.4935 129.825 51.3101C129.748 51.2637 129.649 51.251 129.562 51.2724C129.352 51.3264 129.304 51.3391 127.345 54.719C129.491 50.4115 129.478 50.4064 129.133 50.2016C129.056 50.1563 128.956 50.142 128.868 50.1654C128.682 50.2123 128.596 50.2337 127.024 52.8847C127.151 52.6366 127.268 52.4012 127.378 52.1817C128.171 50.5862 128.253 50.3702 127.934 50.1817C127.856 50.1369 127.754 50.1221 127.666 50.1441C127.6 50.1619 127.542 50.1853 127.451 50.2841C127.684 49.8313 127.9 49.4054 128.087 49.0279C128.958 47.2904 129.014 47.0907 128.699 46.9037C128.62 46.8589 128.523 46.8462 128.438 46.8681C128.217 46.9236 128.175 46.9343 125.539 51.4578C125.354 51.7701 125.166 52.0936 124.975 52.4206C125.008 52.3523 125.039 52.2861 125.07 52.2214C126.861 48.4024 126.861 48.4024 126.528 48.2047C126.449 48.1584 126.347 48.1457 126.258 48.1691C126.084 48.2139 125.991 48.2857 125.188 49.6805C125.44 49.1288 125.677 48.6056 125.867 48.1742C126.401 46.9577 126.497 46.7387 126.192 46.5568C126.113 46.5105 126.015 46.4977 125.927 46.5191C125.816 46.5482 125.747 46.566 125.42 47.0708C125.584 46.7529 125.736 46.4544 125.872 46.1829C126.673 44.589 126.763 44.3771 126.438 44.1866C126.362 44.1397 126.261 44.1254 126.175 44.1489C126.026 44.1866 125.957 44.2044 125.293 45.3225C125.438 45.0261 125.575 44.7454 125.701 44.4851C126.498 42.83 126.549 42.6395 126.241 42.4576C126.165 42.4113 126.057 42.3965 125.969 42.4199C125.799 42.4653 125.679 42.5565 124.949 43.7856C125.037 43.5951 125.122 43.4123 125.199 43.2431C125.794 41.9385 125.895 41.6869 125.581 41.4999C125.502 41.4551 125.402 41.4409 125.314 41.4643C125.114 41.5142 124.975 41.6456 123.544 44.0877C124.61 41.8845 124.559 41.854 124.284 41.6905C124.207 41.6456 124.106 41.6329 124.019 41.6543C123.924 41.6798 123.864 41.6961 123.672 41.9727C124.074 41.1729 124.453 40.4093 124.754 39.7858C125.586 38.066 125.63 37.9112 125.322 37.7298C125.245 37.683 125.143 37.6702 125.057 37.6921C124.891 37.7349 124.816 37.7533 123.78 39.5C123.873 39.3131 123.959 39.1332 124.04 38.9641C124.767 37.4456 124.851 37.2158 124.535 37.0289C124.458 36.9841 124.36 36.9698 124.274 36.9912C124.088 37.0396 124.019 37.0574 122.329 39.9167C122.46 39.6508 122.588 39.3976 122.704 39.1602C123.635 37.2571 123.654 37.088 123.345 36.9066C123.267 36.8598 123.163 36.8475 123.077 36.8689C122.953 36.9015 122.858 36.9571 122.506 37.5138C123.858 34.732 123.783 34.6872 123.486 34.5114C123.407 34.4645 123.307 34.4518 123.22 34.4752C123.033 34.5236 122.982 34.5364 121.72 36.7304C122.099 35.9433 122.464 35.1797 122.745 34.5761C123.191 33.6092 123.358 33.214 123.307 33L121.736 34.382C121.643 34.5379 121.543 34.707 121.433 34.8975C121.51 34.7432 121.585 34.5955 121.656 34.4518L118.065 37.6055C117.949 37.8414 117.836 38.0676 117.733 38.2759C116.92 39.933 116.863 40.1434 117.177 40.3304C117.253 40.3752 117.354 40.3874 117.438 40.366C117.646 40.314 117.693 40.2998 119.729 36.8078C119.354 37.5627 118.998 38.283 118.704 38.8908C117.793 40.7832 117.777 40.9177 118.084 41.0975C118.16 41.1444 118.265 41.1566 118.348 41.1352C118.545 41.0848 118.616 41.0649 120.206 38.3391C119.886 39.0003 119.585 39.6294 119.346 40.1505C118.698 41.5595 118.618 41.7985 118.929 41.9818C119.005 42.0267 119.111 42.0409 119.199 42.0175C119.365 41.9762 119.487 41.8845 120.196 40.6966C119.915 41.2717 119.656 41.802 119.445 42.2493C118.854 43.4963 118.729 43.7571 119.051 43.9456C119.127 43.9909 119.228 44.0052 119.315 43.9818C119.417 43.9548 119.481 43.9385 119.736 43.5467C117.941 47.0601 117.967 47.0744 118.29 47.2669C118.366 47.3118 118.465 47.326 118.553 47.3026C118.766 47.2486 118.81 47.2379 121.326 42.9395C121.023 43.5452 120.749 44.104 120.523 44.5712C119.912 45.8416 119.801 46.0719 120.118 46.2588C120.195 46.3052 120.293 46.3179 120.381 46.2965C120.554 46.2517 120.613 46.2354 121.835 44.1509C121.417 44.9863 121.017 45.7861 120.704 46.433C119.877 48.1457 119.835 48.2985 120.143 48.4798C120.22 48.5267 120.324 48.5389 120.41 48.5175C120.525 48.487 120.614 48.4386 120.893 48.0107C119.915 50.0503 119.976 50.0865 120.246 50.2464C120.324 50.2913 120.421 50.304 120.509 50.2821C120.726 50.2266 120.76 50.2174 122.963 46.4096C122.971 46.3953 122.981 46.3811 122.986 46.3663C122.676 47.0224 122.386 47.6296 122.162 48.1222C121.651 49.2363 121.545 49.4665 121.853 49.6499C121.93 49.6948 122.032 49.709 122.12 49.6876C122.247 49.6535 122.313 49.6352 122.727 48.9612C122.457 49.4971 122.214 49.9912 122.006 50.4151C121.368 51.7395 121.251 51.9769 121.57 52.1654C121.649 52.2122 121.753 52.2265 121.84 52.2036C121.921 52.1817 121.99 52.1496 122.128 51.9754C121.983 52.2591 121.844 52.5286 121.72 52.7782C120.851 54.5142 120.799 54.6905 121.114 54.8775C121.193 54.9243 121.295 54.9365 121.383 54.9151C121.598 54.8596 121.661 54.8433 123.754 51.2148C122.307 54.3742 122.331 54.3869 122.643 54.5718C122.72 54.6187 122.828 54.6329 122.913 54.6095C123.061 54.5703 123.191 54.4602 123.614 53.7669C123.422 54.1836 123.241 54.5774 123.085 54.9279C122.434 56.3889 122.359 56.6099 122.667 56.7913C122.743 56.8382 122.842 56.8504 122.93 56.829C123.099 56.7857 123.178 56.7663 124.437 54.6457C124.236 55.0374 124.048 55.4042 123.886 55.7312C123.074 57.3501 122.99 57.5676 123.311 57.7581C123.389 57.805 123.492 57.8172 123.577 57.7958C123.663 57.7724 123.721 57.7581 123.886 57.5299C123.689 57.9125 123.508 58.2737 123.347 58.5956C122.55 60.1987 122.466 60.4142 122.787 60.6027C122.864 60.6495 122.961 60.6623 123.048 60.6404C123.264 60.5848 123.291 60.5777 125.865 56.1693C125.902 56.1082 125.938 56.0455 125.975 55.9808C125.539 56.8631 125.117 57.7133 124.787 58.4066C123.962 60.134 123.913 60.3082 124.223 60.4916C124.3 60.5364 124.404 60.5507 124.489 60.5293C124.686 60.4768 124.836 60.3368 126.228 57.9665C125.996 58.43 125.785 58.858 125.602 59.2283C124.986 60.4987 124.858 60.7626 125.179 60.9531C125.232 60.9857 125.296 61 125.358 61C125.389 61 125.416 60.998 125.446 60.9908C125.657 60.9353 125.703 60.9226 127.414 57.9145C128.113 56.6853 129.062 55.0211 129.314 54.719C129.368 54.6925 129.414 54.6508 129.445 54.5973C129.542 54.4424 129.491 54.2397 129.332 54.1459Z" fill="#CFB54B"/>
<path d="M79.107 20C80.1833 18.2128 80.1406 18.1906 79.7388 18.0461C79.6169 18.0022 79.4572 17.9882 79.3208 18.0104C79.0901 18.048 78.9303 18.114 78 19.0544L79.107 20Z" fill="#3BB554"/>
<path d="M108.83 17.7776C108.753 17.7294 108.647 17.714 108.56 17.737C108.364 17.793 108.253 17.8977 107.208 19.8449C107.35 19.4814 107.483 19.141 107.592 18.8488C107.948 17.9053 108.052 17.6208 107.759 17.4355C107.682 17.3851 107.575 17.3714 107.489 17.395C107.258 17.4608 107.135 17.6 105.412 20.8547C105.326 21.0191 105.234 21.1891 105.145 21.3595C105.968 18.7507 105.963 18.7446 105.68 18.5687C105.603 18.5182 105.497 18.5029 105.409 18.5281C105.222 18.5824 105.122 18.6926 104.475 19.932C105.067 18.2573 105.031 18.2321 104.78 18.0736C104.7 18.0232 104.601 18.0095 104.513 18.0331C104.359 18.0753 104.301 18.0928 103.579 19.4058C103.824 18.8373 104.053 18.2979 104.24 17.8456C104.801 16.4915 104.9 16.2481 104.589 16.0508C104.513 16.0025 104.416 15.9866 104.328 16.0119C104.115 16.07 104.082 16.0798 101.913 20.0598C101.858 20.1623 101.802 20.2664 101.745 20.3711C102.969 17.3193 102.965 17.3171 102.664 17.1258C102.587 17.0776 102.486 17.0622 102.398 17.0874C102.172 17.1472 102.126 17.1609 99.6053 21.8058C99.5138 21.9741 99.4202 22.1484 99.3229 22.3244C99.6823 21.4736 100.036 20.6261 100.303 19.971C100.82 18.6827 100.926 18.4157 100.62 18.2206C100.541 18.1723 100.436 18.157 100.348 18.1816C100.137 18.2419 100.059 18.3286 98.833 20.6787C98.7706 20.8004 98.703 20.9281 98.6349 21.0575C98.6406 21.0383 98.6458 21.0208 98.6515 21.0016C99.3671 18.5511 99.3671 18.5511 99.0935 18.379C99.0166 18.3286 98.912 18.3154 98.8236 18.3406C98.6255 18.3965 98.5433 18.476 97.5302 20.3964C98.2037 18.2918 98.1746 18.2726 97.9119 18.1065C97.835 18.0583 97.7284 18.0424 97.642 18.066C97.4366 18.1241 97.3248 18.2343 96.0444 20.6145C97.2717 17.5764 97.2587 17.5687 96.9581 17.3774C96.8806 17.3292 96.7782 17.3133 96.6903 17.3369C96.4901 17.3928 96.3637 17.5183 95.0536 19.9359C95.3693 19.2128 95.6683 18.5166 95.905 17.9481C96.5103 16.4954 96.5852 16.2481 96.2789 16.0546C96.2019 16.0042 96.1031 15.9905 96.0168 16.0141C95.8041 16.0722 95.7599 16.0853 93.5511 20.1294C93.8075 19.5625 94.0405 19.0407 94.2371 18.5955C94.7821 17.3445 94.9106 17.0469 94.5892 16.8435C94.5122 16.7952 94.4113 16.7799 94.325 16.8051C94.1029 16.8649 94.0426 16.8802 91.6939 21.2082C91.9233 20.7001 92.1308 20.2281 92.3071 19.8235C92.8428 18.5862 92.9546 18.3286 92.641 18.1296C92.564 18.0813 92.4595 18.066 92.3711 18.0912C92.149 18.1526 92.0554 18.2589 90.4739 21.2411C90.4042 21.3727 90.3329 21.5119 90.2575 21.6512C91.1182 19.0209 91.1146 19.0193 90.8338 18.8411C90.7568 18.7929 90.6538 18.7775 90.5659 18.8027C90.3475 18.8647 90.2502 18.9672 88.7992 21.7033C90.0614 18.5144 90.0578 18.5106 89.7567 18.3209C89.6776 18.271 89.5695 18.2573 89.4795 18.2825C89.3125 18.3286 89.1841 18.4585 88.6744 19.3888C89.6615 16.8205 89.6355 16.8051 89.3567 16.6269C89.2798 16.5787 89.1804 16.565 89.0925 16.588C88.8798 16.6461 88.8413 16.6576 86.6654 20.6611C86.8817 20.1798 87.0835 19.727 87.2489 19.3444C87.7898 18.0928 87.8927 17.8204 87.5807 17.623C87.5037 17.5748 87.4007 17.5589 87.3149 17.5841C87.1553 17.6285 87.0856 17.6482 86.2545 19.1525C86.4324 18.7622 86.5936 18.4004 86.733 18.0813C87.265 16.8725 87.3898 16.5864 87.0799 16.389C87.0029 16.3386 86.902 16.3254 86.8157 16.3485C86.5972 16.4082 86.5296 16.4279 84.0473 20.9626C84.3333 20.313 84.6033 19.6941 84.8248 19.1662C85.5243 17.5068 85.5701 17.2963 85.2674 17.1044C85.1899 17.0545 85.0911 17.0408 85.0048 17.0639C84.8087 17.1181 84.7478 17.1335 83.0103 20.3032C83.1959 19.8876 83.3717 19.4951 83.5262 19.1393C84.2912 17.3813 84.337 17.1801 84.027 16.9849C83.948 16.9345 83.8471 16.9208 83.7592 16.9444C83.5444 17.0041 83.4196 17.1335 81.8198 20.0943C82.0638 19.5143 82.2952 18.9634 82.4767 18.5106C82.9593 17.3133 83.0602 17.0639 82.7575 16.8725C82.6785 16.8221 82.5719 16.8089 82.4876 16.8342C82.2713 16.8939 82.161 17.0057 80.8124 19.5395C81.0142 19.0368 81.2035 18.5572 81.3575 18.1548C81.8068 16.9888 81.8989 16.747 81.6014 16.5595C81.5244 16.5091 81.4215 16.4937 81.3336 16.5184C81.1027 16.5825 80.9685 16.741 79 20.4095L79.4275 21.0498C79.4639 20.9802 79.5024 20.9089 79.5409 20.8349C79.5742 20.7774 79.6054 20.7171 79.6381 20.6573C79.5757 20.8141 79.5154 20.961 79.4587 21.1002L80.178 22.1813C80.2237 22.0941 80.2731 22.007 80.3225 21.9121C80.2789 22.013 80.2383 22.1133 80.1977 22.212L80.8894 23.2525C80.9627 23.1171 81.0418 22.974 81.1245 22.8172C81.0491 22.9817 80.9794 23.1368 80.9118 23.2876L81.592 24.3121C81.8952 23.7634 82.264 23.0919 82.7133 22.2663C82.7482 22.2005 82.7851 22.1347 82.8199 22.0673C82.8012 22.1078 82.7867 22.1462 82.7685 22.1851C82.3904 23.0398 82.031 23.8538 81.7371 24.5309L82.354 25.459C82.706 24.8346 83.2235 23.8906 84.0104 22.4521C83.8268 22.8561 83.6562 23.2371 83.5075 23.5792C82.8433 25.0977 82.7684 25.3296 83.0784 25.5248C83.1554 25.5735 83.2563 25.5889 83.3426 25.5637C83.5075 25.5171 83.572 25.4995 84.5076 23.7963C84.3921 24.0589 84.2819 24.3067 84.183 24.5347C83.6359 25.8054 83.5189 26.1146 83.8341 26.3142C83.9116 26.3624 84.014 26.3778 84.1004 26.3547C84.3297 26.2906 84.39 26.2752 87.0741 21.3321C87.2156 21.0728 87.3623 20.8026 87.5094 20.5318C86.3476 23.5485 86.3663 23.56 86.6633 23.7475C86.7402 23.7979 86.8453 23.8116 86.9296 23.7864C87.0835 23.742 87.1625 23.6817 87.6431 22.7903C87.4559 23.27 87.278 23.7267 87.1313 24.117C86.6669 25.3488 86.5697 25.6042 86.8708 25.7956C86.9478 25.8438 87.0544 25.8597 87.1423 25.8361C87.3716 25.7703 87.4782 25.6448 89.1731 22.4444C89.2688 22.2646 89.3713 22.0749 89.4722 21.8814C88.6208 24.4865 88.6323 24.4941 88.9126 24.6701C88.9916 24.7184 89.0925 24.7337 89.1804 24.709C89.2798 24.6816 89.351 24.6471 89.5367 24.3571C89.4191 24.6235 89.3073 24.8773 89.2101 25.1092C88.6156 26.4841 88.5147 26.7511 88.8283 26.9501C88.9074 26.9989 89.0062 27.012 89.0946 26.989C89.3073 26.9292 89.3697 26.9133 91.5348 22.9257C91.3476 23.3435 91.1713 23.7382 91.021 24.0863C90.3932 25.5308 90.3147 25.7764 90.6247 25.9737C90.7017 26.022 90.8005 26.0373 90.8889 26.0121C91.1109 25.9523 91.1567 25.9386 93.7784 21.1293L93.8538 20.9939C93.4409 21.9335 93.03 22.8813 92.7289 23.6006C92.1677 24.9486 92.0705 25.2079 92.382 25.4052C92.4595 25.4551 92.5604 25.4688 92.6483 25.4436C92.861 25.3855 92.9052 25.374 94.8316 21.7811C94.8482 21.7499 94.8664 21.7192 94.881 21.6863C94.6391 22.2915 94.4056 22.8737 94.2205 23.3588C93.7326 24.6235 93.652 24.8691 93.9511 25.0571C94.028 25.107 94.1268 25.1207 94.2153 25.0977C94.4222 25.0374 94.4555 25.0297 96.061 22.0207C96.2477 21.6726 96.4516 21.2899 96.6555 20.9128C96.6404 20.9533 96.6294 20.9939 96.6164 21.0345C95.8405 23.4383 95.8405 23.4383 96.112 23.6121C96.1889 23.6609 96.294 23.674 96.3819 23.651C96.5894 23.5913 96.657 23.5156 97.8568 21.2318C97.8755 21.1951 97.8953 21.1562 97.9177 21.1178C97.2203 23.5096 97.2312 23.5178 97.5011 23.6894C97.5801 23.7398 97.6883 23.7552 97.7762 23.7283C97.8844 23.6993 97.9723 23.6373 98.1652 23.3358C97.8807 24.0128 97.6113 24.6624 97.4002 25.1865C96.89 26.4474 96.7855 26.7105 97.0902 26.904C97.1672 26.9523 97.266 26.9676 97.3544 26.9424C97.5781 26.8826 97.6311 26.8673 100.187 22.1561C100.328 21.8951 100.475 21.626 100.622 21.3552C100.425 21.8507 100.238 22.326 100.084 22.7322C99.6183 23.9547 99.532 24.2217 99.8274 24.4092C99.9044 24.4574 100.002 24.4711 100.088 24.4475C100.286 24.3938 100.328 24.384 102.073 21.183C100.592 24.6197 100.613 24.6334 100.925 24.8307C101.003 24.8812 101.104 24.8943 101.193 24.8713C101.4 24.8132 101.444 24.8017 103.167 21.5931C102.522 23.4071 102.557 23.4268 102.818 23.5913C102.897 23.6411 103.007 23.657 103.095 23.6318C103.311 23.5699 103.451 23.3917 104.333 21.6879C103.57 24.1016 103.583 24.1071 103.856 24.2814C103.933 24.3319 104.038 24.345 104.124 24.322C104.335 24.2623 104.42 24.1729 105.794 21.5838C104.833 24.0205 104.867 24.0419 105.156 24.2255C105.234 24.2738 105.337 24.2891 105.423 24.2639C105.636 24.2041 105.713 24.117 107.162 21.3749C107.177 21.3497 107.188 21.3245 107.201 21.3014C107.054 21.7033 106.93 22.0497 106.821 22.3474L108.41 19.9572C109.127 17.9673 109.087 17.9399 108.83 17.7776Z" fill="#CFB54B"/>
<path d="M132.557 65.8978C132.581 65.9052 132.604 65.9104 132.627 65.9125C132.604 65.9104 132.581 65.9052 132.557 65.8978ZM132.836 65.2863C132.756 65.2402 132.662 65.2271 132.574 65.2491C132.517 65.2658 132.474 65.2805 132.428 65.3271C132.637 64.1537 132.618 64.1427 132.412 64.0171C132.332 63.971 132.23 63.9563 132.142 63.9804C132.088 63.993 132.048 64.0061 131.99 64.0558C132.166 63.6495 132.328 63.2636 132.459 62.9421C132.858 61.9745 132.954 61.7436 132.661 61.5682C132.583 61.5216 132.482 61.5069 132.393 61.531C132.206 61.5807 132.146 61.5954 130.757 64.0228C131.049 63.4207 131.32 62.8499 131.54 62.3735C132.175 60.9954 132.263 60.7367 131.948 60.5466C131.87 60.5 131.759 60.4854 131.673 60.5095C131.492 60.5555 131.285 60.7775 130.481 62.1331C131.006 61.1299 131.49 60.2068 131.88 59.4403C132.943 57.3474 132.965 57.1992 132.644 57.0055C132.566 56.9594 132.465 56.9443 132.376 56.9668C132.221 57.0071 132.07 57.1312 131.199 58.5679C132.834 55.5703 132.729 55.5054 132.431 55.3263C132.352 55.2803 132.238 55.2656 132.149 55.2876C131.859 55.3651 131.37 56.041 129.057 60.0717C132.263 54.2755 132.181 54.2273 131.815 54.0074C131.73 53.9561 131.627 53.9409 131.529 53.9671C131.248 54.0425 130.72 54.7666 129.153 57.4453C129.257 57.2459 129.345 57.0663 129.421 56.9092C129.72 56.2871 129.936 55.8379 129.587 55.6274C129.509 55.5813 129.393 55.5667 129.304 55.5887C128.905 55.6939 128.11 56.9427 122.896 66.1099C122.83 66.223 122.766 66.3371 122.701 66.4518C123.034 65.8366 123.343 65.2585 123.611 64.7485C124.879 62.3363 124.854 62.2127 124.532 62.0185C124.455 61.9724 124.348 61.9577 124.259 61.9797C123.945 62.063 123.519 62.7112 119.705 69.4149C119.649 69.5122 119.592 69.6102 119.535 69.7081C122.703 63.6333 122.66 63.6092 122.284 63.3835C122.206 63.3359 122.095 63.3207 122.009 63.3448C121.682 63.4301 121.211 64.1464 117.31 71.016C116.805 71.9082 116.266 72.8612 115.739 73.7812C115.812 73.6372 115.883 73.4947 115.955 73.3544C116.648 71.9915 117.366 70.582 117.873 69.5348C118.761 67.7079 118.823 67.5011 118.498 67.3053C118.42 67.2592 118.311 67.244 118.222 67.2681C117.901 67.3513 117.401 68.1142 113.231 75.4326C113.009 75.8222 112.782 76.2196 112.553 76.6222C112.555 76.6165 112.559 76.6128 112.56 76.6076C116.473 69.252 116.456 69.2426 116.053 68.9991C115.974 68.953 115.871 68.9379 115.782 68.9604C115.494 69.0358 115.21 69.4091 110.674 77.3076C110.519 77.5788 110.358 77.8558 110.198 78.1349C111.041 76.574 111.828 75.1074 112.419 73.9718C113.541 71.8103 113.565 71.6569 113.234 71.4595C113.15 71.4077 113.05 71.3946 112.952 71.4208C112.692 71.4909 112.37 71.8936 110.766 74.7069C110.897 74.4556 111.019 74.2173 111.133 73.9937C112.228 71.8438 112.252 71.6904 111.927 71.4962C111.85 71.4485 111.739 71.4354 111.65 71.4574C111.359 71.5349 110.977 72.0763 108.316 76.7735C108.414 76.5871 108.508 76.406 108.597 76.2342C109.651 74.1749 109.673 73.9937 109.348 73.7979C109.271 73.7518 109.155 73.7372 109.068 73.7592C108.817 73.8257 108.444 74.3058 106.906 76.9563C106.924 76.9212 106.941 76.8882 106.96 76.8547C107.34 76.1217 107.613 75.5766 107.792 75.1886C108.047 74.6383 108.215 74.2744 107.897 74.0822C107.818 74.0362 107.713 74.0215 107.626 74.0456C107.386 74.1063 107.041 74.5608 104.934 78.1721C105.137 77.7804 105.3 77.4568 105.426 77.195C105.719 76.5777 105.913 76.1698 105.575 75.9667C105.497 75.9185 105.381 75.9038 105.293 75.9274C104.94 76.0201 104.447 76.7625 100.751 83.3494C100.401 83.9757 100.033 84.6296 99.6674 85.2815C100.271 84.0867 100.873 82.8934 101.324 81.9677C102.232 80.0984 102.287 79.9083 101.964 79.7141C101.879 79.6643 101.776 79.6497 101.678 79.6753C101.484 79.7272 101.211 80.0413 100.566 81.087C101.25 79.7052 101.181 79.5795 100.919 79.4224C100.842 79.3764 100.733 79.3617 100.646 79.3837C100.328 79.4669 99.8872 80.1319 96.2692 86.4858C96.064 86.8424 95.8573 87.2063 95.6506 87.5686C96.0457 86.7298 96.4241 85.9172 96.7213 85.2611C97.423 83.7076 97.4931 83.4992 97.1828 83.3128C97.1054 83.2646 96.9965 83.2515 96.9076 83.2735C96.6622 83.34 96.4298 83.6453 94.7516 86.6188C95.097 85.9114 95.4219 85.2412 95.6878 84.67C96.5423 82.851 96.592 82.6661 96.2781 82.4776C96.2006 82.4295 96.0975 82.4169 96.0107 82.4389C95.7778 82.4996 95.7171 82.5164 92.7856 87.6367C92.7375 87.7215 92.6856 87.8069 92.638 87.8932C92.8704 87.4042 93.0865 86.9403 93.2618 86.5544C93.7641 85.4444 93.9007 85.1449 93.5794 84.9511C93.4999 84.9045 93.3968 84.8899 93.3063 84.914C93.1734 84.949 93.0975 84.9915 92.7505 85.5774C93.6904 83.2997 93.6386 83.2662 93.3596 83.1002C93.2822 83.052 93.1822 83.0389 93.0959 83.0615C92.8981 83.1133 92.863 83.1222 91.1848 86.0517C92.6045 83.006 92.5914 82.9965 92.2817 82.8101C92.2021 82.762 92.1006 82.7494 92.0122 82.773C91.8018 82.8285 91.7516 82.8415 90.0477 85.8617C91.0723 83.1719 91.0592 83.163 90.7751 82.9929C90.6955 82.9447 90.5925 82.9321 90.504 82.9541C90.3099 83.0075 90.2105 83.0965 89.167 84.9396C90.2105 82.2153 90.1953 82.2059 89.9075 82.0342C89.83 81.9881 89.7322 81.9734 89.6453 81.9954C89.4423 82.0493 89.4219 82.0546 87.7034 85.0616C87.6311 85.1873 87.5558 85.3187 87.4799 85.4517C88.5767 82.6311 88.5542 82.618 88.2518 82.4352C88.1722 82.3892 88.065 82.374 87.9786 82.3981C87.8269 82.4389 87.7311 82.4996 87.2455 83.3363C87.9786 81.3728 87.932 81.3472 87.6683 81.1864C87.5909 81.1404 87.4857 81.1257 87.3988 81.1493C87.1994 81.2032 87.1199 81.2749 86.0163 83.25C87.1235 80.4293 87.111 80.422 86.8096 80.2408C86.7321 80.1926 86.6306 80.1796 86.5422 80.2036C86.3684 80.2482 86.3114 80.2628 85.3365 81.9661C85.5322 81.5189 85.7154 81.098 85.8682 80.7356C86.3522 79.5868 86.4663 79.3135 86.1565 79.1271C86.077 79.0789 85.9791 79.0659 85.8907 79.0899C85.6761 79.1434 85.6395 79.1543 83.7488 82.4776C83.7253 82.5185 83.7012 82.5609 83.6771 82.6012C84.7185 79.9267 84.707 79.9193 84.4082 79.7403C84.3286 79.6921 84.2255 79.679 84.1366 79.7031C83.9519 79.7513 83.8582 79.8287 82.9199 81.4859C83.1214 81.0089 83.3077 80.5565 83.4631 80.1743C83.8969 79.0973 84.011 78.8072 83.7049 78.6224C83.6274 78.5747 83.5275 78.5616 83.4427 78.5836C83.2674 78.6302 83.225 78.6412 82.1779 80.4586C83.2119 78.0794 83.1821 78.0611 82.8964 77.8909C82.8168 77.8433 82.7153 77.8286 82.6269 77.8522C82.4364 77.904 82.3846 77.9171 81.1444 80.1094C82.2281 77.3537 82.2041 77.339 81.9068 77.1594C81.8294 77.1134 81.7279 77.0987 81.6389 77.1228C81.4489 77.1725 81.4008 77.1856 80.1878 79.3245C81.4118 76.2934 81.4045 76.2897 81.1057 76.1086C81.0261 76.0604 80.9246 76.0478 80.8362 76.0719C80.642 76.1232 80.596 76.1347 79.2872 78.4585C80.2841 76.0405 80.2543 76.0216 79.9701 75.8499C79.8906 75.8038 79.7838 75.7892 79.6949 75.8133C79.4756 75.8724 79.3851 75.9646 78.1114 78.2789C78.0962 78.303 78.0836 78.3271 78.0685 78.3511C78.6263 76.3321 78.619 76.3264 78.3547 76.1698C78.2773 76.1217 78.1757 76.107 78.0873 76.1311C77.991 76.1567 77.934 76.1714 77.755 76.4358C78.0538 75.7855 78.3364 75.1645 78.5635 74.653C79.1616 73.2974 79.2522 73.0664 78.9418 72.88C78.8623 72.8319 78.7629 72.8188 78.676 72.8413C78.5065 72.8853 78.4473 72.902 77.417 74.688C78.5379 72.3093 78.5044 72.2868 78.2145 72.1135C78.137 72.0669 78.0412 72.0543 77.9523 72.0763C77.7383 72.1318 77.7105 72.1391 75.5284 75.9316C75.5195 75.9515 75.5064 75.9719 75.4933 75.9923C75.711 75.486 75.9088 75.019 76.0658 74.6346C76.4384 73.7257 76.5363 73.4822 76.2448 73.3047C76.1652 73.2586 76.0585 73.2439 75.9695 73.2675C75.8241 73.3083 75.7241 73.3858 75.3808 73.977C76.4421 71.2951 76.4332 71.2893 76.1412 71.116C76.0637 71.0694 75.9643 71.0548 75.8753 71.0789C75.665 71.1344 75.6263 71.1438 74.0496 73.9529C73.9962 74.0492 73.9407 74.1472 73.8858 74.2487C74.7534 71.8307 74.7346 71.8197 74.4525 71.6517C74.3745 71.6035 74.273 71.5904 74.1867 71.6129C73.9962 71.6627 73.9465 71.6758 72.6654 73.9367C72.8481 73.5136 73.0218 73.1125 73.1621 72.7727C73.6032 71.7145 73.7084 71.4632 73.4075 71.282C73.33 71.2338 73.2322 71.2213 73.1432 71.2433C73.003 71.2804 72.9512 71.293 72.3588 72.2999C72.6764 71.6517 72.97 71.0532 73.2097 70.5453C73.9151 69.0562 73.9925 68.8588 73.677 68.6682C73.5995 68.6221 73.5017 68.6075 73.4127 68.6315C73.2133 68.685 73.1914 68.6907 71.6848 71.3522C71.6168 71.4742 71.5446 71.5998 71.4729 71.7292C72.2076 69.8227 72.1762 69.8044 71.9067 69.6437C71.8292 69.5955 71.7277 69.5829 71.6372 69.6049C71.4394 69.6583 71.3656 69.7285 70.2818 71.6642C70.9689 69.6437 70.9412 69.629 70.6769 69.4698C70.5995 69.4238 70.5016 69.4091 70.4132 69.4332C70.2138 69.485 70.1934 69.4903 68.8679 71.8512C68.8182 71.9397 68.7664 72.0302 68.713 72.1261C69.5252 69.9133 69.5194 69.9097 69.2447 69.7452C69.1651 69.6971 69.0563 69.6824 68.9679 69.7081C68.8349 69.7452 68.7407 69.8227 68.5189 70.1924C69.0652 68.6279 69.0286 68.6038 68.7774 68.454C68.6999 68.408 68.5984 68.3933 68.5115 68.4174C68.4064 68.443 68.3436 68.4598 68.0777 68.8698C68.4006 68.1954 68.7057 67.5529 68.9474 67.0283C69.5859 65.6502 69.6989 65.4009 69.3776 65.2067C69.3001 65.1606 69.2039 65.1475 69.1154 65.17C68.903 65.2255 68.881 65.2308 66.5382 69.2871C66.3796 69.5604 66.2169 69.8432 66.0547 70.1275C66.2242 69.7196 66.3849 69.3332 66.5162 69.0138C66.8836 68.1011 66.9814 67.8556 66.6894 67.6802C66.6104 67.632 66.5047 67.6194 66.4163 67.643C66.2666 67.6838 66.1745 67.7598 65.7867 68.43C66.4974 66.4277 66.4697 66.411 66.2002 66.2486C66.1211 66.2026 66.0175 66.1874 65.9291 66.2115C65.7465 66.2596 65.6407 66.3481 64.6679 68.0514C66.0636 64.8538 66.0547 64.8485 65.7407 64.66C65.6612 64.6119 65.5633 64.5972 65.4749 64.6213C65.3085 64.6637 65.2499 64.6805 64.2179 66.4518C64.4926 65.879 64.7496 65.3381 64.9563 64.8852C65.58 63.5317 65.6852 63.2709 65.3676 63.0772C65.2886 63.0311 65.1871 63.0159 65.0981 63.04C64.8898 63.0934 64.8323 63.1102 63.0766 66.1952C63.7339 64.4349 63.6951 64.4124 63.433 64.2537C63.354 64.2056 63.2503 64.1925 63.1598 64.215C63.0217 64.2537 62.94 64.3145 62.6151 64.8799C63.4387 62.6724 63.4162 62.6594 63.1357 62.4897C63.0583 62.4436 62.9589 62.4305 62.8699 62.4525C62.6742 62.5044 62.6151 62.519 60.8871 65.5224C61.0164 65.2402 61.1383 64.9721 61.2472 64.7265C61.8176 63.4484 61.9269 63.1714 61.6072 62.9793C61.5298 62.9348 61.4319 62.9201 61.3414 62.9421C61.323 62.9479 61.3063 62.9515 61.2917 62.9568C61.2937 62.9515 61.2974 62.9442 61.3011 62.9369C61.8715 61.8116 62.4084 60.7498 62.7982 59.9482C63.457 58.5941 63.5769 58.3501 63.2482 58.1543C63.1708 58.1061 63.0656 58.0915 62.9808 58.1155C62.9254 58.1302 62.8736 58.1506 62.8019 58.2229C63.1896 57.4987 63.5418 56.8338 63.8354 56.2667C64.8176 54.3823 64.8621 54.2383 64.5371 54.0425C64.4597 53.9948 64.3524 53.9796 64.2655 54.0037C64.1012 54.0446 63.9479 54.1666 63.1525 55.4777C63.4717 54.8944 63.7674 54.3509 64.0295 53.8582C64.4393 53.0916 64.7307 52.5245 64.9212 52.1214C65.1886 51.558 65.366 51.1852 65.039 50.9893C64.9615 50.9412 64.849 50.9265 64.7606 50.9506C64.6753 50.9726 64.5889 51.0302 64.4429 51.2093C64.9155 50.3631 65.355 49.5688 65.7334 48.8688C66.2504 47.9121 66.6193 47.199 66.8595 46.6948C67.1955 45.9853 67.3687 45.5732 67.0327 45.3701C66.9553 45.324 66.8464 45.3093 66.758 45.3313C66.623 45.3664 66.4403 45.5423 65.9641 46.2717C68.6188 41.5153 68.4524 41.4153 68.1112 41.2085C68.0244 41.1572 67.9207 41.1441 67.8213 41.1697C67.7805 41.1807 67.736 41.2032 67.6847 41.2436C68.4655 39.8859 69.0987 38.7779 69.6063 37.8653L66.2132 34.8363C63.985 38.7669 61.6737 42.8159 60.1101 45.3612C61.5575 42.7196 63.9207 38.6617 66.1803 34.8064L64.1567 33C61.9782 37.0045 62.1096 37.0857 62.4382 37.2836C62.5156 37.3297 62.6281 37.3443 62.7166 37.3223C62.7537 37.3113 62.7961 37.2925 62.8422 37.2558C59.2519 43.4437 59.3623 43.5102 59.7427 43.739C59.8275 43.7893 59.9274 43.804 60.0232 43.7778C60.1121 43.7558 60.232 43.6563 60.413 43.4343C57.7029 48.2425 57.884 48.3514 58.2215 48.5546C58.312 48.6101 58.4209 48.6232 58.526 48.5954C58.659 48.5604 58.8547 48.3829 59.1357 48.0284C56.6139 52.48 56.7725 52.5759 57.1027 52.7753C57.1916 52.8272 57.2968 52.8418 57.402 52.8141C57.5328 52.779 57.7249 52.6057 58.0022 52.2507C54.7269 57.9475 54.8729 58.036 55.2345 58.2522C55.3235 58.3056 55.4287 58.3208 55.5317 58.293C52.7813 63.1212 52.8033 63.5223 53.1801 63.7474C53.2575 63.7956 53.37 63.8102 53.4569 63.7861C53.6803 63.7291 54.1492 63.1212 55.3549 61.1524C55.0781 61.6603 54.8509 62.0886 54.6699 62.451C54.0608 63.6568 53.9331 64.0396 54.2785 64.2443C54.3653 64.2961 54.4648 64.3108 54.5663 64.283C54.7379 64.2391 55.0001 63.9563 55.5229 63.162C55.4894 63.2212 55.4564 63.2803 55.425 63.3395C54.729 64.5862 54.2324 65.5114 53.9054 66.1654C53.4014 67.1723 53.2559 67.5435 53.5956 67.7467C53.673 67.7927 53.7798 67.8095 53.8687 67.7854C54.1843 67.7043 54.7656 66.8565 58.6626 60.1089C58.3675 60.6388 58.0922 61.1414 57.8416 61.6048C57.3099 62.5913 56.9295 63.3243 56.682 63.8474C56.3408 64.5752 56.1613 64.9962 56.5046 65.203C56.5899 65.2528 56.6914 65.2679 56.7908 65.2418C56.9017 65.2124 57.042 65.0925 57.2618 64.8004C55.5893 67.9477 55.7238 68.0294 56.0268 68.2121C56.1058 68.2603 56.2094 68.275 56.2963 68.2509C56.5066 68.1954 56.6746 68.031 58.3879 65.0721C57.345 67.1168 57.3837 67.2388 57.6846 67.4199C57.762 67.4676 57.8615 67.4807 57.9504 67.4587C58.1147 67.4142 58.1718 67.3995 59.1833 65.6517C59.0598 65.9052 58.94 66.1471 58.829 66.3759C57.9059 68.2896 57.8913 68.4598 58.2053 68.6499C58.2827 68.6959 58.3842 68.709 58.4727 68.687C58.5669 68.663 58.6276 68.6462 58.8107 68.3802C58.6113 68.8049 58.4318 69.1965 58.2827 69.5348C57.7987 70.6097 57.6846 70.8647 57.9944 71.0511C58.0723 71.0972 58.1718 71.1124 58.2586 71.0899C58.4748 71.0328 58.5135 71.0234 60.795 67.0372C61.0645 66.568 61.3524 66.0659 61.6313 65.5816C60.6679 68.164 60.6768 68.1697 60.974 68.3488C61.0535 68.397 61.1587 68.4095 61.2472 68.386C61.3801 68.3509 61.4727 68.2844 61.7459 67.8315C61.1347 69.4719 61.1682 69.4923 61.4225 69.6437C61.5004 69.6918 61.5983 69.7065 61.6846 69.6824C61.8087 69.651 61.8641 69.6342 62.2461 69.0007C61.9803 69.5567 61.7312 70.0835 61.5261 70.5286C60.8636 71.9726 60.7877 72.1926 61.1017 72.3811C61.1791 72.4292 61.2786 72.4423 61.3675 72.4198C61.5685 72.3664 61.6056 72.357 63.4701 69.1059C62.0635 72.3313 62.1038 72.3554 62.4194 72.5439C62.4973 72.5915 62.5988 72.6046 62.6836 72.5826C62.8903 72.5271 62.9201 72.5177 64.4612 69.784C64.5722 69.5903 64.6868 69.3834 64.8066 69.1724C63.9521 71.57 63.961 71.5758 64.2472 71.7475C64.3268 71.7936 64.4283 71.8088 64.5167 71.7847C64.5649 71.7716 64.6015 71.7585 64.6481 71.7218C64.4984 72.08 64.3597 72.4161 64.2415 72.7025C63.8668 73.6335 63.7674 73.8848 64.0609 74.0618C64.1363 74.1084 64.2362 74.1231 64.3247 74.099C64.511 74.0508 64.5649 74.0382 66.2227 71.1804C65.9218 71.8103 65.6407 72.4051 65.41 72.9078C64.6978 74.4519 64.6256 74.6603 64.9374 74.8472C65.017 74.8949 65.1148 74.9079 65.2033 74.886C65.4047 74.832 65.4267 74.8268 67.0165 72.0318C67.1306 71.8323 67.2509 71.6203 67.3729 71.404C66.6711 73.3858 66.6879 73.3953 66.9574 73.556C67.0364 73.6042 67.1457 73.6188 67.2357 73.5948C67.3394 73.5649 67.4241 73.5078 67.5628 73.3047C66.9369 75.0263 66.9814 75.0519 67.2342 75.2054C67.3116 75.2514 67.4168 75.2666 67.5058 75.2441C67.7214 75.1849 67.8265 75.0781 69.2944 72.4659C68.5817 74.5645 68.5911 74.5702 68.8533 74.7289C68.9307 74.777 69.0343 74.7896 69.1228 74.7676C69.2923 74.7215 69.3478 74.7069 70.1453 73.2916C69.5157 74.9357 69.5529 74.9577 69.8093 75.1111C69.8868 75.1593 69.9883 75.1724 70.0772 75.1499C70.1364 75.1336 70.1803 75.1221 70.2504 75.054C69.9553 75.6562 69.6785 76.2269 69.4477 76.7128C68.6795 78.3365 68.6021 78.5559 68.9234 78.748C69.0008 78.7946 69.1008 78.8093 69.1892 78.7868C69.3828 78.7355 69.444 78.7203 71.0945 75.8499C70.9135 76.2656 70.7471 76.6552 70.6089 76.984C70.1788 78.015 70.0751 78.259 70.3745 78.4396C70.4519 78.4857 70.555 78.5009 70.644 78.4784C70.8637 78.4192 70.915 78.4046 72.8109 75.0483C72.8737 74.9394 72.9349 74.8268 72.9993 74.7158C72.117 77.1725 72.1223 77.1762 72.4012 77.3443C72.4807 77.3924 72.5838 77.4055 72.6728 77.383C72.8795 77.328 72.9773 77.2354 74.2861 74.9116C73.2374 77.5699 73.2725 77.5898 73.566 77.7658C73.6435 77.8134 73.7529 77.8265 73.8392 77.8045C73.9057 77.7857 73.9648 77.7579 74.0407 77.6752C73.9041 77.9982 73.7748 78.303 73.6676 78.5711C73.2484 79.6015 73.1359 79.8785 73.4425 80.0617C73.52 80.1094 73.6178 80.1246 73.7047 80.1005C73.8779 80.056 73.9282 80.0429 75.0873 78.0464C75.0281 78.1757 74.9711 78.303 74.9156 78.425C74.2657 79.8623 74.194 80.0801 74.5038 80.2686C74.5833 80.3147 74.6812 80.3293 74.7696 80.3052C74.9528 80.2576 75.0077 80.2445 76.2594 78.0647C75.9345 78.7705 75.6247 79.4502 75.3829 79.9953C74.8235 81.2639 74.7053 81.5284 75.0208 81.7184C75.1003 81.7645 75.2019 81.7792 75.2903 81.7556C75.4918 81.7017 75.5284 81.6928 76.9758 79.1193C77.0883 78.9182 77.2124 78.7004 77.3338 78.4805C76.7545 80.5843 76.7597 80.588 77.0276 80.7487C77.1066 80.7948 77.2103 80.8095 77.2971 80.7859C77.441 80.7487 77.5206 80.6953 77.9041 80.0319C76.9627 82.3153 76.9905 82.3316 77.2673 82.4981C77.3468 82.5457 77.4484 82.5609 77.5368 82.5368C77.744 82.4834 77.8492 82.3776 79.1763 80.0282C78.0135 82.9154 78.0355 82.9285 78.3343 83.1091C78.4123 83.1557 78.5138 83.1704 78.6001 83.1463C78.7958 83.0965 78.8367 83.0855 80.1915 80.6916C79.0193 83.6652 79.0214 83.6652 79.3186 83.8448C79.3976 83.8924 79.4991 83.9071 79.5881 83.8835C79.7467 83.8406 79.8058 83.8259 80.5222 82.5829C80.3966 82.873 80.282 83.1463 80.1789 83.3903C79.7299 84.4741 79.6211 84.7312 79.9256 84.914C80.0036 84.9621 80.103 84.9752 80.1899 84.9527C80.3725 84.9045 80.4133 84.8935 81.6776 82.6881C81.4066 83.3311 81.1533 83.9296 80.9612 84.4076C80.5609 85.3978 80.4667 85.6323 80.7619 85.8098C80.8398 85.858 80.9429 85.8706 81.0319 85.847C81.2422 85.7915 81.3328 85.7009 82.6933 83.2698C81.6907 85.8449 81.7111 85.8559 82.0083 86.0334C82.0858 86.0816 82.1852 86.0962 82.2742 86.0722C82.4626 86.0224 82.5086 86.0114 83.8488 83.6636C83.5903 84.2526 83.3501 84.7977 83.1601 85.2485C82.7247 86.2753 82.608 86.5523 82.9089 86.7335C82.9864 86.7816 83.0879 86.7942 83.1769 86.7722C83.3836 86.7167 83.4244 86.7078 85.0837 83.7762C83.9519 86.6612 83.9634 86.6685 84.2679 86.8518C84.3454 86.8979 84.4506 86.911 84.5374 86.8885C84.7478 86.8314 84.8362 86.7466 86.0749 84.5281C85.1758 86.9073 85.1816 86.9089 85.4621 87.079C85.5416 87.1251 85.6411 87.1398 85.7316 87.1157C85.8943 87.0717 85.9367 87.0602 86.5715 85.9261C85.5045 88.6676 85.5139 88.6729 85.8127 88.852C85.8922 88.9001 85.9885 88.9132 86.077 88.8907C86.2894 88.8357 86.3281 88.8263 88.235 85.4904C87.1293 88.3791 87.1382 88.3849 87.4318 88.5619C87.5097 88.6085 87.6092 88.621 87.6976 88.5991C87.8917 88.5472 87.9268 88.5383 89.11 86.423C88.065 89.1604 88.0765 89.1661 88.3606 89.3379C88.4402 89.3839 88.5396 89.3991 88.628 89.375C88.7594 89.34 88.8258 89.3248 89.2633 88.5933C89.1691 88.7985 89.0786 88.9959 88.9954 89.1829C88.3496 90.6385 88.2774 90.8579 88.5877 91.0448C88.6652 91.093 88.7646 91.1055 88.8536 91.0835C89.0733 91.0265 89.1267 91.0113 91.4433 86.9607C90.2581 89.7923 90.2617 89.796 90.5611 89.9751C90.6406 90.0232 90.7474 90.0363 90.8342 90.0123C90.8546 90.0065 90.875 90.0013 90.8949 89.9934C90.6458 90.5181 90.4135 91.017 90.223 91.4365C89.6751 92.6533 89.5569 92.9491 89.8745 93.1392C89.952 93.1853 90.055 93.2005 90.1403 93.1779C90.3675 93.1172 90.4339 93.1005 93.1713 88.32C90.9064 92.9528 90.9117 92.9565 91.2644 93.169C91.3439 93.2151 91.4507 93.2298 91.5396 93.2078C91.8217 93.1319 92.1079 92.7182 94.4413 88.5546C92.5417 92.5868 92.5527 92.5926 92.8908 92.7957C92.9682 92.8418 93.0697 92.8549 93.1587 92.8329C93.3539 92.7811 93.4962 92.6496 94.8788 90.2673C94.6391 90.7139 94.4172 91.1317 94.2163 91.5103C93.1587 93.5235 93.0844 93.7529 93.4151 93.9524C93.4685 93.9832 93.5386 94 93.6051 94C93.6365 94 93.6679 93.9963 93.6956 93.989C94.0263 93.9021 94.4413 93.278 97.7679 87.3335C98.1075 86.7261 98.4639 86.0889 98.8223 85.4554C98.8166 85.4679 98.8092 85.481 98.8035 85.4941C98.141 86.8 97.456 88.1503 96.9704 89.1515C96.0954 90.9448 96.053 91.104 96.3686 91.2961C96.4539 91.3459 96.5554 91.3605 96.6548 91.3349C96.7862 91.2977 96.9484 91.1574 97.2791 90.6772C97.0719 91.0689 96.9097 91.3883 96.7877 91.6433C96.5109 92.2192 96.3283 92.602 96.6569 92.7978C96.7344 92.8455 96.8396 92.8606 96.9264 92.8366C97.2493 92.7533 97.8124 91.8867 102.601 83.5547L102.646 83.4824C99.9244 88.5399 99.9814 88.575 100.345 88.7928C100.423 88.8394 100.531 88.8541 100.62 88.8321C100.914 88.754 101.309 88.1854 104.172 83.1316C103.982 83.4898 103.807 83.8296 103.648 84.138C102.635 86.1109 102.612 86.2847 102.932 86.4769C103.009 86.5246 103.127 86.5397 103.214 86.5156C103.526 86.434 104.01 85.7433 106.537 81.2938C106.337 81.6776 106.149 82.0415 105.981 82.3724C104.896 84.5019 104.874 84.6537 105.197 84.8475C105.274 84.8956 105.391 84.9103 105.479 84.8862C105.675 84.8328 105.906 84.5909 106.703 83.2536C105.261 86.035 105.379 86.1057 105.673 86.2826C105.75 86.3287 105.856 86.3439 105.944 86.3214C106.256 86.2402 106.775 85.448 111.087 77.9427C107.81 84.1197 107.868 84.1547 108.243 84.3804C108.32 84.4281 108.431 84.4432 108.519 84.4192C108.863 84.3301 109.429 83.4678 113.818 75.7672C114.272 74.9708 114.752 74.1267 115.227 73.2989C114.55 74.6273 113.866 75.9777 113.366 77.0065C112.416 78.9606 112.398 79.1345 112.712 79.3229C112.79 79.369 112.902 79.3837 112.989 79.3617C113.329 79.2711 113.854 78.4731 117.9 71.3506C117.981 71.2045 118.064 71.0584 118.147 70.9108C114.835 77.2558 114.85 77.2652 115.238 77.4977C115.315 77.5438 115.426 77.5584 115.514 77.5364C115.747 77.4757 116.057 77.0893 117.645 74.3613C116.543 76.4746 116.578 76.5966 116.884 76.7809C116.963 76.8269 117.076 76.8421 117.165 76.8196C117.425 76.7495 117.861 76.1808 119.644 73.1329C119.548 73.323 119.463 73.4932 119.391 73.6445C119.044 74.3744 118.865 74.7954 119.208 75.0022C119.291 75.054 119.395 75.0671 119.495 75.0409C119.823 74.954 120.488 73.9791 122.751 70.0463C120.451 74.2613 120.57 74.3315 120.899 74.531C120.982 74.5812 121.082 74.5938 121.182 74.5702C121.409 74.5111 121.783 74.0398 122.782 72.3795C122.079 73.7943 122.208 73.8702 122.435 74.0068C122.513 74.0545 122.614 74.0676 122.701 74.0456C122.974 73.9754 123.231 73.6314 127.75 65.8052C127.87 65.5983 127.988 65.3915 128.112 65.181C125.029 71.0459 125.105 71.0919 125.481 71.3171C125.559 71.3632 125.664 71.3784 125.751 71.3558C126.005 71.2878 126.151 71.1103 128.789 66.4408C128.9 66.2465 129.013 66.0471 129.129 65.8402C128.747 66.633 128.376 67.4011 128.093 68.0163C127.451 69.4091 127.364 69.673 127.678 69.8636C127.756 69.9097 127.861 69.9243 127.947 69.9002C128.186 69.8374 128.315 69.6897 130.464 65.9067C130.318 66.2502 130.181 66.5738 130.065 66.8524C129.653 67.8592 129.555 68.0975 129.853 68.2786C129.93 68.3247 130.03 68.3378 130.118 68.3153C130.307 68.264 130.321 68.2603 131.328 66.4649C131.426 66.2931 131.529 66.1046 131.634 65.9177C131.416 67.1388 131.433 67.1482 131.643 67.2754C131.721 67.322 131.817 67.3346 131.904 67.3126C132.066 67.2681 132.076 67.2534 132.52 66.4665C132.646 66.245 132.826 65.9214 132.895 65.8219C132.915 65.8015 132.936 65.7774 132.952 65.7496C133.048 65.591 132.994 65.3842 132.836 65.2863Z" fill="#CFB54B"/>
</svg>

